%TF.GenerationSoftware,KiCad,Pcbnew,7.0.6*%
%TF.CreationDate,2024-10-30T10:36:51-05:00*%
%TF.ProjectId,AcCCS,41634343-532e-46b6-9963-61645f706362,rev?*%
%TF.SameCoordinates,Original*%
%TF.FileFunction,Soldermask,Bot*%
%TF.FilePolarity,Negative*%
%FSLAX46Y46*%
G04 Gerber Fmt 4.6, Leading zero omitted, Abs format (unit mm)*
G04 Created by KiCad (PCBNEW 7.0.6) date 2024-10-30 10:36:51*
%MOMM*%
%LPD*%
G01*
G04 APERTURE LIST*
%ADD10C,3.000000*%
%ADD11C,2.500000*%
%ADD12C,1.600000*%
%ADD13O,1.600000X1.600000*%
%ADD14R,1.800000X1.800000*%
%ADD15C,1.800000*%
%ADD16C,5.600000*%
%ADD17C,2.000000*%
%ADD18R,1.600000X1.600000*%
%ADD19R,2.600000X2.600000*%
%ADD20C,2.600000*%
%ADD21R,1.905000X2.000000*%
%ADD22O,1.905000X2.000000*%
%ADD23R,1.700000X1.700000*%
%ADD24O,1.700000X1.700000*%
%ADD25R,2.200000X2.200000*%
%ADD26O,2.200000X2.200000*%
%ADD27C,1.440000*%
%ADD28R,1.500000X1.050000*%
%ADD29O,1.500000X1.050000*%
G04 APERTURE END LIST*
D10*
%TO.C,K5*%
X121240000Y-128355900D03*
D11*
X123190000Y-134405900D03*
D10*
X135390000Y-134405900D03*
X135440000Y-122355900D03*
D11*
X123190000Y-122405900D03*
%TD*%
D12*
%TO.C,R30*%
X168275000Y-100180900D03*
D13*
X160655000Y-100180900D03*
%TD*%
D12*
%TO.C,R9*%
X190695000Y-58865900D03*
D13*
X198315000Y-58865900D03*
%TD*%
D14*
%TO.C,D15*%
X143510000Y-100815900D03*
D15*
X143510000Y-98275900D03*
%TD*%
D16*
%TO.C,M2*%
X222885000Y-18900900D03*
%TD*%
D17*
%TO.C,C2*%
X192005000Y-69025900D03*
X197005000Y-69025900D03*
%TD*%
D18*
%TO.C,U8*%
X149225000Y-121765900D03*
D13*
X149225000Y-124305900D03*
X156845000Y-124305900D03*
X156845000Y-121765900D03*
%TD*%
D19*
%TO.C,J1*%
X65405000Y-121135900D03*
D20*
X65405000Y-126135900D03*
X65405000Y-131135900D03*
X65405000Y-136135900D03*
%TD*%
D17*
%TO.C,C1*%
X180575000Y-69025900D03*
X185575000Y-69025900D03*
%TD*%
D18*
%TO.C,D19*%
X101800000Y-67005900D03*
D13*
X94180000Y-67005900D03*
%TD*%
D14*
%TO.C,D14*%
X143510000Y-77920900D03*
D15*
X143510000Y-75380900D03*
%TD*%
D12*
%TO.C,R4*%
X179265000Y-41085900D03*
D13*
X186885000Y-41085900D03*
%TD*%
D17*
%TO.C,C3*%
X203435000Y-33465900D03*
X208435000Y-33465900D03*
%TD*%
D12*
%TO.C,R10*%
X67945000Y-112880900D03*
D13*
X75565000Y-112880900D03*
%TD*%
D18*
%TO.C,U2*%
X214200000Y-48715900D03*
D13*
X214200000Y-51255900D03*
X214200000Y-53795900D03*
X214200000Y-56335900D03*
X221820000Y-56335900D03*
X221820000Y-53795900D03*
X221820000Y-51255900D03*
X221820000Y-48715900D03*
%TD*%
D12*
%TO.C,R24*%
X168275000Y-87445900D03*
D13*
X160655000Y-87445900D03*
%TD*%
D12*
%TO.C,R3*%
X190695000Y-32195900D03*
D13*
X198315000Y-32195900D03*
%TD*%
D12*
%TO.C,R16*%
X178635000Y-83905900D03*
D13*
X186255000Y-83905900D03*
%TD*%
D21*
%TO.C,Q8*%
X83385000Y-77475900D03*
D22*
X85925000Y-77475900D03*
X88465000Y-77475900D03*
%TD*%
D18*
%TO.C,D22*%
X94180000Y-37795900D03*
D13*
X101800000Y-37795900D03*
%TD*%
D18*
%TO.C,D24*%
X94180000Y-107320900D03*
D13*
X101800000Y-107320900D03*
%TD*%
D18*
%TO.C,U6*%
X149225000Y-76015900D03*
D13*
X149225000Y-78555900D03*
X156845000Y-78555900D03*
X156845000Y-76015900D03*
%TD*%
D23*
%TO.C,J8*%
X209750000Y-99780900D03*
D24*
X209750000Y-102320900D03*
%TD*%
D25*
%TO.C,D11*%
X143510000Y-127485900D03*
D26*
X143510000Y-135105900D03*
%TD*%
D18*
%TO.C,U5*%
X149225000Y-53190900D03*
D13*
X149225000Y-55730900D03*
X156845000Y-55730900D03*
X156845000Y-53190900D03*
%TD*%
D23*
%TO.C,J6*%
X218059000Y-26035000D03*
%TD*%
D12*
%TO.C,R29*%
X168275000Y-77320900D03*
D13*
X160655000Y-77320900D03*
%TD*%
D14*
%TO.C,D3*%
X61595000Y-82400900D03*
D15*
X64135000Y-82400900D03*
%TD*%
D27*
%TO.C,RV1*%
X203085000Y-69215000D03*
X208165000Y-66675000D03*
X203085000Y-64135000D03*
%TD*%
D12*
%TO.C,R19*%
X178635000Y-118830900D03*
D13*
X186255000Y-118830900D03*
%TD*%
D21*
%TO.C,Q14*%
X83385000Y-107955900D03*
D22*
X85925000Y-107955900D03*
X88465000Y-107955900D03*
%TD*%
D12*
%TO.C,R25*%
X168275000Y-110975900D03*
D13*
X160655000Y-110975900D03*
%TD*%
D18*
%TO.C,D18*%
X101800000Y-76530900D03*
D13*
X94180000Y-76530900D03*
%TD*%
D12*
%TO.C,R40*%
X105610000Y-97795900D03*
D13*
X113230000Y-97795900D03*
%TD*%
D14*
%TO.C,D12*%
X143510000Y-32470900D03*
D15*
X143510000Y-29930900D03*
%TD*%
D18*
%TO.C,U1*%
X214190000Y-32830900D03*
D13*
X214190000Y-35370900D03*
X214190000Y-37910900D03*
X214190000Y-40450900D03*
X221810000Y-40450900D03*
X221810000Y-37910900D03*
X221810000Y-35370900D03*
X221810000Y-32830900D03*
%TD*%
D10*
%TO.C,K1*%
X121240000Y-36915900D03*
D11*
X123190000Y-42965900D03*
D10*
X135390000Y-42965900D03*
X135440000Y-30915900D03*
D11*
X123190000Y-30965900D03*
%TD*%
D18*
%TO.C,D25*%
X94180000Y-97795900D03*
D13*
X101800000Y-97795900D03*
%TD*%
D12*
%TO.C,R17*%
X209750000Y-87480900D03*
D13*
X217370000Y-87480900D03*
%TD*%
D12*
%TO.C,R27*%
X168275000Y-31835900D03*
D13*
X160655000Y-31835900D03*
%TD*%
D12*
%TO.C,R22*%
X168275000Y-41995900D03*
D13*
X160655000Y-41995900D03*
%TD*%
D12*
%TO.C,R36*%
X105610000Y-47320900D03*
D13*
X113230000Y-47320900D03*
%TD*%
D16*
%TO.C,M3*%
X60960000Y-152250900D03*
%TD*%
D12*
%TO.C,R7*%
X190695000Y-49975900D03*
D13*
X198315000Y-49975900D03*
%TD*%
D12*
%TO.C,R18*%
X189430000Y-103590900D03*
D13*
X197050000Y-103590900D03*
%TD*%
D25*
%TO.C,D8*%
X143510000Y-58905900D03*
D26*
X143510000Y-66525900D03*
%TD*%
D12*
%TO.C,R38*%
X105610000Y-88270900D03*
D13*
X113230000Y-88270900D03*
%TD*%
D25*
%TO.C,D10*%
X143510000Y-104625900D03*
D26*
X143510000Y-112245900D03*
%TD*%
D12*
%TO.C,R1*%
X179265000Y-32195900D03*
D13*
X186885000Y-32195900D03*
%TD*%
D12*
%TO.C,R21*%
X178635000Y-111210900D03*
D13*
X186255000Y-111210900D03*
%TD*%
D28*
%TO.C,Q4*%
X153035000Y-109430900D03*
D29*
X153035000Y-110700900D03*
X153035000Y-111970900D03*
%TD*%
D16*
%TO.C,M1*%
X60960000Y-18900900D03*
%TD*%
D27*
%TO.C,RV2*%
X203085000Y-50800000D03*
X208165000Y-48260000D03*
X203085000Y-45720000D03*
%TD*%
D25*
%TO.C,D2*%
X214190000Y-69660900D03*
D26*
X221810000Y-69660900D03*
%TD*%
D14*
%TO.C,D5*%
X61595000Y-52555900D03*
D15*
X64135000Y-52555900D03*
%TD*%
D25*
%TO.C,D9*%
X143510000Y-81730900D03*
D26*
X143510000Y-89350900D03*
%TD*%
D21*
%TO.C,Q11*%
X83385000Y-48265900D03*
D22*
X85925000Y-48265900D03*
X88465000Y-48265900D03*
%TD*%
D12*
%TO.C,R26*%
X168275000Y-133835900D03*
D13*
X160655000Y-133835900D03*
%TD*%
D19*
%TO.C,J7*%
X181255000Y-134705900D03*
D20*
X186255000Y-134705900D03*
X191255000Y-134705900D03*
X196255000Y-134705900D03*
%TD*%
D18*
%TO.C,U7*%
X149225000Y-98910900D03*
D13*
X149225000Y-101450900D03*
X156845000Y-101450900D03*
X156845000Y-98910900D03*
%TD*%
D12*
%TO.C,R33*%
X113230000Y-67005900D03*
D13*
X105610000Y-67005900D03*
%TD*%
D12*
%TO.C,R2*%
X179349400Y-22860000D03*
D13*
X186969400Y-22860000D03*
%TD*%
D19*
%TO.C,J4*%
X65405000Y-30410900D03*
D20*
X65405000Y-35410900D03*
X65405000Y-40410900D03*
X65405000Y-45410900D03*
%TD*%
D14*
%TO.C,D16*%
X143510000Y-123675900D03*
D15*
X143510000Y-121135900D03*
%TD*%
D14*
%TO.C,D4*%
X61595000Y-112880900D03*
D15*
X64135000Y-112880900D03*
%TD*%
D12*
%TO.C,R39*%
X105610000Y-107320900D03*
D13*
X113230000Y-107320900D03*
%TD*%
D12*
%TO.C,R31*%
X168275000Y-123040900D03*
D13*
X160655000Y-123040900D03*
%TD*%
D25*
%TO.C,D6*%
X189430000Y-118830900D03*
D26*
X197050000Y-118830900D03*
%TD*%
D21*
%TO.C,Q13*%
X83385000Y-98430900D03*
D22*
X85925000Y-98430900D03*
X88465000Y-98430900D03*
%TD*%
D17*
%TO.C,C4*%
X204750000Y-112480900D03*
X209750000Y-112480900D03*
%TD*%
D12*
%TO.C,R34*%
X113230000Y-76530900D03*
D13*
X105610000Y-76530900D03*
%TD*%
D28*
%TO.C,Q1*%
X153035000Y-40725900D03*
D29*
X153035000Y-41995900D03*
X153035000Y-43265900D03*
%TD*%
D28*
%TO.C,Q3*%
X153035000Y-86175900D03*
D29*
X153035000Y-87445900D03*
X153035000Y-88715900D03*
%TD*%
D18*
%TO.C,D23*%
X94180000Y-88270900D03*
D13*
X101800000Y-88270900D03*
%TD*%
D12*
%TO.C,R35*%
X105610000Y-28270900D03*
D13*
X113230000Y-28270900D03*
%TD*%
D28*
%TO.C,Q2*%
X153035000Y-63350900D03*
D29*
X153035000Y-64620900D03*
X153035000Y-65890900D03*
%TD*%
D12*
%TO.C,R23*%
X168275000Y-64620900D03*
D13*
X160655000Y-64620900D03*
%TD*%
D18*
%TO.C,U3*%
X214830000Y-99780900D03*
D13*
X214830000Y-102320900D03*
X214830000Y-104860900D03*
X214830000Y-107400900D03*
X214830000Y-109940900D03*
X214830000Y-112480900D03*
X214830000Y-115020900D03*
X214830000Y-117560900D03*
X214830000Y-120100900D03*
X222450000Y-120100900D03*
X222450000Y-117560900D03*
X222450000Y-115020900D03*
X222450000Y-112480900D03*
X222450000Y-109940900D03*
X222450000Y-107400900D03*
X222450000Y-104860900D03*
X222450000Y-102320900D03*
X222450000Y-99780900D03*
%TD*%
D12*
%TO.C,R37*%
X105610000Y-37795900D03*
D13*
X113230000Y-37795900D03*
%TD*%
D12*
%TO.C,R32*%
X113230000Y-57480900D03*
D13*
X105610000Y-57480900D03*
%TD*%
D16*
%TO.C,M4*%
X222885000Y-152250900D03*
%TD*%
D12*
%TO.C,R15*%
X189430000Y-83905900D03*
D13*
X197050000Y-83905900D03*
%TD*%
D10*
%TO.C,K4*%
X121240000Y-105495900D03*
D11*
X123190000Y-111545900D03*
D10*
X135390000Y-111545900D03*
X135440000Y-99495900D03*
D11*
X123190000Y-99545900D03*
%TD*%
D25*
%TO.C,D1*%
X214190000Y-63310900D03*
D26*
X221810000Y-63310900D03*
%TD*%
D18*
%TO.C,U4*%
X149225000Y-30330900D03*
D13*
X149225000Y-32870900D03*
X156845000Y-32870900D03*
X156845000Y-30330900D03*
%TD*%
D19*
%TO.C,J3*%
X65405000Y-59620900D03*
D20*
X65405000Y-64620900D03*
X65405000Y-69620900D03*
X65405000Y-74620900D03*
%TD*%
D19*
%TO.C,J2*%
X65405000Y-90100900D03*
D20*
X65405000Y-95100900D03*
X65405000Y-100100900D03*
X65405000Y-105100900D03*
%TD*%
D12*
%TO.C,R6*%
X179265000Y-49975900D03*
D13*
X186885000Y-49975900D03*
%TD*%
D12*
%TO.C,R13*%
X178635000Y-103590900D03*
D13*
X186255000Y-103590900D03*
%TD*%
D12*
%TO.C,R14*%
X189430000Y-111210900D03*
D13*
X197050000Y-111210900D03*
%TD*%
D28*
%TO.C,Q5*%
X153035000Y-132565900D03*
D29*
X153035000Y-133835900D03*
X153035000Y-135105900D03*
%TD*%
D10*
%TO.C,K2*%
X121240000Y-59775900D03*
D11*
X123190000Y-65825900D03*
D10*
X135390000Y-65825900D03*
X135440000Y-53775900D03*
D11*
X123190000Y-53825900D03*
%TD*%
D12*
%TO.C,R8*%
X179265000Y-58865900D03*
D13*
X186885000Y-58865900D03*
%TD*%
D12*
%TO.C,R12*%
X67945000Y-82400900D03*
D13*
X75565000Y-82400900D03*
%TD*%
D21*
%TO.C,Q7*%
X83385000Y-67640900D03*
D22*
X85925000Y-67640900D03*
X88465000Y-67640900D03*
%TD*%
D12*
%TO.C,R5*%
X190695000Y-41085900D03*
D13*
X198315000Y-41085900D03*
%TD*%
D25*
%TO.C,D7*%
X143510000Y-36280900D03*
D26*
X143510000Y-43900900D03*
%TD*%
D12*
%TO.C,R20*%
X189430000Y-91525900D03*
D13*
X197050000Y-91525900D03*
%TD*%
D21*
%TO.C,Q10*%
X83385000Y-38740900D03*
D22*
X85925000Y-38740900D03*
X88465000Y-38740900D03*
%TD*%
D14*
%TO.C,D13*%
X143510000Y-55095900D03*
D15*
X143510000Y-52555900D03*
%TD*%
D18*
%TO.C,D17*%
X101800000Y-57480900D03*
D13*
X94180000Y-57480900D03*
%TD*%
D12*
%TO.C,R28*%
X168275000Y-54460900D03*
D13*
X160655000Y-54460900D03*
%TD*%
D12*
%TO.C,R11*%
X67945000Y-52555900D03*
D13*
X75565000Y-52555900D03*
%TD*%
D21*
%TO.C,Q9*%
X83385000Y-29215900D03*
D22*
X85925000Y-29215900D03*
X88465000Y-29215900D03*
%TD*%
D21*
%TO.C,Q12*%
X83385000Y-88905900D03*
D22*
X85925000Y-88905900D03*
X88465000Y-88905900D03*
%TD*%
D21*
%TO.C,Q6*%
X83385000Y-58425900D03*
D22*
X85925000Y-58425900D03*
X88465000Y-58425900D03*
%TD*%
D19*
%TO.C,J5*%
X206020000Y-134705900D03*
D20*
X211020000Y-134705900D03*
X216020000Y-134705900D03*
X221020000Y-134705900D03*
%TD*%
D10*
%TO.C,K3*%
X121240000Y-82635900D03*
D11*
X123190000Y-88685900D03*
D10*
X135390000Y-88685900D03*
X135440000Y-76635900D03*
D11*
X123190000Y-76685900D03*
%TD*%
D18*
%TO.C,D20*%
X94180000Y-28270900D03*
D13*
X101800000Y-28270900D03*
%TD*%
D18*
%TO.C,D21*%
X94180000Y-47320900D03*
D13*
X101800000Y-47320900D03*
%TD*%
M02*
