%TF.GenerationSoftware,KiCad,Pcbnew,7.0.6*%
%TF.CreationDate,2024-10-30T10:37:01-05:00*%
%TF.ProjectId,AcCCS,41634343-532e-46b6-9963-61645f706362,rev?*%
%TF.SameCoordinates,Original*%
%TF.FileFunction,Drillmap*%
%TF.FilePolarity,Positive*%
%FSLAX45Y45*%
G04 Gerber Fmt 4.5, Leading zero omitted, Abs format (unit mm)*
G04 Created by KiCad (PCBNEW 7.0.6) date 2024-10-30 10:37:01*
%MOMM*%
%LPD*%
G01*
G04 APERTURE LIST*
%ADD10C,0.200000*%
G04 APERTURE END LIST*
D10*
X5588000Y-1382095D02*
X22796500Y-1382095D01*
X22796500Y-15733095D01*
X5588000Y-15733095D01*
X5588000Y-1382095D01*
X5838777Y-16054579D02*
X5838777Y-15854579D01*
X5838777Y-15854579D02*
X5886396Y-15854579D01*
X5886396Y-15854579D02*
X5914967Y-15864103D01*
X5914967Y-15864103D02*
X5934015Y-15883150D01*
X5934015Y-15883150D02*
X5943539Y-15902198D01*
X5943539Y-15902198D02*
X5953062Y-15940293D01*
X5953062Y-15940293D02*
X5953062Y-15968864D01*
X5953062Y-15968864D02*
X5943539Y-16006960D01*
X5943539Y-16006960D02*
X5934015Y-16026007D01*
X5934015Y-16026007D02*
X5914967Y-16045055D01*
X5914967Y-16045055D02*
X5886396Y-16054579D01*
X5886396Y-16054579D02*
X5838777Y-16054579D01*
X6038777Y-16054579D02*
X6038777Y-15921245D01*
X6038777Y-15959341D02*
X6048301Y-15940293D01*
X6048301Y-15940293D02*
X6057824Y-15930769D01*
X6057824Y-15930769D02*
X6076872Y-15921245D01*
X6076872Y-15921245D02*
X6095920Y-15921245D01*
X6162586Y-16054579D02*
X6162586Y-15921245D01*
X6162586Y-15854579D02*
X6153062Y-15864103D01*
X6153062Y-15864103D02*
X6162586Y-15873626D01*
X6162586Y-15873626D02*
X6172110Y-15864103D01*
X6172110Y-15864103D02*
X6162586Y-15854579D01*
X6162586Y-15854579D02*
X6162586Y-15873626D01*
X6286396Y-16054579D02*
X6267348Y-16045055D01*
X6267348Y-16045055D02*
X6257824Y-16026007D01*
X6257824Y-16026007D02*
X6257824Y-15854579D01*
X6391158Y-16054579D02*
X6372110Y-16045055D01*
X6372110Y-16045055D02*
X6362586Y-16026007D01*
X6362586Y-16026007D02*
X6362586Y-15854579D01*
X6619729Y-16054579D02*
X6619729Y-15854579D01*
X6619729Y-15854579D02*
X6686396Y-15997436D01*
X6686396Y-15997436D02*
X6753062Y-15854579D01*
X6753062Y-15854579D02*
X6753062Y-16054579D01*
X6934015Y-16054579D02*
X6934015Y-15949817D01*
X6934015Y-15949817D02*
X6924491Y-15930769D01*
X6924491Y-15930769D02*
X6905443Y-15921245D01*
X6905443Y-15921245D02*
X6867348Y-15921245D01*
X6867348Y-15921245D02*
X6848301Y-15930769D01*
X6934015Y-16045055D02*
X6914967Y-16054579D01*
X6914967Y-16054579D02*
X6867348Y-16054579D01*
X6867348Y-16054579D02*
X6848301Y-16045055D01*
X6848301Y-16045055D02*
X6838777Y-16026007D01*
X6838777Y-16026007D02*
X6838777Y-16006960D01*
X6838777Y-16006960D02*
X6848301Y-15987912D01*
X6848301Y-15987912D02*
X6867348Y-15978388D01*
X6867348Y-15978388D02*
X6914967Y-15978388D01*
X6914967Y-15978388D02*
X6934015Y-15968864D01*
X7029253Y-15921245D02*
X7029253Y-16121245D01*
X7029253Y-15930769D02*
X7048301Y-15921245D01*
X7048301Y-15921245D02*
X7086396Y-15921245D01*
X7086396Y-15921245D02*
X7105443Y-15930769D01*
X7105443Y-15930769D02*
X7114967Y-15940293D01*
X7114967Y-15940293D02*
X7124491Y-15959341D01*
X7124491Y-15959341D02*
X7124491Y-16016483D01*
X7124491Y-16016483D02*
X7114967Y-16035531D01*
X7114967Y-16035531D02*
X7105443Y-16045055D01*
X7105443Y-16045055D02*
X7086396Y-16054579D01*
X7086396Y-16054579D02*
X7048301Y-16054579D01*
X7048301Y-16054579D02*
X7029253Y-16045055D01*
X7210205Y-16035531D02*
X7219729Y-16045055D01*
X7219729Y-16045055D02*
X7210205Y-16054579D01*
X7210205Y-16054579D02*
X7200682Y-16045055D01*
X7200682Y-16045055D02*
X7210205Y-16035531D01*
X7210205Y-16035531D02*
X7210205Y-16054579D01*
X7210205Y-15930769D02*
X7219729Y-15940293D01*
X7219729Y-15940293D02*
X7210205Y-15949817D01*
X7210205Y-15949817D02*
X7200682Y-15940293D01*
X7200682Y-15940293D02*
X7210205Y-15930769D01*
X7210205Y-15930769D02*
X7210205Y-15949817D01*
M02*
