%TF.GenerationSoftware,KiCad,Pcbnew,7.0.6*%
%TF.CreationDate,2024-10-30T10:36:51-05:00*%
%TF.ProjectId,AcCCS,41634343-532e-46b6-9963-61645f706362,rev?*%
%TF.SameCoordinates,Original*%
%TF.FileFunction,Copper,L2,Bot*%
%TF.FilePolarity,Positive*%
%FSLAX46Y46*%
G04 Gerber Fmt 4.6, Leading zero omitted, Abs format (unit mm)*
G04 Created by KiCad (PCBNEW 7.0.6) date 2024-10-30 10:36:51*
%MOMM*%
%LPD*%
G01*
G04 APERTURE LIST*
%TA.AperFunction,ComponentPad*%
%ADD10C,3.000000*%
%TD*%
%TA.AperFunction,ComponentPad*%
%ADD11C,2.500000*%
%TD*%
%TA.AperFunction,ComponentPad*%
%ADD12C,1.600000*%
%TD*%
%TA.AperFunction,ComponentPad*%
%ADD13O,1.600000X1.600000*%
%TD*%
%TA.AperFunction,ComponentPad*%
%ADD14R,1.800000X1.800000*%
%TD*%
%TA.AperFunction,ComponentPad*%
%ADD15C,1.800000*%
%TD*%
%TA.AperFunction,ComponentPad*%
%ADD16C,5.600000*%
%TD*%
%TA.AperFunction,ComponentPad*%
%ADD17C,2.000000*%
%TD*%
%TA.AperFunction,ComponentPad*%
%ADD18R,1.600000X1.600000*%
%TD*%
%TA.AperFunction,ComponentPad*%
%ADD19R,2.600000X2.600000*%
%TD*%
%TA.AperFunction,ComponentPad*%
%ADD20C,2.600000*%
%TD*%
%TA.AperFunction,ComponentPad*%
%ADD21R,1.905000X2.000000*%
%TD*%
%TA.AperFunction,ComponentPad*%
%ADD22O,1.905000X2.000000*%
%TD*%
%TA.AperFunction,ComponentPad*%
%ADD23R,1.700000X1.700000*%
%TD*%
%TA.AperFunction,ComponentPad*%
%ADD24O,1.700000X1.700000*%
%TD*%
%TA.AperFunction,ComponentPad*%
%ADD25R,2.200000X2.200000*%
%TD*%
%TA.AperFunction,ComponentPad*%
%ADD26O,2.200000X2.200000*%
%TD*%
%TA.AperFunction,ComponentPad*%
%ADD27C,1.440000*%
%TD*%
%TA.AperFunction,ComponentPad*%
%ADD28R,1.500000X1.050000*%
%TD*%
%TA.AperFunction,ComponentPad*%
%ADD29O,1.500000X1.050000*%
%TD*%
%TA.AperFunction,ViaPad*%
%ADD30C,0.800000*%
%TD*%
%TA.AperFunction,Conductor*%
%ADD31C,0.500000*%
%TD*%
%TA.AperFunction,Conductor*%
%ADD32C,0.250000*%
%TD*%
G04 APERTURE END LIST*
D10*
%TO.P,K5,1*%
%TO.N,/PEV_PP*%
X121240000Y-128355900D03*
D11*
%TO.P,K5,2*%
%TO.N,Net-(D11-A)*%
X123190000Y-134405900D03*
D10*
%TO.P,K5,3*%
%TO.N,Net-(K5-Pad3)*%
X135390000Y-134405900D03*
%TO.P,K5,4*%
%TO.N,unconnected-(K5-Pad4)*%
X135440000Y-122355900D03*
D11*
%TO.P,K5,5*%
%TO.N,/+5V*%
X123190000Y-122405900D03*
%TD*%
D12*
%TO.P,R30,1*%
%TO.N,/GP3*%
X168275000Y-100180900D03*
D13*
%TO.P,R30,2*%
%TO.N,Net-(R30-Pad2)*%
X160655000Y-100180900D03*
%TD*%
D12*
%TO.P,R9,1*%
%TO.N,Net-(R8-Pad2)*%
X190695000Y-58865900D03*
D13*
%TO.P,R9,2*%
%TO.N,/OPAMP_OUT*%
X198315000Y-58865900D03*
%TD*%
D14*
%TO.P,D15,1,K*%
%TO.N,/GND*%
X143510000Y-100815900D03*
D15*
%TO.P,D15,2,A*%
%TO.N,Net-(D15-A)*%
X143510000Y-98275900D03*
%TD*%
D16*
%TO.P,M2,1*%
%TO.N,/GND*%
X222885000Y-18900900D03*
%TD*%
D17*
%TO.P,C2,1*%
%TO.N,Net-(D1-K)*%
X192005000Y-69025900D03*
%TO.P,C2,2*%
%TO.N,/GND*%
X197005000Y-69025900D03*
%TD*%
D18*
%TO.P,U8,1*%
%TO.N,Net-(R31-Pad2)*%
X149225000Y-121765900D03*
D13*
%TO.P,U8,2*%
%TO.N,Net-(D16-A)*%
X149225000Y-124305900D03*
%TO.P,U8,3*%
%TO.N,Net-(R26-Pad1)*%
X156845000Y-124305900D03*
%TO.P,U8,4*%
%TO.N,/+5V*%
X156845000Y-121765900D03*
%TD*%
D19*
%TO.P,J1,1,Pin_1*%
%TO.N,/GND*%
X65405000Y-121135900D03*
D20*
%TO.P,J1,2,Pin_2*%
X65405000Y-126135900D03*
%TO.P,J1,3,Pin_3*%
X65405000Y-131135900D03*
%TO.P,J1,4,Pin_4*%
X65405000Y-136135900D03*
%TD*%
D17*
%TO.P,C1,1*%
%TO.N,Net-(U1-CTL)*%
X180575000Y-69025900D03*
%TO.P,C1,2*%
%TO.N,/GND*%
X185575000Y-69025900D03*
%TD*%
D18*
%TO.P,D19,1,K*%
%TO.N,Net-(D19-K)*%
X101800000Y-67005900D03*
D13*
%TO.P,D19,2,A*%
%TO.N,Net-(D17-A)*%
X94180000Y-67005900D03*
%TD*%
D14*
%TO.P,D14,1,K*%
%TO.N,/GND*%
X143510000Y-77920900D03*
D15*
%TO.P,D14,2,A*%
%TO.N,Net-(D14-A)*%
X143510000Y-75380900D03*
%TD*%
D12*
%TO.P,R4,1*%
%TO.N,/GND*%
X179265000Y-41085900D03*
D13*
%TO.P,R4,2*%
%TO.N,Net-(R4-Pad2)*%
X186885000Y-41085900D03*
%TD*%
D17*
%TO.P,C3,1*%
%TO.N,/GND*%
X203435000Y-33465900D03*
%TO.P,C3,2*%
%TO.N,/+12V*%
X208435000Y-33465900D03*
%TD*%
D12*
%TO.P,R10,1*%
%TO.N,/+12V*%
X67945000Y-112880900D03*
D13*
%TO.P,R10,2*%
%TO.N,Net-(D4-A)*%
X75565000Y-112880900D03*
%TD*%
D18*
%TO.P,U2,1*%
%TO.N,Net-(R8-Pad2)*%
X214200000Y-48715900D03*
D13*
%TO.P,U2,2,-*%
%TO.N,Net-(U2--)*%
X214200000Y-51255900D03*
%TO.P,U2,3,+*%
%TO.N,Net-(U2-+)*%
X214200000Y-53795900D03*
%TO.P,U2,4,V-*%
%TO.N,/-12V*%
X214200000Y-56335900D03*
%TO.P,U2,5*%
%TO.N,N/C*%
X221820000Y-56335900D03*
%TO.P,U2,6*%
X221820000Y-53795900D03*
%TO.P,U2,7*%
X221820000Y-51255900D03*
%TO.P,U2,8,V+*%
%TO.N,/+12V*%
X221820000Y-48715900D03*
%TD*%
D12*
%TO.P,R24,1*%
%TO.N,Net-(R24-Pad1)*%
X168275000Y-87445900D03*
D13*
%TO.P,R24,2*%
%TO.N,Net-(Q3-B)*%
X160655000Y-87445900D03*
%TD*%
D12*
%TO.P,R3,1*%
%TO.N,Net-(R3-Pad1)*%
X190695000Y-32195900D03*
D13*
%TO.P,R3,2*%
%TO.N,Net-(D1-A)*%
X198315000Y-32195900D03*
%TD*%
D12*
%TO.P,R16,1*%
%TO.N,Net-(K5-Pad3)*%
X178635000Y-83905900D03*
D13*
%TO.P,R16,2*%
%TO.N,/+5V*%
X186255000Y-83905900D03*
%TD*%
D21*
%TO.P,Q8,1,G*%
%TO.N,Net-(D19-K)*%
X83385000Y-77475900D03*
D22*
%TO.P,Q8,2,D*%
%TO.N,/-12V*%
X85925000Y-77475900D03*
%TO.P,Q8,3,S*%
%TO.N,Net-(D17-A)*%
X88465000Y-77475900D03*
%TD*%
D18*
%TO.P,D22,1,K*%
%TO.N,Net-(D20-K)*%
X94180000Y-37795900D03*
D13*
%TO.P,D22,2,A*%
%TO.N,Net-(D22-A)*%
X101800000Y-37795900D03*
%TD*%
D18*
%TO.P,D24,1,K*%
%TO.N,Net-(D24-K)*%
X94180000Y-107320900D03*
D13*
%TO.P,D24,2,A*%
%TO.N,/GND*%
X101800000Y-107320900D03*
%TD*%
D18*
%TO.P,U6,1*%
%TO.N,Net-(R29-Pad2)*%
X149225000Y-76015900D03*
D13*
%TO.P,U6,2*%
%TO.N,Net-(D14-A)*%
X149225000Y-78555900D03*
%TO.P,U6,3*%
%TO.N,Net-(R24-Pad1)*%
X156845000Y-78555900D03*
%TO.P,U6,4*%
%TO.N,/+5V*%
X156845000Y-76015900D03*
%TD*%
D23*
%TO.P,J8,1,Pin_1*%
%TO.N,/I2C_SCL*%
X209750000Y-99780900D03*
D24*
%TO.P,J8,2,Pin_2*%
%TO.N,/I2C_SDA*%
X209750000Y-102320900D03*
%TD*%
D25*
%TO.P,D11,1,K*%
%TO.N,/+5V*%
X143510000Y-127485900D03*
D26*
%TO.P,D11,2,A*%
%TO.N,Net-(D11-A)*%
X143510000Y-135105900D03*
%TD*%
D18*
%TO.P,U5,1*%
%TO.N,Net-(R28-Pad2)*%
X149225000Y-53190900D03*
D13*
%TO.P,U5,2*%
%TO.N,Net-(D13-A)*%
X149225000Y-55730900D03*
%TO.P,U5,3*%
%TO.N,Net-(R23-Pad1)*%
X156845000Y-55730900D03*
%TO.P,U5,4*%
%TO.N,/+5V*%
X156845000Y-53190900D03*
%TD*%
D23*
%TO.P,J6,1,Pin_1*%
%TO.N,/555_OUT*%
X218059000Y-26035000D03*
%TD*%
D12*
%TO.P,R29,1*%
%TO.N,/GP2*%
X168275000Y-77320900D03*
D13*
%TO.P,R29,2*%
%TO.N,Net-(R29-Pad2)*%
X160655000Y-77320900D03*
%TD*%
D14*
%TO.P,D3,1,K*%
%TO.N,/-12V*%
X61595000Y-82400900D03*
D15*
%TO.P,D3,2,A*%
%TO.N,Net-(D3-A)*%
X64135000Y-82400900D03*
%TD*%
D27*
%TO.P,RV1,1,1*%
%TO.N,unconnected-(RV1-Pad1)*%
X203085000Y-69215000D03*
%TO.P,RV1,2,2*%
%TO.N,Net-(D1-A)*%
X208165000Y-66675000D03*
%TO.P,RV1,3,3*%
%TO.N,Net-(R1-Pad1)*%
X203085000Y-64135000D03*
%TD*%
D12*
%TO.P,R19,1*%
%TO.N,Net-(R14-Pad2)*%
X178635000Y-118830900D03*
D13*
%TO.P,R19,2*%
%TO.N,/GND*%
X186255000Y-118830900D03*
%TD*%
D21*
%TO.P,Q14,1,G*%
%TO.N,Net-(D25-A)*%
X83385000Y-107955900D03*
D22*
%TO.P,Q14,2,D*%
%TO.N,/+12V*%
X85925000Y-107955900D03*
%TO.P,Q14,3,S*%
%TO.N,Net-(D23-K)*%
X88465000Y-107955900D03*
%TD*%
D12*
%TO.P,R25,1*%
%TO.N,Net-(R25-Pad1)*%
X168275000Y-110975900D03*
D13*
%TO.P,R25,2*%
%TO.N,Net-(Q4-B)*%
X160655000Y-110975900D03*
%TD*%
D18*
%TO.P,D18,1,K*%
%TO.N,/GND*%
X101800000Y-76530900D03*
D13*
%TO.P,D18,2,A*%
%TO.N,Net-(D18-A)*%
X94180000Y-76530900D03*
%TD*%
D12*
%TO.P,R40,1*%
%TO.N,Net-(D25-A)*%
X105610000Y-97795900D03*
D13*
%TO.P,R40,2*%
%TO.N,/GND*%
X113230000Y-97795900D03*
%TD*%
D14*
%TO.P,D12,1,K*%
%TO.N,/GND*%
X143510000Y-32470900D03*
D15*
%TO.P,D12,2,A*%
%TO.N,Net-(D12-A)*%
X143510000Y-29930900D03*
%TD*%
D18*
%TO.P,U1,1,GND*%
%TO.N,/GND*%
X214190000Y-32830900D03*
D13*
%TO.P,U1,2,TR*%
%TO.N,Net-(D1-K)*%
X214190000Y-35370900D03*
%TO.P,U1,3,OUT*%
%TO.N,/555_OUT*%
X214190000Y-37910900D03*
%TO.P,U1,4,RST*%
%TO.N,/+12V*%
X214190000Y-40450900D03*
%TO.P,U1,5,CTL*%
%TO.N,Net-(U1-CTL)*%
X221810000Y-40450900D03*
%TO.P,U1,6,TH*%
%TO.N,Net-(D1-K)*%
X221810000Y-37910900D03*
%TO.P,U1,7,DIS*%
%TO.N,Net-(D1-A)*%
X221810000Y-35370900D03*
%TO.P,U1,8,VCC*%
%TO.N,/+12V*%
X221810000Y-32830900D03*
%TD*%
D10*
%TO.P,K1,1*%
%TO.N,/OPAMP_OUT*%
X121240000Y-36915900D03*
D11*
%TO.P,K1,2*%
%TO.N,Net-(D7-A)*%
X123190000Y-42965900D03*
D10*
%TO.P,K1,3*%
%TO.N,/EVSE_CP*%
X135390000Y-42965900D03*
%TO.P,K1,4*%
%TO.N,unconnected-(K1-Pad4)*%
X135440000Y-30915900D03*
D11*
%TO.P,K1,5*%
%TO.N,/+5V*%
X123190000Y-30965900D03*
%TD*%
D18*
%TO.P,D25,1,K*%
%TO.N,Net-(D23-K)*%
X94180000Y-97795900D03*
D13*
%TO.P,D25,2,A*%
%TO.N,Net-(D25-A)*%
X101800000Y-97795900D03*
%TD*%
D12*
%TO.P,R17,1*%
%TO.N,Net-(K4-Pad3)*%
X209750000Y-87480900D03*
D13*
%TO.P,R17,2*%
%TO.N,/GND*%
X217370000Y-87480900D03*
%TD*%
D12*
%TO.P,R27,1*%
%TO.N,/GP0*%
X168275000Y-31835900D03*
D13*
%TO.P,R27,2*%
%TO.N,Net-(R27-Pad2)*%
X160655000Y-31835900D03*
%TD*%
D12*
%TO.P,R22,1*%
%TO.N,Net-(R22-Pad1)*%
X168275000Y-41995900D03*
D13*
%TO.P,R22,2*%
%TO.N,Net-(Q1-B)*%
X160655000Y-41995900D03*
%TD*%
D12*
%TO.P,R36,1*%
%TO.N,Net-(D20-K)*%
X105610000Y-47320900D03*
D13*
%TO.P,R36,2*%
%TO.N,Net-(D21-K)*%
X113230000Y-47320900D03*
%TD*%
D16*
%TO.P,M3,1*%
%TO.N,/GND*%
X60960000Y-152250900D03*
%TD*%
D12*
%TO.P,R7,1*%
%TO.N,/-12V*%
X190695000Y-49975900D03*
D13*
%TO.P,R7,2*%
%TO.N,Net-(U2-+)*%
X198315000Y-49975900D03*
%TD*%
D12*
%TO.P,R18,1*%
%TO.N,Net-(R13-Pad2)*%
X189430000Y-103590900D03*
D13*
%TO.P,R18,2*%
%TO.N,Net-(R18-Pad2)*%
X197050000Y-103590900D03*
%TD*%
D25*
%TO.P,D8,1,K*%
%TO.N,/+5V*%
X143510000Y-58905900D03*
D26*
%TO.P,D8,2,A*%
%TO.N,Net-(D8-A)*%
X143510000Y-66525900D03*
%TD*%
D12*
%TO.P,R38,1*%
%TO.N,Net-(D23-A)*%
X105610000Y-88270900D03*
D13*
%TO.P,R38,2*%
%TO.N,/GND*%
X113230000Y-88270900D03*
%TD*%
D25*
%TO.P,D10,1,K*%
%TO.N,/+5V*%
X143510000Y-104625900D03*
D26*
%TO.P,D10,2,A*%
%TO.N,Net-(D10-A)*%
X143510000Y-112245900D03*
%TD*%
D12*
%TO.P,R1,1*%
%TO.N,Net-(R1-Pad1)*%
X179265000Y-32195900D03*
D13*
%TO.P,R1,2*%
%TO.N,Net-(R1-Pad2)*%
X186885000Y-32195900D03*
%TD*%
D12*
%TO.P,R21,1*%
%TO.N,Net-(R18-Pad2)*%
X178635000Y-111210900D03*
D13*
%TO.P,R21,2*%
%TO.N,/GND*%
X186255000Y-111210900D03*
%TD*%
D28*
%TO.P,Q4,1,E*%
%TO.N,/GND*%
X153035000Y-109430900D03*
D29*
%TO.P,Q4,2,C*%
%TO.N,Net-(D10-A)*%
X153035000Y-110700900D03*
%TO.P,Q4,3,B*%
%TO.N,Net-(Q4-B)*%
X153035000Y-111970900D03*
%TD*%
D16*
%TO.P,M1,1*%
%TO.N,/GND*%
X60960000Y-18900900D03*
%TD*%
D27*
%TO.P,RV2,1,1*%
%TO.N,/+12V*%
X203085000Y-50800000D03*
%TO.P,RV2,2,2*%
%TO.N,Net-(R3-Pad1)*%
X208165000Y-48260000D03*
%TO.P,RV2,3,3*%
%TO.N,unconnected-(RV2-Pad3)*%
X203085000Y-45720000D03*
%TD*%
D25*
%TO.P,D2,1,K*%
%TO.N,Net-(D2-K)*%
X214190000Y-69660900D03*
D26*
%TO.P,D2,2,A*%
%TO.N,Net-(D1-K)*%
X221810000Y-69660900D03*
%TD*%
D14*
%TO.P,D5,1,K*%
%TO.N,/GND*%
X61595000Y-52555900D03*
D15*
%TO.P,D5,2,A*%
%TO.N,Net-(D5-A)*%
X64135000Y-52555900D03*
%TD*%
D25*
%TO.P,D9,1,K*%
%TO.N,/+5V*%
X143510000Y-81730900D03*
D26*
%TO.P,D9,2,A*%
%TO.N,Net-(D9-A)*%
X143510000Y-89350900D03*
%TD*%
D21*
%TO.P,Q11,1,G*%
%TO.N,Net-(D22-A)*%
X83385000Y-48265900D03*
D22*
%TO.P,Q11,2,D*%
%TO.N,/+5V*%
X85925000Y-48265900D03*
%TO.P,Q11,3,S*%
%TO.N,Net-(D20-K)*%
X88465000Y-48265900D03*
%TD*%
D12*
%TO.P,R26,1*%
%TO.N,Net-(R26-Pad1)*%
X168275000Y-133835900D03*
D13*
%TO.P,R26,2*%
%TO.N,Net-(Q5-B)*%
X160655000Y-133835900D03*
%TD*%
D19*
%TO.P,J7,1,Pin_1*%
%TO.N,/PEV_PP*%
X181255000Y-134705900D03*
D20*
%TO.P,J7,2,Pin_2*%
%TO.N,/PEV_CP*%
X186255000Y-134705900D03*
%TO.P,J7,3,Pin_3*%
%TO.N,/EVSE_PP*%
X191255000Y-134705900D03*
%TO.P,J7,4,Pin_4*%
%TO.N,/EVSE_CP*%
X196255000Y-134705900D03*
%TD*%
D18*
%TO.P,U7,1*%
%TO.N,Net-(R30-Pad2)*%
X149225000Y-98910900D03*
D13*
%TO.P,U7,2*%
%TO.N,Net-(D15-A)*%
X149225000Y-101450900D03*
%TO.P,U7,3*%
%TO.N,Net-(R25-Pad1)*%
X156845000Y-101450900D03*
%TO.P,U7,4*%
%TO.N,/+5V*%
X156845000Y-98910900D03*
%TD*%
D12*
%TO.P,R33,1*%
%TO.N,Net-(D17-A)*%
X113230000Y-67005900D03*
D13*
%TO.P,R33,2*%
%TO.N,Net-(D18-A)*%
X105610000Y-67005900D03*
%TD*%
D12*
%TO.P,R2,1*%
%TO.N,Net-(R1-Pad2)*%
X179349400Y-22860000D03*
D13*
%TO.P,R2,2*%
%TO.N,Net-(D2-K)*%
X186969400Y-22860000D03*
%TD*%
D19*
%TO.P,J4,1,Pin_1*%
%TO.N,/+5V_IN*%
X65405000Y-30410900D03*
D20*
%TO.P,J4,2,Pin_2*%
X65405000Y-35410900D03*
%TO.P,J4,3,Pin_3*%
X65405000Y-40410900D03*
%TO.P,J4,4,Pin_4*%
X65405000Y-45410900D03*
%TD*%
D14*
%TO.P,D16,1,K*%
%TO.N,/GND*%
X143510000Y-123675900D03*
D15*
%TO.P,D16,2,A*%
%TO.N,Net-(D16-A)*%
X143510000Y-121135900D03*
%TD*%
D14*
%TO.P,D4,1,K*%
%TO.N,/GND*%
X61595000Y-112880900D03*
D15*
%TO.P,D4,2,A*%
%TO.N,Net-(D4-A)*%
X64135000Y-112880900D03*
%TD*%
D12*
%TO.P,R39,1*%
%TO.N,Net-(D23-K)*%
X105610000Y-107320900D03*
D13*
%TO.P,R39,2*%
%TO.N,Net-(D24-K)*%
X113230000Y-107320900D03*
%TD*%
D12*
%TO.P,R31,1*%
%TO.N,/GP4*%
X168275000Y-123040900D03*
D13*
%TO.P,R31,2*%
%TO.N,Net-(R31-Pad2)*%
X160655000Y-123040900D03*
%TD*%
D25*
%TO.P,D6,1,K*%
%TO.N,Net-(D6-K)*%
X189430000Y-118830900D03*
D26*
%TO.P,D6,2,A*%
%TO.N,/PEV_CP*%
X197050000Y-118830900D03*
%TD*%
D21*
%TO.P,Q13,1,G*%
%TO.N,Net-(D24-K)*%
X83385000Y-98430900D03*
D22*
%TO.P,Q13,2,D*%
%TO.N,Net-(D25-A)*%
X85925000Y-98430900D03*
%TO.P,Q13,3,S*%
%TO.N,Net-(D23-K)*%
X88465000Y-98430900D03*
%TD*%
D17*
%TO.P,C4,1*%
%TO.N,/GND*%
X204750000Y-112480900D03*
%TO.P,C4,2*%
%TO.N,/+5V*%
X209750000Y-112480900D03*
%TD*%
D12*
%TO.P,R34,1*%
%TO.N,Net-(D19-K)*%
X113230000Y-76530900D03*
D13*
%TO.P,R34,2*%
%TO.N,/GND*%
X105610000Y-76530900D03*
%TD*%
D28*
%TO.P,Q1,1,E*%
%TO.N,/GND*%
X153035000Y-40725900D03*
D29*
%TO.P,Q1,2,C*%
%TO.N,Net-(D7-A)*%
X153035000Y-41995900D03*
%TO.P,Q1,3,B*%
%TO.N,Net-(Q1-B)*%
X153035000Y-43265900D03*
%TD*%
D28*
%TO.P,Q3,1,E*%
%TO.N,/GND*%
X153035000Y-86175900D03*
D29*
%TO.P,Q3,2,C*%
%TO.N,Net-(D9-A)*%
X153035000Y-87445900D03*
%TO.P,Q3,3,B*%
%TO.N,Net-(Q3-B)*%
X153035000Y-88715900D03*
%TD*%
D18*
%TO.P,D23,1,K*%
%TO.N,Net-(D23-K)*%
X94180000Y-88270900D03*
D13*
%TO.P,D23,2,A*%
%TO.N,Net-(D23-A)*%
X101800000Y-88270900D03*
%TD*%
D12*
%TO.P,R35,1*%
%TO.N,Net-(D20-A)*%
X105610000Y-28270900D03*
D13*
%TO.P,R35,2*%
%TO.N,/GND*%
X113230000Y-28270900D03*
%TD*%
D28*
%TO.P,Q2,1,E*%
%TO.N,/GND*%
X153035000Y-63350900D03*
D29*
%TO.P,Q2,2,C*%
%TO.N,Net-(D8-A)*%
X153035000Y-64620900D03*
%TO.P,Q2,3,B*%
%TO.N,Net-(Q2-B)*%
X153035000Y-65890900D03*
%TD*%
D12*
%TO.P,R23,1*%
%TO.N,Net-(R23-Pad1)*%
X168275000Y-64620900D03*
D13*
%TO.P,R23,2*%
%TO.N,Net-(Q2-B)*%
X160655000Y-64620900D03*
%TD*%
D18*
%TO.P,U3,1,SCL*%
%TO.N,/I2C_SCL*%
X214830000Y-99780900D03*
D13*
%TO.P,U3,2,SDA*%
%TO.N,/I2C_SDA*%
X214830000Y-102320900D03*
%TO.P,U3,3,A2*%
%TO.N,/GND*%
X214830000Y-104860900D03*
%TO.P,U3,4,A1*%
X214830000Y-107400900D03*
%TO.P,U3,5,A0*%
X214830000Y-109940900D03*
%TO.P,U3,6,~{RESET}*%
%TO.N,/+5V*%
X214830000Y-112480900D03*
%TO.P,U3,7,NC*%
%TO.N,unconnected-(U3-NC-Pad7)*%
X214830000Y-115020900D03*
%TO.P,U3,8,INT*%
%TO.N,unconnected-(U3-INT-Pad8)*%
X214830000Y-117560900D03*
%TO.P,U3,9,VSS*%
%TO.N,/GND*%
X214830000Y-120100900D03*
%TO.P,U3,10,GP0*%
%TO.N,/GP0*%
X222450000Y-120100900D03*
%TO.P,U3,11,GP1*%
%TO.N,/GP1*%
X222450000Y-117560900D03*
%TO.P,U3,12,GP2*%
%TO.N,/GP2*%
X222450000Y-115020900D03*
%TO.P,U3,13,GP3*%
%TO.N,/GP3*%
X222450000Y-112480900D03*
%TO.P,U3,14,GP4*%
%TO.N,/GP4*%
X222450000Y-109940900D03*
%TO.P,U3,15,GP5*%
%TO.N,unconnected-(U3-GP5-Pad15)*%
X222450000Y-107400900D03*
%TO.P,U3,16,GP6*%
%TO.N,unconnected-(U3-GP6-Pad16)*%
X222450000Y-104860900D03*
%TO.P,U3,17,GP7*%
%TO.N,unconnected-(U3-GP7-Pad17)*%
X222450000Y-102320900D03*
%TO.P,U3,18,VDD*%
%TO.N,/+5V*%
X222450000Y-99780900D03*
%TD*%
D12*
%TO.P,R37,1*%
%TO.N,Net-(D22-A)*%
X105610000Y-37795900D03*
D13*
%TO.P,R37,2*%
%TO.N,/GND*%
X113230000Y-37795900D03*
%TD*%
D12*
%TO.P,R32,1*%
%TO.N,Net-(D17-K)*%
X113230000Y-57480900D03*
D13*
%TO.P,R32,2*%
%TO.N,/GND*%
X105610000Y-57480900D03*
%TD*%
D16*
%TO.P,M4,1*%
%TO.N,/GND*%
X222885000Y-152250900D03*
%TD*%
D12*
%TO.P,R15,1*%
%TO.N,Net-(K5-Pad3)*%
X189430000Y-83905900D03*
D13*
%TO.P,R15,2*%
%TO.N,Net-(R15-Pad2)*%
X197050000Y-83905900D03*
%TD*%
D10*
%TO.P,K4,1*%
%TO.N,/EVSE_PP*%
X121240000Y-105495900D03*
D11*
%TO.P,K4,2*%
%TO.N,Net-(D10-A)*%
X123190000Y-111545900D03*
D10*
%TO.P,K4,3*%
%TO.N,Net-(K4-Pad3)*%
X135390000Y-111545900D03*
%TO.P,K4,4*%
%TO.N,unconnected-(K4-Pad4)*%
X135440000Y-99495900D03*
D11*
%TO.P,K4,5*%
%TO.N,/+5V*%
X123190000Y-99545900D03*
%TD*%
D25*
%TO.P,D1,1,K*%
%TO.N,Net-(D1-K)*%
X214190000Y-63310900D03*
D26*
%TO.P,D1,2,A*%
%TO.N,Net-(D1-A)*%
X221810000Y-63310900D03*
%TD*%
D18*
%TO.P,U4,1*%
%TO.N,Net-(R27-Pad2)*%
X149225000Y-30330900D03*
D13*
%TO.P,U4,2*%
%TO.N,Net-(D12-A)*%
X149225000Y-32870900D03*
%TO.P,U4,3*%
%TO.N,Net-(R22-Pad1)*%
X156845000Y-32870900D03*
%TO.P,U4,4*%
%TO.N,/+5V*%
X156845000Y-30330900D03*
%TD*%
D19*
%TO.P,J3,1,Pin_1*%
%TO.N,/-12V_IN*%
X65405000Y-59620900D03*
D20*
%TO.P,J3,2,Pin_2*%
X65405000Y-64620900D03*
%TO.P,J3,3,Pin_3*%
X65405000Y-69620900D03*
%TO.P,J3,4,Pin_4*%
X65405000Y-74620900D03*
%TD*%
D19*
%TO.P,J2,1,Pin_1*%
%TO.N,/+12V_IN*%
X65405000Y-90100900D03*
D20*
%TO.P,J2,2,Pin_2*%
X65405000Y-95100900D03*
%TO.P,J2,3,Pin_3*%
X65405000Y-100100900D03*
%TO.P,J2,4,Pin_4*%
X65405000Y-105100900D03*
%TD*%
D12*
%TO.P,R6,1*%
%TO.N,/555_OUT*%
X179265000Y-49975900D03*
D13*
%TO.P,R6,2*%
%TO.N,Net-(U2-+)*%
X186885000Y-49975900D03*
%TD*%
D12*
%TO.P,R13,1*%
%TO.N,Net-(K2-Pad3)*%
X178635000Y-103590900D03*
D13*
%TO.P,R13,2*%
%TO.N,Net-(R13-Pad2)*%
X186255000Y-103590900D03*
%TD*%
D12*
%TO.P,R14,1*%
%TO.N,Net-(K3-Pad3)*%
X189430000Y-111210900D03*
D13*
%TO.P,R14,2*%
%TO.N,Net-(R14-Pad2)*%
X197050000Y-111210900D03*
%TD*%
D28*
%TO.P,Q5,1,E*%
%TO.N,/GND*%
X153035000Y-132565900D03*
D29*
%TO.P,Q5,2,C*%
%TO.N,Net-(D11-A)*%
X153035000Y-133835900D03*
%TO.P,Q5,3,B*%
%TO.N,Net-(Q5-B)*%
X153035000Y-135105900D03*
%TD*%
D10*
%TO.P,K2,1*%
%TO.N,Net-(D6-K)*%
X121240000Y-59775900D03*
D11*
%TO.P,K2,2*%
%TO.N,Net-(D8-A)*%
X123190000Y-65825900D03*
D10*
%TO.P,K2,3*%
%TO.N,Net-(K2-Pad3)*%
X135390000Y-65825900D03*
%TO.P,K2,4*%
%TO.N,unconnected-(K2-Pad4)*%
X135440000Y-53775900D03*
D11*
%TO.P,K2,5*%
%TO.N,/+5V*%
X123190000Y-53825900D03*
%TD*%
D12*
%TO.P,R8,1*%
%TO.N,Net-(U2--)*%
X179265000Y-58865900D03*
D13*
%TO.P,R8,2*%
%TO.N,Net-(R8-Pad2)*%
X186885000Y-58865900D03*
%TD*%
D12*
%TO.P,R12,1*%
%TO.N,Net-(D3-A)*%
X67945000Y-82400900D03*
D13*
%TO.P,R12,2*%
%TO.N,/GND*%
X75565000Y-82400900D03*
%TD*%
D21*
%TO.P,Q7,1,G*%
%TO.N,Net-(D18-A)*%
X83385000Y-67640900D03*
D22*
%TO.P,Q7,2,D*%
%TO.N,Net-(D19-K)*%
X85925000Y-67640900D03*
%TO.P,Q7,3,S*%
%TO.N,Net-(D17-A)*%
X88465000Y-67640900D03*
%TD*%
D12*
%TO.P,R5,1*%
%TO.N,Net-(R4-Pad2)*%
X190695000Y-41085900D03*
D13*
%TO.P,R5,2*%
%TO.N,Net-(U2--)*%
X198315000Y-41085900D03*
%TD*%
D25*
%TO.P,D7,1,K*%
%TO.N,/+5V*%
X143510000Y-36280900D03*
D26*
%TO.P,D7,2,A*%
%TO.N,Net-(D7-A)*%
X143510000Y-43900900D03*
%TD*%
D12*
%TO.P,R20,1*%
%TO.N,Net-(R15-Pad2)*%
X189430000Y-91525900D03*
D13*
%TO.P,R20,2*%
%TO.N,/GND*%
X197050000Y-91525900D03*
%TD*%
D21*
%TO.P,Q10,1,G*%
%TO.N,Net-(D21-K)*%
X83385000Y-38740900D03*
D22*
%TO.P,Q10,2,D*%
%TO.N,Net-(D22-A)*%
X85925000Y-38740900D03*
%TO.P,Q10,3,S*%
%TO.N,Net-(D20-K)*%
X88465000Y-38740900D03*
%TD*%
D14*
%TO.P,D13,1,K*%
%TO.N,/GND*%
X143510000Y-55095900D03*
D15*
%TO.P,D13,2,A*%
%TO.N,Net-(D13-A)*%
X143510000Y-52555900D03*
%TD*%
D18*
%TO.P,D17,1,K*%
%TO.N,Net-(D17-K)*%
X101800000Y-57480900D03*
D13*
%TO.P,D17,2,A*%
%TO.N,Net-(D17-A)*%
X94180000Y-57480900D03*
%TD*%
D12*
%TO.P,R28,1*%
%TO.N,/GP1*%
X168275000Y-54460900D03*
D13*
%TO.P,R28,2*%
%TO.N,Net-(R28-Pad2)*%
X160655000Y-54460900D03*
%TD*%
D12*
%TO.P,R11,1*%
%TO.N,/+5V*%
X67945000Y-52555900D03*
D13*
%TO.P,R11,2*%
%TO.N,Net-(D5-A)*%
X75565000Y-52555900D03*
%TD*%
D21*
%TO.P,Q9,1,G*%
%TO.N,Net-(D20-A)*%
X83385000Y-29215900D03*
D22*
%TO.P,Q9,2,D*%
%TO.N,/+5V_IN*%
X85925000Y-29215900D03*
%TO.P,Q9,3,S*%
%TO.N,Net-(D20-K)*%
X88465000Y-29215900D03*
%TD*%
D21*
%TO.P,Q12,1,G*%
%TO.N,Net-(D23-A)*%
X83385000Y-88905900D03*
D22*
%TO.P,Q12,2,D*%
%TO.N,/+12V_IN*%
X85925000Y-88905900D03*
%TO.P,Q12,3,S*%
%TO.N,Net-(D23-K)*%
X88465000Y-88905900D03*
%TD*%
D21*
%TO.P,Q6,1,G*%
%TO.N,Net-(D17-K)*%
X83385000Y-58425900D03*
D22*
%TO.P,Q6,2,D*%
%TO.N,/-12V_IN*%
X85925000Y-58425900D03*
%TO.P,Q6,3,S*%
%TO.N,Net-(D17-A)*%
X88465000Y-58425900D03*
%TD*%
D19*
%TO.P,J5,1,Pin_1*%
%TO.N,/GND*%
X206020000Y-134705900D03*
D20*
%TO.P,J5,2,Pin_2*%
X211020000Y-134705900D03*
%TO.P,J5,3,Pin_3*%
X216020000Y-134705900D03*
%TO.P,J5,4,Pin_4*%
X221020000Y-134705900D03*
%TD*%
D10*
%TO.P,K3,1*%
%TO.N,Net-(K2-Pad3)*%
X121240000Y-82635900D03*
D11*
%TO.P,K3,2*%
%TO.N,Net-(D9-A)*%
X123190000Y-88685900D03*
D10*
%TO.P,K3,3*%
%TO.N,Net-(K3-Pad3)*%
X135390000Y-88685900D03*
%TO.P,K3,4*%
%TO.N,unconnected-(K3-Pad4)*%
X135440000Y-76635900D03*
D11*
%TO.P,K3,5*%
%TO.N,/+5V*%
X123190000Y-76685900D03*
%TD*%
D18*
%TO.P,D20,1,K*%
%TO.N,Net-(D20-K)*%
X94180000Y-28270900D03*
D13*
%TO.P,D20,2,A*%
%TO.N,Net-(D20-A)*%
X101800000Y-28270900D03*
%TD*%
D18*
%TO.P,D21,1,K*%
%TO.N,Net-(D21-K)*%
X94180000Y-47320900D03*
D13*
%TO.P,D21,2,A*%
%TO.N,/GND*%
X101800000Y-47320900D03*
%TD*%
D30*
%TO.N,/+12V*%
X107734000Y-79033900D03*
%TO.N,Net-(K2-Pad3)*%
X133620000Y-70470400D03*
%TO.N,Net-(K3-Pad3)*%
X163398000Y-85179400D03*
%TO.N,Net-(K4-Pad3)*%
X139110000Y-77850500D03*
%TO.N,Net-(K5-Pad3)*%
X171640000Y-91213100D03*
X148937000Y-111609000D03*
%TD*%
D31*
%TO.N,/GND*%
X101800000Y-76530900D02*
X103052000Y-76530900D01*
X78948700Y-78929900D02*
X78948700Y-69909600D01*
X75565000Y-82400900D02*
X75565000Y-81149000D01*
X214830000Y-104860900D02*
X214830000Y-103609000D01*
X65405000Y-136135900D02*
X65405000Y-131135900D01*
X145824000Y-55095900D02*
X145824000Y-55162500D01*
X105610000Y-57480900D02*
X105610000Y-56229000D01*
X143510100Y-100816000D02*
X144862000Y-100816000D01*
X103052000Y-76530900D02*
X103678000Y-77156800D01*
X215378000Y-103609000D02*
X216125000Y-102862000D01*
X214830000Y-120101000D02*
X214830000Y-133516000D01*
X153035000Y-132565900D02*
X153035000Y-131589000D01*
X144862000Y-100816000D02*
X152500000Y-108454000D01*
X113230000Y-97795900D02*
X111978000Y-97795900D01*
X221020000Y-134706000D02*
X222885000Y-136571000D01*
X61595000Y-53907800D02*
X61595000Y-52555900D01*
X153035000Y-62374000D02*
X153035000Y-63350900D01*
X214830000Y-133516000D02*
X212210000Y-133516000D01*
X217370000Y-88732800D02*
X216134000Y-88732800D01*
X214830000Y-109940900D02*
X214830000Y-107400900D01*
X154237000Y-109431000D02*
X154237000Y-113110000D01*
X63182500Y-150028500D02*
X65405000Y-147806000D01*
X144862000Y-77920900D02*
X143510000Y-77920900D01*
X152140000Y-85199000D02*
X144862000Y-77920900D01*
X106920000Y-60042600D02*
X106920000Y-73969200D01*
X198339000Y-88984900D02*
X197050000Y-90274000D01*
X198339000Y-88742100D02*
X198339000Y-88984900D01*
X65405000Y-126135900D02*
X65405000Y-121135900D01*
X153035000Y-40725900D02*
X153035000Y-39749000D01*
X214830000Y-103609000D02*
X215378000Y-103609000D01*
X143510000Y-32470900D02*
X144862000Y-32470900D01*
X98149100Y-78929900D02*
X78948700Y-78929900D01*
X214190000Y-32830900D02*
X214190000Y-23636103D01*
X180455000Y-118831000D02*
X186255000Y-118831000D01*
X78948700Y-69909600D02*
X62946900Y-53907800D01*
X216134000Y-88732800D02*
X216125000Y-88742100D01*
X152775000Y-131589000D02*
X144862000Y-123676000D01*
X197050000Y-90274000D02*
X197050000Y-91525900D01*
X197005000Y-69025900D02*
X198339000Y-70360000D01*
X106862000Y-76530900D02*
X113230000Y-82899000D01*
X61595000Y-115574000D02*
X61595000Y-112880900D01*
X198339000Y-70360000D02*
X198339000Y-88742100D01*
X105610000Y-77156800D02*
X105610000Y-76530900D01*
X106920000Y-73969200D02*
X105610000Y-75279000D01*
X145824000Y-55095900D02*
X145824000Y-46065500D01*
X153035000Y-108454000D02*
X153035000Y-109430900D01*
X207290000Y-109941000D02*
X214830000Y-109941000D01*
D32*
X63182500Y-150028500D02*
X63182400Y-150028500D01*
D31*
X212210000Y-133516000D02*
X211615000Y-134111000D01*
X76729600Y-81149000D02*
X78948700Y-78929900D01*
X218925203Y-18900900D02*
X222885000Y-18900900D01*
X62946900Y-53907800D02*
X61595000Y-53907800D01*
X143510000Y-55095900D02*
X145824000Y-55095900D01*
X105610000Y-75279000D02*
X105610000Y-76530900D01*
X214830000Y-133516000D02*
X216020000Y-134705900D01*
X105610000Y-76530900D02*
X106862000Y-76530900D01*
X75565000Y-97559000D02*
X75565000Y-82400900D01*
X101800000Y-52419000D02*
X101800000Y-47320900D01*
X61595000Y-112880900D02*
X61595000Y-111529000D01*
X204750100Y-112480900D02*
X207290000Y-109941000D01*
X65405000Y-119384000D02*
X61595000Y-115574000D01*
X154237000Y-113110000D02*
X174735000Y-113110000D01*
X154237000Y-113110000D02*
X144862000Y-122486000D01*
D32*
X63182400Y-150028500D02*
X60960000Y-152250900D01*
D31*
X153035000Y-85199000D02*
X152140000Y-85199000D01*
X216125000Y-102862000D02*
X216125000Y-88742100D01*
X65405000Y-147806000D02*
X65405000Y-136135900D01*
X65405000Y-131135900D02*
X65405000Y-126135900D01*
X105610000Y-57480900D02*
X105610000Y-58732800D01*
X113230000Y-97795900D02*
X113230000Y-88270900D01*
X145824000Y-46065500D02*
X152140000Y-39749000D01*
X153035000Y-39749000D02*
X152140000Y-39749000D01*
X103052000Y-107321000D02*
X101800100Y-107321000D01*
X100548000Y-76530900D02*
X98149100Y-78929900D01*
X111978000Y-98394700D02*
X103052000Y-107321000D01*
X144862000Y-122486000D02*
X144862000Y-123676000D01*
X61595000Y-111529000D02*
X75565000Y-97559000D01*
X113230000Y-82899000D02*
X113230000Y-88270900D01*
X101800000Y-76530900D02*
X100548000Y-76530900D01*
X105610000Y-56229000D02*
X101800000Y-52419000D01*
X65405000Y-121135900D02*
X65405000Y-119384000D01*
X153035000Y-131589000D02*
X152775000Y-131589000D01*
X217370000Y-87480900D02*
X217370000Y-88732800D01*
X75565000Y-81149000D02*
X76729600Y-81149000D01*
X143510100Y-123676000D02*
X144862000Y-123676000D01*
X145824000Y-55162500D02*
X153035000Y-62374000D01*
X174735000Y-113110000D02*
X180455000Y-118831000D01*
X153035000Y-109431000D02*
X154237000Y-109431000D01*
X111978000Y-97795900D02*
X111978000Y-98394700D01*
X61595000Y-19535900D02*
X61595000Y-52555900D01*
X144862000Y-32470900D02*
X152140000Y-39749000D01*
X214190000Y-23636103D02*
X218925203Y-18900900D01*
X214830000Y-107400900D02*
X214830000Y-104860900D01*
X198339000Y-88742100D02*
X216125000Y-88742100D01*
X103678000Y-77156800D02*
X105610000Y-77156800D01*
X105610000Y-58732800D02*
X106920000Y-60042600D01*
X152500000Y-108454000D02*
X153035000Y-108454000D01*
X60960000Y-152251000D02*
X63182500Y-150028500D01*
X153035000Y-86175900D02*
X153035000Y-85199000D01*
X222885000Y-136571000D02*
X222885000Y-152250900D01*
%TO.N,Net-(D1-K)*%
X221810000Y-39162800D02*
X221262000Y-39162800D01*
X221810000Y-68109000D02*
X220540000Y-68109000D01*
X215742000Y-44683200D02*
X215742000Y-63310900D01*
X220248000Y-40177000D02*
X215742000Y-44683200D01*
X221810000Y-37910900D02*
X221810000Y-39162800D01*
X221262000Y-39162800D02*
X220248000Y-40177000D01*
X214190000Y-63310900D02*
X215742000Y-63310900D01*
X220248000Y-40177000D02*
X215442000Y-35370900D01*
X215442000Y-35370900D02*
X214190000Y-35370900D01*
X220540000Y-68109000D02*
X215742000Y-63310900D01*
X221810000Y-69660900D02*
X221810000Y-68109000D01*
%TO.N,/+12V*%
X95431900Y-103030000D02*
X95431900Y-91335800D01*
X88979200Y-109482000D02*
X95431900Y-103030000D01*
X214190000Y-39199000D02*
X213707000Y-39199000D01*
X213707000Y-39199000D02*
X208435000Y-33927200D01*
X87451600Y-109482000D02*
X88979200Y-109482000D01*
X214190000Y-40450900D02*
X214190000Y-39199000D01*
X85925000Y-107956000D02*
X87451600Y-109482000D01*
X95431900Y-91335800D02*
X107734000Y-79033900D01*
%TO.N,/+5V*%
X124895000Y-97841300D02*
X124895000Y-78390500D01*
X215349000Y-111229000D02*
X214830000Y-111229000D01*
X154277000Y-56463100D02*
X154277000Y-66885000D01*
X124902000Y-120694000D02*
X123190100Y-122405900D01*
X141958000Y-39384700D02*
X131609000Y-39384700D01*
X156845000Y-74764000D02*
X156845000Y-76015900D01*
X143510000Y-58905900D02*
X143510000Y-57354000D01*
X221902000Y-101033000D02*
X221198000Y-101737000D01*
X154277000Y-66885000D02*
X149937000Y-66885000D01*
X143510000Y-60457800D02*
X143510000Y-58905900D01*
X123190000Y-99545900D02*
X124895000Y-97841300D01*
X124895000Y-78390500D02*
X123190000Y-76685900D01*
X221198000Y-101737000D02*
X221198000Y-105380000D01*
X141960000Y-56045200D02*
X141960000Y-51534700D01*
X156845000Y-98910900D02*
X156845000Y-97659000D01*
X141958000Y-51533200D02*
X141958000Y-39384700D01*
X156845000Y-97659000D02*
X143510000Y-84324000D01*
X123190000Y-99545900D02*
X124902000Y-101258000D01*
X119282000Y-72778100D02*
X123190000Y-76685900D01*
X143268000Y-57354000D02*
X141960000Y-56045200D01*
X123190000Y-53825900D02*
X119282000Y-57733700D01*
X143510000Y-37832800D02*
X141958000Y-39384700D01*
X131609000Y-39384700D02*
X123190000Y-30965900D01*
X221198000Y-105380000D02*
X215349000Y-111229000D01*
X149937000Y-66885000D02*
X143510000Y-60457800D01*
X156845000Y-53190900D02*
X156845000Y-54442800D01*
X143510000Y-36280900D02*
X143510000Y-37832800D01*
X131609000Y-45407100D02*
X123190000Y-53825900D01*
X124902000Y-101258000D02*
X124902000Y-120694000D01*
X222450000Y-101033000D02*
X221902000Y-101033000D01*
X143510000Y-84324000D02*
X143510000Y-81730900D01*
X154277000Y-72196000D02*
X156845000Y-74764000D01*
X119282000Y-57733700D02*
X119282000Y-72778100D01*
X156297000Y-54442800D02*
X154277000Y-56463100D01*
X131609000Y-39384700D02*
X131609000Y-45407100D01*
X141960000Y-51534700D02*
X141958000Y-51533200D01*
X214830000Y-111229000D02*
X214830000Y-112480900D01*
X154277000Y-66885000D02*
X154277000Y-72196000D01*
X143510000Y-57354000D02*
X143268000Y-57354000D01*
X156845000Y-54442800D02*
X156297000Y-54442800D01*
X222450000Y-99780900D02*
X222450000Y-101033000D01*
%TO.N,Net-(D1-A)*%
X223100000Y-60469400D02*
X223100000Y-37393600D01*
X211432000Y-34100800D02*
X219914000Y-34100800D01*
X198315000Y-32195900D02*
X199567000Y-32195900D01*
X199567000Y-32195900D02*
X199762000Y-32000700D01*
X221810000Y-61759000D02*
X223100000Y-60469400D01*
X221810000Y-35370900D02*
X221810000Y-35996800D01*
X209332000Y-32000700D02*
X211432000Y-34100800D01*
X223100000Y-37393600D02*
X222329000Y-36622800D01*
X199762000Y-32000700D02*
X209332000Y-32000700D01*
X221810000Y-36622800D02*
X221810000Y-35996800D01*
X221810000Y-63310900D02*
X221810000Y-61759000D01*
X219914000Y-34100800D02*
X221810000Y-35996800D01*
X222329000Y-36622800D02*
X221810000Y-36622800D01*
%TO.N,Net-(D2-K)*%
X186969400Y-22860000D02*
X209335000Y-45225600D01*
X209335000Y-45225600D02*
X209335000Y-64805900D01*
X209335000Y-64805900D02*
X214190000Y-69660900D01*
%TO.N,Net-(D4-A)*%
X74313100Y-112881000D02*
X73042400Y-111610000D01*
X65405700Y-111610000D02*
X64135000Y-112880900D01*
X73042400Y-111610000D02*
X65405700Y-111610000D01*
X75564900Y-112881000D02*
X74313100Y-112881000D01*
%TO.N,Net-(D6-K)*%
X145843000Y-83176400D02*
X179946000Y-117279000D01*
X144810000Y-80179000D02*
X145843000Y-81212000D01*
X132786000Y-71322300D02*
X133803000Y-71322300D01*
X187878000Y-118637000D02*
X187878000Y-118831000D01*
X186520000Y-117279000D02*
X187878000Y-118637000D01*
X133803000Y-71322300D02*
X142660000Y-80179000D01*
X121240000Y-59775900D02*
X132786000Y-71322300D01*
X142660000Y-80179000D02*
X144810000Y-80179000D01*
X179946000Y-117279000D02*
X186520000Y-117279000D01*
X187878000Y-118831000D02*
X189429900Y-118831000D01*
X145843000Y-81212000D02*
X145843000Y-83176400D01*
%TO.N,Net-(D10-A)*%
X153034900Y-110701000D02*
X146607000Y-110701000D01*
X145062000Y-112246000D02*
X143510000Y-112246000D01*
X146607000Y-110701000D02*
X145062000Y-112246000D01*
%TO.N,/PEV_CP*%
X198025000Y-121358000D02*
X198025000Y-135428000D01*
X188007000Y-136458000D02*
X186255000Y-134706000D01*
X197050000Y-118831000D02*
X197050000Y-120383000D01*
X198025000Y-135428000D02*
X196995000Y-136458000D01*
X197050000Y-120383000D02*
X198025000Y-121358000D01*
X196995000Y-136458000D02*
X188007000Y-136458000D01*
%TO.N,Net-(D20-A)*%
X101800000Y-28270900D02*
X100548000Y-28270900D01*
X99296200Y-27019000D02*
X85581900Y-27019000D01*
X85581900Y-27019000D02*
X83385000Y-29215900D01*
X100548000Y-28270900D02*
X99296200Y-27019000D01*
%TO.N,Net-(D22-A)*%
X100548000Y-37795900D02*
X101800000Y-37795900D01*
X85925000Y-38740900D02*
X88181400Y-36484500D01*
X85925000Y-38740900D02*
X85925000Y-45725900D01*
X88181400Y-36484500D02*
X99236700Y-36484500D01*
X99236700Y-36484500D02*
X100548000Y-37795900D01*
X85925000Y-45725900D02*
X83385000Y-48265900D01*
%TO.N,Net-(D25-A)*%
X85925000Y-105416000D02*
X84128700Y-107212300D01*
X85925000Y-98430900D02*
X85925000Y-105416000D01*
X84128700Y-107212300D02*
X83385000Y-107956000D01*
%TO.N,Net-(D18-A)*%
X104358000Y-67005900D02*
X105610000Y-67005900D01*
X95431900Y-75932100D02*
X104358000Y-67005900D01*
X94180000Y-76530900D02*
X95431900Y-76530900D01*
X95431900Y-76530900D02*
X95431900Y-75932100D01*
%TO.N,/+12V_IN*%
X65405000Y-95100900D02*
X65405000Y-90100900D01*
X65405000Y-105100900D02*
X65405000Y-100100900D01*
X65405000Y-100100900D02*
X65405000Y-95100900D01*
%TO.N,/-12V_IN*%
X65405000Y-74620900D02*
X65405000Y-69620900D01*
X65405000Y-64620900D02*
X65405000Y-59620900D01*
X65405000Y-69620900D02*
X65405000Y-64620900D01*
%TO.N,/EVSE_CP*%
X187842000Y-110949000D02*
X187842000Y-114270000D01*
X145062000Y-68574500D02*
X167009000Y-90522000D01*
X196255000Y-122683000D02*
X196255000Y-134705900D01*
X187842000Y-114270000D02*
X196255000Y-122683000D01*
X145062000Y-65799900D02*
X145062000Y-68574500D01*
X167416000Y-90522000D02*
X187842000Y-110949000D01*
X135390000Y-42965900D02*
X135390000Y-45957800D01*
X135390000Y-45957800D02*
X141258000Y-51825500D01*
X141258000Y-61995700D02*
X145062000Y-65799900D01*
X167009000Y-90522000D02*
X167416000Y-90522000D01*
X141258000Y-51825500D02*
X141258000Y-61995700D01*
%TO.N,/+5V_IN*%
X65405000Y-40410900D02*
X65405000Y-35410900D01*
X65405000Y-35410900D02*
X65405000Y-30410900D01*
X65405000Y-45410900D02*
X65405000Y-40410900D01*
%TO.N,/OPAMP_OUT*%
X198315000Y-55771200D02*
X171106000Y-28562200D01*
X121240000Y-30472200D02*
X121240000Y-36915900D01*
X198315000Y-58865900D02*
X198315000Y-55771200D01*
X171106000Y-28562200D02*
X123150000Y-28562200D01*
X123150000Y-28562200D02*
X121240000Y-30472200D01*
%TO.N,Net-(K2-Pad3)*%
X138322000Y-68225400D02*
X146418000Y-76321300D01*
X133620000Y-70470400D02*
X135865000Y-68225400D01*
X146418000Y-77548600D02*
X151554000Y-82685200D01*
X135865000Y-68225400D02*
X138322000Y-68225400D01*
X135865000Y-68225400D02*
X135865000Y-66300700D01*
X146418000Y-76321300D02*
X146418000Y-77548600D01*
X151554000Y-82685200D02*
X157729000Y-82685200D01*
X157729000Y-82685200D02*
X178634900Y-103590900D01*
%TO.N,Net-(K3-Pad3)*%
X189430000Y-111211000D02*
X163398000Y-85179400D01*
D32*
%TO.N,Net-(K4-Pad3)*%
X137250000Y-109686000D02*
X137249900Y-109686000D01*
D31*
X137250000Y-109686000D02*
X139110000Y-107826000D01*
D32*
X137249900Y-109686000D02*
X135390000Y-111545900D01*
D31*
X139110000Y-107826000D02*
X139110000Y-77850500D01*
X135390000Y-111546000D02*
X137250000Y-109686000D01*
%TO.N,Net-(K5-Pad3)*%
X171640000Y-90900800D02*
X171640000Y-91213100D01*
X148937000Y-111609000D02*
X141960000Y-118586000D01*
X141960000Y-118586000D02*
X141960000Y-124306000D01*
X178635000Y-83905900D02*
X171640000Y-90900800D01*
X135390000Y-130876000D02*
X135390000Y-134405900D01*
X141960000Y-124306000D02*
X135390000Y-130876000D01*
%TO.N,Net-(R1-Pad1)*%
X179265000Y-35672400D02*
X179265000Y-32195900D01*
X203085000Y-64135000D02*
X203085000Y-59492400D01*
X203085000Y-59492400D02*
X179265000Y-35672400D01*
%TO.N,Net-(R26-Pad1)*%
X158097000Y-124306000D02*
X167627000Y-133836000D01*
X167627000Y-133836000D02*
X168274900Y-133836000D01*
X156845100Y-124306000D02*
X158097000Y-124306000D01*
%TO.N,/GP0*%
X186923000Y-51808400D02*
X168275000Y-33160500D01*
X222998000Y-118849000D02*
X223725000Y-118122000D01*
X223725000Y-118122000D02*
X223725000Y-88147200D01*
X223725000Y-88147200D02*
X187386000Y-51808400D01*
X168275000Y-33160500D02*
X168275000Y-31835900D01*
X187386000Y-51808400D02*
X186923000Y-51808400D01*
X222450000Y-118849000D02*
X222998000Y-118849000D01*
X222450000Y-120100900D02*
X222450000Y-118849000D01*
%TO.N,Net-(R27-Pad2)*%
X150477000Y-30330900D02*
X149225000Y-30330900D01*
X159150000Y-31582800D02*
X151729000Y-31582800D01*
X159403000Y-31835900D02*
X159150000Y-31582800D01*
X151729000Y-31582800D02*
X150477000Y-30330900D01*
X160655000Y-31835900D02*
X159403000Y-31835900D01*
%TO.N,/GP1*%
X206490000Y-116309000D02*
X181325000Y-91144000D01*
X181325000Y-91144000D02*
X181325000Y-75555400D01*
X221198000Y-117561000D02*
X219946000Y-116309000D01*
X181325000Y-75555400D02*
X168275000Y-62505600D01*
X219946000Y-116309000D02*
X206490000Y-116309000D01*
X168275000Y-62505600D02*
X168275000Y-54460900D01*
X222449900Y-117561000D02*
X221198000Y-117561000D01*
%TO.N,Net-(R31-Pad2)*%
X151752000Y-123041000D02*
X160654900Y-123041000D01*
X150477000Y-121766000D02*
X151752000Y-123041000D01*
X149225100Y-121766000D02*
X150477000Y-121766000D01*
%TO.N,Net-(D17-A)*%
X88465000Y-77475900D02*
X88465000Y-67640900D01*
%TO.N,Net-(D19-K)*%
X100548000Y-67005900D02*
X101800000Y-67005900D01*
X85925000Y-74935900D02*
X83385000Y-77475900D01*
X85925000Y-67640900D02*
X85925000Y-74935900D01*
X85925000Y-67640900D02*
X87811900Y-65754000D01*
X99296200Y-65754000D02*
X100548000Y-67005900D01*
X87811900Y-65754000D02*
X99296200Y-65754000D01*
%TO.N,Net-(D20-K)*%
X95431900Y-37795900D02*
X104957000Y-47320900D01*
X88465000Y-48265900D02*
X88465000Y-38740900D01*
X104957000Y-47320900D02*
X105610000Y-47320900D01*
X94180000Y-37795900D02*
X95431900Y-37795900D01*
%TO.N,Net-(D23-K)*%
X88465000Y-107955900D02*
X88465000Y-98430900D01*
%TO.N,Net-(R1-Pad2)*%
X179349400Y-24660300D02*
X186885000Y-32195900D01*
X179349400Y-22860000D02*
X179349400Y-24660300D01*
%TO.N,Net-(R3-Pad1)*%
X192101000Y-32195900D02*
X208165000Y-48260000D01*
X190695000Y-32195900D02*
X192101000Y-32195900D01*
%TO.N,Net-(R15-Pad2)*%
X197050000Y-83905900D02*
X195798000Y-83905900D01*
X195798000Y-83905900D02*
X195798000Y-85157800D01*
X195798000Y-85157800D02*
X189430000Y-91525900D01*
%TO.N,Net-(R22-Pad1)*%
X156845000Y-32870900D02*
X158097000Y-32870900D01*
X158097000Y-32870900D02*
X167222000Y-41995900D01*
X167222000Y-41995900D02*
X168275000Y-41995900D01*
%TO.N,Net-(R23-Pad1)*%
X166987000Y-64620900D02*
X168275000Y-64620900D01*
X156845000Y-55730900D02*
X158097000Y-55730900D01*
X158097000Y-55730900D02*
X166987000Y-64620900D01*
%TO.N,Net-(R25-Pad1)*%
X167622000Y-110976000D02*
X168274900Y-110976000D01*
X156845100Y-101451000D02*
X158097000Y-101451000D01*
X158097000Y-101451000D02*
X167622000Y-110976000D01*
%TO.N,Net-(R30-Pad2)*%
X150477000Y-98910900D02*
X151747000Y-100181000D01*
X151747000Y-100181000D02*
X160654900Y-100181000D01*
X149225000Y-98910900D02*
X150477000Y-98910900D01*
%TD*%
M02*
