%TF.GenerationSoftware,KiCad,Pcbnew,7.0.6*%
%TF.CreationDate,2024-10-30T10:36:51-05:00*%
%TF.ProjectId,AcCCS,41634343-532e-46b6-9963-61645f706362,rev?*%
%TF.SameCoordinates,Original*%
%TF.FileFunction,Copper,L1,Top*%
%TF.FilePolarity,Positive*%
%FSLAX46Y46*%
G04 Gerber Fmt 4.6, Leading zero omitted, Abs format (unit mm)*
G04 Created by KiCad (PCBNEW 7.0.6) date 2024-10-30 10:36:51*
%MOMM*%
%LPD*%
G01*
G04 APERTURE LIST*
%TA.AperFunction,ComponentPad*%
%ADD10C,3.000000*%
%TD*%
%TA.AperFunction,ComponentPad*%
%ADD11C,2.500000*%
%TD*%
%TA.AperFunction,ComponentPad*%
%ADD12C,1.600000*%
%TD*%
%TA.AperFunction,ComponentPad*%
%ADD13O,1.600000X1.600000*%
%TD*%
%TA.AperFunction,ComponentPad*%
%ADD14R,1.800000X1.800000*%
%TD*%
%TA.AperFunction,ComponentPad*%
%ADD15C,1.800000*%
%TD*%
%TA.AperFunction,ComponentPad*%
%ADD16C,5.600000*%
%TD*%
%TA.AperFunction,ComponentPad*%
%ADD17C,2.000000*%
%TD*%
%TA.AperFunction,ComponentPad*%
%ADD18R,1.600000X1.600000*%
%TD*%
%TA.AperFunction,ComponentPad*%
%ADD19R,2.600000X2.600000*%
%TD*%
%TA.AperFunction,ComponentPad*%
%ADD20C,2.600000*%
%TD*%
%TA.AperFunction,ComponentPad*%
%ADD21R,1.905000X2.000000*%
%TD*%
%TA.AperFunction,ComponentPad*%
%ADD22O,1.905000X2.000000*%
%TD*%
%TA.AperFunction,ComponentPad*%
%ADD23R,1.700000X1.700000*%
%TD*%
%TA.AperFunction,ComponentPad*%
%ADD24O,1.700000X1.700000*%
%TD*%
%TA.AperFunction,ComponentPad*%
%ADD25R,2.200000X2.200000*%
%TD*%
%TA.AperFunction,ComponentPad*%
%ADD26O,2.200000X2.200000*%
%TD*%
%TA.AperFunction,ComponentPad*%
%ADD27C,1.440000*%
%TD*%
%TA.AperFunction,ComponentPad*%
%ADD28R,1.500000X1.050000*%
%TD*%
%TA.AperFunction,ComponentPad*%
%ADD29O,1.500000X1.050000*%
%TD*%
%TA.AperFunction,ViaPad*%
%ADD30C,0.800000*%
%TD*%
%TA.AperFunction,Conductor*%
%ADD31C,0.500000*%
%TD*%
%TA.AperFunction,Conductor*%
%ADD32C,0.250000*%
%TD*%
G04 APERTURE END LIST*
D10*
%TO.P,K5,1*%
%TO.N,/PEV_PP*%
X121240000Y-128355900D03*
D11*
%TO.P,K5,2*%
%TO.N,Net-(D11-A)*%
X123190000Y-134405900D03*
D10*
%TO.P,K5,3*%
%TO.N,Net-(K5-Pad3)*%
X135390000Y-134405900D03*
%TO.P,K5,4*%
%TO.N,unconnected-(K5-Pad4)*%
X135440000Y-122355900D03*
D11*
%TO.P,K5,5*%
%TO.N,/+5V*%
X123190000Y-122405900D03*
%TD*%
D12*
%TO.P,R30,1*%
%TO.N,/GP3*%
X168275000Y-100180900D03*
D13*
%TO.P,R30,2*%
%TO.N,Net-(R30-Pad2)*%
X160655000Y-100180900D03*
%TD*%
D12*
%TO.P,R9,1*%
%TO.N,Net-(R8-Pad2)*%
X190695000Y-58865900D03*
D13*
%TO.P,R9,2*%
%TO.N,/OPAMP_OUT*%
X198315000Y-58865900D03*
%TD*%
D14*
%TO.P,D15,1,K*%
%TO.N,/GND*%
X143510000Y-100815900D03*
D15*
%TO.P,D15,2,A*%
%TO.N,Net-(D15-A)*%
X143510000Y-98275900D03*
%TD*%
D16*
%TO.P,M2,1*%
%TO.N,/GND*%
X222885000Y-18900900D03*
%TD*%
D17*
%TO.P,C2,1*%
%TO.N,Net-(D1-K)*%
X192005000Y-69025900D03*
%TO.P,C2,2*%
%TO.N,/GND*%
X197005000Y-69025900D03*
%TD*%
D18*
%TO.P,U8,1*%
%TO.N,Net-(R31-Pad2)*%
X149225000Y-121765900D03*
D13*
%TO.P,U8,2*%
%TO.N,Net-(D16-A)*%
X149225000Y-124305900D03*
%TO.P,U8,3*%
%TO.N,Net-(R26-Pad1)*%
X156845000Y-124305900D03*
%TO.P,U8,4*%
%TO.N,/+5V*%
X156845000Y-121765900D03*
%TD*%
D19*
%TO.P,J1,1,Pin_1*%
%TO.N,/GND*%
X65405000Y-121135900D03*
D20*
%TO.P,J1,2,Pin_2*%
X65405000Y-126135900D03*
%TO.P,J1,3,Pin_3*%
X65405000Y-131135900D03*
%TO.P,J1,4,Pin_4*%
X65405000Y-136135900D03*
%TD*%
D17*
%TO.P,C1,1*%
%TO.N,Net-(U1-CTL)*%
X180575000Y-69025900D03*
%TO.P,C1,2*%
%TO.N,/GND*%
X185575000Y-69025900D03*
%TD*%
D18*
%TO.P,D19,1,K*%
%TO.N,Net-(D19-K)*%
X101800000Y-67005900D03*
D13*
%TO.P,D19,2,A*%
%TO.N,Net-(D17-A)*%
X94180000Y-67005900D03*
%TD*%
D14*
%TO.P,D14,1,K*%
%TO.N,/GND*%
X143510000Y-77920900D03*
D15*
%TO.P,D14,2,A*%
%TO.N,Net-(D14-A)*%
X143510000Y-75380900D03*
%TD*%
D12*
%TO.P,R4,1*%
%TO.N,/GND*%
X179265000Y-41085900D03*
D13*
%TO.P,R4,2*%
%TO.N,Net-(R4-Pad2)*%
X186885000Y-41085900D03*
%TD*%
D17*
%TO.P,C3,1*%
%TO.N,/GND*%
X203435000Y-33465900D03*
%TO.P,C3,2*%
%TO.N,/+12V*%
X208435000Y-33465900D03*
%TD*%
D12*
%TO.P,R10,1*%
%TO.N,/+12V*%
X67945000Y-112880900D03*
D13*
%TO.P,R10,2*%
%TO.N,Net-(D4-A)*%
X75565000Y-112880900D03*
%TD*%
D18*
%TO.P,U2,1*%
%TO.N,Net-(R8-Pad2)*%
X214200000Y-48715900D03*
D13*
%TO.P,U2,2,-*%
%TO.N,Net-(U2--)*%
X214200000Y-51255900D03*
%TO.P,U2,3,+*%
%TO.N,Net-(U2-+)*%
X214200000Y-53795900D03*
%TO.P,U2,4,V-*%
%TO.N,/-12V*%
X214200000Y-56335900D03*
%TO.P,U2,5*%
%TO.N,N/C*%
X221820000Y-56335900D03*
%TO.P,U2,6*%
X221820000Y-53795900D03*
%TO.P,U2,7*%
X221820000Y-51255900D03*
%TO.P,U2,8,V+*%
%TO.N,/+12V*%
X221820000Y-48715900D03*
%TD*%
D12*
%TO.P,R24,1*%
%TO.N,Net-(R24-Pad1)*%
X168275000Y-87445900D03*
D13*
%TO.P,R24,2*%
%TO.N,Net-(Q3-B)*%
X160655000Y-87445900D03*
%TD*%
D12*
%TO.P,R3,1*%
%TO.N,Net-(R3-Pad1)*%
X190695000Y-32195900D03*
D13*
%TO.P,R3,2*%
%TO.N,Net-(D1-A)*%
X198315000Y-32195900D03*
%TD*%
D12*
%TO.P,R16,1*%
%TO.N,Net-(K5-Pad3)*%
X178635000Y-83905900D03*
D13*
%TO.P,R16,2*%
%TO.N,/+5V*%
X186255000Y-83905900D03*
%TD*%
D21*
%TO.P,Q8,1,G*%
%TO.N,Net-(D19-K)*%
X83385000Y-77475900D03*
D22*
%TO.P,Q8,2,D*%
%TO.N,/-12V*%
X85925000Y-77475900D03*
%TO.P,Q8,3,S*%
%TO.N,Net-(D17-A)*%
X88465000Y-77475900D03*
%TD*%
D18*
%TO.P,D22,1,K*%
%TO.N,Net-(D20-K)*%
X94180000Y-37795900D03*
D13*
%TO.P,D22,2,A*%
%TO.N,Net-(D22-A)*%
X101800000Y-37795900D03*
%TD*%
D18*
%TO.P,D24,1,K*%
%TO.N,Net-(D24-K)*%
X94180000Y-107320900D03*
D13*
%TO.P,D24,2,A*%
%TO.N,/GND*%
X101800000Y-107320900D03*
%TD*%
D18*
%TO.P,U6,1*%
%TO.N,Net-(R29-Pad2)*%
X149225000Y-76015900D03*
D13*
%TO.P,U6,2*%
%TO.N,Net-(D14-A)*%
X149225000Y-78555900D03*
%TO.P,U6,3*%
%TO.N,Net-(R24-Pad1)*%
X156845000Y-78555900D03*
%TO.P,U6,4*%
%TO.N,/+5V*%
X156845000Y-76015900D03*
%TD*%
D23*
%TO.P,J8,1,Pin_1*%
%TO.N,/I2C_SCL*%
X209750000Y-99780900D03*
D24*
%TO.P,J8,2,Pin_2*%
%TO.N,/I2C_SDA*%
X209750000Y-102320900D03*
%TD*%
D25*
%TO.P,D11,1,K*%
%TO.N,/+5V*%
X143510000Y-127485900D03*
D26*
%TO.P,D11,2,A*%
%TO.N,Net-(D11-A)*%
X143510000Y-135105900D03*
%TD*%
D18*
%TO.P,U5,1*%
%TO.N,Net-(R28-Pad2)*%
X149225000Y-53190900D03*
D13*
%TO.P,U5,2*%
%TO.N,Net-(D13-A)*%
X149225000Y-55730900D03*
%TO.P,U5,3*%
%TO.N,Net-(R23-Pad1)*%
X156845000Y-55730900D03*
%TO.P,U5,4*%
%TO.N,/+5V*%
X156845000Y-53190900D03*
%TD*%
D23*
%TO.P,J6,1,Pin_1*%
%TO.N,/555_OUT*%
X218059000Y-26035000D03*
%TD*%
D12*
%TO.P,R29,1*%
%TO.N,/GP2*%
X168275000Y-77320900D03*
D13*
%TO.P,R29,2*%
%TO.N,Net-(R29-Pad2)*%
X160655000Y-77320900D03*
%TD*%
D14*
%TO.P,D3,1,K*%
%TO.N,/-12V*%
X61595000Y-82400900D03*
D15*
%TO.P,D3,2,A*%
%TO.N,Net-(D3-A)*%
X64135000Y-82400900D03*
%TD*%
D27*
%TO.P,RV1,1,1*%
%TO.N,unconnected-(RV1-Pad1)*%
X203085000Y-69215000D03*
%TO.P,RV1,2,2*%
%TO.N,Net-(D1-A)*%
X208165000Y-66675000D03*
%TO.P,RV1,3,3*%
%TO.N,Net-(R1-Pad1)*%
X203085000Y-64135000D03*
%TD*%
D12*
%TO.P,R19,1*%
%TO.N,Net-(R14-Pad2)*%
X178635000Y-118830900D03*
D13*
%TO.P,R19,2*%
%TO.N,/GND*%
X186255000Y-118830900D03*
%TD*%
D21*
%TO.P,Q14,1,G*%
%TO.N,Net-(D25-A)*%
X83385000Y-107955900D03*
D22*
%TO.P,Q14,2,D*%
%TO.N,/+12V*%
X85925000Y-107955900D03*
%TO.P,Q14,3,S*%
%TO.N,Net-(D23-K)*%
X88465000Y-107955900D03*
%TD*%
D12*
%TO.P,R25,1*%
%TO.N,Net-(R25-Pad1)*%
X168275000Y-110975900D03*
D13*
%TO.P,R25,2*%
%TO.N,Net-(Q4-B)*%
X160655000Y-110975900D03*
%TD*%
D18*
%TO.P,D18,1,K*%
%TO.N,/GND*%
X101800000Y-76530900D03*
D13*
%TO.P,D18,2,A*%
%TO.N,Net-(D18-A)*%
X94180000Y-76530900D03*
%TD*%
D12*
%TO.P,R40,1*%
%TO.N,Net-(D25-A)*%
X105610000Y-97795900D03*
D13*
%TO.P,R40,2*%
%TO.N,/GND*%
X113230000Y-97795900D03*
%TD*%
D14*
%TO.P,D12,1,K*%
%TO.N,/GND*%
X143510000Y-32470900D03*
D15*
%TO.P,D12,2,A*%
%TO.N,Net-(D12-A)*%
X143510000Y-29930900D03*
%TD*%
D18*
%TO.P,U1,1,GND*%
%TO.N,/GND*%
X214190000Y-32830900D03*
D13*
%TO.P,U1,2,TR*%
%TO.N,Net-(D1-K)*%
X214190000Y-35370900D03*
%TO.P,U1,3,OUT*%
%TO.N,/555_OUT*%
X214190000Y-37910900D03*
%TO.P,U1,4,RST*%
%TO.N,/+12V*%
X214190000Y-40450900D03*
%TO.P,U1,5,CTL*%
%TO.N,Net-(U1-CTL)*%
X221810000Y-40450900D03*
%TO.P,U1,6,TH*%
%TO.N,Net-(D1-K)*%
X221810000Y-37910900D03*
%TO.P,U1,7,DIS*%
%TO.N,Net-(D1-A)*%
X221810000Y-35370900D03*
%TO.P,U1,8,VCC*%
%TO.N,/+12V*%
X221810000Y-32830900D03*
%TD*%
D10*
%TO.P,K1,1*%
%TO.N,/OPAMP_OUT*%
X121240000Y-36915900D03*
D11*
%TO.P,K1,2*%
%TO.N,Net-(D7-A)*%
X123190000Y-42965900D03*
D10*
%TO.P,K1,3*%
%TO.N,/EVSE_CP*%
X135390000Y-42965900D03*
%TO.P,K1,4*%
%TO.N,unconnected-(K1-Pad4)*%
X135440000Y-30915900D03*
D11*
%TO.P,K1,5*%
%TO.N,/+5V*%
X123190000Y-30965900D03*
%TD*%
D18*
%TO.P,D25,1,K*%
%TO.N,Net-(D23-K)*%
X94180000Y-97795900D03*
D13*
%TO.P,D25,2,A*%
%TO.N,Net-(D25-A)*%
X101800000Y-97795900D03*
%TD*%
D12*
%TO.P,R17,1*%
%TO.N,Net-(K4-Pad3)*%
X209750000Y-87480900D03*
D13*
%TO.P,R17,2*%
%TO.N,/GND*%
X217370000Y-87480900D03*
%TD*%
D12*
%TO.P,R27,1*%
%TO.N,/GP0*%
X168275000Y-31835900D03*
D13*
%TO.P,R27,2*%
%TO.N,Net-(R27-Pad2)*%
X160655000Y-31835900D03*
%TD*%
D12*
%TO.P,R22,1*%
%TO.N,Net-(R22-Pad1)*%
X168275000Y-41995900D03*
D13*
%TO.P,R22,2*%
%TO.N,Net-(Q1-B)*%
X160655000Y-41995900D03*
%TD*%
D12*
%TO.P,R36,1*%
%TO.N,Net-(D20-K)*%
X105610000Y-47320900D03*
D13*
%TO.P,R36,2*%
%TO.N,Net-(D21-K)*%
X113230000Y-47320900D03*
%TD*%
D16*
%TO.P,M3,1*%
%TO.N,/GND*%
X60960000Y-152250900D03*
%TD*%
D12*
%TO.P,R7,1*%
%TO.N,/-12V*%
X190695000Y-49975900D03*
D13*
%TO.P,R7,2*%
%TO.N,Net-(U2-+)*%
X198315000Y-49975900D03*
%TD*%
D12*
%TO.P,R18,1*%
%TO.N,Net-(R13-Pad2)*%
X189430000Y-103590900D03*
D13*
%TO.P,R18,2*%
%TO.N,Net-(R18-Pad2)*%
X197050000Y-103590900D03*
%TD*%
D25*
%TO.P,D8,1,K*%
%TO.N,/+5V*%
X143510000Y-58905900D03*
D26*
%TO.P,D8,2,A*%
%TO.N,Net-(D8-A)*%
X143510000Y-66525900D03*
%TD*%
D12*
%TO.P,R38,1*%
%TO.N,Net-(D23-A)*%
X105610000Y-88270900D03*
D13*
%TO.P,R38,2*%
%TO.N,/GND*%
X113230000Y-88270900D03*
%TD*%
D25*
%TO.P,D10,1,K*%
%TO.N,/+5V*%
X143510000Y-104625900D03*
D26*
%TO.P,D10,2,A*%
%TO.N,Net-(D10-A)*%
X143510000Y-112245900D03*
%TD*%
D12*
%TO.P,R1,1*%
%TO.N,Net-(R1-Pad1)*%
X179265000Y-32195900D03*
D13*
%TO.P,R1,2*%
%TO.N,Net-(R1-Pad2)*%
X186885000Y-32195900D03*
%TD*%
D12*
%TO.P,R21,1*%
%TO.N,Net-(R18-Pad2)*%
X178635000Y-111210900D03*
D13*
%TO.P,R21,2*%
%TO.N,/GND*%
X186255000Y-111210900D03*
%TD*%
D28*
%TO.P,Q4,1,E*%
%TO.N,/GND*%
X153035000Y-109430900D03*
D29*
%TO.P,Q4,2,C*%
%TO.N,Net-(D10-A)*%
X153035000Y-110700900D03*
%TO.P,Q4,3,B*%
%TO.N,Net-(Q4-B)*%
X153035000Y-111970900D03*
%TD*%
D16*
%TO.P,M1,1*%
%TO.N,/GND*%
X60960000Y-18900900D03*
%TD*%
D27*
%TO.P,RV2,1,1*%
%TO.N,/+12V*%
X203085000Y-50800000D03*
%TO.P,RV2,2,2*%
%TO.N,Net-(R3-Pad1)*%
X208165000Y-48260000D03*
%TO.P,RV2,3,3*%
%TO.N,unconnected-(RV2-Pad3)*%
X203085000Y-45720000D03*
%TD*%
D25*
%TO.P,D2,1,K*%
%TO.N,Net-(D2-K)*%
X214190000Y-69660900D03*
D26*
%TO.P,D2,2,A*%
%TO.N,Net-(D1-K)*%
X221810000Y-69660900D03*
%TD*%
D14*
%TO.P,D5,1,K*%
%TO.N,/GND*%
X61595000Y-52555900D03*
D15*
%TO.P,D5,2,A*%
%TO.N,Net-(D5-A)*%
X64135000Y-52555900D03*
%TD*%
D25*
%TO.P,D9,1,K*%
%TO.N,/+5V*%
X143510000Y-81730900D03*
D26*
%TO.P,D9,2,A*%
%TO.N,Net-(D9-A)*%
X143510000Y-89350900D03*
%TD*%
D21*
%TO.P,Q11,1,G*%
%TO.N,Net-(D22-A)*%
X83385000Y-48265900D03*
D22*
%TO.P,Q11,2,D*%
%TO.N,/+5V*%
X85925000Y-48265900D03*
%TO.P,Q11,3,S*%
%TO.N,Net-(D20-K)*%
X88465000Y-48265900D03*
%TD*%
D12*
%TO.P,R26,1*%
%TO.N,Net-(R26-Pad1)*%
X168275000Y-133835900D03*
D13*
%TO.P,R26,2*%
%TO.N,Net-(Q5-B)*%
X160655000Y-133835900D03*
%TD*%
D19*
%TO.P,J7,1,Pin_1*%
%TO.N,/PEV_PP*%
X181255000Y-134705900D03*
D20*
%TO.P,J7,2,Pin_2*%
%TO.N,/PEV_CP*%
X186255000Y-134705900D03*
%TO.P,J7,3,Pin_3*%
%TO.N,/EVSE_PP*%
X191255000Y-134705900D03*
%TO.P,J7,4,Pin_4*%
%TO.N,/EVSE_CP*%
X196255000Y-134705900D03*
%TD*%
D18*
%TO.P,U7,1*%
%TO.N,Net-(R30-Pad2)*%
X149225000Y-98910900D03*
D13*
%TO.P,U7,2*%
%TO.N,Net-(D15-A)*%
X149225000Y-101450900D03*
%TO.P,U7,3*%
%TO.N,Net-(R25-Pad1)*%
X156845000Y-101450900D03*
%TO.P,U7,4*%
%TO.N,/+5V*%
X156845000Y-98910900D03*
%TD*%
D12*
%TO.P,R33,1*%
%TO.N,Net-(D17-A)*%
X113230000Y-67005900D03*
D13*
%TO.P,R33,2*%
%TO.N,Net-(D18-A)*%
X105610000Y-67005900D03*
%TD*%
D12*
%TO.P,R2,1*%
%TO.N,Net-(R1-Pad2)*%
X179349400Y-22860000D03*
D13*
%TO.P,R2,2*%
%TO.N,Net-(D2-K)*%
X186969400Y-22860000D03*
%TD*%
D19*
%TO.P,J4,1,Pin_1*%
%TO.N,/+5V_IN*%
X65405000Y-30410900D03*
D20*
%TO.P,J4,2,Pin_2*%
X65405000Y-35410900D03*
%TO.P,J4,3,Pin_3*%
X65405000Y-40410900D03*
%TO.P,J4,4,Pin_4*%
X65405000Y-45410900D03*
%TD*%
D14*
%TO.P,D16,1,K*%
%TO.N,/GND*%
X143510000Y-123675900D03*
D15*
%TO.P,D16,2,A*%
%TO.N,Net-(D16-A)*%
X143510000Y-121135900D03*
%TD*%
D14*
%TO.P,D4,1,K*%
%TO.N,/GND*%
X61595000Y-112880900D03*
D15*
%TO.P,D4,2,A*%
%TO.N,Net-(D4-A)*%
X64135000Y-112880900D03*
%TD*%
D12*
%TO.P,R39,1*%
%TO.N,Net-(D23-K)*%
X105610000Y-107320900D03*
D13*
%TO.P,R39,2*%
%TO.N,Net-(D24-K)*%
X113230000Y-107320900D03*
%TD*%
D12*
%TO.P,R31,1*%
%TO.N,/GP4*%
X168275000Y-123040900D03*
D13*
%TO.P,R31,2*%
%TO.N,Net-(R31-Pad2)*%
X160655000Y-123040900D03*
%TD*%
D25*
%TO.P,D6,1,K*%
%TO.N,Net-(D6-K)*%
X189430000Y-118830900D03*
D26*
%TO.P,D6,2,A*%
%TO.N,/PEV_CP*%
X197050000Y-118830900D03*
%TD*%
D21*
%TO.P,Q13,1,G*%
%TO.N,Net-(D24-K)*%
X83385000Y-98430900D03*
D22*
%TO.P,Q13,2,D*%
%TO.N,Net-(D25-A)*%
X85925000Y-98430900D03*
%TO.P,Q13,3,S*%
%TO.N,Net-(D23-K)*%
X88465000Y-98430900D03*
%TD*%
D17*
%TO.P,C4,1*%
%TO.N,/GND*%
X204750000Y-112480900D03*
%TO.P,C4,2*%
%TO.N,/+5V*%
X209750000Y-112480900D03*
%TD*%
D12*
%TO.P,R34,1*%
%TO.N,Net-(D19-K)*%
X113230000Y-76530900D03*
D13*
%TO.P,R34,2*%
%TO.N,/GND*%
X105610000Y-76530900D03*
%TD*%
D28*
%TO.P,Q1,1,E*%
%TO.N,/GND*%
X153035000Y-40725900D03*
D29*
%TO.P,Q1,2,C*%
%TO.N,Net-(D7-A)*%
X153035000Y-41995900D03*
%TO.P,Q1,3,B*%
%TO.N,Net-(Q1-B)*%
X153035000Y-43265900D03*
%TD*%
D28*
%TO.P,Q3,1,E*%
%TO.N,/GND*%
X153035000Y-86175900D03*
D29*
%TO.P,Q3,2,C*%
%TO.N,Net-(D9-A)*%
X153035000Y-87445900D03*
%TO.P,Q3,3,B*%
%TO.N,Net-(Q3-B)*%
X153035000Y-88715900D03*
%TD*%
D18*
%TO.P,D23,1,K*%
%TO.N,Net-(D23-K)*%
X94180000Y-88270900D03*
D13*
%TO.P,D23,2,A*%
%TO.N,Net-(D23-A)*%
X101800000Y-88270900D03*
%TD*%
D12*
%TO.P,R35,1*%
%TO.N,Net-(D20-A)*%
X105610000Y-28270900D03*
D13*
%TO.P,R35,2*%
%TO.N,/GND*%
X113230000Y-28270900D03*
%TD*%
D28*
%TO.P,Q2,1,E*%
%TO.N,/GND*%
X153035000Y-63350900D03*
D29*
%TO.P,Q2,2,C*%
%TO.N,Net-(D8-A)*%
X153035000Y-64620900D03*
%TO.P,Q2,3,B*%
%TO.N,Net-(Q2-B)*%
X153035000Y-65890900D03*
%TD*%
D12*
%TO.P,R23,1*%
%TO.N,Net-(R23-Pad1)*%
X168275000Y-64620900D03*
D13*
%TO.P,R23,2*%
%TO.N,Net-(Q2-B)*%
X160655000Y-64620900D03*
%TD*%
D18*
%TO.P,U3,1,SCL*%
%TO.N,/I2C_SCL*%
X214830000Y-99780900D03*
D13*
%TO.P,U3,2,SDA*%
%TO.N,/I2C_SDA*%
X214830000Y-102320900D03*
%TO.P,U3,3,A2*%
%TO.N,/GND*%
X214830000Y-104860900D03*
%TO.P,U3,4,A1*%
X214830000Y-107400900D03*
%TO.P,U3,5,A0*%
X214830000Y-109940900D03*
%TO.P,U3,6,~{RESET}*%
%TO.N,/+5V*%
X214830000Y-112480900D03*
%TO.P,U3,7,NC*%
%TO.N,unconnected-(U3-NC-Pad7)*%
X214830000Y-115020900D03*
%TO.P,U3,8,INT*%
%TO.N,unconnected-(U3-INT-Pad8)*%
X214830000Y-117560900D03*
%TO.P,U3,9,VSS*%
%TO.N,/GND*%
X214830000Y-120100900D03*
%TO.P,U3,10,GP0*%
%TO.N,/GP0*%
X222450000Y-120100900D03*
%TO.P,U3,11,GP1*%
%TO.N,/GP1*%
X222450000Y-117560900D03*
%TO.P,U3,12,GP2*%
%TO.N,/GP2*%
X222450000Y-115020900D03*
%TO.P,U3,13,GP3*%
%TO.N,/GP3*%
X222450000Y-112480900D03*
%TO.P,U3,14,GP4*%
%TO.N,/GP4*%
X222450000Y-109940900D03*
%TO.P,U3,15,GP5*%
%TO.N,unconnected-(U3-GP5-Pad15)*%
X222450000Y-107400900D03*
%TO.P,U3,16,GP6*%
%TO.N,unconnected-(U3-GP6-Pad16)*%
X222450000Y-104860900D03*
%TO.P,U3,17,GP7*%
%TO.N,unconnected-(U3-GP7-Pad17)*%
X222450000Y-102320900D03*
%TO.P,U3,18,VDD*%
%TO.N,/+5V*%
X222450000Y-99780900D03*
%TD*%
D12*
%TO.P,R37,1*%
%TO.N,Net-(D22-A)*%
X105610000Y-37795900D03*
D13*
%TO.P,R37,2*%
%TO.N,/GND*%
X113230000Y-37795900D03*
%TD*%
D12*
%TO.P,R32,1*%
%TO.N,Net-(D17-K)*%
X113230000Y-57480900D03*
D13*
%TO.P,R32,2*%
%TO.N,/GND*%
X105610000Y-57480900D03*
%TD*%
D16*
%TO.P,M4,1*%
%TO.N,/GND*%
X222885000Y-152250900D03*
%TD*%
D12*
%TO.P,R15,1*%
%TO.N,Net-(K5-Pad3)*%
X189430000Y-83905900D03*
D13*
%TO.P,R15,2*%
%TO.N,Net-(R15-Pad2)*%
X197050000Y-83905900D03*
%TD*%
D10*
%TO.P,K4,1*%
%TO.N,/EVSE_PP*%
X121240000Y-105495900D03*
D11*
%TO.P,K4,2*%
%TO.N,Net-(D10-A)*%
X123190000Y-111545900D03*
D10*
%TO.P,K4,3*%
%TO.N,Net-(K4-Pad3)*%
X135390000Y-111545900D03*
%TO.P,K4,4*%
%TO.N,unconnected-(K4-Pad4)*%
X135440000Y-99495900D03*
D11*
%TO.P,K4,5*%
%TO.N,/+5V*%
X123190000Y-99545900D03*
%TD*%
D25*
%TO.P,D1,1,K*%
%TO.N,Net-(D1-K)*%
X214190000Y-63310900D03*
D26*
%TO.P,D1,2,A*%
%TO.N,Net-(D1-A)*%
X221810000Y-63310900D03*
%TD*%
D18*
%TO.P,U4,1*%
%TO.N,Net-(R27-Pad2)*%
X149225000Y-30330900D03*
D13*
%TO.P,U4,2*%
%TO.N,Net-(D12-A)*%
X149225000Y-32870900D03*
%TO.P,U4,3*%
%TO.N,Net-(R22-Pad1)*%
X156845000Y-32870900D03*
%TO.P,U4,4*%
%TO.N,/+5V*%
X156845000Y-30330900D03*
%TD*%
D19*
%TO.P,J3,1,Pin_1*%
%TO.N,/-12V_IN*%
X65405000Y-59620900D03*
D20*
%TO.P,J3,2,Pin_2*%
X65405000Y-64620900D03*
%TO.P,J3,3,Pin_3*%
X65405000Y-69620900D03*
%TO.P,J3,4,Pin_4*%
X65405000Y-74620900D03*
%TD*%
D19*
%TO.P,J2,1,Pin_1*%
%TO.N,/+12V_IN*%
X65405000Y-90100900D03*
D20*
%TO.P,J2,2,Pin_2*%
X65405000Y-95100900D03*
%TO.P,J2,3,Pin_3*%
X65405000Y-100100900D03*
%TO.P,J2,4,Pin_4*%
X65405000Y-105100900D03*
%TD*%
D12*
%TO.P,R6,1*%
%TO.N,/555_OUT*%
X179265000Y-49975900D03*
D13*
%TO.P,R6,2*%
%TO.N,Net-(U2-+)*%
X186885000Y-49975900D03*
%TD*%
D12*
%TO.P,R13,1*%
%TO.N,Net-(K2-Pad3)*%
X178635000Y-103590900D03*
D13*
%TO.P,R13,2*%
%TO.N,Net-(R13-Pad2)*%
X186255000Y-103590900D03*
%TD*%
D12*
%TO.P,R14,1*%
%TO.N,Net-(K3-Pad3)*%
X189430000Y-111210900D03*
D13*
%TO.P,R14,2*%
%TO.N,Net-(R14-Pad2)*%
X197050000Y-111210900D03*
%TD*%
D28*
%TO.P,Q5,1,E*%
%TO.N,/GND*%
X153035000Y-132565900D03*
D29*
%TO.P,Q5,2,C*%
%TO.N,Net-(D11-A)*%
X153035000Y-133835900D03*
%TO.P,Q5,3,B*%
%TO.N,Net-(Q5-B)*%
X153035000Y-135105900D03*
%TD*%
D10*
%TO.P,K2,1*%
%TO.N,Net-(D6-K)*%
X121240000Y-59775900D03*
D11*
%TO.P,K2,2*%
%TO.N,Net-(D8-A)*%
X123190000Y-65825900D03*
D10*
%TO.P,K2,3*%
%TO.N,Net-(K2-Pad3)*%
X135390000Y-65825900D03*
%TO.P,K2,4*%
%TO.N,unconnected-(K2-Pad4)*%
X135440000Y-53775900D03*
D11*
%TO.P,K2,5*%
%TO.N,/+5V*%
X123190000Y-53825900D03*
%TD*%
D12*
%TO.P,R8,1*%
%TO.N,Net-(U2--)*%
X179265000Y-58865900D03*
D13*
%TO.P,R8,2*%
%TO.N,Net-(R8-Pad2)*%
X186885000Y-58865900D03*
%TD*%
D12*
%TO.P,R12,1*%
%TO.N,Net-(D3-A)*%
X67945000Y-82400900D03*
D13*
%TO.P,R12,2*%
%TO.N,/GND*%
X75565000Y-82400900D03*
%TD*%
D21*
%TO.P,Q7,1,G*%
%TO.N,Net-(D18-A)*%
X83385000Y-67640900D03*
D22*
%TO.P,Q7,2,D*%
%TO.N,Net-(D19-K)*%
X85925000Y-67640900D03*
%TO.P,Q7,3,S*%
%TO.N,Net-(D17-A)*%
X88465000Y-67640900D03*
%TD*%
D12*
%TO.P,R5,1*%
%TO.N,Net-(R4-Pad2)*%
X190695000Y-41085900D03*
D13*
%TO.P,R5,2*%
%TO.N,Net-(U2--)*%
X198315000Y-41085900D03*
%TD*%
D25*
%TO.P,D7,1,K*%
%TO.N,/+5V*%
X143510000Y-36280900D03*
D26*
%TO.P,D7,2,A*%
%TO.N,Net-(D7-A)*%
X143510000Y-43900900D03*
%TD*%
D12*
%TO.P,R20,1*%
%TO.N,Net-(R15-Pad2)*%
X189430000Y-91525900D03*
D13*
%TO.P,R20,2*%
%TO.N,/GND*%
X197050000Y-91525900D03*
%TD*%
D21*
%TO.P,Q10,1,G*%
%TO.N,Net-(D21-K)*%
X83385000Y-38740900D03*
D22*
%TO.P,Q10,2,D*%
%TO.N,Net-(D22-A)*%
X85925000Y-38740900D03*
%TO.P,Q10,3,S*%
%TO.N,Net-(D20-K)*%
X88465000Y-38740900D03*
%TD*%
D14*
%TO.P,D13,1,K*%
%TO.N,/GND*%
X143510000Y-55095900D03*
D15*
%TO.P,D13,2,A*%
%TO.N,Net-(D13-A)*%
X143510000Y-52555900D03*
%TD*%
D18*
%TO.P,D17,1,K*%
%TO.N,Net-(D17-K)*%
X101800000Y-57480900D03*
D13*
%TO.P,D17,2,A*%
%TO.N,Net-(D17-A)*%
X94180000Y-57480900D03*
%TD*%
D12*
%TO.P,R28,1*%
%TO.N,/GP1*%
X168275000Y-54460900D03*
D13*
%TO.P,R28,2*%
%TO.N,Net-(R28-Pad2)*%
X160655000Y-54460900D03*
%TD*%
D12*
%TO.P,R11,1*%
%TO.N,/+5V*%
X67945000Y-52555900D03*
D13*
%TO.P,R11,2*%
%TO.N,Net-(D5-A)*%
X75565000Y-52555900D03*
%TD*%
D21*
%TO.P,Q9,1,G*%
%TO.N,Net-(D20-A)*%
X83385000Y-29215900D03*
D22*
%TO.P,Q9,2,D*%
%TO.N,/+5V_IN*%
X85925000Y-29215900D03*
%TO.P,Q9,3,S*%
%TO.N,Net-(D20-K)*%
X88465000Y-29215900D03*
%TD*%
D21*
%TO.P,Q12,1,G*%
%TO.N,Net-(D23-A)*%
X83385000Y-88905900D03*
D22*
%TO.P,Q12,2,D*%
%TO.N,/+12V_IN*%
X85925000Y-88905900D03*
%TO.P,Q12,3,S*%
%TO.N,Net-(D23-K)*%
X88465000Y-88905900D03*
%TD*%
D21*
%TO.P,Q6,1,G*%
%TO.N,Net-(D17-K)*%
X83385000Y-58425900D03*
D22*
%TO.P,Q6,2,D*%
%TO.N,/-12V_IN*%
X85925000Y-58425900D03*
%TO.P,Q6,3,S*%
%TO.N,Net-(D17-A)*%
X88465000Y-58425900D03*
%TD*%
D19*
%TO.P,J5,1,Pin_1*%
%TO.N,/GND*%
X206020000Y-134705900D03*
D20*
%TO.P,J5,2,Pin_2*%
X211020000Y-134705900D03*
%TO.P,J5,3,Pin_3*%
X216020000Y-134705900D03*
%TO.P,J5,4,Pin_4*%
X221020000Y-134705900D03*
%TD*%
D10*
%TO.P,K3,1*%
%TO.N,Net-(K2-Pad3)*%
X121240000Y-82635900D03*
D11*
%TO.P,K3,2*%
%TO.N,Net-(D9-A)*%
X123190000Y-88685900D03*
D10*
%TO.P,K3,3*%
%TO.N,Net-(K3-Pad3)*%
X135390000Y-88685900D03*
%TO.P,K3,4*%
%TO.N,unconnected-(K3-Pad4)*%
X135440000Y-76635900D03*
D11*
%TO.P,K3,5*%
%TO.N,/+5V*%
X123190000Y-76685900D03*
%TD*%
D18*
%TO.P,D20,1,K*%
%TO.N,Net-(D20-K)*%
X94180000Y-28270900D03*
D13*
%TO.P,D20,2,A*%
%TO.N,Net-(D20-A)*%
X101800000Y-28270900D03*
%TD*%
D18*
%TO.P,D21,1,K*%
%TO.N,Net-(D21-K)*%
X94180000Y-47320900D03*
D13*
%TO.P,D21,2,A*%
%TO.N,/GND*%
X101800000Y-47320900D03*
%TD*%
D30*
%TO.N,/+12V*%
X107734000Y-79033900D03*
%TO.N,Net-(K2-Pad3)*%
X133620000Y-70470400D03*
%TO.N,Net-(K3-Pad3)*%
X163398000Y-85179400D03*
%TO.N,Net-(K4-Pad3)*%
X139110000Y-77850500D03*
%TO.N,Net-(K5-Pad3)*%
X171640000Y-91213100D03*
X148937000Y-111609000D03*
%TD*%
D31*
%TO.N,Net-(U1-CTL)*%
X220558000Y-42954700D02*
X220558000Y-53735400D01*
X186757000Y-62843800D02*
X180575000Y-69025900D01*
X211450000Y-62843800D02*
X186757000Y-62843800D01*
X221810000Y-41702800D02*
X220558000Y-42954700D01*
X221810000Y-40450900D02*
X221810000Y-41702800D01*
X220558000Y-53735400D02*
X211450000Y-62843800D01*
%TO.N,/GND*%
X195260000Y-114809000D02*
X198302000Y-111767000D01*
X113230000Y-37795900D02*
X111978000Y-37795900D01*
X204914000Y-31987100D02*
X212094000Y-31987100D01*
X187507000Y-117892000D02*
X190590000Y-114809000D01*
X142158000Y-32470900D02*
X141709000Y-32920000D01*
X141709000Y-32920000D02*
X113230000Y-32920000D01*
X211020000Y-134706000D02*
X206020100Y-134706000D01*
X214830000Y-120101000D02*
X213578000Y-120101000D01*
X113230000Y-32920000D02*
X113230000Y-28270900D01*
X111978000Y-37795900D02*
X111978000Y-38394700D01*
X185575000Y-69025900D02*
X187052000Y-70502900D01*
X188776000Y-109941000D02*
X187507000Y-111211000D01*
X143510000Y-100816000D02*
X142158000Y-100816000D01*
X113230000Y-32920000D02*
X113230000Y-37795900D01*
X125824000Y-93756300D02*
X120765000Y-88697200D01*
X153035000Y-40725900D02*
X178905000Y-40725900D01*
X143510000Y-32470900D02*
X142158000Y-32470900D01*
X187507000Y-111211000D02*
X186255100Y-111211000D01*
X142158000Y-77920900D02*
X143510000Y-77920900D01*
X187507000Y-118831000D02*
X187507000Y-117892000D01*
X198302000Y-111767000D02*
X198302000Y-110626000D01*
X195528000Y-70502900D02*
X197005000Y-69025900D01*
X142158000Y-100816000D02*
X135098000Y-93756300D01*
X186255100Y-118831000D02*
X187507000Y-118831000D01*
X221019900Y-134706000D02*
X216020000Y-134706000D01*
X204393000Y-112124000D02*
X204036000Y-111767000D01*
X111978000Y-38394700D02*
X103052000Y-47320900D01*
X212094000Y-31987100D02*
X212938000Y-32830900D01*
X135098000Y-93756300D02*
X125824000Y-93756300D01*
X133454000Y-86625300D02*
X142158000Y-77920900D01*
X213578000Y-120101000D02*
X205958000Y-112481000D01*
X120765000Y-88697200D02*
X120339000Y-88270900D01*
X187052000Y-70502900D02*
X195528000Y-70502900D01*
X204036000Y-111767000D02*
X198302000Y-111767000D01*
X212938000Y-32830900D02*
X214190000Y-32830900D01*
X122837000Y-86625300D02*
X133454000Y-86625300D01*
X120765000Y-88697200D02*
X122837000Y-86625300D01*
X198302000Y-110626000D02*
X197617000Y-109941000D01*
X103052000Y-47320900D02*
X101800000Y-47320900D01*
X120339000Y-88270900D02*
X113230000Y-88270900D01*
X190590000Y-114809000D02*
X195260000Y-114809000D01*
X186885000Y-33465900D02*
X203435000Y-33465900D01*
X179265000Y-41085900D02*
X186885000Y-33465900D01*
X205958000Y-112481000D02*
X204750000Y-112481000D01*
X197617000Y-109941000D02*
X188776000Y-109941000D01*
X203435000Y-33465900D02*
X204914000Y-31987100D01*
%TO.N,Net-(D1-K)*%
X195594000Y-65437100D02*
X210512000Y-65437100D01*
X210512000Y-65437100D02*
X212638000Y-63310900D01*
X192005000Y-69025900D02*
X195594000Y-65437100D01*
X212638000Y-63310900D02*
X214190000Y-63310900D01*
%TO.N,/+12V*%
X196088000Y-47433800D02*
X197052000Y-46470200D01*
X115296000Y-79033900D02*
X125454000Y-68875400D01*
X71418100Y-109408000D02*
X69681600Y-111144500D01*
X220558000Y-39180900D02*
X222358000Y-39180900D01*
D32*
X69681600Y-111144500D02*
X69681400Y-111144500D01*
D31*
X222358000Y-39180900D02*
X223072000Y-39894800D01*
X214834000Y-39180900D02*
X220558000Y-39180900D01*
X198755000Y-46470200D02*
X203085000Y-50800000D01*
X85925000Y-107956000D02*
X85925000Y-109408000D01*
X214190000Y-40450900D02*
X213564000Y-40450900D01*
X178876000Y-52133000D02*
X181171000Y-52133000D01*
X85925000Y-109408000D02*
X71418100Y-109408000D01*
X223072000Y-46212200D02*
X221820000Y-47464000D01*
X212938000Y-40450900D02*
X212293000Y-39806100D01*
D32*
X69681400Y-111144500D02*
X67945000Y-112880900D01*
D31*
X197052000Y-40572400D02*
X197052000Y-46470200D01*
X212293000Y-39806100D02*
X197818000Y-39806100D01*
X162134000Y-68875400D02*
X178876000Y-52133000D01*
X223072000Y-39894800D02*
X223072000Y-46212200D01*
X197818000Y-39806100D02*
X197052000Y-40572400D01*
X213564000Y-40450900D02*
X214834000Y-39180900D01*
X197052000Y-46470200D02*
X198755000Y-46470200D01*
X181171000Y-52133000D02*
X185870000Y-47433800D01*
X220558000Y-32830900D02*
X221810000Y-32830900D01*
X213564000Y-40450900D02*
X212938000Y-40450900D01*
X107734000Y-79033900D02*
X115296000Y-79033900D01*
X125454000Y-68875400D02*
X162134000Y-68875400D01*
X69681600Y-111144500D02*
X67945000Y-112881000D01*
X220558000Y-39180900D02*
X220558000Y-32830900D01*
X221820000Y-47464000D02*
X221820000Y-48715900D01*
X185870000Y-47433800D02*
X196088000Y-47433800D01*
%TO.N,/+5V*%
X143510000Y-127485900D02*
X143510000Y-125904000D01*
X155593000Y-98910900D02*
X149878000Y-104626000D01*
X198359000Y-90275500D02*
X194257000Y-86173200D01*
X183747000Y-85161800D02*
X178120000Y-85161800D01*
X222450000Y-99780900D02*
X221198000Y-99780900D01*
X211693000Y-90275500D02*
X198359000Y-90275500D01*
X156845000Y-30330900D02*
X155593000Y-30330900D01*
X189774000Y-86173200D02*
X187507000Y-83905900D01*
X155593000Y-121766000D02*
X156844900Y-121766000D01*
X85925000Y-49716100D02*
X90034800Y-53825900D01*
X70783100Y-49717800D02*
X67945000Y-52555900D01*
X85925000Y-48265900D02*
X85925000Y-49716100D01*
X151454000Y-125904000D02*
X155593000Y-121766000D01*
X168975000Y-76015900D02*
X156845000Y-76015900D01*
X187507000Y-83905900D02*
X186255000Y-83905900D01*
X194257000Y-86173200D02*
X189774000Y-86173200D01*
X126689000Y-125904000D02*
X143510000Y-125904000D01*
X155593000Y-30330900D02*
X149643000Y-36280900D01*
X128270000Y-104626000D02*
X123190000Y-99545900D01*
X185003000Y-83905900D02*
X183747000Y-85161800D01*
X143510000Y-125904000D02*
X151454000Y-125904000D01*
X214830000Y-112481000D02*
X209750000Y-112481000D01*
X221198000Y-99780900D02*
X211693000Y-90275500D01*
X143510100Y-104626000D02*
X128270000Y-104626000D01*
X123190000Y-122406000D02*
X126689000Y-125904000D01*
X156845000Y-98910900D02*
X155593000Y-98910900D01*
X85923300Y-49717800D02*
X70783100Y-49717800D01*
X90034800Y-53825900D02*
X123190000Y-53825900D01*
X149643000Y-36280900D02*
X143510000Y-36280900D01*
X149878000Y-104626000D02*
X143510100Y-104626000D01*
X178120000Y-85161800D02*
X168975000Y-76015900D01*
X186255000Y-83905900D02*
X185003000Y-83905900D01*
X85925000Y-49716100D02*
X85923300Y-49717800D01*
%TO.N,Net-(D1-A)*%
X221810000Y-63310900D02*
X220258000Y-63310900D01*
X220258000Y-63310900D02*
X216894000Y-66675000D01*
X216894000Y-66675000D02*
X208165000Y-66675000D01*
%TO.N,/-12V*%
X127130000Y-69618500D02*
X165252000Y-69618500D01*
X85925000Y-77475900D02*
X85925000Y-78927000D01*
X64663000Y-72808400D02*
X61595000Y-75876400D01*
X214200000Y-56335900D02*
X197055000Y-56335900D01*
X180702000Y-54169400D02*
X186502000Y-54169400D01*
X86884100Y-79886100D02*
X116863000Y-79886100D01*
X165252000Y-69618500D02*
X180702000Y-54169400D01*
X116863000Y-79886100D02*
X127130000Y-69618500D01*
X72231700Y-78927800D02*
X66112300Y-72808400D01*
X85925000Y-78927000D02*
X86884100Y-79886100D01*
X186502000Y-54169400D02*
X190695000Y-49975900D01*
X66112300Y-72808400D02*
X64663000Y-72808400D01*
X85925000Y-78927800D02*
X72231700Y-78927800D01*
X197055000Y-56335900D02*
X190695000Y-49975900D01*
X85925000Y-78927000D02*
X85925000Y-78927800D01*
X61595000Y-75876400D02*
X61595000Y-82400900D01*
%TO.N,Net-(D3-A)*%
X64135000Y-82400900D02*
X67945000Y-82400900D01*
%TO.N,Net-(D5-A)*%
X65414000Y-53834900D02*
X64135000Y-52555900D01*
X74313100Y-52555900D02*
X73034100Y-53834900D01*
X75565000Y-52555900D02*
X74313100Y-52555900D01*
X73034100Y-53834900D02*
X65414000Y-53834900D01*
%TO.N,Net-(D8-A)*%
X143510000Y-66525900D02*
X145062000Y-66525900D01*
X125146000Y-67782300D02*
X123190000Y-65825900D01*
X145062000Y-66525900D02*
X146967000Y-64620900D01*
X146967000Y-64620900D02*
X153035000Y-64620900D01*
X143510000Y-66525900D02*
X141958000Y-66525900D01*
X140702000Y-67782300D02*
X125146000Y-67782300D01*
X141958000Y-66525900D02*
X140702000Y-67782300D01*
%TO.N,Net-(D9-A)*%
X125195000Y-90691100D02*
X123190000Y-88685900D01*
X141958000Y-89350900D02*
X140618000Y-90691100D01*
X140618000Y-90691100D02*
X125195000Y-90691100D01*
X146967000Y-87445900D02*
X153035000Y-87445900D01*
X143510000Y-89350900D02*
X141958000Y-89350900D01*
X145062000Y-89350900D02*
X146967000Y-87445900D01*
X143510000Y-89350900D02*
X145062000Y-89350900D01*
%TO.N,Net-(D10-A)*%
X143509900Y-112246000D02*
X141958000Y-112246000D01*
X141958000Y-112246000D02*
X140702000Y-113502000D01*
X125146000Y-113502000D02*
X123190000Y-111546000D01*
X140702000Y-113502000D02*
X125146000Y-113502000D01*
%TO.N,Net-(D12-A)*%
X149225000Y-32870900D02*
X146450000Y-32870900D01*
X146450000Y-32870900D02*
X143510000Y-29930900D01*
%TO.N,Net-(D13-A)*%
X149225000Y-55730900D02*
X146685000Y-55730900D01*
X146685000Y-55730900D02*
X143510000Y-52555900D01*
%TO.N,Net-(D15-A)*%
X149224900Y-101451000D02*
X146685000Y-101451000D01*
X146685000Y-101451000D02*
X143510000Y-98275900D01*
%TO.N,Net-(D20-A)*%
X101800000Y-28270900D02*
X105610000Y-28270900D01*
%TO.N,Net-(D22-A)*%
X101800000Y-37795900D02*
X105610000Y-37795900D01*
%TO.N,Net-(D16-A)*%
X146680000Y-124306000D02*
X143510000Y-121136000D01*
X149224900Y-124306000D02*
X146680000Y-124306000D01*
%TO.N,Net-(D23-A)*%
X101800000Y-88270900D02*
X100548000Y-88270900D01*
X99296200Y-87019000D02*
X85271900Y-87019000D01*
X85271900Y-87019000D02*
X83385000Y-88905900D01*
X100548000Y-88270900D02*
X99296200Y-87019000D01*
X101800000Y-88270900D02*
X105610000Y-88270900D01*
%TO.N,Net-(D17-K)*%
X85581900Y-56229000D02*
X83385000Y-58425900D01*
X101800000Y-57480900D02*
X103052000Y-57480900D01*
X100548000Y-57480900D02*
X99296200Y-56229000D01*
X111940000Y-56190600D02*
X113230000Y-57480900D01*
X103052000Y-57480900D02*
X104342000Y-56190600D01*
X104342000Y-56190600D02*
X111940000Y-56190600D01*
X99296200Y-56229000D02*
X85581900Y-56229000D01*
X101800000Y-57480900D02*
X100548000Y-57480900D01*
%TO.N,Net-(D25-A)*%
X98444100Y-99899900D02*
X87394000Y-99899900D01*
X87394000Y-99899900D02*
X85925000Y-98430900D01*
X100548000Y-97795900D02*
X98444100Y-99899900D01*
X101800000Y-97795900D02*
X100548000Y-97795900D01*
X101800000Y-97795900D02*
X105610000Y-97795900D01*
%TO.N,Net-(D18-A)*%
X83385000Y-67640900D02*
X92275000Y-76530900D01*
X92275000Y-76530900D02*
X94180000Y-76530900D01*
%TO.N,/+12V_IN*%
X65405000Y-90100900D02*
X67156900Y-90100900D01*
X67156900Y-90100900D02*
X67413800Y-90357800D01*
X85925000Y-90357800D02*
X85925000Y-88905900D01*
X67413800Y-90357800D02*
X85925000Y-90357800D01*
%TO.N,/-12V_IN*%
X67413800Y-59877800D02*
X85925000Y-59877800D01*
X67156900Y-59620900D02*
X67413800Y-59877800D01*
X65405000Y-59620900D02*
X67156900Y-59620900D01*
X85925000Y-59877800D02*
X85925000Y-58425900D01*
%TO.N,/PEV_PP*%
X176385000Y-131588000D02*
X179503000Y-134706000D01*
X121240000Y-128356000D02*
X124472000Y-131588000D01*
X179503000Y-134706000D02*
X181254900Y-134706000D01*
X124472000Y-131588000D02*
X176385000Y-131588000D01*
%TO.N,/EVSE_PP*%
X191255000Y-134705900D02*
X170633000Y-114084000D01*
X140211000Y-105496000D02*
X121240000Y-105496000D01*
X170633000Y-114084000D02*
X148799000Y-114084000D01*
X148799000Y-114084000D02*
X140211000Y-105496000D01*
%TO.N,/+5V_IN*%
X67156900Y-30410900D02*
X67413800Y-30667800D01*
X67413800Y-30667800D02*
X85925000Y-30667800D01*
X65405000Y-30410900D02*
X67156900Y-30410900D01*
X85925000Y-30667800D02*
X85925000Y-29215900D01*
%TO.N,/I2C_SCL*%
X214830000Y-99780900D02*
X209750000Y-99780900D01*
%TO.N,/I2C_SDA*%
X214829900Y-102321000D02*
X209750100Y-102321000D01*
%TO.N,Net-(K2-Pad3)*%
X121240000Y-82635900D02*
X133406000Y-70470400D01*
X133406000Y-70470400D02*
X133620000Y-70470400D01*
%TO.N,Net-(K3-Pad3)*%
X138896000Y-85179400D02*
X163398000Y-85179400D01*
X135390000Y-88685900D02*
X138896000Y-85179400D01*
%TO.N,Net-(K4-Pad3)*%
X209750000Y-87480900D02*
X196285000Y-74016300D01*
X196285000Y-74016300D02*
X142944000Y-74016300D01*
X142944000Y-74016300D02*
X139110000Y-77850500D01*
%TO.N,Net-(K5-Pad3)*%
X188117000Y-82592800D02*
X179948000Y-82592800D01*
X154629000Y-108224000D02*
X152322000Y-108224000D01*
X171640000Y-91213100D02*
X154629000Y-108224000D01*
X189430000Y-83905900D02*
X188117000Y-82592800D01*
X152322000Y-108224000D02*
X148937000Y-111609000D01*
X179948000Y-82592800D02*
X178635000Y-83905900D01*
%TO.N,Net-(U2--)*%
X212948000Y-51255900D02*
X202778000Y-41085900D01*
X214200000Y-51255900D02*
X213574000Y-51255900D01*
X213574000Y-51255900D02*
X215465000Y-53146800D01*
X214719000Y-57589400D02*
X180542000Y-57589400D01*
X213574000Y-51255900D02*
X212948000Y-51255900D01*
X215465000Y-56843100D02*
X214719000Y-57589400D01*
X202778000Y-41085900D02*
X198315000Y-41085900D01*
X180542000Y-57589400D02*
X179265000Y-58865900D01*
X215465000Y-53146800D02*
X215465000Y-56843100D01*
%TO.N,/555_OUT*%
X190051000Y-45821200D02*
X183420000Y-45821200D01*
X214190000Y-37910900D02*
X197961000Y-37910900D01*
X218059000Y-26035000D02*
X218059000Y-34041900D01*
X218059000Y-34041900D02*
X214190000Y-37910900D01*
X197961000Y-37910900D02*
X190051000Y-45821200D01*
X183420000Y-45821200D02*
X179265000Y-49975900D01*
%TO.N,Net-(U2-+)*%
X214200000Y-53795900D02*
X203387000Y-53795900D01*
X195772000Y-48684800D02*
X197063000Y-49975900D01*
X186885000Y-49975900D02*
X188137000Y-49975900D01*
X197063000Y-49975900D02*
X198315000Y-49975900D01*
X189428000Y-48684800D02*
X195772000Y-48684800D01*
X188137000Y-49975900D02*
X189428000Y-48684800D01*
X199567000Y-49975900D02*
X198315000Y-49975900D01*
X203387000Y-53795900D02*
X199567000Y-49975900D01*
%TO.N,Net-(R28-Pad2)*%
X149225000Y-53190900D02*
X150477000Y-53190900D01*
X150477000Y-53190900D02*
X151747000Y-54460900D01*
X151747000Y-54460900D02*
X160655000Y-54460900D01*
%TO.N,/GP2*%
X222961000Y-111211000D02*
X221160000Y-111211000D01*
X223712000Y-113054000D02*
X223712000Y-111963000D01*
X221160000Y-111211000D02*
X218620000Y-108671000D01*
X218620000Y-108671000D02*
X212214000Y-108671000D01*
X222450000Y-115020900D02*
X222450000Y-113769000D01*
X185614000Y-94659500D02*
X168275000Y-77320900D01*
X222998000Y-113769000D02*
X223712000Y-113054000D01*
X198202000Y-94659500D02*
X185614000Y-94659500D01*
X212214000Y-108671000D02*
X198202000Y-94659500D01*
X223712000Y-111963000D02*
X222961000Y-111211000D01*
X222450000Y-113769000D02*
X222998000Y-113769000D01*
%TO.N,/GP3*%
X210863000Y-111229000D02*
X199815000Y-100181000D01*
X199815000Y-100181000D02*
X168275100Y-100181000D01*
X221198000Y-112481000D02*
X219946000Y-111229000D01*
X222449900Y-112481000D02*
X221198000Y-112481000D01*
X219946000Y-111229000D02*
X210863000Y-111229000D01*
%TO.N,/GP4*%
X177190000Y-123041000D02*
X168275100Y-123041000D01*
X224432000Y-114809000D02*
X222951000Y-116291000D01*
X222951000Y-116291000D02*
X221813000Y-116291000D01*
X206516000Y-131588000D02*
X203556000Y-131588000D01*
X188007000Y-133986000D02*
X188007000Y-133857000D01*
X223702000Y-109941000D02*
X224432000Y-110672000D01*
X222450100Y-109941000D02*
X223702000Y-109941000D01*
X198660000Y-136484000D02*
X190505000Y-136484000D01*
X190505000Y-136484000D02*
X188007000Y-133986000D01*
X221813000Y-116291000D02*
X206516000Y-131588000D01*
X188007000Y-133857000D02*
X177190000Y-123041000D01*
X203556000Y-131588000D02*
X198660000Y-136484000D01*
X224432000Y-110672000D02*
X224432000Y-114809000D01*
%TO.N,Net-(D7-A)*%
X146967000Y-41995900D02*
X153035000Y-41995900D01*
X143510000Y-43900900D02*
X141958000Y-43900900D01*
X125178000Y-44954400D02*
X123190000Y-42965900D01*
X145062000Y-43900900D02*
X146967000Y-41995900D01*
X143510000Y-43900900D02*
X145062000Y-43900900D01*
X140905000Y-44954400D02*
X125178000Y-44954400D01*
X141958000Y-43900900D02*
X140905000Y-44954400D01*
%TO.N,Net-(D11-A)*%
X143510000Y-135106000D02*
X145062000Y-135106000D01*
D32*
X124174900Y-133421000D02*
X123190000Y-134405900D01*
D31*
X139288000Y-132436000D02*
X141958000Y-135106000D01*
D32*
X124175000Y-133421000D02*
X124174900Y-133421000D01*
D31*
X141958000Y-135106000D02*
X143510000Y-135106000D01*
X146332000Y-133836000D02*
X153035000Y-133836000D01*
X123190000Y-134406000D02*
X124175000Y-133421000D01*
X145062000Y-135106000D02*
X146332000Y-133836000D01*
X124175000Y-133421000D02*
X125160000Y-132436000D01*
X125160000Y-132436000D02*
X139288000Y-132436000D01*
%TO.N,Net-(D14-A)*%
X146685000Y-78555900D02*
X143510000Y-75380900D01*
X149225000Y-78555900D02*
X146685000Y-78555900D01*
%TO.N,Net-(D17-A)*%
X92928100Y-67005900D02*
X92293100Y-67640900D01*
X94180000Y-57480900D02*
X92928100Y-57480900D01*
X94678300Y-65706600D02*
X111931000Y-65706600D01*
X88465000Y-58425900D02*
X91983100Y-58425900D01*
X91983100Y-63011400D02*
X91983100Y-58425900D01*
X94678300Y-65706600D02*
X91983100Y-63011400D01*
X111931000Y-65706600D02*
X113230000Y-67005900D01*
X94180000Y-67005900D02*
X94180000Y-66204900D01*
X94180000Y-66204900D02*
X94678300Y-65706600D01*
X92293100Y-67640900D02*
X88465000Y-67640900D01*
X92928100Y-57480900D02*
X91983100Y-58425900D01*
X94180000Y-67005900D02*
X92928100Y-67005900D01*
%TO.N,Net-(D19-K)*%
X112577000Y-76530900D02*
X113230000Y-76530900D01*
X103052000Y-67005900D02*
X112577000Y-76530900D01*
X101800000Y-67005900D02*
X103052000Y-67005900D01*
%TO.N,Net-(D20-K)*%
X91983100Y-36544000D02*
X91983100Y-29215900D01*
X89869400Y-38740900D02*
X91983100Y-36627200D01*
X92928100Y-28270900D02*
X91983100Y-29215900D01*
X88465000Y-29215900D02*
X91983100Y-29215900D01*
X88465000Y-38740900D02*
X89869400Y-38740900D01*
X94180000Y-28270900D02*
X92928100Y-28270900D01*
X94180000Y-36544000D02*
X94180000Y-37795900D01*
X91983100Y-36544000D02*
X94180000Y-36544000D01*
X91983100Y-36627200D02*
X91983100Y-36544000D01*
%TO.N,Net-(D21-K)*%
X111978000Y-47320900D02*
X110708000Y-48590900D01*
X110708000Y-48590900D02*
X96701900Y-48590900D01*
X113230000Y-47320900D02*
X111978000Y-47320900D01*
X95431900Y-47320900D02*
X94180000Y-47320900D01*
X91965000Y-47320900D02*
X94180000Y-47320900D01*
X96701900Y-48590900D02*
X95431900Y-47320900D01*
X83385000Y-38740900D02*
X91965000Y-47320900D01*
%TO.N,Net-(D23-K)*%
X89869400Y-98430900D02*
X90504400Y-97795900D01*
X89869400Y-107956000D02*
X90498600Y-108585000D01*
X90504400Y-97795900D02*
X91398800Y-97795900D01*
X92928100Y-88270900D02*
X94180000Y-88270900D01*
X90498600Y-108585000D02*
X104346000Y-108585000D01*
X91398800Y-97795900D02*
X91398800Y-88905900D01*
X88465000Y-107956000D02*
X89869400Y-107956000D01*
X92293100Y-88905900D02*
X92928100Y-88270900D01*
X91398800Y-88905900D02*
X92293100Y-88905900D01*
X88465000Y-88905900D02*
X91398800Y-88905900D01*
X104346000Y-108585000D02*
X105610000Y-107321000D01*
X88465000Y-98430900D02*
X89869400Y-98430900D01*
X91398800Y-97795900D02*
X94180000Y-97795900D01*
%TO.N,Net-(D24-K)*%
X110713000Y-106056000D02*
X111978000Y-107321000D01*
X92275000Y-107321000D02*
X94179900Y-107321000D01*
X95431900Y-107321000D02*
X96696900Y-106056000D01*
X96696900Y-106056000D02*
X110713000Y-106056000D01*
X83385000Y-98430900D02*
X92275000Y-107321000D01*
X94179900Y-107321000D02*
X95431900Y-107321000D01*
X111978000Y-107321000D02*
X113229900Y-107321000D01*
%TO.N,Net-(Q1-B)*%
X158133000Y-43265900D02*
X153035000Y-43265900D01*
X159403000Y-41995900D02*
X158133000Y-43265900D01*
X160655000Y-41995900D02*
X159403000Y-41995900D01*
%TO.N,Net-(Q2-B)*%
X160655000Y-64620900D02*
X159403000Y-64620900D01*
X158133000Y-65890900D02*
X153035000Y-65890900D01*
X159403000Y-64620900D02*
X158133000Y-65890900D01*
%TO.N,Net-(Q3-B)*%
X158133000Y-88715900D02*
X153035000Y-88715900D01*
X159403000Y-87445900D02*
X158133000Y-88715900D01*
X160655000Y-87445900D02*
X159403000Y-87445900D01*
%TO.N,Net-(Q4-B)*%
X160654900Y-110976000D02*
X159403000Y-110976000D01*
X158408000Y-111971000D02*
X153035100Y-111971000D01*
X159403000Y-110976000D02*
X158408000Y-111971000D01*
%TO.N,Net-(Q5-B)*%
X159403000Y-133836000D02*
X158133000Y-135106000D01*
X160654900Y-133836000D02*
X159403000Y-133836000D01*
X158133000Y-135106000D02*
X153035100Y-135106000D01*
%TO.N,Net-(R4-Pad2)*%
X190695000Y-41085900D02*
X186885000Y-41085900D01*
%TO.N,Net-(R8-Pad2)*%
X213181000Y-60119700D02*
X191949000Y-60119700D01*
X214200000Y-49967800D02*
X214748000Y-49967800D01*
X191949000Y-60119700D02*
X190695000Y-58865900D01*
X216188000Y-57112700D02*
X213181000Y-60119700D01*
X214200000Y-48715900D02*
X214200000Y-49967800D01*
X214748000Y-49967800D02*
X216188000Y-51408200D01*
X190695000Y-58865900D02*
X186885000Y-58865900D01*
X216188000Y-51408200D02*
X216188000Y-57112700D01*
%TO.N,Net-(R13-Pad2)*%
X186255100Y-103591000D02*
X189429900Y-103591000D01*
%TO.N,Net-(R14-Pad2)*%
X178635000Y-118831000D02*
X181819000Y-115647000D01*
D32*
X181819000Y-115647000D02*
X181818900Y-115647000D01*
X181818900Y-115647000D02*
X178635000Y-118830900D01*
D31*
X185003000Y-112463000D02*
X194546000Y-112463000D01*
X181819000Y-115647000D02*
X185003000Y-112463000D01*
X194546000Y-112463000D02*
X195798000Y-111211000D01*
X195798000Y-111211000D02*
X197050000Y-111211000D01*
%TO.N,Net-(R18-Pad2)*%
X197049900Y-103591000D02*
X195798000Y-103591000D01*
X180855500Y-108990500D02*
X178635000Y-111211000D01*
X195798000Y-103591000D02*
X192619000Y-106770000D01*
D32*
X180855400Y-108990500D02*
X178635000Y-111210900D01*
D31*
X192619000Y-106770000D02*
X183076000Y-106770000D01*
X183076000Y-106770000D02*
X180855500Y-108990500D01*
D32*
X180855500Y-108990500D02*
X180855400Y-108990500D01*
D31*
%TO.N,Net-(R24-Pad1)*%
X158097000Y-78555900D02*
X166987000Y-87445900D01*
X156845000Y-78555900D02*
X158097000Y-78555900D01*
X166987000Y-87445900D02*
X168275000Y-87445900D01*
%TO.N,Net-(R29-Pad2)*%
X159350000Y-77267800D02*
X151729000Y-77267800D01*
X150477000Y-76015900D02*
X149225000Y-76015900D01*
X151729000Y-77267800D02*
X150477000Y-76015900D01*
X160655000Y-77320900D02*
X159403000Y-77320900D01*
X159403000Y-77320900D02*
X159350000Y-77267800D01*
%TD*%
M02*
