M48
; DRILL file {KiCad 7.0.6} date Wed Oct 30 10:36:58 2024
; FORMAT={-:-/ absolute / metric / decimal}
; #@! TF.CreationDate,2024-10-30T10:36:58-05:00
; #@! TF.GenerationSoftware,Kicad,Pcbnew,7.0.6
; #@! TF.FileFunction,Plated,1,2,PTH
FMAT,2
METRIC
; #@! TA.AperFunction,Plated,PTH,ViaDrill
T1C0.400
; #@! TA.AperFunction,Plated,PTH,ComponentDrill
T2C0.750
; #@! TA.AperFunction,Plated,PTH,ComponentDrill
T3C0.800
; #@! TA.AperFunction,Plated,PTH,ComponentDrill
T4C0.900
; #@! TA.AperFunction,Plated,PTH,ComponentDrill
T5C1.000
; #@! TA.AperFunction,Plated,PTH,ComponentDrill
T6C1.100
; #@! TA.AperFunction,Plated,PTH,ComponentDrill
T7C1.300
; #@! TA.AperFunction,Plated,PTH,ComponentDrill
T8C3.200
%
G90
G05
T1
X107.734Y-79.034
X133.62Y-70.47
X139.11Y-77.85
X148.937Y-111.609
X163.398Y-85.179
X171.64Y-91.213
T2
X153.035Y-40.726
X153.035Y-41.996
X153.035Y-43.266
X153.035Y-63.351
X153.035Y-64.621
X153.035Y-65.891
X153.035Y-86.176
X153.035Y-87.446
X153.035Y-88.716
X153.035Y-109.431
X153.035Y-110.701
X153.035Y-111.971
X153.035Y-132.566
X153.035Y-133.836
X153.035Y-135.106
T3
X67.945Y-52.556
X67.945Y-82.401
X67.945Y-112.881
X75.565Y-52.556
X75.565Y-82.401
X75.565Y-112.881
X94.18Y-28.271
X94.18Y-37.796
X94.18Y-47.321
X94.18Y-57.481
X94.18Y-67.006
X94.18Y-76.531
X94.18Y-88.271
X94.18Y-97.796
X94.18Y-107.321
X101.8Y-28.271
X101.8Y-37.796
X101.8Y-47.321
X101.8Y-57.481
X101.8Y-67.006
X101.8Y-76.531
X101.8Y-88.271
X101.8Y-97.796
X101.8Y-107.321
X105.61Y-28.271
X105.61Y-37.796
X105.61Y-47.321
X105.61Y-57.481
X105.61Y-67.006
X105.61Y-76.531
X105.61Y-88.271
X105.61Y-97.796
X105.61Y-107.321
X113.23Y-28.271
X113.23Y-37.796
X113.23Y-47.321
X113.23Y-57.481
X113.23Y-67.006
X113.23Y-76.531
X113.23Y-88.271
X113.23Y-97.796
X113.23Y-107.321
X149.225Y-30.331
X149.225Y-32.871
X149.225Y-53.191
X149.225Y-55.731
X149.225Y-76.016
X149.225Y-78.556
X149.225Y-98.911
X149.225Y-101.451
X149.225Y-121.766
X149.225Y-124.306
X156.845Y-30.331
X156.845Y-32.871
X156.845Y-53.191
X156.845Y-55.731
X156.845Y-76.016
X156.845Y-78.556
X156.845Y-98.911
X156.845Y-101.451
X156.845Y-121.766
X156.845Y-124.306
X160.655Y-31.836
X160.655Y-41.996
X160.655Y-54.461
X160.655Y-64.621
X160.655Y-77.321
X160.655Y-87.446
X160.655Y-100.181
X160.655Y-110.976
X160.655Y-123.041
X160.655Y-133.836
X168.275Y-31.836
X168.275Y-41.996
X168.275Y-54.461
X168.275Y-64.621
X168.275Y-77.321
X168.275Y-87.446
X168.275Y-100.181
X168.275Y-110.976
X168.275Y-123.041
X168.275Y-133.836
X178.635Y-83.906
X178.635Y-103.591
X178.635Y-111.211
X178.635Y-118.831
X179.265Y-32.196
X179.265Y-41.086
X179.265Y-49.976
X179.265Y-58.866
X179.349Y-22.86
X186.255Y-83.906
X186.255Y-103.591
X186.255Y-111.211
X186.255Y-118.831
X186.885Y-32.196
X186.885Y-41.086
X186.885Y-49.976
X186.885Y-58.866
X186.969Y-22.86
X189.43Y-83.906
X189.43Y-91.526
X189.43Y-103.591
X189.43Y-111.211
X190.695Y-32.196
X190.695Y-41.086
X190.695Y-49.976
X190.695Y-58.866
X197.05Y-83.906
X197.05Y-91.526
X197.05Y-103.591
X197.05Y-111.211
X198.315Y-32.196
X198.315Y-41.086
X198.315Y-49.976
X198.315Y-58.866
X203.085Y-45.72
X203.085Y-50.8
X203.085Y-64.135
X203.085Y-69.215
X208.165Y-48.26
X208.165Y-66.675
X209.75Y-87.481
X214.19Y-32.831
X214.19Y-35.371
X214.19Y-37.911
X214.19Y-40.451
X214.2Y-48.716
X214.2Y-51.256
X214.2Y-53.796
X214.2Y-56.336
X214.83Y-99.781
X214.83Y-102.321
X214.83Y-104.861
X214.83Y-107.401
X214.83Y-109.941
X214.83Y-112.481
X214.83Y-115.021
X214.83Y-117.561
X214.83Y-120.101
X217.37Y-87.481
X221.81Y-32.831
X221.81Y-35.371
X221.81Y-37.911
X221.81Y-40.451
X221.82Y-48.716
X221.82Y-51.256
X221.82Y-53.796
X221.82Y-56.336
X222.45Y-99.781
X222.45Y-102.321
X222.45Y-104.861
X222.45Y-107.401
X222.45Y-109.941
X222.45Y-112.481
X222.45Y-115.021
X222.45Y-117.561
X222.45Y-120.101
T4
X61.595Y-52.556
X61.595Y-82.401
X61.595Y-112.881
X64.135Y-52.556
X64.135Y-82.401
X64.135Y-112.881
X143.51Y-29.931
X143.51Y-32.471
X143.51Y-52.556
X143.51Y-55.096
X143.51Y-75.381
X143.51Y-77.921
X143.51Y-98.276
X143.51Y-100.816
X143.51Y-121.136
X143.51Y-123.676
T5
X123.19Y-30.966
X123.19Y-42.966
X123.19Y-53.826
X123.19Y-65.826
X123.19Y-76.686
X123.19Y-88.686
X123.19Y-99.546
X123.19Y-111.546
X123.19Y-122.406
X123.19Y-134.406
X180.575Y-69.026
X185.575Y-69.026
X192.005Y-69.026
X197.005Y-69.026
X203.435Y-33.466
X204.75Y-112.481
X208.435Y-33.466
X209.75Y-99.781
X209.75Y-102.321
X209.75Y-112.481
X218.059Y-26.035
T6
X83.385Y-29.216
X83.385Y-38.741
X83.385Y-48.266
X83.385Y-58.426
X83.385Y-67.641
X83.385Y-77.476
X83.385Y-88.906
X83.385Y-98.431
X83.385Y-107.956
X85.925Y-29.216
X85.925Y-38.741
X85.925Y-48.266
X85.925Y-58.426
X85.925Y-67.641
X85.925Y-77.476
X85.925Y-88.906
X85.925Y-98.431
X85.925Y-107.956
X88.465Y-29.216
X88.465Y-38.741
X88.465Y-48.266
X88.465Y-58.426
X88.465Y-67.641
X88.465Y-77.476
X88.465Y-88.906
X88.465Y-98.431
X88.465Y-107.956
X143.51Y-36.281
X143.51Y-43.901
X143.51Y-58.906
X143.51Y-66.526
X143.51Y-81.731
X143.51Y-89.351
X143.51Y-104.626
X143.51Y-112.246
X143.51Y-127.486
X143.51Y-135.106
X189.43Y-118.831
X197.05Y-118.831
X214.19Y-63.311
X214.19Y-69.661
X221.81Y-63.311
X221.81Y-69.661
T7
X65.405Y-30.411
X65.405Y-35.411
X65.405Y-40.411
X65.405Y-45.411
X65.405Y-59.621
X65.405Y-64.621
X65.405Y-69.621
X65.405Y-74.621
X65.405Y-90.101
X65.405Y-95.101
X65.405Y-100.101
X65.405Y-105.101
X65.405Y-121.136
X65.405Y-126.136
X65.405Y-131.136
X65.405Y-136.136
X121.24Y-36.916
X121.24Y-59.776
X121.24Y-82.636
X121.24Y-105.496
X121.24Y-128.356
X135.39Y-42.966
X135.39Y-65.826
X135.39Y-88.686
X135.39Y-111.546
X135.39Y-134.406
X135.44Y-30.916
X135.44Y-53.776
X135.44Y-76.636
X135.44Y-99.496
X135.44Y-122.356
X181.255Y-134.706
X186.255Y-134.706
X191.255Y-134.706
X196.255Y-134.706
X206.02Y-134.706
X211.02Y-134.706
X216.02Y-134.706
X221.02Y-134.706
T8
X60.96Y-18.901
X60.96Y-152.251
X222.885Y-18.901
X222.885Y-152.251
T0
M30
