%TF.GenerationSoftware,KiCad,Pcbnew,7.0.6*%
%TF.CreationDate,2024-10-30T10:37:01-05:00*%
%TF.ProjectId,AcCCS,41634343-532e-46b6-9963-61645f706362,rev?*%
%TF.SameCoordinates,Original*%
%TF.FileFunction,Drillmap*%
%TF.FilePolarity,Positive*%
%FSLAX45Y45*%
G04 Gerber Fmt 4.5, Leading zero omitted, Abs format (unit mm)*
G04 Created by KiCad (PCBNEW 7.0.6) date 2024-10-30 10:37:01*
%MOMM*%
%LPD*%
G01*
G04 APERTURE LIST*
%ADD10C,0.200000*%
%ADD11C,0.040000*%
%ADD12C,0.075000*%
%ADD13C,0.080000*%
%ADD14C,0.090000*%
%ADD15C,0.100000*%
%ADD16C,0.110000*%
%ADD17C,0.130000*%
%ADD18C,0.320000*%
G04 APERTURE END LIST*
D10*
X5588000Y-1382095D02*
X22796500Y-1382095D01*
X22796500Y-15733095D01*
X5588000Y-15733095D01*
X5588000Y-1382095D01*
D11*
X10753400Y-7883390D02*
X10793400Y-7923390D01*
X10793400Y-7883390D02*
X10753400Y-7923390D01*
X13342000Y-7027040D02*
X13382000Y-7067040D01*
X13382000Y-7027040D02*
X13342000Y-7067040D01*
X13891000Y-7765050D02*
X13931000Y-7805050D01*
X13931000Y-7765050D02*
X13891000Y-7805050D01*
X14873700Y-11140900D02*
X14913700Y-11180900D01*
X14913700Y-11140900D02*
X14873700Y-11180900D01*
X16319800Y-8497940D02*
X16359800Y-8537940D01*
X16359800Y-8497940D02*
X16319800Y-8537940D01*
X17144000Y-9101310D02*
X17184000Y-9141310D01*
X17184000Y-9101310D02*
X17144000Y-9141310D01*
D12*
X15341000Y-4072590D02*
G75*
G03*
X15341000Y-4072590I-37500J0D01*
G01*
X15341000Y-4199590D02*
G75*
G03*
X15341000Y-4199590I-37500J0D01*
G01*
X15341000Y-4326590D02*
G75*
G03*
X15341000Y-4326590I-37500J0D01*
G01*
X15341000Y-6335090D02*
G75*
G03*
X15341000Y-6335090I-37500J0D01*
G01*
X15341000Y-6462090D02*
G75*
G03*
X15341000Y-6462090I-37500J0D01*
G01*
X15341000Y-6589090D02*
G75*
G03*
X15341000Y-6589090I-37500J0D01*
G01*
X15341000Y-8617590D02*
G75*
G03*
X15341000Y-8617590I-37500J0D01*
G01*
X15341000Y-8744590D02*
G75*
G03*
X15341000Y-8744590I-37500J0D01*
G01*
X15341000Y-8871590D02*
G75*
G03*
X15341000Y-8871590I-37500J0D01*
G01*
X15341000Y-10943090D02*
G75*
G03*
X15341000Y-10943090I-37500J0D01*
G01*
X15341000Y-11070090D02*
G75*
G03*
X15341000Y-11070090I-37500J0D01*
G01*
X15341000Y-11197090D02*
G75*
G03*
X15341000Y-11197090I-37500J0D01*
G01*
X15341000Y-13256590D02*
G75*
G03*
X15341000Y-13256590I-37500J0D01*
G01*
X15341000Y-13383590D02*
G75*
G03*
X15341000Y-13383590I-37500J0D01*
G01*
X15341000Y-13510590D02*
G75*
G03*
X15341000Y-13510590I-37500J0D01*
G01*
D13*
X6794500Y-5215590D02*
X6794500Y-5295590D01*
X6754500Y-5255590D02*
X6834500Y-5255590D01*
X6794500Y-8200090D02*
X6794500Y-8280090D01*
X6754500Y-8240090D02*
X6834500Y-8240090D01*
X6794500Y-11248090D02*
X6794500Y-11328090D01*
X6754500Y-11288090D02*
X6834500Y-11288090D01*
X7556500Y-5215590D02*
X7556500Y-5295590D01*
X7516500Y-5255590D02*
X7596500Y-5255590D01*
X7556500Y-8200090D02*
X7556500Y-8280090D01*
X7516500Y-8240090D02*
X7596500Y-8240090D01*
X7556500Y-11248090D02*
X7556500Y-11328090D01*
X7516500Y-11288090D02*
X7596500Y-11288090D01*
X9418000Y-2787090D02*
X9418000Y-2867090D01*
X9378000Y-2827090D02*
X9458000Y-2827090D01*
X9418000Y-3739590D02*
X9418000Y-3819590D01*
X9378000Y-3779590D02*
X9458000Y-3779590D01*
X9418000Y-4692090D02*
X9418000Y-4772090D01*
X9378000Y-4732090D02*
X9458000Y-4732090D01*
X9418000Y-5708090D02*
X9418000Y-5788090D01*
X9378000Y-5748090D02*
X9458000Y-5748090D01*
X9418000Y-6660590D02*
X9418000Y-6740590D01*
X9378000Y-6700590D02*
X9458000Y-6700590D01*
X9418000Y-7613090D02*
X9418000Y-7693090D01*
X9378000Y-7653090D02*
X9458000Y-7653090D01*
X9418000Y-8787090D02*
X9418000Y-8867090D01*
X9378000Y-8827090D02*
X9458000Y-8827090D01*
X9418000Y-9739590D02*
X9418000Y-9819590D01*
X9378000Y-9779590D02*
X9458000Y-9779590D01*
X9418000Y-10692090D02*
X9418000Y-10772090D01*
X9378000Y-10732090D02*
X9458000Y-10732090D01*
X10180000Y-2787090D02*
X10180000Y-2867090D01*
X10140000Y-2827090D02*
X10220000Y-2827090D01*
X10180000Y-3739590D02*
X10180000Y-3819590D01*
X10140000Y-3779590D02*
X10220000Y-3779590D01*
X10180000Y-4692090D02*
X10180000Y-4772090D01*
X10140000Y-4732090D02*
X10220000Y-4732090D01*
X10180000Y-5708090D02*
X10180000Y-5788090D01*
X10140000Y-5748090D02*
X10220000Y-5748090D01*
X10180000Y-6660590D02*
X10180000Y-6740590D01*
X10140000Y-6700590D02*
X10220000Y-6700590D01*
X10180000Y-7613090D02*
X10180000Y-7693090D01*
X10140000Y-7653090D02*
X10220000Y-7653090D01*
X10180000Y-8787090D02*
X10180000Y-8867090D01*
X10140000Y-8827090D02*
X10220000Y-8827090D01*
X10180000Y-9739590D02*
X10180000Y-9819590D01*
X10140000Y-9779590D02*
X10220000Y-9779590D01*
X10180000Y-10692090D02*
X10180000Y-10772090D01*
X10140000Y-10732090D02*
X10220000Y-10732090D01*
X10561000Y-2787090D02*
X10561000Y-2867090D01*
X10521000Y-2827090D02*
X10601000Y-2827090D01*
X10561000Y-3739590D02*
X10561000Y-3819590D01*
X10521000Y-3779590D02*
X10601000Y-3779590D01*
X10561000Y-4692090D02*
X10561000Y-4772090D01*
X10521000Y-4732090D02*
X10601000Y-4732090D01*
X10561000Y-5708090D02*
X10561000Y-5788090D01*
X10521000Y-5748090D02*
X10601000Y-5748090D01*
X10561000Y-6660590D02*
X10561000Y-6740590D01*
X10521000Y-6700590D02*
X10601000Y-6700590D01*
X10561000Y-7613090D02*
X10561000Y-7693090D01*
X10521000Y-7653090D02*
X10601000Y-7653090D01*
X10561000Y-8787090D02*
X10561000Y-8867090D01*
X10521000Y-8827090D02*
X10601000Y-8827090D01*
X10561000Y-9739590D02*
X10561000Y-9819590D01*
X10521000Y-9779590D02*
X10601000Y-9779590D01*
X10561000Y-10692090D02*
X10561000Y-10772090D01*
X10521000Y-10732090D02*
X10601000Y-10732090D01*
X11323000Y-2787090D02*
X11323000Y-2867090D01*
X11283000Y-2827090D02*
X11363000Y-2827090D01*
X11323000Y-3739590D02*
X11323000Y-3819590D01*
X11283000Y-3779590D02*
X11363000Y-3779590D01*
X11323000Y-4692090D02*
X11323000Y-4772090D01*
X11283000Y-4732090D02*
X11363000Y-4732090D01*
X11323000Y-5708090D02*
X11323000Y-5788090D01*
X11283000Y-5748090D02*
X11363000Y-5748090D01*
X11323000Y-6660590D02*
X11323000Y-6740590D01*
X11283000Y-6700590D02*
X11363000Y-6700590D01*
X11323000Y-7613090D02*
X11323000Y-7693090D01*
X11283000Y-7653090D02*
X11363000Y-7653090D01*
X11323000Y-8787090D02*
X11323000Y-8867090D01*
X11283000Y-8827090D02*
X11363000Y-8827090D01*
X11323000Y-9739590D02*
X11323000Y-9819590D01*
X11283000Y-9779590D02*
X11363000Y-9779590D01*
X11323000Y-10692090D02*
X11323000Y-10772090D01*
X11283000Y-10732090D02*
X11363000Y-10732090D01*
X14922500Y-2993090D02*
X14922500Y-3073090D01*
X14882500Y-3033090D02*
X14962500Y-3033090D01*
X14922500Y-3247090D02*
X14922500Y-3327090D01*
X14882500Y-3287090D02*
X14962500Y-3287090D01*
X14922500Y-5279090D02*
X14922500Y-5359090D01*
X14882500Y-5319090D02*
X14962500Y-5319090D01*
X14922500Y-5533090D02*
X14922500Y-5613090D01*
X14882500Y-5573090D02*
X14962500Y-5573090D01*
X14922500Y-7561590D02*
X14922500Y-7641590D01*
X14882500Y-7601590D02*
X14962500Y-7601590D01*
X14922500Y-7815590D02*
X14922500Y-7895590D01*
X14882500Y-7855590D02*
X14962500Y-7855590D01*
X14922500Y-9851090D02*
X14922500Y-9931090D01*
X14882500Y-9891090D02*
X14962500Y-9891090D01*
X14922500Y-10105090D02*
X14922500Y-10185090D01*
X14882500Y-10145090D02*
X14962500Y-10145090D01*
X14922500Y-12136590D02*
X14922500Y-12216590D01*
X14882500Y-12176590D02*
X14962500Y-12176590D01*
X14922500Y-12390590D02*
X14922500Y-12470590D01*
X14882500Y-12430590D02*
X14962500Y-12430590D01*
X15684500Y-2993090D02*
X15684500Y-3073090D01*
X15644500Y-3033090D02*
X15724500Y-3033090D01*
X15684500Y-3247090D02*
X15684500Y-3327090D01*
X15644500Y-3287090D02*
X15724500Y-3287090D01*
X15684500Y-5279090D02*
X15684500Y-5359090D01*
X15644500Y-5319090D02*
X15724500Y-5319090D01*
X15684500Y-5533090D02*
X15684500Y-5613090D01*
X15644500Y-5573090D02*
X15724500Y-5573090D01*
X15684500Y-7561590D02*
X15684500Y-7641590D01*
X15644500Y-7601590D02*
X15724500Y-7601590D01*
X15684500Y-7815590D02*
X15684500Y-7895590D01*
X15644500Y-7855590D02*
X15724500Y-7855590D01*
X15684500Y-9851090D02*
X15684500Y-9931090D01*
X15644500Y-9891090D02*
X15724500Y-9891090D01*
X15684500Y-10105090D02*
X15684500Y-10185090D01*
X15644500Y-10145090D02*
X15724500Y-10145090D01*
X15684500Y-12136590D02*
X15684500Y-12216590D01*
X15644500Y-12176590D02*
X15724500Y-12176590D01*
X15684500Y-12390590D02*
X15684500Y-12470590D01*
X15644500Y-12430590D02*
X15724500Y-12430590D01*
X16065500Y-3143590D02*
X16065500Y-3223590D01*
X16025500Y-3183590D02*
X16105500Y-3183590D01*
X16065500Y-4159590D02*
X16065500Y-4239590D01*
X16025500Y-4199590D02*
X16105500Y-4199590D01*
X16065500Y-5406090D02*
X16065500Y-5486090D01*
X16025500Y-5446090D02*
X16105500Y-5446090D01*
X16065500Y-6422090D02*
X16065500Y-6502090D01*
X16025500Y-6462090D02*
X16105500Y-6462090D01*
X16065500Y-7692090D02*
X16065500Y-7772090D01*
X16025500Y-7732090D02*
X16105500Y-7732090D01*
X16065500Y-8704590D02*
X16065500Y-8784590D01*
X16025500Y-8744590D02*
X16105500Y-8744590D01*
X16065500Y-9978090D02*
X16065500Y-10058090D01*
X16025500Y-10018090D02*
X16105500Y-10018090D01*
X16065500Y-11057590D02*
X16065500Y-11137590D01*
X16025500Y-11097590D02*
X16105500Y-11097590D01*
X16065500Y-12264090D02*
X16065500Y-12344090D01*
X16025500Y-12304090D02*
X16105500Y-12304090D01*
X16065500Y-13343590D02*
X16065500Y-13423590D01*
X16025500Y-13383590D02*
X16105500Y-13383590D01*
X16827500Y-3143590D02*
X16827500Y-3223590D01*
X16787500Y-3183590D02*
X16867500Y-3183590D01*
X16827500Y-4159590D02*
X16827500Y-4239590D01*
X16787500Y-4199590D02*
X16867500Y-4199590D01*
X16827500Y-5406090D02*
X16827500Y-5486090D01*
X16787500Y-5446090D02*
X16867500Y-5446090D01*
X16827500Y-6422090D02*
X16827500Y-6502090D01*
X16787500Y-6462090D02*
X16867500Y-6462090D01*
X16827500Y-7692090D02*
X16827500Y-7772090D01*
X16787500Y-7732090D02*
X16867500Y-7732090D01*
X16827500Y-8704590D02*
X16827500Y-8784590D01*
X16787500Y-8744590D02*
X16867500Y-8744590D01*
X16827500Y-9978090D02*
X16827500Y-10058090D01*
X16787500Y-10018090D02*
X16867500Y-10018090D01*
X16827500Y-11057590D02*
X16827500Y-11137590D01*
X16787500Y-11097590D02*
X16867500Y-11097590D01*
X16827500Y-12264090D02*
X16827500Y-12344090D01*
X16787500Y-12304090D02*
X16867500Y-12304090D01*
X16827500Y-13343590D02*
X16827500Y-13423590D01*
X16787500Y-13383590D02*
X16867500Y-13383590D01*
X17863500Y-8350590D02*
X17863500Y-8430590D01*
X17823500Y-8390590D02*
X17903500Y-8390590D01*
X17863500Y-10319090D02*
X17863500Y-10399090D01*
X17823500Y-10359090D02*
X17903500Y-10359090D01*
X17863500Y-11081090D02*
X17863500Y-11161090D01*
X17823500Y-11121090D02*
X17903500Y-11121090D01*
X17863500Y-11843090D02*
X17863500Y-11923090D01*
X17823500Y-11883090D02*
X17903500Y-11883090D01*
X17926500Y-3179590D02*
X17926500Y-3259590D01*
X17886500Y-3219590D02*
X17966500Y-3219590D01*
X17926500Y-4068590D02*
X17926500Y-4148590D01*
X17886500Y-4108590D02*
X17966500Y-4108590D01*
X17926500Y-4957590D02*
X17926500Y-5037590D01*
X17886500Y-4997590D02*
X17966500Y-4997590D01*
X17926500Y-5846590D02*
X17926500Y-5926590D01*
X17886500Y-5886590D02*
X17966500Y-5886590D01*
X17934940Y-2246000D02*
X17934940Y-2326000D01*
X17894940Y-2286000D02*
X17974940Y-2286000D01*
X18625500Y-8350590D02*
X18625500Y-8430590D01*
X18585500Y-8390590D02*
X18665500Y-8390590D01*
X18625500Y-10319090D02*
X18625500Y-10399090D01*
X18585500Y-10359090D02*
X18665500Y-10359090D01*
X18625500Y-11081090D02*
X18625500Y-11161090D01*
X18585500Y-11121090D02*
X18665500Y-11121090D01*
X18625500Y-11843090D02*
X18625500Y-11923090D01*
X18585500Y-11883090D02*
X18665500Y-11883090D01*
X18688500Y-3179590D02*
X18688500Y-3259590D01*
X18648500Y-3219590D02*
X18728500Y-3219590D01*
X18688500Y-4068590D02*
X18688500Y-4148590D01*
X18648500Y-4108590D02*
X18728500Y-4108590D01*
X18688500Y-4957590D02*
X18688500Y-5037590D01*
X18648500Y-4997590D02*
X18728500Y-4997590D01*
X18688500Y-5846590D02*
X18688500Y-5926590D01*
X18648500Y-5886590D02*
X18728500Y-5886590D01*
X18696940Y-2246000D02*
X18696940Y-2326000D01*
X18656940Y-2286000D02*
X18736940Y-2286000D01*
X18943000Y-8350590D02*
X18943000Y-8430590D01*
X18903000Y-8390590D02*
X18983000Y-8390590D01*
X18943000Y-9112590D02*
X18943000Y-9192590D01*
X18903000Y-9152590D02*
X18983000Y-9152590D01*
X18943000Y-10319090D02*
X18943000Y-10399090D01*
X18903000Y-10359090D02*
X18983000Y-10359090D01*
X18943000Y-11081090D02*
X18943000Y-11161090D01*
X18903000Y-11121090D02*
X18983000Y-11121090D01*
X19069500Y-3179590D02*
X19069500Y-3259590D01*
X19029500Y-3219590D02*
X19109500Y-3219590D01*
X19069500Y-4068590D02*
X19069500Y-4148590D01*
X19029500Y-4108590D02*
X19109500Y-4108590D01*
X19069500Y-4957590D02*
X19069500Y-5037590D01*
X19029500Y-4997590D02*
X19109500Y-4997590D01*
X19069500Y-5846590D02*
X19069500Y-5926590D01*
X19029500Y-5886590D02*
X19109500Y-5886590D01*
X19705000Y-8350590D02*
X19705000Y-8430590D01*
X19665000Y-8390590D02*
X19745000Y-8390590D01*
X19705000Y-9112590D02*
X19705000Y-9192590D01*
X19665000Y-9152590D02*
X19745000Y-9152590D01*
X19705000Y-10319090D02*
X19705000Y-10399090D01*
X19665000Y-10359090D02*
X19745000Y-10359090D01*
X19705000Y-11081090D02*
X19705000Y-11161090D01*
X19665000Y-11121090D02*
X19745000Y-11121090D01*
X19831500Y-3179590D02*
X19831500Y-3259590D01*
X19791500Y-3219590D02*
X19871500Y-3219590D01*
X19831500Y-4068590D02*
X19831500Y-4148590D01*
X19791500Y-4108590D02*
X19871500Y-4108590D01*
X19831500Y-4957590D02*
X19831500Y-5037590D01*
X19791500Y-4997590D02*
X19871500Y-4997590D01*
X19831500Y-5846590D02*
X19831500Y-5926590D01*
X19791500Y-5886590D02*
X19871500Y-5886590D01*
X20308500Y-4532000D02*
X20308500Y-4612000D01*
X20268500Y-4572000D02*
X20348500Y-4572000D01*
X20308500Y-5040000D02*
X20308500Y-5120000D01*
X20268500Y-5080000D02*
X20348500Y-5080000D01*
X20308500Y-6373500D02*
X20308500Y-6453500D01*
X20268500Y-6413500D02*
X20348500Y-6413500D01*
X20308500Y-6881500D02*
X20308500Y-6961500D01*
X20268500Y-6921500D02*
X20348500Y-6921500D01*
X20816500Y-4786000D02*
X20816500Y-4866000D01*
X20776500Y-4826000D02*
X20856500Y-4826000D01*
X20816500Y-6627500D02*
X20816500Y-6707500D01*
X20776500Y-6667500D02*
X20856500Y-6667500D01*
X20975000Y-8708090D02*
X20975000Y-8788090D01*
X20935000Y-8748090D02*
X21015000Y-8748090D01*
X21419000Y-3243090D02*
X21419000Y-3323090D01*
X21379000Y-3283090D02*
X21459000Y-3283090D01*
X21419000Y-3497090D02*
X21419000Y-3577090D01*
X21379000Y-3537090D02*
X21459000Y-3537090D01*
X21419000Y-3751090D02*
X21419000Y-3831090D01*
X21379000Y-3791090D02*
X21459000Y-3791090D01*
X21419000Y-4005090D02*
X21419000Y-4085090D01*
X21379000Y-4045090D02*
X21459000Y-4045090D01*
X21420000Y-4831590D02*
X21420000Y-4911590D01*
X21380000Y-4871590D02*
X21460000Y-4871590D01*
X21420000Y-5085590D02*
X21420000Y-5165590D01*
X21380000Y-5125590D02*
X21460000Y-5125590D01*
X21420000Y-5339590D02*
X21420000Y-5419590D01*
X21380000Y-5379590D02*
X21460000Y-5379590D01*
X21420000Y-5593590D02*
X21420000Y-5673590D01*
X21380000Y-5633590D02*
X21460000Y-5633590D01*
X21483000Y-9938090D02*
X21483000Y-10018090D01*
X21443000Y-9978090D02*
X21523000Y-9978090D01*
X21483000Y-10192090D02*
X21483000Y-10272090D01*
X21443000Y-10232090D02*
X21523000Y-10232090D01*
X21483000Y-10446090D02*
X21483000Y-10526090D01*
X21443000Y-10486090D02*
X21523000Y-10486090D01*
X21483000Y-10700090D02*
X21483000Y-10780090D01*
X21443000Y-10740090D02*
X21523000Y-10740090D01*
X21483000Y-10954090D02*
X21483000Y-11034090D01*
X21443000Y-10994090D02*
X21523000Y-10994090D01*
X21483000Y-11208090D02*
X21483000Y-11288090D01*
X21443000Y-11248090D02*
X21523000Y-11248090D01*
X21483000Y-11462090D02*
X21483000Y-11542090D01*
X21443000Y-11502090D02*
X21523000Y-11502090D01*
X21483000Y-11716090D02*
X21483000Y-11796090D01*
X21443000Y-11756090D02*
X21523000Y-11756090D01*
X21483000Y-11970090D02*
X21483000Y-12050090D01*
X21443000Y-12010090D02*
X21523000Y-12010090D01*
X21737000Y-8708090D02*
X21737000Y-8788090D01*
X21697000Y-8748090D02*
X21777000Y-8748090D01*
X22181000Y-3243090D02*
X22181000Y-3323090D01*
X22141000Y-3283090D02*
X22221000Y-3283090D01*
X22181000Y-3497090D02*
X22181000Y-3577090D01*
X22141000Y-3537090D02*
X22221000Y-3537090D01*
X22181000Y-3751090D02*
X22181000Y-3831090D01*
X22141000Y-3791090D02*
X22221000Y-3791090D01*
X22181000Y-4005090D02*
X22181000Y-4085090D01*
X22141000Y-4045090D02*
X22221000Y-4045090D01*
X22182000Y-4831590D02*
X22182000Y-4911590D01*
X22142000Y-4871590D02*
X22222000Y-4871590D01*
X22182000Y-5085590D02*
X22182000Y-5165590D01*
X22142000Y-5125590D02*
X22222000Y-5125590D01*
X22182000Y-5339590D02*
X22182000Y-5419590D01*
X22142000Y-5379590D02*
X22222000Y-5379590D01*
X22182000Y-5593590D02*
X22182000Y-5673590D01*
X22142000Y-5633590D02*
X22222000Y-5633590D01*
X22245000Y-9938090D02*
X22245000Y-10018090D01*
X22205000Y-9978090D02*
X22285000Y-9978090D01*
X22245000Y-10192090D02*
X22245000Y-10272090D01*
X22205000Y-10232090D02*
X22285000Y-10232090D01*
X22245000Y-10446090D02*
X22245000Y-10526090D01*
X22205000Y-10486090D02*
X22285000Y-10486090D01*
X22245000Y-10700090D02*
X22245000Y-10780090D01*
X22205000Y-10740090D02*
X22285000Y-10740090D01*
X22245000Y-10954090D02*
X22245000Y-11034090D01*
X22205000Y-10994090D02*
X22285000Y-10994090D01*
X22245000Y-11208090D02*
X22245000Y-11288090D01*
X22205000Y-11248090D02*
X22285000Y-11248090D01*
X22245000Y-11462090D02*
X22245000Y-11542090D01*
X22205000Y-11502090D02*
X22285000Y-11502090D01*
X22245000Y-11716090D02*
X22245000Y-11796090D01*
X22205000Y-11756090D02*
X22285000Y-11756090D01*
X22245000Y-11970090D02*
X22245000Y-12050090D01*
X22205000Y-12010090D02*
X22285000Y-12010090D01*
D14*
X6191320Y-5287410D02*
X6191320Y-5223770D01*
X6127680Y-5223770D01*
X6127680Y-5287410D01*
X6191320Y-5287410D01*
X6191320Y-8271910D02*
X6191320Y-8208270D01*
X6127680Y-8208270D01*
X6127680Y-8271910D01*
X6191320Y-8271910D01*
X6191320Y-11319910D02*
X6191320Y-11256270D01*
X6127680Y-11256270D01*
X6127680Y-11319910D01*
X6191320Y-11319910D01*
X6445320Y-5287410D02*
X6445320Y-5223770D01*
X6381680Y-5223770D01*
X6381680Y-5287410D01*
X6445320Y-5287410D01*
X6445320Y-8271910D02*
X6445320Y-8208270D01*
X6381680Y-8208270D01*
X6381680Y-8271910D01*
X6445320Y-8271910D01*
X6445320Y-11319910D02*
X6445320Y-11256270D01*
X6381680Y-11256270D01*
X6381680Y-11319910D01*
X6445320Y-11319910D01*
X14382820Y-3024910D02*
X14382820Y-2961270D01*
X14319180Y-2961270D01*
X14319180Y-3024910D01*
X14382820Y-3024910D01*
X14382820Y-3278910D02*
X14382820Y-3215270D01*
X14319180Y-3215270D01*
X14319180Y-3278910D01*
X14382820Y-3278910D01*
X14382820Y-5287410D02*
X14382820Y-5223770D01*
X14319180Y-5223770D01*
X14319180Y-5287410D01*
X14382820Y-5287410D01*
X14382820Y-5541410D02*
X14382820Y-5477770D01*
X14319180Y-5477770D01*
X14319180Y-5541410D01*
X14382820Y-5541410D01*
X14382820Y-7569910D02*
X14382820Y-7506270D01*
X14319180Y-7506270D01*
X14319180Y-7569910D01*
X14382820Y-7569910D01*
X14382820Y-7823910D02*
X14382820Y-7760270D01*
X14319180Y-7760270D01*
X14319180Y-7823910D01*
X14382820Y-7823910D01*
X14382820Y-9859410D02*
X14382820Y-9795770D01*
X14319180Y-9795770D01*
X14319180Y-9859410D01*
X14382820Y-9859410D01*
X14382820Y-10113410D02*
X14382820Y-10049770D01*
X14319180Y-10049770D01*
X14319180Y-10113410D01*
X14382820Y-10113410D01*
X14382820Y-12145410D02*
X14382820Y-12081770D01*
X14319180Y-12081770D01*
X14319180Y-12145410D01*
X14382820Y-12145410D01*
X14382820Y-12399410D02*
X14382820Y-12335770D01*
X14319180Y-12335770D01*
X14319180Y-12399410D01*
X14382820Y-12399410D01*
D15*
X12319000Y-3146590D02*
X12369000Y-3096590D01*
X12319000Y-3046590D01*
X12269000Y-3096590D01*
X12319000Y-3146590D01*
X12319000Y-4346590D02*
X12369000Y-4296590D01*
X12319000Y-4246590D01*
X12269000Y-4296590D01*
X12319000Y-4346590D01*
X12319000Y-5432590D02*
X12369000Y-5382590D01*
X12319000Y-5332590D01*
X12269000Y-5382590D01*
X12319000Y-5432590D01*
X12319000Y-6632590D02*
X12369000Y-6582590D01*
X12319000Y-6532590D01*
X12269000Y-6582590D01*
X12319000Y-6632590D01*
X12319000Y-7718590D02*
X12369000Y-7668590D01*
X12319000Y-7618590D01*
X12269000Y-7668590D01*
X12319000Y-7718590D01*
X12319000Y-8918590D02*
X12369000Y-8868590D01*
X12319000Y-8818590D01*
X12269000Y-8868590D01*
X12319000Y-8918590D01*
X12319000Y-10004590D02*
X12369000Y-9954590D01*
X12319000Y-9904590D01*
X12269000Y-9954590D01*
X12319000Y-10004590D01*
X12319000Y-11204590D02*
X12369000Y-11154590D01*
X12319000Y-11104590D01*
X12269000Y-11154590D01*
X12319000Y-11204590D01*
X12319000Y-12290590D02*
X12369000Y-12240590D01*
X12319000Y-12190590D01*
X12269000Y-12240590D01*
X12319000Y-12290590D01*
X12319000Y-13490590D02*
X12369000Y-13440590D01*
X12319000Y-13390590D01*
X12269000Y-13440590D01*
X12319000Y-13490590D01*
X18057500Y-6952590D02*
X18107500Y-6902590D01*
X18057500Y-6852590D01*
X18007500Y-6902590D01*
X18057500Y-6952590D01*
X18557500Y-6952590D02*
X18607500Y-6902590D01*
X18557500Y-6852590D01*
X18507500Y-6902590D01*
X18557500Y-6952590D01*
X19200500Y-6952590D02*
X19250500Y-6902590D01*
X19200500Y-6852590D01*
X19150500Y-6902590D01*
X19200500Y-6952590D01*
X19700500Y-6952590D02*
X19750500Y-6902590D01*
X19700500Y-6852590D01*
X19650500Y-6902590D01*
X19700500Y-6952590D01*
X20343500Y-3396590D02*
X20393500Y-3346590D01*
X20343500Y-3296590D01*
X20293500Y-3346590D01*
X20343500Y-3396590D01*
X20475000Y-11298090D02*
X20525000Y-11248090D01*
X20475000Y-11198090D01*
X20425000Y-11248090D01*
X20475000Y-11298090D01*
X20843500Y-3396590D02*
X20893500Y-3346590D01*
X20843500Y-3296590D01*
X20793500Y-3346590D01*
X20843500Y-3396590D01*
X20975000Y-10028090D02*
X21025000Y-9978090D01*
X20975000Y-9928090D01*
X20925000Y-9978090D01*
X20975000Y-10028090D01*
X20975000Y-10282090D02*
X21025000Y-10232090D01*
X20975000Y-10182090D01*
X20925000Y-10232090D01*
X20975000Y-10282090D01*
X20975000Y-11298090D02*
X21025000Y-11248090D01*
X20975000Y-11198090D01*
X20925000Y-11248090D01*
X20975000Y-11298090D01*
X21805900Y-2653500D02*
X21855900Y-2603500D01*
X21805900Y-2553500D01*
X21755900Y-2603500D01*
X21805900Y-2653500D01*
D16*
X8283500Y-2866590D02*
X8393500Y-2976590D01*
X8393500Y-2866590D02*
X8283500Y-2976590D01*
X8393500Y-2921590D02*
G75*
G03*
X8393500Y-2921590I-55000J0D01*
G01*
X8283500Y-3819090D02*
X8393500Y-3929090D01*
X8393500Y-3819090D02*
X8283500Y-3929090D01*
X8393500Y-3874090D02*
G75*
G03*
X8393500Y-3874090I-55000J0D01*
G01*
X8283500Y-4771590D02*
X8393500Y-4881590D01*
X8393500Y-4771590D02*
X8283500Y-4881590D01*
X8393500Y-4826590D02*
G75*
G03*
X8393500Y-4826590I-55000J0D01*
G01*
X8283500Y-5787590D02*
X8393500Y-5897590D01*
X8393500Y-5787590D02*
X8283500Y-5897590D01*
X8393500Y-5842590D02*
G75*
G03*
X8393500Y-5842590I-55000J0D01*
G01*
X8283500Y-6709090D02*
X8393500Y-6819090D01*
X8393500Y-6709090D02*
X8283500Y-6819090D01*
X8393500Y-6764090D02*
G75*
G03*
X8393500Y-6764090I-55000J0D01*
G01*
X8283500Y-7692590D02*
X8393500Y-7802590D01*
X8393500Y-7692590D02*
X8283500Y-7802590D01*
X8393500Y-7747590D02*
G75*
G03*
X8393500Y-7747590I-55000J0D01*
G01*
X8283500Y-8835590D02*
X8393500Y-8945590D01*
X8393500Y-8835590D02*
X8283500Y-8945590D01*
X8393500Y-8890590D02*
G75*
G03*
X8393500Y-8890590I-55000J0D01*
G01*
X8283500Y-9788090D02*
X8393500Y-9898090D01*
X8393500Y-9788090D02*
X8283500Y-9898090D01*
X8393500Y-9843090D02*
G75*
G03*
X8393500Y-9843090I-55000J0D01*
G01*
X8283500Y-10740590D02*
X8393500Y-10850590D01*
X8393500Y-10740590D02*
X8283500Y-10850590D01*
X8393500Y-10795590D02*
G75*
G03*
X8393500Y-10795590I-55000J0D01*
G01*
X8537500Y-2866590D02*
X8647500Y-2976590D01*
X8647500Y-2866590D02*
X8537500Y-2976590D01*
X8647500Y-2921590D02*
G75*
G03*
X8647500Y-2921590I-55000J0D01*
G01*
X8537500Y-3819090D02*
X8647500Y-3929090D01*
X8647500Y-3819090D02*
X8537500Y-3929090D01*
X8647500Y-3874090D02*
G75*
G03*
X8647500Y-3874090I-55000J0D01*
G01*
X8537500Y-4771590D02*
X8647500Y-4881590D01*
X8647500Y-4771590D02*
X8537500Y-4881590D01*
X8647500Y-4826590D02*
G75*
G03*
X8647500Y-4826590I-55000J0D01*
G01*
X8537500Y-5787590D02*
X8647500Y-5897590D01*
X8647500Y-5787590D02*
X8537500Y-5897590D01*
X8647500Y-5842590D02*
G75*
G03*
X8647500Y-5842590I-55000J0D01*
G01*
X8537500Y-6709090D02*
X8647500Y-6819090D01*
X8647500Y-6709090D02*
X8537500Y-6819090D01*
X8647500Y-6764090D02*
G75*
G03*
X8647500Y-6764090I-55000J0D01*
G01*
X8537500Y-7692590D02*
X8647500Y-7802590D01*
X8647500Y-7692590D02*
X8537500Y-7802590D01*
X8647500Y-7747590D02*
G75*
G03*
X8647500Y-7747590I-55000J0D01*
G01*
X8537500Y-8835590D02*
X8647500Y-8945590D01*
X8647500Y-8835590D02*
X8537500Y-8945590D01*
X8647500Y-8890590D02*
G75*
G03*
X8647500Y-8890590I-55000J0D01*
G01*
X8537500Y-9788090D02*
X8647500Y-9898090D01*
X8647500Y-9788090D02*
X8537500Y-9898090D01*
X8647500Y-9843090D02*
G75*
G03*
X8647500Y-9843090I-55000J0D01*
G01*
X8537500Y-10740590D02*
X8647500Y-10850590D01*
X8647500Y-10740590D02*
X8537500Y-10850590D01*
X8647500Y-10795590D02*
G75*
G03*
X8647500Y-10795590I-55000J0D01*
G01*
X8791500Y-2866590D02*
X8901500Y-2976590D01*
X8901500Y-2866590D02*
X8791500Y-2976590D01*
X8901500Y-2921590D02*
G75*
G03*
X8901500Y-2921590I-55000J0D01*
G01*
X8791500Y-3819090D02*
X8901500Y-3929090D01*
X8901500Y-3819090D02*
X8791500Y-3929090D01*
X8901500Y-3874090D02*
G75*
G03*
X8901500Y-3874090I-55000J0D01*
G01*
X8791500Y-4771590D02*
X8901500Y-4881590D01*
X8901500Y-4771590D02*
X8791500Y-4881590D01*
X8901500Y-4826590D02*
G75*
G03*
X8901500Y-4826590I-55000J0D01*
G01*
X8791500Y-5787590D02*
X8901500Y-5897590D01*
X8901500Y-5787590D02*
X8791500Y-5897590D01*
X8901500Y-5842590D02*
G75*
G03*
X8901500Y-5842590I-55000J0D01*
G01*
X8791500Y-6709090D02*
X8901500Y-6819090D01*
X8901500Y-6709090D02*
X8791500Y-6819090D01*
X8901500Y-6764090D02*
G75*
G03*
X8901500Y-6764090I-55000J0D01*
G01*
X8791500Y-7692590D02*
X8901500Y-7802590D01*
X8901500Y-7692590D02*
X8791500Y-7802590D01*
X8901500Y-7747590D02*
G75*
G03*
X8901500Y-7747590I-55000J0D01*
G01*
X8791500Y-8835590D02*
X8901500Y-8945590D01*
X8901500Y-8835590D02*
X8791500Y-8945590D01*
X8901500Y-8890590D02*
G75*
G03*
X8901500Y-8890590I-55000J0D01*
G01*
X8791500Y-9788090D02*
X8901500Y-9898090D01*
X8901500Y-9788090D02*
X8791500Y-9898090D01*
X8901500Y-9843090D02*
G75*
G03*
X8901500Y-9843090I-55000J0D01*
G01*
X8791500Y-10740590D02*
X8901500Y-10850590D01*
X8901500Y-10740590D02*
X8791500Y-10850590D01*
X8901500Y-10795590D02*
G75*
G03*
X8901500Y-10795590I-55000J0D01*
G01*
X14296000Y-3573090D02*
X14406000Y-3683090D01*
X14406000Y-3573090D02*
X14296000Y-3683090D01*
X14406000Y-3628090D02*
G75*
G03*
X14406000Y-3628090I-55000J0D01*
G01*
X14296000Y-4335090D02*
X14406000Y-4445090D01*
X14406000Y-4335090D02*
X14296000Y-4445090D01*
X14406000Y-4390090D02*
G75*
G03*
X14406000Y-4390090I-55000J0D01*
G01*
X14296000Y-5835590D02*
X14406000Y-5945590D01*
X14406000Y-5835590D02*
X14296000Y-5945590D01*
X14406000Y-5890590D02*
G75*
G03*
X14406000Y-5890590I-55000J0D01*
G01*
X14296000Y-6597590D02*
X14406000Y-6707590D01*
X14406000Y-6597590D02*
X14296000Y-6707590D01*
X14406000Y-6652590D02*
G75*
G03*
X14406000Y-6652590I-55000J0D01*
G01*
X14296000Y-8118090D02*
X14406000Y-8228090D01*
X14406000Y-8118090D02*
X14296000Y-8228090D01*
X14406000Y-8173090D02*
G75*
G03*
X14406000Y-8173090I-55000J0D01*
G01*
X14296000Y-8880090D02*
X14406000Y-8990090D01*
X14406000Y-8880090D02*
X14296000Y-8990090D01*
X14406000Y-8935090D02*
G75*
G03*
X14406000Y-8935090I-55000J0D01*
G01*
X14296000Y-10407590D02*
X14406000Y-10517590D01*
X14406000Y-10407590D02*
X14296000Y-10517590D01*
X14406000Y-10462590D02*
G75*
G03*
X14406000Y-10462590I-55000J0D01*
G01*
X14296000Y-11169590D02*
X14406000Y-11279590D01*
X14406000Y-11169590D02*
X14296000Y-11279590D01*
X14406000Y-11224590D02*
G75*
G03*
X14406000Y-11224590I-55000J0D01*
G01*
X14296000Y-12693590D02*
X14406000Y-12803590D01*
X14406000Y-12693590D02*
X14296000Y-12803590D01*
X14406000Y-12748590D02*
G75*
G03*
X14406000Y-12748590I-55000J0D01*
G01*
X14296000Y-13455590D02*
X14406000Y-13565590D01*
X14406000Y-13455590D02*
X14296000Y-13565590D01*
X14406000Y-13510590D02*
G75*
G03*
X14406000Y-13510590I-55000J0D01*
G01*
X18888000Y-11828090D02*
X18998000Y-11938090D01*
X18998000Y-11828090D02*
X18888000Y-11938090D01*
X18998000Y-11883090D02*
G75*
G03*
X18998000Y-11883090I-55000J0D01*
G01*
X19650000Y-11828090D02*
X19760000Y-11938090D01*
X19760000Y-11828090D02*
X19650000Y-11938090D01*
X19760000Y-11883090D02*
G75*
G03*
X19760000Y-11883090I-55000J0D01*
G01*
X21364000Y-6276090D02*
X21474000Y-6386090D01*
X21474000Y-6276090D02*
X21364000Y-6386090D01*
X21474000Y-6331090D02*
G75*
G03*
X21474000Y-6331090I-55000J0D01*
G01*
X21364000Y-6911090D02*
X21474000Y-7021090D01*
X21474000Y-6911090D02*
X21364000Y-7021090D01*
X21474000Y-6966090D02*
G75*
G03*
X21474000Y-6966090I-55000J0D01*
G01*
X22126000Y-6276090D02*
X22236000Y-6386090D01*
X22236000Y-6276090D02*
X22126000Y-6386090D01*
X22236000Y-6331090D02*
G75*
G03*
X22236000Y-6331090I-55000J0D01*
G01*
X22126000Y-6911090D02*
X22236000Y-7021090D01*
X22236000Y-6911090D02*
X22126000Y-7021090D01*
X22236000Y-6966090D02*
G75*
G03*
X22236000Y-6966090I-55000J0D01*
G01*
D17*
X6475500Y-2976090D02*
X6605500Y-3106090D01*
X6605500Y-2976090D02*
X6475500Y-3106090D01*
X6540500Y-2976090D02*
X6540500Y-3106090D01*
X6475500Y-3041090D02*
X6605500Y-3041090D01*
X6475500Y-3476090D02*
X6605500Y-3606090D01*
X6605500Y-3476090D02*
X6475500Y-3606090D01*
X6540500Y-3476090D02*
X6540500Y-3606090D01*
X6475500Y-3541090D02*
X6605500Y-3541090D01*
X6475500Y-3976090D02*
X6605500Y-4106090D01*
X6605500Y-3976090D02*
X6475500Y-4106090D01*
X6540500Y-3976090D02*
X6540500Y-4106090D01*
X6475500Y-4041090D02*
X6605500Y-4041090D01*
X6475500Y-4476090D02*
X6605500Y-4606090D01*
X6605500Y-4476090D02*
X6475500Y-4606090D01*
X6540500Y-4476090D02*
X6540500Y-4606090D01*
X6475500Y-4541090D02*
X6605500Y-4541090D01*
X6475500Y-5897090D02*
X6605500Y-6027090D01*
X6605500Y-5897090D02*
X6475500Y-6027090D01*
X6540500Y-5897090D02*
X6540500Y-6027090D01*
X6475500Y-5962090D02*
X6605500Y-5962090D01*
X6475500Y-6397090D02*
X6605500Y-6527090D01*
X6605500Y-6397090D02*
X6475500Y-6527090D01*
X6540500Y-6397090D02*
X6540500Y-6527090D01*
X6475500Y-6462090D02*
X6605500Y-6462090D01*
X6475500Y-6897090D02*
X6605500Y-7027090D01*
X6605500Y-6897090D02*
X6475500Y-7027090D01*
X6540500Y-6897090D02*
X6540500Y-7027090D01*
X6475500Y-6962090D02*
X6605500Y-6962090D01*
X6475500Y-7397090D02*
X6605500Y-7527090D01*
X6605500Y-7397090D02*
X6475500Y-7527090D01*
X6540500Y-7397090D02*
X6540500Y-7527090D01*
X6475500Y-7462090D02*
X6605500Y-7462090D01*
X6475500Y-8945090D02*
X6605500Y-9075090D01*
X6605500Y-8945090D02*
X6475500Y-9075090D01*
X6540500Y-8945090D02*
X6540500Y-9075090D01*
X6475500Y-9010090D02*
X6605500Y-9010090D01*
X6475500Y-9445090D02*
X6605500Y-9575090D01*
X6605500Y-9445090D02*
X6475500Y-9575090D01*
X6540500Y-9445090D02*
X6540500Y-9575090D01*
X6475500Y-9510090D02*
X6605500Y-9510090D01*
X6475500Y-9945090D02*
X6605500Y-10075090D01*
X6605500Y-9945090D02*
X6475500Y-10075090D01*
X6540500Y-9945090D02*
X6540500Y-10075090D01*
X6475500Y-10010090D02*
X6605500Y-10010090D01*
X6475500Y-10445090D02*
X6605500Y-10575090D01*
X6605500Y-10445090D02*
X6475500Y-10575090D01*
X6540500Y-10445090D02*
X6540500Y-10575090D01*
X6475500Y-10510090D02*
X6605500Y-10510090D01*
X6475500Y-12048590D02*
X6605500Y-12178590D01*
X6605500Y-12048590D02*
X6475500Y-12178590D01*
X6540500Y-12048590D02*
X6540500Y-12178590D01*
X6475500Y-12113590D02*
X6605500Y-12113590D01*
X6475500Y-12548590D02*
X6605500Y-12678590D01*
X6605500Y-12548590D02*
X6475500Y-12678590D01*
X6540500Y-12548590D02*
X6540500Y-12678590D01*
X6475500Y-12613590D02*
X6605500Y-12613590D01*
X6475500Y-13048590D02*
X6605500Y-13178590D01*
X6605500Y-13048590D02*
X6475500Y-13178590D01*
X6540500Y-13048590D02*
X6540500Y-13178590D01*
X6475500Y-13113590D02*
X6605500Y-13113590D01*
X6475500Y-13548590D02*
X6605500Y-13678590D01*
X6605500Y-13548590D02*
X6475500Y-13678590D01*
X6540500Y-13548590D02*
X6540500Y-13678590D01*
X6475500Y-13613590D02*
X6605500Y-13613590D01*
X12059000Y-3626590D02*
X12189000Y-3756590D01*
X12189000Y-3626590D02*
X12059000Y-3756590D01*
X12124000Y-3626590D02*
X12124000Y-3756590D01*
X12059000Y-3691590D02*
X12189000Y-3691590D01*
X12059000Y-5912590D02*
X12189000Y-6042590D01*
X12189000Y-5912590D02*
X12059000Y-6042590D01*
X12124000Y-5912590D02*
X12124000Y-6042590D01*
X12059000Y-5977590D02*
X12189000Y-5977590D01*
X12059000Y-8198590D02*
X12189000Y-8328590D01*
X12189000Y-8198590D02*
X12059000Y-8328590D01*
X12124000Y-8198590D02*
X12124000Y-8328590D01*
X12059000Y-8263590D02*
X12189000Y-8263590D01*
X12059000Y-10484590D02*
X12189000Y-10614590D01*
X12189000Y-10484590D02*
X12059000Y-10614590D01*
X12124000Y-10484590D02*
X12124000Y-10614590D01*
X12059000Y-10549590D02*
X12189000Y-10549590D01*
X12059000Y-12770590D02*
X12189000Y-12900590D01*
X12189000Y-12770590D02*
X12059000Y-12900590D01*
X12124000Y-12770590D02*
X12124000Y-12900590D01*
X12059000Y-12835590D02*
X12189000Y-12835590D01*
X13474000Y-4231590D02*
X13604000Y-4361590D01*
X13604000Y-4231590D02*
X13474000Y-4361590D01*
X13539000Y-4231590D02*
X13539000Y-4361590D01*
X13474000Y-4296590D02*
X13604000Y-4296590D01*
X13474000Y-6517590D02*
X13604000Y-6647590D01*
X13604000Y-6517590D02*
X13474000Y-6647590D01*
X13539000Y-6517590D02*
X13539000Y-6647590D01*
X13474000Y-6582590D02*
X13604000Y-6582590D01*
X13474000Y-8803590D02*
X13604000Y-8933590D01*
X13604000Y-8803590D02*
X13474000Y-8933590D01*
X13539000Y-8803590D02*
X13539000Y-8933590D01*
X13474000Y-8868590D02*
X13604000Y-8868590D01*
X13474000Y-11089590D02*
X13604000Y-11219590D01*
X13604000Y-11089590D02*
X13474000Y-11219590D01*
X13539000Y-11089590D02*
X13539000Y-11219590D01*
X13474000Y-11154590D02*
X13604000Y-11154590D01*
X13474000Y-13375590D02*
X13604000Y-13505590D01*
X13604000Y-13375590D02*
X13474000Y-13505590D01*
X13539000Y-13375590D02*
X13539000Y-13505590D01*
X13474000Y-13440590D02*
X13604000Y-13440590D01*
X13479000Y-3026590D02*
X13609000Y-3156590D01*
X13609000Y-3026590D02*
X13479000Y-3156590D01*
X13544000Y-3026590D02*
X13544000Y-3156590D01*
X13479000Y-3091590D02*
X13609000Y-3091590D01*
X13479000Y-5312590D02*
X13609000Y-5442590D01*
X13609000Y-5312590D02*
X13479000Y-5442590D01*
X13544000Y-5312590D02*
X13544000Y-5442590D01*
X13479000Y-5377590D02*
X13609000Y-5377590D01*
X13479000Y-7598590D02*
X13609000Y-7728590D01*
X13609000Y-7598590D02*
X13479000Y-7728590D01*
X13544000Y-7598590D02*
X13544000Y-7728590D01*
X13479000Y-7663590D02*
X13609000Y-7663590D01*
X13479000Y-9884590D02*
X13609000Y-10014590D01*
X13609000Y-9884590D02*
X13479000Y-10014590D01*
X13544000Y-9884590D02*
X13544000Y-10014590D01*
X13479000Y-9949590D02*
X13609000Y-9949590D01*
X13479000Y-12170590D02*
X13609000Y-12300590D01*
X13609000Y-12170590D02*
X13479000Y-12300590D01*
X13544000Y-12170590D02*
X13544000Y-12300590D01*
X13479000Y-12235590D02*
X13609000Y-12235590D01*
X18060500Y-13405590D02*
X18190500Y-13535590D01*
X18190500Y-13405590D02*
X18060500Y-13535590D01*
X18125500Y-13405590D02*
X18125500Y-13535590D01*
X18060500Y-13470590D02*
X18190500Y-13470590D01*
X18560500Y-13405590D02*
X18690500Y-13535590D01*
X18690500Y-13405590D02*
X18560500Y-13535590D01*
X18625500Y-13405590D02*
X18625500Y-13535590D01*
X18560500Y-13470590D02*
X18690500Y-13470590D01*
X19060500Y-13405590D02*
X19190500Y-13535590D01*
X19190500Y-13405590D02*
X19060500Y-13535590D01*
X19125500Y-13405590D02*
X19125500Y-13535590D01*
X19060500Y-13470590D02*
X19190500Y-13470590D01*
X19560500Y-13405590D02*
X19690500Y-13535590D01*
X19690500Y-13405590D02*
X19560500Y-13535590D01*
X19625500Y-13405590D02*
X19625500Y-13535590D01*
X19560500Y-13470590D02*
X19690500Y-13470590D01*
X20537000Y-13405590D02*
X20667000Y-13535590D01*
X20667000Y-13405590D02*
X20537000Y-13535590D01*
X20602000Y-13405590D02*
X20602000Y-13535590D01*
X20537000Y-13470590D02*
X20667000Y-13470590D01*
X21037000Y-13405590D02*
X21167000Y-13535590D01*
X21167000Y-13405590D02*
X21037000Y-13535590D01*
X21102000Y-13405590D02*
X21102000Y-13535590D01*
X21037000Y-13470590D02*
X21167000Y-13470590D01*
X21537000Y-13405590D02*
X21667000Y-13535590D01*
X21667000Y-13405590D02*
X21537000Y-13535590D01*
X21602000Y-13405590D02*
X21602000Y-13535590D01*
X21537000Y-13470590D02*
X21667000Y-13470590D01*
X22037000Y-13405590D02*
X22167000Y-13535590D01*
X22167000Y-13405590D02*
X22037000Y-13535590D01*
X22102000Y-13405590D02*
X22102000Y-13535590D01*
X22037000Y-13470590D02*
X22167000Y-13470590D01*
D18*
X5936000Y-1730090D02*
X6256000Y-2050090D01*
X6256000Y-1730090D02*
X5936000Y-2050090D01*
X6209138Y-2003228D02*
X6209138Y-1776952D01*
X5982862Y-1776952D01*
X5982862Y-2003228D01*
X6209138Y-2003228D01*
X5936000Y-15065090D02*
X6256000Y-15385090D01*
X6256000Y-15065090D02*
X5936000Y-15385090D01*
X6209138Y-15338228D02*
X6209138Y-15111952D01*
X5982862Y-15111952D01*
X5982862Y-15338228D01*
X6209138Y-15338228D01*
X22128500Y-1730090D02*
X22448500Y-2050090D01*
X22448500Y-1730090D02*
X22128500Y-2050090D01*
X22401638Y-2003228D02*
X22401638Y-1776952D01*
X22175362Y-1776952D01*
X22175362Y-2003228D01*
X22401638Y-2003228D01*
X22128500Y-15065090D02*
X22448500Y-15385090D01*
X22448500Y-15065090D02*
X22128500Y-15385090D01*
X22401638Y-15338228D02*
X22401638Y-15111952D01*
X22175362Y-15111952D01*
X22175362Y-15338228D01*
X22401638Y-15338228D01*
D10*
X5838777Y-16054579D02*
X5838777Y-15854579D01*
X5838777Y-15854579D02*
X5886396Y-15854579D01*
X5886396Y-15854579D02*
X5914967Y-15864103D01*
X5914967Y-15864103D02*
X5934015Y-15883150D01*
X5934015Y-15883150D02*
X5943539Y-15902198D01*
X5943539Y-15902198D02*
X5953062Y-15940293D01*
X5953062Y-15940293D02*
X5953062Y-15968864D01*
X5953062Y-15968864D02*
X5943539Y-16006960D01*
X5943539Y-16006960D02*
X5934015Y-16026007D01*
X5934015Y-16026007D02*
X5914967Y-16045055D01*
X5914967Y-16045055D02*
X5886396Y-16054579D01*
X5886396Y-16054579D02*
X5838777Y-16054579D01*
X6038777Y-16054579D02*
X6038777Y-15921245D01*
X6038777Y-15959341D02*
X6048301Y-15940293D01*
X6048301Y-15940293D02*
X6057824Y-15930769D01*
X6057824Y-15930769D02*
X6076872Y-15921245D01*
X6076872Y-15921245D02*
X6095920Y-15921245D01*
X6162586Y-16054579D02*
X6162586Y-15921245D01*
X6162586Y-15854579D02*
X6153062Y-15864103D01*
X6153062Y-15864103D02*
X6162586Y-15873626D01*
X6162586Y-15873626D02*
X6172110Y-15864103D01*
X6172110Y-15864103D02*
X6162586Y-15854579D01*
X6162586Y-15854579D02*
X6162586Y-15873626D01*
X6286396Y-16054579D02*
X6267348Y-16045055D01*
X6267348Y-16045055D02*
X6257824Y-16026007D01*
X6257824Y-16026007D02*
X6257824Y-15854579D01*
X6391158Y-16054579D02*
X6372110Y-16045055D01*
X6372110Y-16045055D02*
X6362586Y-16026007D01*
X6362586Y-16026007D02*
X6362586Y-15854579D01*
X6619729Y-16054579D02*
X6619729Y-15854579D01*
X6619729Y-15854579D02*
X6686396Y-15997436D01*
X6686396Y-15997436D02*
X6753062Y-15854579D01*
X6753062Y-15854579D02*
X6753062Y-16054579D01*
X6934015Y-16054579D02*
X6934015Y-15949817D01*
X6934015Y-15949817D02*
X6924491Y-15930769D01*
X6924491Y-15930769D02*
X6905443Y-15921245D01*
X6905443Y-15921245D02*
X6867348Y-15921245D01*
X6867348Y-15921245D02*
X6848301Y-15930769D01*
X6934015Y-16045055D02*
X6914967Y-16054579D01*
X6914967Y-16054579D02*
X6867348Y-16054579D01*
X6867348Y-16054579D02*
X6848301Y-16045055D01*
X6848301Y-16045055D02*
X6838777Y-16026007D01*
X6838777Y-16026007D02*
X6838777Y-16006960D01*
X6838777Y-16006960D02*
X6848301Y-15987912D01*
X6848301Y-15987912D02*
X6867348Y-15978388D01*
X6867348Y-15978388D02*
X6914967Y-15978388D01*
X6914967Y-15978388D02*
X6934015Y-15968864D01*
X7029253Y-15921245D02*
X7029253Y-16121245D01*
X7029253Y-15930769D02*
X7048301Y-15921245D01*
X7048301Y-15921245D02*
X7086396Y-15921245D01*
X7086396Y-15921245D02*
X7105443Y-15930769D01*
X7105443Y-15930769D02*
X7114967Y-15940293D01*
X7114967Y-15940293D02*
X7124491Y-15959341D01*
X7124491Y-15959341D02*
X7124491Y-16016483D01*
X7124491Y-16016483D02*
X7114967Y-16035531D01*
X7114967Y-16035531D02*
X7105443Y-16045055D01*
X7105443Y-16045055D02*
X7086396Y-16054579D01*
X7086396Y-16054579D02*
X7048301Y-16054579D01*
X7048301Y-16054579D02*
X7029253Y-16045055D01*
X7210205Y-16035531D02*
X7219729Y-16045055D01*
X7219729Y-16045055D02*
X7210205Y-16054579D01*
X7210205Y-16054579D02*
X7200682Y-16045055D01*
X7200682Y-16045055D02*
X7210205Y-16035531D01*
X7210205Y-16035531D02*
X7210205Y-16054579D01*
X7210205Y-15930769D02*
X7219729Y-15940293D01*
X7219729Y-15940293D02*
X7210205Y-15949817D01*
X7210205Y-15949817D02*
X7200682Y-15940293D01*
X7200682Y-15940293D02*
X7210205Y-15930769D01*
X7210205Y-15930769D02*
X7210205Y-15949817D01*
D11*
X5538000Y-16363095D02*
X5578000Y-16403095D01*
X5578000Y-16363095D02*
X5538000Y-16403095D01*
D10*
X5876872Y-16274579D02*
X5895920Y-16274579D01*
X5895920Y-16274579D02*
X5914967Y-16284103D01*
X5914967Y-16284103D02*
X5924491Y-16293626D01*
X5924491Y-16293626D02*
X5934015Y-16312674D01*
X5934015Y-16312674D02*
X5943539Y-16350769D01*
X5943539Y-16350769D02*
X5943539Y-16398388D01*
X5943539Y-16398388D02*
X5934015Y-16436483D01*
X5934015Y-16436483D02*
X5924491Y-16455531D01*
X5924491Y-16455531D02*
X5914967Y-16465055D01*
X5914967Y-16465055D02*
X5895920Y-16474579D01*
X5895920Y-16474579D02*
X5876872Y-16474579D01*
X5876872Y-16474579D02*
X5857824Y-16465055D01*
X5857824Y-16465055D02*
X5848301Y-16455531D01*
X5848301Y-16455531D02*
X5838777Y-16436483D01*
X5838777Y-16436483D02*
X5829253Y-16398388D01*
X5829253Y-16398388D02*
X5829253Y-16350769D01*
X5829253Y-16350769D02*
X5838777Y-16312674D01*
X5838777Y-16312674D02*
X5848301Y-16293626D01*
X5848301Y-16293626D02*
X5857824Y-16284103D01*
X5857824Y-16284103D02*
X5876872Y-16274579D01*
X6029253Y-16455531D02*
X6038777Y-16465055D01*
X6038777Y-16465055D02*
X6029253Y-16474579D01*
X6029253Y-16474579D02*
X6019729Y-16465055D01*
X6019729Y-16465055D02*
X6029253Y-16455531D01*
X6029253Y-16455531D02*
X6029253Y-16474579D01*
X6210205Y-16341245D02*
X6210205Y-16474579D01*
X6162586Y-16265055D02*
X6114967Y-16407912D01*
X6114967Y-16407912D02*
X6238777Y-16407912D01*
X6353062Y-16274579D02*
X6372110Y-16274579D01*
X6372110Y-16274579D02*
X6391158Y-16284103D01*
X6391158Y-16284103D02*
X6400682Y-16293626D01*
X6400682Y-16293626D02*
X6410205Y-16312674D01*
X6410205Y-16312674D02*
X6419729Y-16350769D01*
X6419729Y-16350769D02*
X6419729Y-16398388D01*
X6419729Y-16398388D02*
X6410205Y-16436483D01*
X6410205Y-16436483D02*
X6400682Y-16455531D01*
X6400682Y-16455531D02*
X6391158Y-16465055D01*
X6391158Y-16465055D02*
X6372110Y-16474579D01*
X6372110Y-16474579D02*
X6353062Y-16474579D01*
X6353062Y-16474579D02*
X6334015Y-16465055D01*
X6334015Y-16465055D02*
X6324491Y-16455531D01*
X6324491Y-16455531D02*
X6314967Y-16436483D01*
X6314967Y-16436483D02*
X6305443Y-16398388D01*
X6305443Y-16398388D02*
X6305443Y-16350769D01*
X6305443Y-16350769D02*
X6314967Y-16312674D01*
X6314967Y-16312674D02*
X6324491Y-16293626D01*
X6324491Y-16293626D02*
X6334015Y-16284103D01*
X6334015Y-16284103D02*
X6353062Y-16274579D01*
X6543539Y-16274579D02*
X6562586Y-16274579D01*
X6562586Y-16274579D02*
X6581634Y-16284103D01*
X6581634Y-16284103D02*
X6591158Y-16293626D01*
X6591158Y-16293626D02*
X6600682Y-16312674D01*
X6600682Y-16312674D02*
X6610205Y-16350769D01*
X6610205Y-16350769D02*
X6610205Y-16398388D01*
X6610205Y-16398388D02*
X6600682Y-16436483D01*
X6600682Y-16436483D02*
X6591158Y-16455531D01*
X6591158Y-16455531D02*
X6581634Y-16465055D01*
X6581634Y-16465055D02*
X6562586Y-16474579D01*
X6562586Y-16474579D02*
X6543539Y-16474579D01*
X6543539Y-16474579D02*
X6524491Y-16465055D01*
X6524491Y-16465055D02*
X6514967Y-16455531D01*
X6514967Y-16455531D02*
X6505443Y-16436483D01*
X6505443Y-16436483D02*
X6495920Y-16398388D01*
X6495920Y-16398388D02*
X6495920Y-16350769D01*
X6495920Y-16350769D02*
X6505443Y-16312674D01*
X6505443Y-16312674D02*
X6514967Y-16293626D01*
X6514967Y-16293626D02*
X6524491Y-16284103D01*
X6524491Y-16284103D02*
X6543539Y-16274579D01*
X6695920Y-16474579D02*
X6695920Y-16341245D01*
X6695920Y-16360293D02*
X6705443Y-16350769D01*
X6705443Y-16350769D02*
X6724491Y-16341245D01*
X6724491Y-16341245D02*
X6753063Y-16341245D01*
X6753063Y-16341245D02*
X6772110Y-16350769D01*
X6772110Y-16350769D02*
X6781634Y-16369817D01*
X6781634Y-16369817D02*
X6781634Y-16474579D01*
X6781634Y-16369817D02*
X6791158Y-16350769D01*
X6791158Y-16350769D02*
X6810205Y-16341245D01*
X6810205Y-16341245D02*
X6838777Y-16341245D01*
X6838777Y-16341245D02*
X6857824Y-16350769D01*
X6857824Y-16350769D02*
X6867348Y-16369817D01*
X6867348Y-16369817D02*
X6867348Y-16474579D01*
X6962586Y-16474579D02*
X6962586Y-16341245D01*
X6962586Y-16360293D02*
X6972110Y-16350769D01*
X6972110Y-16350769D02*
X6991158Y-16341245D01*
X6991158Y-16341245D02*
X7019729Y-16341245D01*
X7019729Y-16341245D02*
X7038777Y-16350769D01*
X7038777Y-16350769D02*
X7048301Y-16369817D01*
X7048301Y-16369817D02*
X7048301Y-16474579D01*
X7048301Y-16369817D02*
X7057824Y-16350769D01*
X7057824Y-16350769D02*
X7076872Y-16341245D01*
X7076872Y-16341245D02*
X7105443Y-16341245D01*
X7105443Y-16341245D02*
X7124491Y-16350769D01*
X7124491Y-16350769D02*
X7134015Y-16369817D01*
X7134015Y-16369817D02*
X7134015Y-16474579D01*
X7524491Y-16265055D02*
X7353063Y-16522198D01*
X7781634Y-16274579D02*
X7800682Y-16274579D01*
X7800682Y-16274579D02*
X7819729Y-16284103D01*
X7819729Y-16284103D02*
X7829253Y-16293626D01*
X7829253Y-16293626D02*
X7838777Y-16312674D01*
X7838777Y-16312674D02*
X7848301Y-16350769D01*
X7848301Y-16350769D02*
X7848301Y-16398388D01*
X7848301Y-16398388D02*
X7838777Y-16436483D01*
X7838777Y-16436483D02*
X7829253Y-16455531D01*
X7829253Y-16455531D02*
X7819729Y-16465055D01*
X7819729Y-16465055D02*
X7800682Y-16474579D01*
X7800682Y-16474579D02*
X7781634Y-16474579D01*
X7781634Y-16474579D02*
X7762586Y-16465055D01*
X7762586Y-16465055D02*
X7753063Y-16455531D01*
X7753063Y-16455531D02*
X7743539Y-16436483D01*
X7743539Y-16436483D02*
X7734015Y-16398388D01*
X7734015Y-16398388D02*
X7734015Y-16350769D01*
X7734015Y-16350769D02*
X7743539Y-16312674D01*
X7743539Y-16312674D02*
X7753063Y-16293626D01*
X7753063Y-16293626D02*
X7762586Y-16284103D01*
X7762586Y-16284103D02*
X7781634Y-16274579D01*
X7934015Y-16455531D02*
X7943539Y-16465055D01*
X7943539Y-16465055D02*
X7934015Y-16474579D01*
X7934015Y-16474579D02*
X7924491Y-16465055D01*
X7924491Y-16465055D02*
X7934015Y-16455531D01*
X7934015Y-16455531D02*
X7934015Y-16474579D01*
X8067348Y-16274579D02*
X8086396Y-16274579D01*
X8086396Y-16274579D02*
X8105444Y-16284103D01*
X8105444Y-16284103D02*
X8114967Y-16293626D01*
X8114967Y-16293626D02*
X8124491Y-16312674D01*
X8124491Y-16312674D02*
X8134015Y-16350769D01*
X8134015Y-16350769D02*
X8134015Y-16398388D01*
X8134015Y-16398388D02*
X8124491Y-16436483D01*
X8124491Y-16436483D02*
X8114967Y-16455531D01*
X8114967Y-16455531D02*
X8105444Y-16465055D01*
X8105444Y-16465055D02*
X8086396Y-16474579D01*
X8086396Y-16474579D02*
X8067348Y-16474579D01*
X8067348Y-16474579D02*
X8048301Y-16465055D01*
X8048301Y-16465055D02*
X8038777Y-16455531D01*
X8038777Y-16455531D02*
X8029253Y-16436483D01*
X8029253Y-16436483D02*
X8019729Y-16398388D01*
X8019729Y-16398388D02*
X8019729Y-16350769D01*
X8019729Y-16350769D02*
X8029253Y-16312674D01*
X8029253Y-16312674D02*
X8038777Y-16293626D01*
X8038777Y-16293626D02*
X8048301Y-16284103D01*
X8048301Y-16284103D02*
X8067348Y-16274579D01*
X8324491Y-16474579D02*
X8210206Y-16474579D01*
X8267348Y-16474579D02*
X8267348Y-16274579D01*
X8267348Y-16274579D02*
X8248301Y-16303150D01*
X8248301Y-16303150D02*
X8229253Y-16322198D01*
X8229253Y-16322198D02*
X8210206Y-16331722D01*
X8505444Y-16274579D02*
X8410206Y-16274579D01*
X8410206Y-16274579D02*
X8400682Y-16369817D01*
X8400682Y-16369817D02*
X8410206Y-16360293D01*
X8410206Y-16360293D02*
X8429253Y-16350769D01*
X8429253Y-16350769D02*
X8476872Y-16350769D01*
X8476872Y-16350769D02*
X8495920Y-16360293D01*
X8495920Y-16360293D02*
X8505444Y-16369817D01*
X8505444Y-16369817D02*
X8514968Y-16388864D01*
X8514968Y-16388864D02*
X8514968Y-16436483D01*
X8514968Y-16436483D02*
X8505444Y-16455531D01*
X8505444Y-16455531D02*
X8495920Y-16465055D01*
X8495920Y-16465055D02*
X8476872Y-16474579D01*
X8476872Y-16474579D02*
X8429253Y-16474579D01*
X8429253Y-16474579D02*
X8410206Y-16465055D01*
X8410206Y-16465055D02*
X8400682Y-16455531D01*
X8581634Y-16274579D02*
X8714968Y-16274579D01*
X8714968Y-16274579D02*
X8629253Y-16474579D01*
X8781634Y-16274579D02*
X8781634Y-16312674D01*
X8857825Y-16274579D02*
X8857825Y-16312674D01*
X9153063Y-16550769D02*
X9143539Y-16541245D01*
X9143539Y-16541245D02*
X9124491Y-16512674D01*
X9124491Y-16512674D02*
X9114968Y-16493626D01*
X9114968Y-16493626D02*
X9105444Y-16465055D01*
X9105444Y-16465055D02*
X9095920Y-16417436D01*
X9095920Y-16417436D02*
X9095920Y-16379341D01*
X9095920Y-16379341D02*
X9105444Y-16331722D01*
X9105444Y-16331722D02*
X9114968Y-16303150D01*
X9114968Y-16303150D02*
X9124491Y-16284103D01*
X9124491Y-16284103D02*
X9143539Y-16255531D01*
X9143539Y-16255531D02*
X9153063Y-16246007D01*
X9314968Y-16274579D02*
X9276872Y-16274579D01*
X9276872Y-16274579D02*
X9257825Y-16284103D01*
X9257825Y-16284103D02*
X9248301Y-16293626D01*
X9248301Y-16293626D02*
X9229253Y-16322198D01*
X9229253Y-16322198D02*
X9219730Y-16360293D01*
X9219730Y-16360293D02*
X9219730Y-16436483D01*
X9219730Y-16436483D02*
X9229253Y-16455531D01*
X9229253Y-16455531D02*
X9238777Y-16465055D01*
X9238777Y-16465055D02*
X9257825Y-16474579D01*
X9257825Y-16474579D02*
X9295920Y-16474579D01*
X9295920Y-16474579D02*
X9314968Y-16465055D01*
X9314968Y-16465055D02*
X9324491Y-16455531D01*
X9324491Y-16455531D02*
X9334015Y-16436483D01*
X9334015Y-16436483D02*
X9334015Y-16388864D01*
X9334015Y-16388864D02*
X9324491Y-16369817D01*
X9324491Y-16369817D02*
X9314968Y-16360293D01*
X9314968Y-16360293D02*
X9295920Y-16350769D01*
X9295920Y-16350769D02*
X9257825Y-16350769D01*
X9257825Y-16350769D02*
X9238777Y-16360293D01*
X9238777Y-16360293D02*
X9229253Y-16369817D01*
X9229253Y-16369817D02*
X9219730Y-16388864D01*
X9572111Y-16474579D02*
X9572111Y-16274579D01*
X9657825Y-16474579D02*
X9657825Y-16369817D01*
X9657825Y-16369817D02*
X9648301Y-16350769D01*
X9648301Y-16350769D02*
X9629253Y-16341245D01*
X9629253Y-16341245D02*
X9600682Y-16341245D01*
X9600682Y-16341245D02*
X9581634Y-16350769D01*
X9581634Y-16350769D02*
X9572111Y-16360293D01*
X9781634Y-16474579D02*
X9762587Y-16465055D01*
X9762587Y-16465055D02*
X9753063Y-16455531D01*
X9753063Y-16455531D02*
X9743539Y-16436483D01*
X9743539Y-16436483D02*
X9743539Y-16379341D01*
X9743539Y-16379341D02*
X9753063Y-16360293D01*
X9753063Y-16360293D02*
X9762587Y-16350769D01*
X9762587Y-16350769D02*
X9781634Y-16341245D01*
X9781634Y-16341245D02*
X9810206Y-16341245D01*
X9810206Y-16341245D02*
X9829253Y-16350769D01*
X9829253Y-16350769D02*
X9838777Y-16360293D01*
X9838777Y-16360293D02*
X9848301Y-16379341D01*
X9848301Y-16379341D02*
X9848301Y-16436483D01*
X9848301Y-16436483D02*
X9838777Y-16455531D01*
X9838777Y-16455531D02*
X9829253Y-16465055D01*
X9829253Y-16465055D02*
X9810206Y-16474579D01*
X9810206Y-16474579D02*
X9781634Y-16474579D01*
X9962587Y-16474579D02*
X9943539Y-16465055D01*
X9943539Y-16465055D02*
X9934015Y-16446007D01*
X9934015Y-16446007D02*
X9934015Y-16274579D01*
X10114968Y-16465055D02*
X10095920Y-16474579D01*
X10095920Y-16474579D02*
X10057825Y-16474579D01*
X10057825Y-16474579D02*
X10038777Y-16465055D01*
X10038777Y-16465055D02*
X10029253Y-16446007D01*
X10029253Y-16446007D02*
X10029253Y-16369817D01*
X10029253Y-16369817D02*
X10038777Y-16350769D01*
X10038777Y-16350769D02*
X10057825Y-16341245D01*
X10057825Y-16341245D02*
X10095920Y-16341245D01*
X10095920Y-16341245D02*
X10114968Y-16350769D01*
X10114968Y-16350769D02*
X10124492Y-16369817D01*
X10124492Y-16369817D02*
X10124492Y-16388864D01*
X10124492Y-16388864D02*
X10029253Y-16407912D01*
X10200682Y-16465055D02*
X10219730Y-16474579D01*
X10219730Y-16474579D02*
X10257825Y-16474579D01*
X10257825Y-16474579D02*
X10276873Y-16465055D01*
X10276873Y-16465055D02*
X10286396Y-16446007D01*
X10286396Y-16446007D02*
X10286396Y-16436483D01*
X10286396Y-16436483D02*
X10276873Y-16417436D01*
X10276873Y-16417436D02*
X10257825Y-16407912D01*
X10257825Y-16407912D02*
X10229253Y-16407912D01*
X10229253Y-16407912D02*
X10210206Y-16398388D01*
X10210206Y-16398388D02*
X10200682Y-16379341D01*
X10200682Y-16379341D02*
X10200682Y-16369817D01*
X10200682Y-16369817D02*
X10210206Y-16350769D01*
X10210206Y-16350769D02*
X10229253Y-16341245D01*
X10229253Y-16341245D02*
X10257825Y-16341245D01*
X10257825Y-16341245D02*
X10276873Y-16350769D01*
X10353063Y-16550769D02*
X10362587Y-16541245D01*
X10362587Y-16541245D02*
X10381634Y-16512674D01*
X10381634Y-16512674D02*
X10391158Y-16493626D01*
X10391158Y-16493626D02*
X10400682Y-16465055D01*
X10400682Y-16465055D02*
X10410206Y-16417436D01*
X10410206Y-16417436D02*
X10410206Y-16379341D01*
X10410206Y-16379341D02*
X10400682Y-16331722D01*
X10400682Y-16331722D02*
X10391158Y-16303150D01*
X10391158Y-16303150D02*
X10381634Y-16284103D01*
X10381634Y-16284103D02*
X10362587Y-16255531D01*
X10362587Y-16255531D02*
X10353063Y-16246007D01*
D12*
X5578000Y-16647095D02*
G75*
G03*
X5578000Y-16647095I-37500J0D01*
G01*
D10*
X5876872Y-16538579D02*
X5895920Y-16538579D01*
X5895920Y-16538579D02*
X5914967Y-16548103D01*
X5914967Y-16548103D02*
X5924491Y-16557626D01*
X5924491Y-16557626D02*
X5934015Y-16576674D01*
X5934015Y-16576674D02*
X5943539Y-16614769D01*
X5943539Y-16614769D02*
X5943539Y-16662388D01*
X5943539Y-16662388D02*
X5934015Y-16700483D01*
X5934015Y-16700483D02*
X5924491Y-16719531D01*
X5924491Y-16719531D02*
X5914967Y-16729055D01*
X5914967Y-16729055D02*
X5895920Y-16738579D01*
X5895920Y-16738579D02*
X5876872Y-16738579D01*
X5876872Y-16738579D02*
X5857824Y-16729055D01*
X5857824Y-16729055D02*
X5848301Y-16719531D01*
X5848301Y-16719531D02*
X5838777Y-16700483D01*
X5838777Y-16700483D02*
X5829253Y-16662388D01*
X5829253Y-16662388D02*
X5829253Y-16614769D01*
X5829253Y-16614769D02*
X5838777Y-16576674D01*
X5838777Y-16576674D02*
X5848301Y-16557626D01*
X5848301Y-16557626D02*
X5857824Y-16548103D01*
X5857824Y-16548103D02*
X5876872Y-16538579D01*
X6029253Y-16719531D02*
X6038777Y-16729055D01*
X6038777Y-16729055D02*
X6029253Y-16738579D01*
X6029253Y-16738579D02*
X6019729Y-16729055D01*
X6019729Y-16729055D02*
X6029253Y-16719531D01*
X6029253Y-16719531D02*
X6029253Y-16738579D01*
X6105443Y-16538579D02*
X6238777Y-16538579D01*
X6238777Y-16538579D02*
X6153062Y-16738579D01*
X6410205Y-16538579D02*
X6314967Y-16538579D01*
X6314967Y-16538579D02*
X6305443Y-16633817D01*
X6305443Y-16633817D02*
X6314967Y-16624293D01*
X6314967Y-16624293D02*
X6334015Y-16614769D01*
X6334015Y-16614769D02*
X6381634Y-16614769D01*
X6381634Y-16614769D02*
X6400682Y-16624293D01*
X6400682Y-16624293D02*
X6410205Y-16633817D01*
X6410205Y-16633817D02*
X6419729Y-16652864D01*
X6419729Y-16652864D02*
X6419729Y-16700483D01*
X6419729Y-16700483D02*
X6410205Y-16719531D01*
X6410205Y-16719531D02*
X6400682Y-16729055D01*
X6400682Y-16729055D02*
X6381634Y-16738579D01*
X6381634Y-16738579D02*
X6334015Y-16738579D01*
X6334015Y-16738579D02*
X6314967Y-16729055D01*
X6314967Y-16729055D02*
X6305443Y-16719531D01*
X6543539Y-16538579D02*
X6562586Y-16538579D01*
X6562586Y-16538579D02*
X6581634Y-16548103D01*
X6581634Y-16548103D02*
X6591158Y-16557626D01*
X6591158Y-16557626D02*
X6600682Y-16576674D01*
X6600682Y-16576674D02*
X6610205Y-16614769D01*
X6610205Y-16614769D02*
X6610205Y-16662388D01*
X6610205Y-16662388D02*
X6600682Y-16700483D01*
X6600682Y-16700483D02*
X6591158Y-16719531D01*
X6591158Y-16719531D02*
X6581634Y-16729055D01*
X6581634Y-16729055D02*
X6562586Y-16738579D01*
X6562586Y-16738579D02*
X6543539Y-16738579D01*
X6543539Y-16738579D02*
X6524491Y-16729055D01*
X6524491Y-16729055D02*
X6514967Y-16719531D01*
X6514967Y-16719531D02*
X6505443Y-16700483D01*
X6505443Y-16700483D02*
X6495920Y-16662388D01*
X6495920Y-16662388D02*
X6495920Y-16614769D01*
X6495920Y-16614769D02*
X6505443Y-16576674D01*
X6505443Y-16576674D02*
X6514967Y-16557626D01*
X6514967Y-16557626D02*
X6524491Y-16548103D01*
X6524491Y-16548103D02*
X6543539Y-16538579D01*
X6695920Y-16738579D02*
X6695920Y-16605245D01*
X6695920Y-16624293D02*
X6705443Y-16614769D01*
X6705443Y-16614769D02*
X6724491Y-16605245D01*
X6724491Y-16605245D02*
X6753063Y-16605245D01*
X6753063Y-16605245D02*
X6772110Y-16614769D01*
X6772110Y-16614769D02*
X6781634Y-16633817D01*
X6781634Y-16633817D02*
X6781634Y-16738579D01*
X6781634Y-16633817D02*
X6791158Y-16614769D01*
X6791158Y-16614769D02*
X6810205Y-16605245D01*
X6810205Y-16605245D02*
X6838777Y-16605245D01*
X6838777Y-16605245D02*
X6857824Y-16614769D01*
X6857824Y-16614769D02*
X6867348Y-16633817D01*
X6867348Y-16633817D02*
X6867348Y-16738579D01*
X6962586Y-16738579D02*
X6962586Y-16605245D01*
X6962586Y-16624293D02*
X6972110Y-16614769D01*
X6972110Y-16614769D02*
X6991158Y-16605245D01*
X6991158Y-16605245D02*
X7019729Y-16605245D01*
X7019729Y-16605245D02*
X7038777Y-16614769D01*
X7038777Y-16614769D02*
X7048301Y-16633817D01*
X7048301Y-16633817D02*
X7048301Y-16738579D01*
X7048301Y-16633817D02*
X7057824Y-16614769D01*
X7057824Y-16614769D02*
X7076872Y-16605245D01*
X7076872Y-16605245D02*
X7105443Y-16605245D01*
X7105443Y-16605245D02*
X7124491Y-16614769D01*
X7124491Y-16614769D02*
X7134015Y-16633817D01*
X7134015Y-16633817D02*
X7134015Y-16738579D01*
X7524491Y-16529055D02*
X7353063Y-16786198D01*
X7781634Y-16538579D02*
X7800682Y-16538579D01*
X7800682Y-16538579D02*
X7819729Y-16548103D01*
X7819729Y-16548103D02*
X7829253Y-16557626D01*
X7829253Y-16557626D02*
X7838777Y-16576674D01*
X7838777Y-16576674D02*
X7848301Y-16614769D01*
X7848301Y-16614769D02*
X7848301Y-16662388D01*
X7848301Y-16662388D02*
X7838777Y-16700483D01*
X7838777Y-16700483D02*
X7829253Y-16719531D01*
X7829253Y-16719531D02*
X7819729Y-16729055D01*
X7819729Y-16729055D02*
X7800682Y-16738579D01*
X7800682Y-16738579D02*
X7781634Y-16738579D01*
X7781634Y-16738579D02*
X7762586Y-16729055D01*
X7762586Y-16729055D02*
X7753063Y-16719531D01*
X7753063Y-16719531D02*
X7743539Y-16700483D01*
X7743539Y-16700483D02*
X7734015Y-16662388D01*
X7734015Y-16662388D02*
X7734015Y-16614769D01*
X7734015Y-16614769D02*
X7743539Y-16576674D01*
X7743539Y-16576674D02*
X7753063Y-16557626D01*
X7753063Y-16557626D02*
X7762586Y-16548103D01*
X7762586Y-16548103D02*
X7781634Y-16538579D01*
X7934015Y-16719531D02*
X7943539Y-16729055D01*
X7943539Y-16729055D02*
X7934015Y-16738579D01*
X7934015Y-16738579D02*
X7924491Y-16729055D01*
X7924491Y-16729055D02*
X7934015Y-16719531D01*
X7934015Y-16719531D02*
X7934015Y-16738579D01*
X8067348Y-16538579D02*
X8086396Y-16538579D01*
X8086396Y-16538579D02*
X8105444Y-16548103D01*
X8105444Y-16548103D02*
X8114967Y-16557626D01*
X8114967Y-16557626D02*
X8124491Y-16576674D01*
X8124491Y-16576674D02*
X8134015Y-16614769D01*
X8134015Y-16614769D02*
X8134015Y-16662388D01*
X8134015Y-16662388D02*
X8124491Y-16700483D01*
X8124491Y-16700483D02*
X8114967Y-16719531D01*
X8114967Y-16719531D02*
X8105444Y-16729055D01*
X8105444Y-16729055D02*
X8086396Y-16738579D01*
X8086396Y-16738579D02*
X8067348Y-16738579D01*
X8067348Y-16738579D02*
X8048301Y-16729055D01*
X8048301Y-16729055D02*
X8038777Y-16719531D01*
X8038777Y-16719531D02*
X8029253Y-16700483D01*
X8029253Y-16700483D02*
X8019729Y-16662388D01*
X8019729Y-16662388D02*
X8019729Y-16614769D01*
X8019729Y-16614769D02*
X8029253Y-16576674D01*
X8029253Y-16576674D02*
X8038777Y-16557626D01*
X8038777Y-16557626D02*
X8048301Y-16548103D01*
X8048301Y-16548103D02*
X8067348Y-16538579D01*
X8210206Y-16557626D02*
X8219729Y-16548103D01*
X8219729Y-16548103D02*
X8238777Y-16538579D01*
X8238777Y-16538579D02*
X8286396Y-16538579D01*
X8286396Y-16538579D02*
X8305444Y-16548103D01*
X8305444Y-16548103D02*
X8314967Y-16557626D01*
X8314967Y-16557626D02*
X8324491Y-16576674D01*
X8324491Y-16576674D02*
X8324491Y-16595722D01*
X8324491Y-16595722D02*
X8314967Y-16624293D01*
X8314967Y-16624293D02*
X8200682Y-16738579D01*
X8200682Y-16738579D02*
X8324491Y-16738579D01*
X8419729Y-16738579D02*
X8457825Y-16738579D01*
X8457825Y-16738579D02*
X8476872Y-16729055D01*
X8476872Y-16729055D02*
X8486396Y-16719531D01*
X8486396Y-16719531D02*
X8505444Y-16690960D01*
X8505444Y-16690960D02*
X8514968Y-16652864D01*
X8514968Y-16652864D02*
X8514968Y-16576674D01*
X8514968Y-16576674D02*
X8505444Y-16557626D01*
X8505444Y-16557626D02*
X8495920Y-16548103D01*
X8495920Y-16548103D02*
X8476872Y-16538579D01*
X8476872Y-16538579D02*
X8438777Y-16538579D01*
X8438777Y-16538579D02*
X8419729Y-16548103D01*
X8419729Y-16548103D02*
X8410206Y-16557626D01*
X8410206Y-16557626D02*
X8400682Y-16576674D01*
X8400682Y-16576674D02*
X8400682Y-16624293D01*
X8400682Y-16624293D02*
X8410206Y-16643341D01*
X8410206Y-16643341D02*
X8419729Y-16652864D01*
X8419729Y-16652864D02*
X8438777Y-16662388D01*
X8438777Y-16662388D02*
X8476872Y-16662388D01*
X8476872Y-16662388D02*
X8495920Y-16652864D01*
X8495920Y-16652864D02*
X8505444Y-16643341D01*
X8505444Y-16643341D02*
X8514968Y-16624293D01*
X8695920Y-16538579D02*
X8600682Y-16538579D01*
X8600682Y-16538579D02*
X8591158Y-16633817D01*
X8591158Y-16633817D02*
X8600682Y-16624293D01*
X8600682Y-16624293D02*
X8619729Y-16614769D01*
X8619729Y-16614769D02*
X8667349Y-16614769D01*
X8667349Y-16614769D02*
X8686396Y-16624293D01*
X8686396Y-16624293D02*
X8695920Y-16633817D01*
X8695920Y-16633817D02*
X8705444Y-16652864D01*
X8705444Y-16652864D02*
X8705444Y-16700483D01*
X8705444Y-16700483D02*
X8695920Y-16719531D01*
X8695920Y-16719531D02*
X8686396Y-16729055D01*
X8686396Y-16729055D02*
X8667349Y-16738579D01*
X8667349Y-16738579D02*
X8619729Y-16738579D01*
X8619729Y-16738579D02*
X8600682Y-16729055D01*
X8600682Y-16729055D02*
X8591158Y-16719531D01*
X8781634Y-16538579D02*
X8781634Y-16576674D01*
X8857825Y-16538579D02*
X8857825Y-16576674D01*
X9153063Y-16814769D02*
X9143539Y-16805245D01*
X9143539Y-16805245D02*
X9124491Y-16776674D01*
X9124491Y-16776674D02*
X9114968Y-16757626D01*
X9114968Y-16757626D02*
X9105444Y-16729055D01*
X9105444Y-16729055D02*
X9095920Y-16681436D01*
X9095920Y-16681436D02*
X9095920Y-16643341D01*
X9095920Y-16643341D02*
X9105444Y-16595722D01*
X9105444Y-16595722D02*
X9114968Y-16567150D01*
X9114968Y-16567150D02*
X9124491Y-16548103D01*
X9124491Y-16548103D02*
X9143539Y-16519531D01*
X9143539Y-16519531D02*
X9153063Y-16510007D01*
X9334015Y-16738579D02*
X9219730Y-16738579D01*
X9276872Y-16738579D02*
X9276872Y-16538579D01*
X9276872Y-16538579D02*
X9257825Y-16567150D01*
X9257825Y-16567150D02*
X9238777Y-16586198D01*
X9238777Y-16586198D02*
X9219730Y-16595722D01*
X9514968Y-16538579D02*
X9419730Y-16538579D01*
X9419730Y-16538579D02*
X9410206Y-16633817D01*
X9410206Y-16633817D02*
X9419730Y-16624293D01*
X9419730Y-16624293D02*
X9438777Y-16614769D01*
X9438777Y-16614769D02*
X9486396Y-16614769D01*
X9486396Y-16614769D02*
X9505444Y-16624293D01*
X9505444Y-16624293D02*
X9514968Y-16633817D01*
X9514968Y-16633817D02*
X9524491Y-16652864D01*
X9524491Y-16652864D02*
X9524491Y-16700483D01*
X9524491Y-16700483D02*
X9514968Y-16719531D01*
X9514968Y-16719531D02*
X9505444Y-16729055D01*
X9505444Y-16729055D02*
X9486396Y-16738579D01*
X9486396Y-16738579D02*
X9438777Y-16738579D01*
X9438777Y-16738579D02*
X9419730Y-16729055D01*
X9419730Y-16729055D02*
X9410206Y-16719531D01*
X9762587Y-16738579D02*
X9762587Y-16538579D01*
X9848301Y-16738579D02*
X9848301Y-16633817D01*
X9848301Y-16633817D02*
X9838777Y-16614769D01*
X9838777Y-16614769D02*
X9819730Y-16605245D01*
X9819730Y-16605245D02*
X9791158Y-16605245D01*
X9791158Y-16605245D02*
X9772111Y-16614769D01*
X9772111Y-16614769D02*
X9762587Y-16624293D01*
X9972111Y-16738579D02*
X9953063Y-16729055D01*
X9953063Y-16729055D02*
X9943539Y-16719531D01*
X9943539Y-16719531D02*
X9934015Y-16700483D01*
X9934015Y-16700483D02*
X9934015Y-16643341D01*
X9934015Y-16643341D02*
X9943539Y-16624293D01*
X9943539Y-16624293D02*
X9953063Y-16614769D01*
X9953063Y-16614769D02*
X9972111Y-16605245D01*
X9972111Y-16605245D02*
X10000682Y-16605245D01*
X10000682Y-16605245D02*
X10019730Y-16614769D01*
X10019730Y-16614769D02*
X10029253Y-16624293D01*
X10029253Y-16624293D02*
X10038777Y-16643341D01*
X10038777Y-16643341D02*
X10038777Y-16700483D01*
X10038777Y-16700483D02*
X10029253Y-16719531D01*
X10029253Y-16719531D02*
X10019730Y-16729055D01*
X10019730Y-16729055D02*
X10000682Y-16738579D01*
X10000682Y-16738579D02*
X9972111Y-16738579D01*
X10153063Y-16738579D02*
X10134015Y-16729055D01*
X10134015Y-16729055D02*
X10124492Y-16710007D01*
X10124492Y-16710007D02*
X10124492Y-16538579D01*
X10305444Y-16729055D02*
X10286396Y-16738579D01*
X10286396Y-16738579D02*
X10248301Y-16738579D01*
X10248301Y-16738579D02*
X10229253Y-16729055D01*
X10229253Y-16729055D02*
X10219730Y-16710007D01*
X10219730Y-16710007D02*
X10219730Y-16633817D01*
X10219730Y-16633817D02*
X10229253Y-16614769D01*
X10229253Y-16614769D02*
X10248301Y-16605245D01*
X10248301Y-16605245D02*
X10286396Y-16605245D01*
X10286396Y-16605245D02*
X10305444Y-16614769D01*
X10305444Y-16614769D02*
X10314968Y-16633817D01*
X10314968Y-16633817D02*
X10314968Y-16652864D01*
X10314968Y-16652864D02*
X10219730Y-16671912D01*
X10391158Y-16729055D02*
X10410206Y-16738579D01*
X10410206Y-16738579D02*
X10448301Y-16738579D01*
X10448301Y-16738579D02*
X10467349Y-16729055D01*
X10467349Y-16729055D02*
X10476873Y-16710007D01*
X10476873Y-16710007D02*
X10476873Y-16700483D01*
X10476873Y-16700483D02*
X10467349Y-16681436D01*
X10467349Y-16681436D02*
X10448301Y-16671912D01*
X10448301Y-16671912D02*
X10419730Y-16671912D01*
X10419730Y-16671912D02*
X10400682Y-16662388D01*
X10400682Y-16662388D02*
X10391158Y-16643341D01*
X10391158Y-16643341D02*
X10391158Y-16633817D01*
X10391158Y-16633817D02*
X10400682Y-16614769D01*
X10400682Y-16614769D02*
X10419730Y-16605245D01*
X10419730Y-16605245D02*
X10448301Y-16605245D01*
X10448301Y-16605245D02*
X10467349Y-16614769D01*
X10543539Y-16814769D02*
X10553063Y-16805245D01*
X10553063Y-16805245D02*
X10572111Y-16776674D01*
X10572111Y-16776674D02*
X10581634Y-16757626D01*
X10581634Y-16757626D02*
X10591158Y-16729055D01*
X10591158Y-16729055D02*
X10600682Y-16681436D01*
X10600682Y-16681436D02*
X10600682Y-16643341D01*
X10600682Y-16643341D02*
X10591158Y-16595722D01*
X10591158Y-16595722D02*
X10581634Y-16567150D01*
X10581634Y-16567150D02*
X10572111Y-16548103D01*
X10572111Y-16548103D02*
X10553063Y-16519531D01*
X10553063Y-16519531D02*
X10543539Y-16510007D01*
D13*
X5538000Y-16871095D02*
X5538000Y-16951095D01*
X5498000Y-16911095D02*
X5578000Y-16911095D01*
D10*
X5876872Y-16802579D02*
X5895920Y-16802579D01*
X5895920Y-16802579D02*
X5914967Y-16812103D01*
X5914967Y-16812103D02*
X5924491Y-16821626D01*
X5924491Y-16821626D02*
X5934015Y-16840674D01*
X5934015Y-16840674D02*
X5943539Y-16878769D01*
X5943539Y-16878769D02*
X5943539Y-16926388D01*
X5943539Y-16926388D02*
X5934015Y-16964484D01*
X5934015Y-16964484D02*
X5924491Y-16983531D01*
X5924491Y-16983531D02*
X5914967Y-16993055D01*
X5914967Y-16993055D02*
X5895920Y-17002579D01*
X5895920Y-17002579D02*
X5876872Y-17002579D01*
X5876872Y-17002579D02*
X5857824Y-16993055D01*
X5857824Y-16993055D02*
X5848301Y-16983531D01*
X5848301Y-16983531D02*
X5838777Y-16964484D01*
X5838777Y-16964484D02*
X5829253Y-16926388D01*
X5829253Y-16926388D02*
X5829253Y-16878769D01*
X5829253Y-16878769D02*
X5838777Y-16840674D01*
X5838777Y-16840674D02*
X5848301Y-16821626D01*
X5848301Y-16821626D02*
X5857824Y-16812103D01*
X5857824Y-16812103D02*
X5876872Y-16802579D01*
X6029253Y-16983531D02*
X6038777Y-16993055D01*
X6038777Y-16993055D02*
X6029253Y-17002579D01*
X6029253Y-17002579D02*
X6019729Y-16993055D01*
X6019729Y-16993055D02*
X6029253Y-16983531D01*
X6029253Y-16983531D02*
X6029253Y-17002579D01*
X6153062Y-16888293D02*
X6134015Y-16878769D01*
X6134015Y-16878769D02*
X6124491Y-16869245D01*
X6124491Y-16869245D02*
X6114967Y-16850198D01*
X6114967Y-16850198D02*
X6114967Y-16840674D01*
X6114967Y-16840674D02*
X6124491Y-16821626D01*
X6124491Y-16821626D02*
X6134015Y-16812103D01*
X6134015Y-16812103D02*
X6153062Y-16802579D01*
X6153062Y-16802579D02*
X6191158Y-16802579D01*
X6191158Y-16802579D02*
X6210205Y-16812103D01*
X6210205Y-16812103D02*
X6219729Y-16821626D01*
X6219729Y-16821626D02*
X6229253Y-16840674D01*
X6229253Y-16840674D02*
X6229253Y-16850198D01*
X6229253Y-16850198D02*
X6219729Y-16869245D01*
X6219729Y-16869245D02*
X6210205Y-16878769D01*
X6210205Y-16878769D02*
X6191158Y-16888293D01*
X6191158Y-16888293D02*
X6153062Y-16888293D01*
X6153062Y-16888293D02*
X6134015Y-16897817D01*
X6134015Y-16897817D02*
X6124491Y-16907341D01*
X6124491Y-16907341D02*
X6114967Y-16926388D01*
X6114967Y-16926388D02*
X6114967Y-16964484D01*
X6114967Y-16964484D02*
X6124491Y-16983531D01*
X6124491Y-16983531D02*
X6134015Y-16993055D01*
X6134015Y-16993055D02*
X6153062Y-17002579D01*
X6153062Y-17002579D02*
X6191158Y-17002579D01*
X6191158Y-17002579D02*
X6210205Y-16993055D01*
X6210205Y-16993055D02*
X6219729Y-16983531D01*
X6219729Y-16983531D02*
X6229253Y-16964484D01*
X6229253Y-16964484D02*
X6229253Y-16926388D01*
X6229253Y-16926388D02*
X6219729Y-16907341D01*
X6219729Y-16907341D02*
X6210205Y-16897817D01*
X6210205Y-16897817D02*
X6191158Y-16888293D01*
X6353062Y-16802579D02*
X6372110Y-16802579D01*
X6372110Y-16802579D02*
X6391158Y-16812103D01*
X6391158Y-16812103D02*
X6400682Y-16821626D01*
X6400682Y-16821626D02*
X6410205Y-16840674D01*
X6410205Y-16840674D02*
X6419729Y-16878769D01*
X6419729Y-16878769D02*
X6419729Y-16926388D01*
X6419729Y-16926388D02*
X6410205Y-16964484D01*
X6410205Y-16964484D02*
X6400682Y-16983531D01*
X6400682Y-16983531D02*
X6391158Y-16993055D01*
X6391158Y-16993055D02*
X6372110Y-17002579D01*
X6372110Y-17002579D02*
X6353062Y-17002579D01*
X6353062Y-17002579D02*
X6334015Y-16993055D01*
X6334015Y-16993055D02*
X6324491Y-16983531D01*
X6324491Y-16983531D02*
X6314967Y-16964484D01*
X6314967Y-16964484D02*
X6305443Y-16926388D01*
X6305443Y-16926388D02*
X6305443Y-16878769D01*
X6305443Y-16878769D02*
X6314967Y-16840674D01*
X6314967Y-16840674D02*
X6324491Y-16821626D01*
X6324491Y-16821626D02*
X6334015Y-16812103D01*
X6334015Y-16812103D02*
X6353062Y-16802579D01*
X6543539Y-16802579D02*
X6562586Y-16802579D01*
X6562586Y-16802579D02*
X6581634Y-16812103D01*
X6581634Y-16812103D02*
X6591158Y-16821626D01*
X6591158Y-16821626D02*
X6600682Y-16840674D01*
X6600682Y-16840674D02*
X6610205Y-16878769D01*
X6610205Y-16878769D02*
X6610205Y-16926388D01*
X6610205Y-16926388D02*
X6600682Y-16964484D01*
X6600682Y-16964484D02*
X6591158Y-16983531D01*
X6591158Y-16983531D02*
X6581634Y-16993055D01*
X6581634Y-16993055D02*
X6562586Y-17002579D01*
X6562586Y-17002579D02*
X6543539Y-17002579D01*
X6543539Y-17002579D02*
X6524491Y-16993055D01*
X6524491Y-16993055D02*
X6514967Y-16983531D01*
X6514967Y-16983531D02*
X6505443Y-16964484D01*
X6505443Y-16964484D02*
X6495920Y-16926388D01*
X6495920Y-16926388D02*
X6495920Y-16878769D01*
X6495920Y-16878769D02*
X6505443Y-16840674D01*
X6505443Y-16840674D02*
X6514967Y-16821626D01*
X6514967Y-16821626D02*
X6524491Y-16812103D01*
X6524491Y-16812103D02*
X6543539Y-16802579D01*
X6695920Y-17002579D02*
X6695920Y-16869245D01*
X6695920Y-16888293D02*
X6705443Y-16878769D01*
X6705443Y-16878769D02*
X6724491Y-16869245D01*
X6724491Y-16869245D02*
X6753063Y-16869245D01*
X6753063Y-16869245D02*
X6772110Y-16878769D01*
X6772110Y-16878769D02*
X6781634Y-16897817D01*
X6781634Y-16897817D02*
X6781634Y-17002579D01*
X6781634Y-16897817D02*
X6791158Y-16878769D01*
X6791158Y-16878769D02*
X6810205Y-16869245D01*
X6810205Y-16869245D02*
X6838777Y-16869245D01*
X6838777Y-16869245D02*
X6857824Y-16878769D01*
X6857824Y-16878769D02*
X6867348Y-16897817D01*
X6867348Y-16897817D02*
X6867348Y-17002579D01*
X6962586Y-17002579D02*
X6962586Y-16869245D01*
X6962586Y-16888293D02*
X6972110Y-16878769D01*
X6972110Y-16878769D02*
X6991158Y-16869245D01*
X6991158Y-16869245D02*
X7019729Y-16869245D01*
X7019729Y-16869245D02*
X7038777Y-16878769D01*
X7038777Y-16878769D02*
X7048301Y-16897817D01*
X7048301Y-16897817D02*
X7048301Y-17002579D01*
X7048301Y-16897817D02*
X7057824Y-16878769D01*
X7057824Y-16878769D02*
X7076872Y-16869245D01*
X7076872Y-16869245D02*
X7105443Y-16869245D01*
X7105443Y-16869245D02*
X7124491Y-16878769D01*
X7124491Y-16878769D02*
X7134015Y-16897817D01*
X7134015Y-16897817D02*
X7134015Y-17002579D01*
X7524491Y-16793055D02*
X7353063Y-17050198D01*
X7781634Y-16802579D02*
X7800682Y-16802579D01*
X7800682Y-16802579D02*
X7819729Y-16812103D01*
X7819729Y-16812103D02*
X7829253Y-16821626D01*
X7829253Y-16821626D02*
X7838777Y-16840674D01*
X7838777Y-16840674D02*
X7848301Y-16878769D01*
X7848301Y-16878769D02*
X7848301Y-16926388D01*
X7848301Y-16926388D02*
X7838777Y-16964484D01*
X7838777Y-16964484D02*
X7829253Y-16983531D01*
X7829253Y-16983531D02*
X7819729Y-16993055D01*
X7819729Y-16993055D02*
X7800682Y-17002579D01*
X7800682Y-17002579D02*
X7781634Y-17002579D01*
X7781634Y-17002579D02*
X7762586Y-16993055D01*
X7762586Y-16993055D02*
X7753063Y-16983531D01*
X7753063Y-16983531D02*
X7743539Y-16964484D01*
X7743539Y-16964484D02*
X7734015Y-16926388D01*
X7734015Y-16926388D02*
X7734015Y-16878769D01*
X7734015Y-16878769D02*
X7743539Y-16840674D01*
X7743539Y-16840674D02*
X7753063Y-16821626D01*
X7753063Y-16821626D02*
X7762586Y-16812103D01*
X7762586Y-16812103D02*
X7781634Y-16802579D01*
X7934015Y-16983531D02*
X7943539Y-16993055D01*
X7943539Y-16993055D02*
X7934015Y-17002579D01*
X7934015Y-17002579D02*
X7924491Y-16993055D01*
X7924491Y-16993055D02*
X7934015Y-16983531D01*
X7934015Y-16983531D02*
X7934015Y-17002579D01*
X8067348Y-16802579D02*
X8086396Y-16802579D01*
X8086396Y-16802579D02*
X8105444Y-16812103D01*
X8105444Y-16812103D02*
X8114967Y-16821626D01*
X8114967Y-16821626D02*
X8124491Y-16840674D01*
X8124491Y-16840674D02*
X8134015Y-16878769D01*
X8134015Y-16878769D02*
X8134015Y-16926388D01*
X8134015Y-16926388D02*
X8124491Y-16964484D01*
X8124491Y-16964484D02*
X8114967Y-16983531D01*
X8114967Y-16983531D02*
X8105444Y-16993055D01*
X8105444Y-16993055D02*
X8086396Y-17002579D01*
X8086396Y-17002579D02*
X8067348Y-17002579D01*
X8067348Y-17002579D02*
X8048301Y-16993055D01*
X8048301Y-16993055D02*
X8038777Y-16983531D01*
X8038777Y-16983531D02*
X8029253Y-16964484D01*
X8029253Y-16964484D02*
X8019729Y-16926388D01*
X8019729Y-16926388D02*
X8019729Y-16878769D01*
X8019729Y-16878769D02*
X8029253Y-16840674D01*
X8029253Y-16840674D02*
X8038777Y-16821626D01*
X8038777Y-16821626D02*
X8048301Y-16812103D01*
X8048301Y-16812103D02*
X8067348Y-16802579D01*
X8200682Y-16802579D02*
X8324491Y-16802579D01*
X8324491Y-16802579D02*
X8257825Y-16878769D01*
X8257825Y-16878769D02*
X8286396Y-16878769D01*
X8286396Y-16878769D02*
X8305444Y-16888293D01*
X8305444Y-16888293D02*
X8314967Y-16897817D01*
X8314967Y-16897817D02*
X8324491Y-16916865D01*
X8324491Y-16916865D02*
X8324491Y-16964484D01*
X8324491Y-16964484D02*
X8314967Y-16983531D01*
X8314967Y-16983531D02*
X8305444Y-16993055D01*
X8305444Y-16993055D02*
X8286396Y-17002579D01*
X8286396Y-17002579D02*
X8229253Y-17002579D01*
X8229253Y-17002579D02*
X8210206Y-16993055D01*
X8210206Y-16993055D02*
X8200682Y-16983531D01*
X8514968Y-17002579D02*
X8400682Y-17002579D01*
X8457825Y-17002579D02*
X8457825Y-16802579D01*
X8457825Y-16802579D02*
X8438777Y-16831150D01*
X8438777Y-16831150D02*
X8419729Y-16850198D01*
X8419729Y-16850198D02*
X8400682Y-16859722D01*
X8695920Y-16802579D02*
X8600682Y-16802579D01*
X8600682Y-16802579D02*
X8591158Y-16897817D01*
X8591158Y-16897817D02*
X8600682Y-16888293D01*
X8600682Y-16888293D02*
X8619729Y-16878769D01*
X8619729Y-16878769D02*
X8667349Y-16878769D01*
X8667349Y-16878769D02*
X8686396Y-16888293D01*
X8686396Y-16888293D02*
X8695920Y-16897817D01*
X8695920Y-16897817D02*
X8705444Y-16916865D01*
X8705444Y-16916865D02*
X8705444Y-16964484D01*
X8705444Y-16964484D02*
X8695920Y-16983531D01*
X8695920Y-16983531D02*
X8686396Y-16993055D01*
X8686396Y-16993055D02*
X8667349Y-17002579D01*
X8667349Y-17002579D02*
X8619729Y-17002579D01*
X8619729Y-17002579D02*
X8600682Y-16993055D01*
X8600682Y-16993055D02*
X8591158Y-16983531D01*
X8781634Y-16802579D02*
X8781634Y-16840674D01*
X8857825Y-16802579D02*
X8857825Y-16840674D01*
X9153063Y-17078769D02*
X9143539Y-17069245D01*
X9143539Y-17069245D02*
X9124491Y-17040674D01*
X9124491Y-17040674D02*
X9114968Y-17021626D01*
X9114968Y-17021626D02*
X9105444Y-16993055D01*
X9105444Y-16993055D02*
X9095920Y-16945436D01*
X9095920Y-16945436D02*
X9095920Y-16907341D01*
X9095920Y-16907341D02*
X9105444Y-16859722D01*
X9105444Y-16859722D02*
X9114968Y-16831150D01*
X9114968Y-16831150D02*
X9124491Y-16812103D01*
X9124491Y-16812103D02*
X9143539Y-16783531D01*
X9143539Y-16783531D02*
X9153063Y-16774007D01*
X9334015Y-17002579D02*
X9219730Y-17002579D01*
X9276872Y-17002579D02*
X9276872Y-16802579D01*
X9276872Y-16802579D02*
X9257825Y-16831150D01*
X9257825Y-16831150D02*
X9238777Y-16850198D01*
X9238777Y-16850198D02*
X9219730Y-16859722D01*
X9514968Y-16802579D02*
X9419730Y-16802579D01*
X9419730Y-16802579D02*
X9410206Y-16897817D01*
X9410206Y-16897817D02*
X9419730Y-16888293D01*
X9419730Y-16888293D02*
X9438777Y-16878769D01*
X9438777Y-16878769D02*
X9486396Y-16878769D01*
X9486396Y-16878769D02*
X9505444Y-16888293D01*
X9505444Y-16888293D02*
X9514968Y-16897817D01*
X9514968Y-16897817D02*
X9524491Y-16916865D01*
X9524491Y-16916865D02*
X9524491Y-16964484D01*
X9524491Y-16964484D02*
X9514968Y-16983531D01*
X9514968Y-16983531D02*
X9505444Y-16993055D01*
X9505444Y-16993055D02*
X9486396Y-17002579D01*
X9486396Y-17002579D02*
X9438777Y-17002579D01*
X9438777Y-17002579D02*
X9419730Y-16993055D01*
X9419730Y-16993055D02*
X9410206Y-16983531D01*
X9638777Y-16888293D02*
X9619730Y-16878769D01*
X9619730Y-16878769D02*
X9610206Y-16869245D01*
X9610206Y-16869245D02*
X9600682Y-16850198D01*
X9600682Y-16850198D02*
X9600682Y-16840674D01*
X9600682Y-16840674D02*
X9610206Y-16821626D01*
X9610206Y-16821626D02*
X9619730Y-16812103D01*
X9619730Y-16812103D02*
X9638777Y-16802579D01*
X9638777Y-16802579D02*
X9676872Y-16802579D01*
X9676872Y-16802579D02*
X9695920Y-16812103D01*
X9695920Y-16812103D02*
X9705444Y-16821626D01*
X9705444Y-16821626D02*
X9714968Y-16840674D01*
X9714968Y-16840674D02*
X9714968Y-16850198D01*
X9714968Y-16850198D02*
X9705444Y-16869245D01*
X9705444Y-16869245D02*
X9695920Y-16878769D01*
X9695920Y-16878769D02*
X9676872Y-16888293D01*
X9676872Y-16888293D02*
X9638777Y-16888293D01*
X9638777Y-16888293D02*
X9619730Y-16897817D01*
X9619730Y-16897817D02*
X9610206Y-16907341D01*
X9610206Y-16907341D02*
X9600682Y-16926388D01*
X9600682Y-16926388D02*
X9600682Y-16964484D01*
X9600682Y-16964484D02*
X9610206Y-16983531D01*
X9610206Y-16983531D02*
X9619730Y-16993055D01*
X9619730Y-16993055D02*
X9638777Y-17002579D01*
X9638777Y-17002579D02*
X9676872Y-17002579D01*
X9676872Y-17002579D02*
X9695920Y-16993055D01*
X9695920Y-16993055D02*
X9705444Y-16983531D01*
X9705444Y-16983531D02*
X9714968Y-16964484D01*
X9714968Y-16964484D02*
X9714968Y-16926388D01*
X9714968Y-16926388D02*
X9705444Y-16907341D01*
X9705444Y-16907341D02*
X9695920Y-16897817D01*
X9695920Y-16897817D02*
X9676872Y-16888293D01*
X9953063Y-17002579D02*
X9953063Y-16802579D01*
X10038777Y-17002579D02*
X10038777Y-16897817D01*
X10038777Y-16897817D02*
X10029253Y-16878769D01*
X10029253Y-16878769D02*
X10010206Y-16869245D01*
X10010206Y-16869245D02*
X9981634Y-16869245D01*
X9981634Y-16869245D02*
X9962587Y-16878769D01*
X9962587Y-16878769D02*
X9953063Y-16888293D01*
X10162587Y-17002579D02*
X10143539Y-16993055D01*
X10143539Y-16993055D02*
X10134015Y-16983531D01*
X10134015Y-16983531D02*
X10124492Y-16964484D01*
X10124492Y-16964484D02*
X10124492Y-16907341D01*
X10124492Y-16907341D02*
X10134015Y-16888293D01*
X10134015Y-16888293D02*
X10143539Y-16878769D01*
X10143539Y-16878769D02*
X10162587Y-16869245D01*
X10162587Y-16869245D02*
X10191158Y-16869245D01*
X10191158Y-16869245D02*
X10210206Y-16878769D01*
X10210206Y-16878769D02*
X10219730Y-16888293D01*
X10219730Y-16888293D02*
X10229253Y-16907341D01*
X10229253Y-16907341D02*
X10229253Y-16964484D01*
X10229253Y-16964484D02*
X10219730Y-16983531D01*
X10219730Y-16983531D02*
X10210206Y-16993055D01*
X10210206Y-16993055D02*
X10191158Y-17002579D01*
X10191158Y-17002579D02*
X10162587Y-17002579D01*
X10343539Y-17002579D02*
X10324492Y-16993055D01*
X10324492Y-16993055D02*
X10314968Y-16974007D01*
X10314968Y-16974007D02*
X10314968Y-16802579D01*
X10495920Y-16993055D02*
X10476873Y-17002579D01*
X10476873Y-17002579D02*
X10438777Y-17002579D01*
X10438777Y-17002579D02*
X10419730Y-16993055D01*
X10419730Y-16993055D02*
X10410206Y-16974007D01*
X10410206Y-16974007D02*
X10410206Y-16897817D01*
X10410206Y-16897817D02*
X10419730Y-16878769D01*
X10419730Y-16878769D02*
X10438777Y-16869245D01*
X10438777Y-16869245D02*
X10476873Y-16869245D01*
X10476873Y-16869245D02*
X10495920Y-16878769D01*
X10495920Y-16878769D02*
X10505444Y-16897817D01*
X10505444Y-16897817D02*
X10505444Y-16916865D01*
X10505444Y-16916865D02*
X10410206Y-16935912D01*
X10581634Y-16993055D02*
X10600682Y-17002579D01*
X10600682Y-17002579D02*
X10638777Y-17002579D01*
X10638777Y-17002579D02*
X10657825Y-16993055D01*
X10657825Y-16993055D02*
X10667349Y-16974007D01*
X10667349Y-16974007D02*
X10667349Y-16964484D01*
X10667349Y-16964484D02*
X10657825Y-16945436D01*
X10657825Y-16945436D02*
X10638777Y-16935912D01*
X10638777Y-16935912D02*
X10610206Y-16935912D01*
X10610206Y-16935912D02*
X10591158Y-16926388D01*
X10591158Y-16926388D02*
X10581634Y-16907341D01*
X10581634Y-16907341D02*
X10581634Y-16897817D01*
X10581634Y-16897817D02*
X10591158Y-16878769D01*
X10591158Y-16878769D02*
X10610206Y-16869245D01*
X10610206Y-16869245D02*
X10638777Y-16869245D01*
X10638777Y-16869245D02*
X10657825Y-16878769D01*
X10734015Y-17078769D02*
X10743539Y-17069245D01*
X10743539Y-17069245D02*
X10762587Y-17040674D01*
X10762587Y-17040674D02*
X10772111Y-17021626D01*
X10772111Y-17021626D02*
X10781634Y-16993055D01*
X10781634Y-16993055D02*
X10791158Y-16945436D01*
X10791158Y-16945436D02*
X10791158Y-16907341D01*
X10791158Y-16907341D02*
X10781634Y-16859722D01*
X10781634Y-16859722D02*
X10772111Y-16831150D01*
X10772111Y-16831150D02*
X10762587Y-16812103D01*
X10762587Y-16812103D02*
X10743539Y-16783531D01*
X10743539Y-16783531D02*
X10734015Y-16774007D01*
D14*
X5564820Y-17206915D02*
X5564820Y-17143275D01*
X5501180Y-17143275D01*
X5501180Y-17206915D01*
X5564820Y-17206915D01*
D10*
X5876872Y-17066579D02*
X5895920Y-17066579D01*
X5895920Y-17066579D02*
X5914967Y-17076103D01*
X5914967Y-17076103D02*
X5924491Y-17085626D01*
X5924491Y-17085626D02*
X5934015Y-17104674D01*
X5934015Y-17104674D02*
X5943539Y-17142769D01*
X5943539Y-17142769D02*
X5943539Y-17190388D01*
X5943539Y-17190388D02*
X5934015Y-17228484D01*
X5934015Y-17228484D02*
X5924491Y-17247531D01*
X5924491Y-17247531D02*
X5914967Y-17257055D01*
X5914967Y-17257055D02*
X5895920Y-17266579D01*
X5895920Y-17266579D02*
X5876872Y-17266579D01*
X5876872Y-17266579D02*
X5857824Y-17257055D01*
X5857824Y-17257055D02*
X5848301Y-17247531D01*
X5848301Y-17247531D02*
X5838777Y-17228484D01*
X5838777Y-17228484D02*
X5829253Y-17190388D01*
X5829253Y-17190388D02*
X5829253Y-17142769D01*
X5829253Y-17142769D02*
X5838777Y-17104674D01*
X5838777Y-17104674D02*
X5848301Y-17085626D01*
X5848301Y-17085626D02*
X5857824Y-17076103D01*
X5857824Y-17076103D02*
X5876872Y-17066579D01*
X6029253Y-17247531D02*
X6038777Y-17257055D01*
X6038777Y-17257055D02*
X6029253Y-17266579D01*
X6029253Y-17266579D02*
X6019729Y-17257055D01*
X6019729Y-17257055D02*
X6029253Y-17247531D01*
X6029253Y-17247531D02*
X6029253Y-17266579D01*
X6134015Y-17266579D02*
X6172110Y-17266579D01*
X6172110Y-17266579D02*
X6191158Y-17257055D01*
X6191158Y-17257055D02*
X6200682Y-17247531D01*
X6200682Y-17247531D02*
X6219729Y-17218960D01*
X6219729Y-17218960D02*
X6229253Y-17180865D01*
X6229253Y-17180865D02*
X6229253Y-17104674D01*
X6229253Y-17104674D02*
X6219729Y-17085626D01*
X6219729Y-17085626D02*
X6210205Y-17076103D01*
X6210205Y-17076103D02*
X6191158Y-17066579D01*
X6191158Y-17066579D02*
X6153062Y-17066579D01*
X6153062Y-17066579D02*
X6134015Y-17076103D01*
X6134015Y-17076103D02*
X6124491Y-17085626D01*
X6124491Y-17085626D02*
X6114967Y-17104674D01*
X6114967Y-17104674D02*
X6114967Y-17152293D01*
X6114967Y-17152293D02*
X6124491Y-17171341D01*
X6124491Y-17171341D02*
X6134015Y-17180865D01*
X6134015Y-17180865D02*
X6153062Y-17190388D01*
X6153062Y-17190388D02*
X6191158Y-17190388D01*
X6191158Y-17190388D02*
X6210205Y-17180865D01*
X6210205Y-17180865D02*
X6219729Y-17171341D01*
X6219729Y-17171341D02*
X6229253Y-17152293D01*
X6353062Y-17066579D02*
X6372110Y-17066579D01*
X6372110Y-17066579D02*
X6391158Y-17076103D01*
X6391158Y-17076103D02*
X6400682Y-17085626D01*
X6400682Y-17085626D02*
X6410205Y-17104674D01*
X6410205Y-17104674D02*
X6419729Y-17142769D01*
X6419729Y-17142769D02*
X6419729Y-17190388D01*
X6419729Y-17190388D02*
X6410205Y-17228484D01*
X6410205Y-17228484D02*
X6400682Y-17247531D01*
X6400682Y-17247531D02*
X6391158Y-17257055D01*
X6391158Y-17257055D02*
X6372110Y-17266579D01*
X6372110Y-17266579D02*
X6353062Y-17266579D01*
X6353062Y-17266579D02*
X6334015Y-17257055D01*
X6334015Y-17257055D02*
X6324491Y-17247531D01*
X6324491Y-17247531D02*
X6314967Y-17228484D01*
X6314967Y-17228484D02*
X6305443Y-17190388D01*
X6305443Y-17190388D02*
X6305443Y-17142769D01*
X6305443Y-17142769D02*
X6314967Y-17104674D01*
X6314967Y-17104674D02*
X6324491Y-17085626D01*
X6324491Y-17085626D02*
X6334015Y-17076103D01*
X6334015Y-17076103D02*
X6353062Y-17066579D01*
X6543539Y-17066579D02*
X6562586Y-17066579D01*
X6562586Y-17066579D02*
X6581634Y-17076103D01*
X6581634Y-17076103D02*
X6591158Y-17085626D01*
X6591158Y-17085626D02*
X6600682Y-17104674D01*
X6600682Y-17104674D02*
X6610205Y-17142769D01*
X6610205Y-17142769D02*
X6610205Y-17190388D01*
X6610205Y-17190388D02*
X6600682Y-17228484D01*
X6600682Y-17228484D02*
X6591158Y-17247531D01*
X6591158Y-17247531D02*
X6581634Y-17257055D01*
X6581634Y-17257055D02*
X6562586Y-17266579D01*
X6562586Y-17266579D02*
X6543539Y-17266579D01*
X6543539Y-17266579D02*
X6524491Y-17257055D01*
X6524491Y-17257055D02*
X6514967Y-17247531D01*
X6514967Y-17247531D02*
X6505443Y-17228484D01*
X6505443Y-17228484D02*
X6495920Y-17190388D01*
X6495920Y-17190388D02*
X6495920Y-17142769D01*
X6495920Y-17142769D02*
X6505443Y-17104674D01*
X6505443Y-17104674D02*
X6514967Y-17085626D01*
X6514967Y-17085626D02*
X6524491Y-17076103D01*
X6524491Y-17076103D02*
X6543539Y-17066579D01*
X6695920Y-17266579D02*
X6695920Y-17133245D01*
X6695920Y-17152293D02*
X6705443Y-17142769D01*
X6705443Y-17142769D02*
X6724491Y-17133245D01*
X6724491Y-17133245D02*
X6753063Y-17133245D01*
X6753063Y-17133245D02*
X6772110Y-17142769D01*
X6772110Y-17142769D02*
X6781634Y-17161817D01*
X6781634Y-17161817D02*
X6781634Y-17266579D01*
X6781634Y-17161817D02*
X6791158Y-17142769D01*
X6791158Y-17142769D02*
X6810205Y-17133245D01*
X6810205Y-17133245D02*
X6838777Y-17133245D01*
X6838777Y-17133245D02*
X6857824Y-17142769D01*
X6857824Y-17142769D02*
X6867348Y-17161817D01*
X6867348Y-17161817D02*
X6867348Y-17266579D01*
X6962586Y-17266579D02*
X6962586Y-17133245D01*
X6962586Y-17152293D02*
X6972110Y-17142769D01*
X6972110Y-17142769D02*
X6991158Y-17133245D01*
X6991158Y-17133245D02*
X7019729Y-17133245D01*
X7019729Y-17133245D02*
X7038777Y-17142769D01*
X7038777Y-17142769D02*
X7048301Y-17161817D01*
X7048301Y-17161817D02*
X7048301Y-17266579D01*
X7048301Y-17161817D02*
X7057824Y-17142769D01*
X7057824Y-17142769D02*
X7076872Y-17133245D01*
X7076872Y-17133245D02*
X7105443Y-17133245D01*
X7105443Y-17133245D02*
X7124491Y-17142769D01*
X7124491Y-17142769D02*
X7134015Y-17161817D01*
X7134015Y-17161817D02*
X7134015Y-17266579D01*
X7524491Y-17057055D02*
X7353063Y-17314198D01*
X7781634Y-17066579D02*
X7800682Y-17066579D01*
X7800682Y-17066579D02*
X7819729Y-17076103D01*
X7819729Y-17076103D02*
X7829253Y-17085626D01*
X7829253Y-17085626D02*
X7838777Y-17104674D01*
X7838777Y-17104674D02*
X7848301Y-17142769D01*
X7848301Y-17142769D02*
X7848301Y-17190388D01*
X7848301Y-17190388D02*
X7838777Y-17228484D01*
X7838777Y-17228484D02*
X7829253Y-17247531D01*
X7829253Y-17247531D02*
X7819729Y-17257055D01*
X7819729Y-17257055D02*
X7800682Y-17266579D01*
X7800682Y-17266579D02*
X7781634Y-17266579D01*
X7781634Y-17266579D02*
X7762586Y-17257055D01*
X7762586Y-17257055D02*
X7753063Y-17247531D01*
X7753063Y-17247531D02*
X7743539Y-17228484D01*
X7743539Y-17228484D02*
X7734015Y-17190388D01*
X7734015Y-17190388D02*
X7734015Y-17142769D01*
X7734015Y-17142769D02*
X7743539Y-17104674D01*
X7743539Y-17104674D02*
X7753063Y-17085626D01*
X7753063Y-17085626D02*
X7762586Y-17076103D01*
X7762586Y-17076103D02*
X7781634Y-17066579D01*
X7934015Y-17247531D02*
X7943539Y-17257055D01*
X7943539Y-17257055D02*
X7934015Y-17266579D01*
X7934015Y-17266579D02*
X7924491Y-17257055D01*
X7924491Y-17257055D02*
X7934015Y-17247531D01*
X7934015Y-17247531D02*
X7934015Y-17266579D01*
X8067348Y-17066579D02*
X8086396Y-17066579D01*
X8086396Y-17066579D02*
X8105444Y-17076103D01*
X8105444Y-17076103D02*
X8114967Y-17085626D01*
X8114967Y-17085626D02*
X8124491Y-17104674D01*
X8124491Y-17104674D02*
X8134015Y-17142769D01*
X8134015Y-17142769D02*
X8134015Y-17190388D01*
X8134015Y-17190388D02*
X8124491Y-17228484D01*
X8124491Y-17228484D02*
X8114967Y-17247531D01*
X8114967Y-17247531D02*
X8105444Y-17257055D01*
X8105444Y-17257055D02*
X8086396Y-17266579D01*
X8086396Y-17266579D02*
X8067348Y-17266579D01*
X8067348Y-17266579D02*
X8048301Y-17257055D01*
X8048301Y-17257055D02*
X8038777Y-17247531D01*
X8038777Y-17247531D02*
X8029253Y-17228484D01*
X8029253Y-17228484D02*
X8019729Y-17190388D01*
X8019729Y-17190388D02*
X8019729Y-17142769D01*
X8019729Y-17142769D02*
X8029253Y-17104674D01*
X8029253Y-17104674D02*
X8038777Y-17085626D01*
X8038777Y-17085626D02*
X8048301Y-17076103D01*
X8048301Y-17076103D02*
X8067348Y-17066579D01*
X8200682Y-17066579D02*
X8324491Y-17066579D01*
X8324491Y-17066579D02*
X8257825Y-17142769D01*
X8257825Y-17142769D02*
X8286396Y-17142769D01*
X8286396Y-17142769D02*
X8305444Y-17152293D01*
X8305444Y-17152293D02*
X8314967Y-17161817D01*
X8314967Y-17161817D02*
X8324491Y-17180865D01*
X8324491Y-17180865D02*
X8324491Y-17228484D01*
X8324491Y-17228484D02*
X8314967Y-17247531D01*
X8314967Y-17247531D02*
X8305444Y-17257055D01*
X8305444Y-17257055D02*
X8286396Y-17266579D01*
X8286396Y-17266579D02*
X8229253Y-17266579D01*
X8229253Y-17266579D02*
X8210206Y-17257055D01*
X8210206Y-17257055D02*
X8200682Y-17247531D01*
X8505444Y-17066579D02*
X8410206Y-17066579D01*
X8410206Y-17066579D02*
X8400682Y-17161817D01*
X8400682Y-17161817D02*
X8410206Y-17152293D01*
X8410206Y-17152293D02*
X8429253Y-17142769D01*
X8429253Y-17142769D02*
X8476872Y-17142769D01*
X8476872Y-17142769D02*
X8495920Y-17152293D01*
X8495920Y-17152293D02*
X8505444Y-17161817D01*
X8505444Y-17161817D02*
X8514968Y-17180865D01*
X8514968Y-17180865D02*
X8514968Y-17228484D01*
X8514968Y-17228484D02*
X8505444Y-17247531D01*
X8505444Y-17247531D02*
X8495920Y-17257055D01*
X8495920Y-17257055D02*
X8476872Y-17266579D01*
X8476872Y-17266579D02*
X8429253Y-17266579D01*
X8429253Y-17266579D02*
X8410206Y-17257055D01*
X8410206Y-17257055D02*
X8400682Y-17247531D01*
X8686396Y-17133245D02*
X8686396Y-17266579D01*
X8638777Y-17057055D02*
X8591158Y-17199912D01*
X8591158Y-17199912D02*
X8714968Y-17199912D01*
X8781634Y-17066579D02*
X8781634Y-17104674D01*
X8857825Y-17066579D02*
X8857825Y-17104674D01*
X9153063Y-17342769D02*
X9143539Y-17333245D01*
X9143539Y-17333245D02*
X9124491Y-17304674D01*
X9124491Y-17304674D02*
X9114968Y-17285626D01*
X9114968Y-17285626D02*
X9105444Y-17257055D01*
X9105444Y-17257055D02*
X9095920Y-17209436D01*
X9095920Y-17209436D02*
X9095920Y-17171341D01*
X9095920Y-17171341D02*
X9105444Y-17123722D01*
X9105444Y-17123722D02*
X9114968Y-17095150D01*
X9114968Y-17095150D02*
X9124491Y-17076103D01*
X9124491Y-17076103D02*
X9143539Y-17047531D01*
X9143539Y-17047531D02*
X9153063Y-17038007D01*
X9334015Y-17266579D02*
X9219730Y-17266579D01*
X9276872Y-17266579D02*
X9276872Y-17066579D01*
X9276872Y-17066579D02*
X9257825Y-17095150D01*
X9257825Y-17095150D02*
X9238777Y-17114198D01*
X9238777Y-17114198D02*
X9219730Y-17123722D01*
X9505444Y-17066579D02*
X9467349Y-17066579D01*
X9467349Y-17066579D02*
X9448301Y-17076103D01*
X9448301Y-17076103D02*
X9438777Y-17085626D01*
X9438777Y-17085626D02*
X9419730Y-17114198D01*
X9419730Y-17114198D02*
X9410206Y-17152293D01*
X9410206Y-17152293D02*
X9410206Y-17228484D01*
X9410206Y-17228484D02*
X9419730Y-17247531D01*
X9419730Y-17247531D02*
X9429253Y-17257055D01*
X9429253Y-17257055D02*
X9448301Y-17266579D01*
X9448301Y-17266579D02*
X9486396Y-17266579D01*
X9486396Y-17266579D02*
X9505444Y-17257055D01*
X9505444Y-17257055D02*
X9514968Y-17247531D01*
X9514968Y-17247531D02*
X9524491Y-17228484D01*
X9524491Y-17228484D02*
X9524491Y-17180865D01*
X9524491Y-17180865D02*
X9514968Y-17161817D01*
X9514968Y-17161817D02*
X9505444Y-17152293D01*
X9505444Y-17152293D02*
X9486396Y-17142769D01*
X9486396Y-17142769D02*
X9448301Y-17142769D01*
X9448301Y-17142769D02*
X9429253Y-17152293D01*
X9429253Y-17152293D02*
X9419730Y-17161817D01*
X9419730Y-17161817D02*
X9410206Y-17180865D01*
X9762587Y-17266579D02*
X9762587Y-17066579D01*
X9848301Y-17266579D02*
X9848301Y-17161817D01*
X9848301Y-17161817D02*
X9838777Y-17142769D01*
X9838777Y-17142769D02*
X9819730Y-17133245D01*
X9819730Y-17133245D02*
X9791158Y-17133245D01*
X9791158Y-17133245D02*
X9772111Y-17142769D01*
X9772111Y-17142769D02*
X9762587Y-17152293D01*
X9972111Y-17266579D02*
X9953063Y-17257055D01*
X9953063Y-17257055D02*
X9943539Y-17247531D01*
X9943539Y-17247531D02*
X9934015Y-17228484D01*
X9934015Y-17228484D02*
X9934015Y-17171341D01*
X9934015Y-17171341D02*
X9943539Y-17152293D01*
X9943539Y-17152293D02*
X9953063Y-17142769D01*
X9953063Y-17142769D02*
X9972111Y-17133245D01*
X9972111Y-17133245D02*
X10000682Y-17133245D01*
X10000682Y-17133245D02*
X10019730Y-17142769D01*
X10019730Y-17142769D02*
X10029253Y-17152293D01*
X10029253Y-17152293D02*
X10038777Y-17171341D01*
X10038777Y-17171341D02*
X10038777Y-17228484D01*
X10038777Y-17228484D02*
X10029253Y-17247531D01*
X10029253Y-17247531D02*
X10019730Y-17257055D01*
X10019730Y-17257055D02*
X10000682Y-17266579D01*
X10000682Y-17266579D02*
X9972111Y-17266579D01*
X10153063Y-17266579D02*
X10134015Y-17257055D01*
X10134015Y-17257055D02*
X10124492Y-17238007D01*
X10124492Y-17238007D02*
X10124492Y-17066579D01*
X10305444Y-17257055D02*
X10286396Y-17266579D01*
X10286396Y-17266579D02*
X10248301Y-17266579D01*
X10248301Y-17266579D02*
X10229253Y-17257055D01*
X10229253Y-17257055D02*
X10219730Y-17238007D01*
X10219730Y-17238007D02*
X10219730Y-17161817D01*
X10219730Y-17161817D02*
X10229253Y-17142769D01*
X10229253Y-17142769D02*
X10248301Y-17133245D01*
X10248301Y-17133245D02*
X10286396Y-17133245D01*
X10286396Y-17133245D02*
X10305444Y-17142769D01*
X10305444Y-17142769D02*
X10314968Y-17161817D01*
X10314968Y-17161817D02*
X10314968Y-17180865D01*
X10314968Y-17180865D02*
X10219730Y-17199912D01*
X10391158Y-17257055D02*
X10410206Y-17266579D01*
X10410206Y-17266579D02*
X10448301Y-17266579D01*
X10448301Y-17266579D02*
X10467349Y-17257055D01*
X10467349Y-17257055D02*
X10476873Y-17238007D01*
X10476873Y-17238007D02*
X10476873Y-17228484D01*
X10476873Y-17228484D02*
X10467349Y-17209436D01*
X10467349Y-17209436D02*
X10448301Y-17199912D01*
X10448301Y-17199912D02*
X10419730Y-17199912D01*
X10419730Y-17199912D02*
X10400682Y-17190388D01*
X10400682Y-17190388D02*
X10391158Y-17171341D01*
X10391158Y-17171341D02*
X10391158Y-17161817D01*
X10391158Y-17161817D02*
X10400682Y-17142769D01*
X10400682Y-17142769D02*
X10419730Y-17133245D01*
X10419730Y-17133245D02*
X10448301Y-17133245D01*
X10448301Y-17133245D02*
X10467349Y-17142769D01*
X10543539Y-17342769D02*
X10553063Y-17333245D01*
X10553063Y-17333245D02*
X10572111Y-17304674D01*
X10572111Y-17304674D02*
X10581634Y-17285626D01*
X10581634Y-17285626D02*
X10591158Y-17257055D01*
X10591158Y-17257055D02*
X10600682Y-17209436D01*
X10600682Y-17209436D02*
X10600682Y-17171341D01*
X10600682Y-17171341D02*
X10591158Y-17123722D01*
X10591158Y-17123722D02*
X10581634Y-17095150D01*
X10581634Y-17095150D02*
X10572111Y-17076103D01*
X10572111Y-17076103D02*
X10553063Y-17047531D01*
X10553063Y-17047531D02*
X10543539Y-17038007D01*
D15*
X5528000Y-17489095D02*
X5578000Y-17439095D01*
X5528000Y-17389095D01*
X5478000Y-17439095D01*
X5528000Y-17489095D01*
D10*
X5943539Y-17530579D02*
X5829253Y-17530579D01*
X5886396Y-17530579D02*
X5886396Y-17330579D01*
X5886396Y-17330579D02*
X5867348Y-17359150D01*
X5867348Y-17359150D02*
X5848301Y-17378198D01*
X5848301Y-17378198D02*
X5829253Y-17387722D01*
X6029253Y-17511531D02*
X6038777Y-17521055D01*
X6038777Y-17521055D02*
X6029253Y-17530579D01*
X6029253Y-17530579D02*
X6019729Y-17521055D01*
X6019729Y-17521055D02*
X6029253Y-17511531D01*
X6029253Y-17511531D02*
X6029253Y-17530579D01*
X6162586Y-17330579D02*
X6181634Y-17330579D01*
X6181634Y-17330579D02*
X6200682Y-17340103D01*
X6200682Y-17340103D02*
X6210205Y-17349626D01*
X6210205Y-17349626D02*
X6219729Y-17368674D01*
X6219729Y-17368674D02*
X6229253Y-17406769D01*
X6229253Y-17406769D02*
X6229253Y-17454388D01*
X6229253Y-17454388D02*
X6219729Y-17492484D01*
X6219729Y-17492484D02*
X6210205Y-17511531D01*
X6210205Y-17511531D02*
X6200682Y-17521055D01*
X6200682Y-17521055D02*
X6181634Y-17530579D01*
X6181634Y-17530579D02*
X6162586Y-17530579D01*
X6162586Y-17530579D02*
X6143539Y-17521055D01*
X6143539Y-17521055D02*
X6134015Y-17511531D01*
X6134015Y-17511531D02*
X6124491Y-17492484D01*
X6124491Y-17492484D02*
X6114967Y-17454388D01*
X6114967Y-17454388D02*
X6114967Y-17406769D01*
X6114967Y-17406769D02*
X6124491Y-17368674D01*
X6124491Y-17368674D02*
X6134015Y-17349626D01*
X6134015Y-17349626D02*
X6143539Y-17340103D01*
X6143539Y-17340103D02*
X6162586Y-17330579D01*
X6353062Y-17330579D02*
X6372110Y-17330579D01*
X6372110Y-17330579D02*
X6391158Y-17340103D01*
X6391158Y-17340103D02*
X6400682Y-17349626D01*
X6400682Y-17349626D02*
X6410205Y-17368674D01*
X6410205Y-17368674D02*
X6419729Y-17406769D01*
X6419729Y-17406769D02*
X6419729Y-17454388D01*
X6419729Y-17454388D02*
X6410205Y-17492484D01*
X6410205Y-17492484D02*
X6400682Y-17511531D01*
X6400682Y-17511531D02*
X6391158Y-17521055D01*
X6391158Y-17521055D02*
X6372110Y-17530579D01*
X6372110Y-17530579D02*
X6353062Y-17530579D01*
X6353062Y-17530579D02*
X6334015Y-17521055D01*
X6334015Y-17521055D02*
X6324491Y-17511531D01*
X6324491Y-17511531D02*
X6314967Y-17492484D01*
X6314967Y-17492484D02*
X6305443Y-17454388D01*
X6305443Y-17454388D02*
X6305443Y-17406769D01*
X6305443Y-17406769D02*
X6314967Y-17368674D01*
X6314967Y-17368674D02*
X6324491Y-17349626D01*
X6324491Y-17349626D02*
X6334015Y-17340103D01*
X6334015Y-17340103D02*
X6353062Y-17330579D01*
X6543539Y-17330579D02*
X6562586Y-17330579D01*
X6562586Y-17330579D02*
X6581634Y-17340103D01*
X6581634Y-17340103D02*
X6591158Y-17349626D01*
X6591158Y-17349626D02*
X6600682Y-17368674D01*
X6600682Y-17368674D02*
X6610205Y-17406769D01*
X6610205Y-17406769D02*
X6610205Y-17454388D01*
X6610205Y-17454388D02*
X6600682Y-17492484D01*
X6600682Y-17492484D02*
X6591158Y-17511531D01*
X6591158Y-17511531D02*
X6581634Y-17521055D01*
X6581634Y-17521055D02*
X6562586Y-17530579D01*
X6562586Y-17530579D02*
X6543539Y-17530579D01*
X6543539Y-17530579D02*
X6524491Y-17521055D01*
X6524491Y-17521055D02*
X6514967Y-17511531D01*
X6514967Y-17511531D02*
X6505443Y-17492484D01*
X6505443Y-17492484D02*
X6495920Y-17454388D01*
X6495920Y-17454388D02*
X6495920Y-17406769D01*
X6495920Y-17406769D02*
X6505443Y-17368674D01*
X6505443Y-17368674D02*
X6514967Y-17349626D01*
X6514967Y-17349626D02*
X6524491Y-17340103D01*
X6524491Y-17340103D02*
X6543539Y-17330579D01*
X6695920Y-17530579D02*
X6695920Y-17397245D01*
X6695920Y-17416293D02*
X6705443Y-17406769D01*
X6705443Y-17406769D02*
X6724491Y-17397245D01*
X6724491Y-17397245D02*
X6753063Y-17397245D01*
X6753063Y-17397245D02*
X6772110Y-17406769D01*
X6772110Y-17406769D02*
X6781634Y-17425817D01*
X6781634Y-17425817D02*
X6781634Y-17530579D01*
X6781634Y-17425817D02*
X6791158Y-17406769D01*
X6791158Y-17406769D02*
X6810205Y-17397245D01*
X6810205Y-17397245D02*
X6838777Y-17397245D01*
X6838777Y-17397245D02*
X6857824Y-17406769D01*
X6857824Y-17406769D02*
X6867348Y-17425817D01*
X6867348Y-17425817D02*
X6867348Y-17530579D01*
X6962586Y-17530579D02*
X6962586Y-17397245D01*
X6962586Y-17416293D02*
X6972110Y-17406769D01*
X6972110Y-17406769D02*
X6991158Y-17397245D01*
X6991158Y-17397245D02*
X7019729Y-17397245D01*
X7019729Y-17397245D02*
X7038777Y-17406769D01*
X7038777Y-17406769D02*
X7048301Y-17425817D01*
X7048301Y-17425817D02*
X7048301Y-17530579D01*
X7048301Y-17425817D02*
X7057824Y-17406769D01*
X7057824Y-17406769D02*
X7076872Y-17397245D01*
X7076872Y-17397245D02*
X7105443Y-17397245D01*
X7105443Y-17397245D02*
X7124491Y-17406769D01*
X7124491Y-17406769D02*
X7134015Y-17425817D01*
X7134015Y-17425817D02*
X7134015Y-17530579D01*
X7524491Y-17321055D02*
X7353063Y-17578198D01*
X7781634Y-17330579D02*
X7800682Y-17330579D01*
X7800682Y-17330579D02*
X7819729Y-17340103D01*
X7819729Y-17340103D02*
X7829253Y-17349626D01*
X7829253Y-17349626D02*
X7838777Y-17368674D01*
X7838777Y-17368674D02*
X7848301Y-17406769D01*
X7848301Y-17406769D02*
X7848301Y-17454388D01*
X7848301Y-17454388D02*
X7838777Y-17492484D01*
X7838777Y-17492484D02*
X7829253Y-17511531D01*
X7829253Y-17511531D02*
X7819729Y-17521055D01*
X7819729Y-17521055D02*
X7800682Y-17530579D01*
X7800682Y-17530579D02*
X7781634Y-17530579D01*
X7781634Y-17530579D02*
X7762586Y-17521055D01*
X7762586Y-17521055D02*
X7753063Y-17511531D01*
X7753063Y-17511531D02*
X7743539Y-17492484D01*
X7743539Y-17492484D02*
X7734015Y-17454388D01*
X7734015Y-17454388D02*
X7734015Y-17406769D01*
X7734015Y-17406769D02*
X7743539Y-17368674D01*
X7743539Y-17368674D02*
X7753063Y-17349626D01*
X7753063Y-17349626D02*
X7762586Y-17340103D01*
X7762586Y-17340103D02*
X7781634Y-17330579D01*
X7934015Y-17511531D02*
X7943539Y-17521055D01*
X7943539Y-17521055D02*
X7934015Y-17530579D01*
X7934015Y-17530579D02*
X7924491Y-17521055D01*
X7924491Y-17521055D02*
X7934015Y-17511531D01*
X7934015Y-17511531D02*
X7934015Y-17530579D01*
X8067348Y-17330579D02*
X8086396Y-17330579D01*
X8086396Y-17330579D02*
X8105444Y-17340103D01*
X8105444Y-17340103D02*
X8114967Y-17349626D01*
X8114967Y-17349626D02*
X8124491Y-17368674D01*
X8124491Y-17368674D02*
X8134015Y-17406769D01*
X8134015Y-17406769D02*
X8134015Y-17454388D01*
X8134015Y-17454388D02*
X8124491Y-17492484D01*
X8124491Y-17492484D02*
X8114967Y-17511531D01*
X8114967Y-17511531D02*
X8105444Y-17521055D01*
X8105444Y-17521055D02*
X8086396Y-17530579D01*
X8086396Y-17530579D02*
X8067348Y-17530579D01*
X8067348Y-17530579D02*
X8048301Y-17521055D01*
X8048301Y-17521055D02*
X8038777Y-17511531D01*
X8038777Y-17511531D02*
X8029253Y-17492484D01*
X8029253Y-17492484D02*
X8019729Y-17454388D01*
X8019729Y-17454388D02*
X8019729Y-17406769D01*
X8019729Y-17406769D02*
X8029253Y-17368674D01*
X8029253Y-17368674D02*
X8038777Y-17349626D01*
X8038777Y-17349626D02*
X8048301Y-17340103D01*
X8048301Y-17340103D02*
X8067348Y-17330579D01*
X8200682Y-17330579D02*
X8324491Y-17330579D01*
X8324491Y-17330579D02*
X8257825Y-17406769D01*
X8257825Y-17406769D02*
X8286396Y-17406769D01*
X8286396Y-17406769D02*
X8305444Y-17416293D01*
X8305444Y-17416293D02*
X8314967Y-17425817D01*
X8314967Y-17425817D02*
X8324491Y-17444865D01*
X8324491Y-17444865D02*
X8324491Y-17492484D01*
X8324491Y-17492484D02*
X8314967Y-17511531D01*
X8314967Y-17511531D02*
X8305444Y-17521055D01*
X8305444Y-17521055D02*
X8286396Y-17530579D01*
X8286396Y-17530579D02*
X8229253Y-17530579D01*
X8229253Y-17530579D02*
X8210206Y-17521055D01*
X8210206Y-17521055D02*
X8200682Y-17511531D01*
X8419729Y-17530579D02*
X8457825Y-17530579D01*
X8457825Y-17530579D02*
X8476872Y-17521055D01*
X8476872Y-17521055D02*
X8486396Y-17511531D01*
X8486396Y-17511531D02*
X8505444Y-17482960D01*
X8505444Y-17482960D02*
X8514968Y-17444865D01*
X8514968Y-17444865D02*
X8514968Y-17368674D01*
X8514968Y-17368674D02*
X8505444Y-17349626D01*
X8505444Y-17349626D02*
X8495920Y-17340103D01*
X8495920Y-17340103D02*
X8476872Y-17330579D01*
X8476872Y-17330579D02*
X8438777Y-17330579D01*
X8438777Y-17330579D02*
X8419729Y-17340103D01*
X8419729Y-17340103D02*
X8410206Y-17349626D01*
X8410206Y-17349626D02*
X8400682Y-17368674D01*
X8400682Y-17368674D02*
X8400682Y-17416293D01*
X8400682Y-17416293D02*
X8410206Y-17435341D01*
X8410206Y-17435341D02*
X8419729Y-17444865D01*
X8419729Y-17444865D02*
X8438777Y-17454388D01*
X8438777Y-17454388D02*
X8476872Y-17454388D01*
X8476872Y-17454388D02*
X8495920Y-17444865D01*
X8495920Y-17444865D02*
X8505444Y-17435341D01*
X8505444Y-17435341D02*
X8514968Y-17416293D01*
X8686396Y-17397245D02*
X8686396Y-17530579D01*
X8638777Y-17321055D02*
X8591158Y-17463912D01*
X8591158Y-17463912D02*
X8714968Y-17463912D01*
X8781634Y-17330579D02*
X8781634Y-17368674D01*
X8857825Y-17330579D02*
X8857825Y-17368674D01*
X9153063Y-17606769D02*
X9143539Y-17597245D01*
X9143539Y-17597245D02*
X9124491Y-17568674D01*
X9124491Y-17568674D02*
X9114968Y-17549626D01*
X9114968Y-17549626D02*
X9105444Y-17521055D01*
X9105444Y-17521055D02*
X9095920Y-17473436D01*
X9095920Y-17473436D02*
X9095920Y-17435341D01*
X9095920Y-17435341D02*
X9105444Y-17387722D01*
X9105444Y-17387722D02*
X9114968Y-17359150D01*
X9114968Y-17359150D02*
X9124491Y-17340103D01*
X9124491Y-17340103D02*
X9143539Y-17311531D01*
X9143539Y-17311531D02*
X9153063Y-17302007D01*
X9219730Y-17349626D02*
X9229253Y-17340103D01*
X9229253Y-17340103D02*
X9248301Y-17330579D01*
X9248301Y-17330579D02*
X9295920Y-17330579D01*
X9295920Y-17330579D02*
X9314968Y-17340103D01*
X9314968Y-17340103D02*
X9324491Y-17349626D01*
X9324491Y-17349626D02*
X9334015Y-17368674D01*
X9334015Y-17368674D02*
X9334015Y-17387722D01*
X9334015Y-17387722D02*
X9324491Y-17416293D01*
X9324491Y-17416293D02*
X9210206Y-17530579D01*
X9210206Y-17530579D02*
X9334015Y-17530579D01*
X9524491Y-17530579D02*
X9410206Y-17530579D01*
X9467349Y-17530579D02*
X9467349Y-17330579D01*
X9467349Y-17330579D02*
X9448301Y-17359150D01*
X9448301Y-17359150D02*
X9429253Y-17378198D01*
X9429253Y-17378198D02*
X9410206Y-17387722D01*
X9762587Y-17530579D02*
X9762587Y-17330579D01*
X9848301Y-17530579D02*
X9848301Y-17425817D01*
X9848301Y-17425817D02*
X9838777Y-17406769D01*
X9838777Y-17406769D02*
X9819730Y-17397245D01*
X9819730Y-17397245D02*
X9791158Y-17397245D01*
X9791158Y-17397245D02*
X9772111Y-17406769D01*
X9772111Y-17406769D02*
X9762587Y-17416293D01*
X9972111Y-17530579D02*
X9953063Y-17521055D01*
X9953063Y-17521055D02*
X9943539Y-17511531D01*
X9943539Y-17511531D02*
X9934015Y-17492484D01*
X9934015Y-17492484D02*
X9934015Y-17435341D01*
X9934015Y-17435341D02*
X9943539Y-17416293D01*
X9943539Y-17416293D02*
X9953063Y-17406769D01*
X9953063Y-17406769D02*
X9972111Y-17397245D01*
X9972111Y-17397245D02*
X10000682Y-17397245D01*
X10000682Y-17397245D02*
X10019730Y-17406769D01*
X10019730Y-17406769D02*
X10029253Y-17416293D01*
X10029253Y-17416293D02*
X10038777Y-17435341D01*
X10038777Y-17435341D02*
X10038777Y-17492484D01*
X10038777Y-17492484D02*
X10029253Y-17511531D01*
X10029253Y-17511531D02*
X10019730Y-17521055D01*
X10019730Y-17521055D02*
X10000682Y-17530579D01*
X10000682Y-17530579D02*
X9972111Y-17530579D01*
X10153063Y-17530579D02*
X10134015Y-17521055D01*
X10134015Y-17521055D02*
X10124492Y-17502007D01*
X10124492Y-17502007D02*
X10124492Y-17330579D01*
X10305444Y-17521055D02*
X10286396Y-17530579D01*
X10286396Y-17530579D02*
X10248301Y-17530579D01*
X10248301Y-17530579D02*
X10229253Y-17521055D01*
X10229253Y-17521055D02*
X10219730Y-17502007D01*
X10219730Y-17502007D02*
X10219730Y-17425817D01*
X10219730Y-17425817D02*
X10229253Y-17406769D01*
X10229253Y-17406769D02*
X10248301Y-17397245D01*
X10248301Y-17397245D02*
X10286396Y-17397245D01*
X10286396Y-17397245D02*
X10305444Y-17406769D01*
X10305444Y-17406769D02*
X10314968Y-17425817D01*
X10314968Y-17425817D02*
X10314968Y-17444865D01*
X10314968Y-17444865D02*
X10219730Y-17463912D01*
X10391158Y-17521055D02*
X10410206Y-17530579D01*
X10410206Y-17530579D02*
X10448301Y-17530579D01*
X10448301Y-17530579D02*
X10467349Y-17521055D01*
X10467349Y-17521055D02*
X10476873Y-17502007D01*
X10476873Y-17502007D02*
X10476873Y-17492484D01*
X10476873Y-17492484D02*
X10467349Y-17473436D01*
X10467349Y-17473436D02*
X10448301Y-17463912D01*
X10448301Y-17463912D02*
X10419730Y-17463912D01*
X10419730Y-17463912D02*
X10400682Y-17454388D01*
X10400682Y-17454388D02*
X10391158Y-17435341D01*
X10391158Y-17435341D02*
X10391158Y-17425817D01*
X10391158Y-17425817D02*
X10400682Y-17406769D01*
X10400682Y-17406769D02*
X10419730Y-17397245D01*
X10419730Y-17397245D02*
X10448301Y-17397245D01*
X10448301Y-17397245D02*
X10467349Y-17406769D01*
X10543539Y-17606769D02*
X10553063Y-17597245D01*
X10553063Y-17597245D02*
X10572111Y-17568674D01*
X10572111Y-17568674D02*
X10581634Y-17549626D01*
X10581634Y-17549626D02*
X10591158Y-17521055D01*
X10591158Y-17521055D02*
X10600682Y-17473436D01*
X10600682Y-17473436D02*
X10600682Y-17435341D01*
X10600682Y-17435341D02*
X10591158Y-17387722D01*
X10591158Y-17387722D02*
X10581634Y-17359150D01*
X10581634Y-17359150D02*
X10572111Y-17340103D01*
X10572111Y-17340103D02*
X10553063Y-17311531D01*
X10553063Y-17311531D02*
X10543539Y-17302007D01*
D16*
X5468000Y-17648095D02*
X5578000Y-17758095D01*
X5578000Y-17648095D02*
X5468000Y-17758095D01*
X5578000Y-17703095D02*
G75*
G03*
X5578000Y-17703095I-55000J0D01*
G01*
D10*
X5943539Y-17794579D02*
X5829253Y-17794579D01*
X5886396Y-17794579D02*
X5886396Y-17594579D01*
X5886396Y-17594579D02*
X5867348Y-17623150D01*
X5867348Y-17623150D02*
X5848301Y-17642198D01*
X5848301Y-17642198D02*
X5829253Y-17651722D01*
X6029253Y-17775531D02*
X6038777Y-17785055D01*
X6038777Y-17785055D02*
X6029253Y-17794579D01*
X6029253Y-17794579D02*
X6019729Y-17785055D01*
X6019729Y-17785055D02*
X6029253Y-17775531D01*
X6029253Y-17775531D02*
X6029253Y-17794579D01*
X6229253Y-17794579D02*
X6114967Y-17794579D01*
X6172110Y-17794579D02*
X6172110Y-17594579D01*
X6172110Y-17594579D02*
X6153062Y-17623150D01*
X6153062Y-17623150D02*
X6134015Y-17642198D01*
X6134015Y-17642198D02*
X6114967Y-17651722D01*
X6353062Y-17594579D02*
X6372110Y-17594579D01*
X6372110Y-17594579D02*
X6391158Y-17604103D01*
X6391158Y-17604103D02*
X6400682Y-17613626D01*
X6400682Y-17613626D02*
X6410205Y-17632674D01*
X6410205Y-17632674D02*
X6419729Y-17670769D01*
X6419729Y-17670769D02*
X6419729Y-17718388D01*
X6419729Y-17718388D02*
X6410205Y-17756484D01*
X6410205Y-17756484D02*
X6400682Y-17775531D01*
X6400682Y-17775531D02*
X6391158Y-17785055D01*
X6391158Y-17785055D02*
X6372110Y-17794579D01*
X6372110Y-17794579D02*
X6353062Y-17794579D01*
X6353062Y-17794579D02*
X6334015Y-17785055D01*
X6334015Y-17785055D02*
X6324491Y-17775531D01*
X6324491Y-17775531D02*
X6314967Y-17756484D01*
X6314967Y-17756484D02*
X6305443Y-17718388D01*
X6305443Y-17718388D02*
X6305443Y-17670769D01*
X6305443Y-17670769D02*
X6314967Y-17632674D01*
X6314967Y-17632674D02*
X6324491Y-17613626D01*
X6324491Y-17613626D02*
X6334015Y-17604103D01*
X6334015Y-17604103D02*
X6353062Y-17594579D01*
X6543539Y-17594579D02*
X6562586Y-17594579D01*
X6562586Y-17594579D02*
X6581634Y-17604103D01*
X6581634Y-17604103D02*
X6591158Y-17613626D01*
X6591158Y-17613626D02*
X6600682Y-17632674D01*
X6600682Y-17632674D02*
X6610205Y-17670769D01*
X6610205Y-17670769D02*
X6610205Y-17718388D01*
X6610205Y-17718388D02*
X6600682Y-17756484D01*
X6600682Y-17756484D02*
X6591158Y-17775531D01*
X6591158Y-17775531D02*
X6581634Y-17785055D01*
X6581634Y-17785055D02*
X6562586Y-17794579D01*
X6562586Y-17794579D02*
X6543539Y-17794579D01*
X6543539Y-17794579D02*
X6524491Y-17785055D01*
X6524491Y-17785055D02*
X6514967Y-17775531D01*
X6514967Y-17775531D02*
X6505443Y-17756484D01*
X6505443Y-17756484D02*
X6495920Y-17718388D01*
X6495920Y-17718388D02*
X6495920Y-17670769D01*
X6495920Y-17670769D02*
X6505443Y-17632674D01*
X6505443Y-17632674D02*
X6514967Y-17613626D01*
X6514967Y-17613626D02*
X6524491Y-17604103D01*
X6524491Y-17604103D02*
X6543539Y-17594579D01*
X6695920Y-17794579D02*
X6695920Y-17661245D01*
X6695920Y-17680293D02*
X6705443Y-17670769D01*
X6705443Y-17670769D02*
X6724491Y-17661245D01*
X6724491Y-17661245D02*
X6753063Y-17661245D01*
X6753063Y-17661245D02*
X6772110Y-17670769D01*
X6772110Y-17670769D02*
X6781634Y-17689817D01*
X6781634Y-17689817D02*
X6781634Y-17794579D01*
X6781634Y-17689817D02*
X6791158Y-17670769D01*
X6791158Y-17670769D02*
X6810205Y-17661245D01*
X6810205Y-17661245D02*
X6838777Y-17661245D01*
X6838777Y-17661245D02*
X6857824Y-17670769D01*
X6857824Y-17670769D02*
X6867348Y-17689817D01*
X6867348Y-17689817D02*
X6867348Y-17794579D01*
X6962586Y-17794579D02*
X6962586Y-17661245D01*
X6962586Y-17680293D02*
X6972110Y-17670769D01*
X6972110Y-17670769D02*
X6991158Y-17661245D01*
X6991158Y-17661245D02*
X7019729Y-17661245D01*
X7019729Y-17661245D02*
X7038777Y-17670769D01*
X7038777Y-17670769D02*
X7048301Y-17689817D01*
X7048301Y-17689817D02*
X7048301Y-17794579D01*
X7048301Y-17689817D02*
X7057824Y-17670769D01*
X7057824Y-17670769D02*
X7076872Y-17661245D01*
X7076872Y-17661245D02*
X7105443Y-17661245D01*
X7105443Y-17661245D02*
X7124491Y-17670769D01*
X7124491Y-17670769D02*
X7134015Y-17689817D01*
X7134015Y-17689817D02*
X7134015Y-17794579D01*
X7524491Y-17585055D02*
X7353063Y-17842198D01*
X7781634Y-17594579D02*
X7800682Y-17594579D01*
X7800682Y-17594579D02*
X7819729Y-17604103D01*
X7819729Y-17604103D02*
X7829253Y-17613626D01*
X7829253Y-17613626D02*
X7838777Y-17632674D01*
X7838777Y-17632674D02*
X7848301Y-17670769D01*
X7848301Y-17670769D02*
X7848301Y-17718388D01*
X7848301Y-17718388D02*
X7838777Y-17756484D01*
X7838777Y-17756484D02*
X7829253Y-17775531D01*
X7829253Y-17775531D02*
X7819729Y-17785055D01*
X7819729Y-17785055D02*
X7800682Y-17794579D01*
X7800682Y-17794579D02*
X7781634Y-17794579D01*
X7781634Y-17794579D02*
X7762586Y-17785055D01*
X7762586Y-17785055D02*
X7753063Y-17775531D01*
X7753063Y-17775531D02*
X7743539Y-17756484D01*
X7743539Y-17756484D02*
X7734015Y-17718388D01*
X7734015Y-17718388D02*
X7734015Y-17670769D01*
X7734015Y-17670769D02*
X7743539Y-17632674D01*
X7743539Y-17632674D02*
X7753063Y-17613626D01*
X7753063Y-17613626D02*
X7762586Y-17604103D01*
X7762586Y-17604103D02*
X7781634Y-17594579D01*
X7934015Y-17775531D02*
X7943539Y-17785055D01*
X7943539Y-17785055D02*
X7934015Y-17794579D01*
X7934015Y-17794579D02*
X7924491Y-17785055D01*
X7924491Y-17785055D02*
X7934015Y-17775531D01*
X7934015Y-17775531D02*
X7934015Y-17794579D01*
X8067348Y-17594579D02*
X8086396Y-17594579D01*
X8086396Y-17594579D02*
X8105444Y-17604103D01*
X8105444Y-17604103D02*
X8114967Y-17613626D01*
X8114967Y-17613626D02*
X8124491Y-17632674D01*
X8124491Y-17632674D02*
X8134015Y-17670769D01*
X8134015Y-17670769D02*
X8134015Y-17718388D01*
X8134015Y-17718388D02*
X8124491Y-17756484D01*
X8124491Y-17756484D02*
X8114967Y-17775531D01*
X8114967Y-17775531D02*
X8105444Y-17785055D01*
X8105444Y-17785055D02*
X8086396Y-17794579D01*
X8086396Y-17794579D02*
X8067348Y-17794579D01*
X8067348Y-17794579D02*
X8048301Y-17785055D01*
X8048301Y-17785055D02*
X8038777Y-17775531D01*
X8038777Y-17775531D02*
X8029253Y-17756484D01*
X8029253Y-17756484D02*
X8019729Y-17718388D01*
X8019729Y-17718388D02*
X8019729Y-17670769D01*
X8019729Y-17670769D02*
X8029253Y-17632674D01*
X8029253Y-17632674D02*
X8038777Y-17613626D01*
X8038777Y-17613626D02*
X8048301Y-17604103D01*
X8048301Y-17604103D02*
X8067348Y-17594579D01*
X8305444Y-17661245D02*
X8305444Y-17794579D01*
X8257825Y-17585055D02*
X8210206Y-17727912D01*
X8210206Y-17727912D02*
X8334015Y-17727912D01*
X8391158Y-17594579D02*
X8514968Y-17594579D01*
X8514968Y-17594579D02*
X8448301Y-17670769D01*
X8448301Y-17670769D02*
X8476872Y-17670769D01*
X8476872Y-17670769D02*
X8495920Y-17680293D01*
X8495920Y-17680293D02*
X8505444Y-17689817D01*
X8505444Y-17689817D02*
X8514968Y-17708865D01*
X8514968Y-17708865D02*
X8514968Y-17756484D01*
X8514968Y-17756484D02*
X8505444Y-17775531D01*
X8505444Y-17775531D02*
X8495920Y-17785055D01*
X8495920Y-17785055D02*
X8476872Y-17794579D01*
X8476872Y-17794579D02*
X8419729Y-17794579D01*
X8419729Y-17794579D02*
X8400682Y-17785055D01*
X8400682Y-17785055D02*
X8391158Y-17775531D01*
X8581634Y-17594579D02*
X8705444Y-17594579D01*
X8705444Y-17594579D02*
X8638777Y-17670769D01*
X8638777Y-17670769D02*
X8667349Y-17670769D01*
X8667349Y-17670769D02*
X8686396Y-17680293D01*
X8686396Y-17680293D02*
X8695920Y-17689817D01*
X8695920Y-17689817D02*
X8705444Y-17708865D01*
X8705444Y-17708865D02*
X8705444Y-17756484D01*
X8705444Y-17756484D02*
X8695920Y-17775531D01*
X8695920Y-17775531D02*
X8686396Y-17785055D01*
X8686396Y-17785055D02*
X8667349Y-17794579D01*
X8667349Y-17794579D02*
X8610206Y-17794579D01*
X8610206Y-17794579D02*
X8591158Y-17785055D01*
X8591158Y-17785055D02*
X8581634Y-17775531D01*
X8781634Y-17594579D02*
X8781634Y-17632674D01*
X8857825Y-17594579D02*
X8857825Y-17632674D01*
X9153063Y-17870769D02*
X9143539Y-17861245D01*
X9143539Y-17861245D02*
X9124491Y-17832674D01*
X9124491Y-17832674D02*
X9114968Y-17813626D01*
X9114968Y-17813626D02*
X9105444Y-17785055D01*
X9105444Y-17785055D02*
X9095920Y-17737436D01*
X9095920Y-17737436D02*
X9095920Y-17699341D01*
X9095920Y-17699341D02*
X9105444Y-17651722D01*
X9105444Y-17651722D02*
X9114968Y-17623150D01*
X9114968Y-17623150D02*
X9124491Y-17604103D01*
X9124491Y-17604103D02*
X9143539Y-17575531D01*
X9143539Y-17575531D02*
X9153063Y-17566007D01*
X9314968Y-17661245D02*
X9314968Y-17794579D01*
X9267349Y-17585055D02*
X9219730Y-17727912D01*
X9219730Y-17727912D02*
X9343539Y-17727912D01*
X9400682Y-17594579D02*
X9524491Y-17594579D01*
X9524491Y-17594579D02*
X9457825Y-17670769D01*
X9457825Y-17670769D02*
X9486396Y-17670769D01*
X9486396Y-17670769D02*
X9505444Y-17680293D01*
X9505444Y-17680293D02*
X9514968Y-17689817D01*
X9514968Y-17689817D02*
X9524491Y-17708865D01*
X9524491Y-17708865D02*
X9524491Y-17756484D01*
X9524491Y-17756484D02*
X9514968Y-17775531D01*
X9514968Y-17775531D02*
X9505444Y-17785055D01*
X9505444Y-17785055D02*
X9486396Y-17794579D01*
X9486396Y-17794579D02*
X9429253Y-17794579D01*
X9429253Y-17794579D02*
X9410206Y-17785055D01*
X9410206Y-17785055D02*
X9400682Y-17775531D01*
X9762587Y-17794579D02*
X9762587Y-17594579D01*
X9848301Y-17794579D02*
X9848301Y-17689817D01*
X9848301Y-17689817D02*
X9838777Y-17670769D01*
X9838777Y-17670769D02*
X9819730Y-17661245D01*
X9819730Y-17661245D02*
X9791158Y-17661245D01*
X9791158Y-17661245D02*
X9772111Y-17670769D01*
X9772111Y-17670769D02*
X9762587Y-17680293D01*
X9972111Y-17794579D02*
X9953063Y-17785055D01*
X9953063Y-17785055D02*
X9943539Y-17775531D01*
X9943539Y-17775531D02*
X9934015Y-17756484D01*
X9934015Y-17756484D02*
X9934015Y-17699341D01*
X9934015Y-17699341D02*
X9943539Y-17680293D01*
X9943539Y-17680293D02*
X9953063Y-17670769D01*
X9953063Y-17670769D02*
X9972111Y-17661245D01*
X9972111Y-17661245D02*
X10000682Y-17661245D01*
X10000682Y-17661245D02*
X10019730Y-17670769D01*
X10019730Y-17670769D02*
X10029253Y-17680293D01*
X10029253Y-17680293D02*
X10038777Y-17699341D01*
X10038777Y-17699341D02*
X10038777Y-17756484D01*
X10038777Y-17756484D02*
X10029253Y-17775531D01*
X10029253Y-17775531D02*
X10019730Y-17785055D01*
X10019730Y-17785055D02*
X10000682Y-17794579D01*
X10000682Y-17794579D02*
X9972111Y-17794579D01*
X10153063Y-17794579D02*
X10134015Y-17785055D01*
X10134015Y-17785055D02*
X10124492Y-17766007D01*
X10124492Y-17766007D02*
X10124492Y-17594579D01*
X10305444Y-17785055D02*
X10286396Y-17794579D01*
X10286396Y-17794579D02*
X10248301Y-17794579D01*
X10248301Y-17794579D02*
X10229253Y-17785055D01*
X10229253Y-17785055D02*
X10219730Y-17766007D01*
X10219730Y-17766007D02*
X10219730Y-17689817D01*
X10219730Y-17689817D02*
X10229253Y-17670769D01*
X10229253Y-17670769D02*
X10248301Y-17661245D01*
X10248301Y-17661245D02*
X10286396Y-17661245D01*
X10286396Y-17661245D02*
X10305444Y-17670769D01*
X10305444Y-17670769D02*
X10314968Y-17689817D01*
X10314968Y-17689817D02*
X10314968Y-17708865D01*
X10314968Y-17708865D02*
X10219730Y-17727912D01*
X10391158Y-17785055D02*
X10410206Y-17794579D01*
X10410206Y-17794579D02*
X10448301Y-17794579D01*
X10448301Y-17794579D02*
X10467349Y-17785055D01*
X10467349Y-17785055D02*
X10476873Y-17766007D01*
X10476873Y-17766007D02*
X10476873Y-17756484D01*
X10476873Y-17756484D02*
X10467349Y-17737436D01*
X10467349Y-17737436D02*
X10448301Y-17727912D01*
X10448301Y-17727912D02*
X10419730Y-17727912D01*
X10419730Y-17727912D02*
X10400682Y-17718388D01*
X10400682Y-17718388D02*
X10391158Y-17699341D01*
X10391158Y-17699341D02*
X10391158Y-17689817D01*
X10391158Y-17689817D02*
X10400682Y-17670769D01*
X10400682Y-17670769D02*
X10419730Y-17661245D01*
X10419730Y-17661245D02*
X10448301Y-17661245D01*
X10448301Y-17661245D02*
X10467349Y-17670769D01*
X10543539Y-17870769D02*
X10553063Y-17861245D01*
X10553063Y-17861245D02*
X10572111Y-17832674D01*
X10572111Y-17832674D02*
X10581634Y-17813626D01*
X10581634Y-17813626D02*
X10591158Y-17785055D01*
X10591158Y-17785055D02*
X10600682Y-17737436D01*
X10600682Y-17737436D02*
X10600682Y-17699341D01*
X10600682Y-17699341D02*
X10591158Y-17651722D01*
X10591158Y-17651722D02*
X10581634Y-17623150D01*
X10581634Y-17623150D02*
X10572111Y-17604103D01*
X10572111Y-17604103D02*
X10553063Y-17575531D01*
X10553063Y-17575531D02*
X10543539Y-17566007D01*
D17*
X5448000Y-17902095D02*
X5578000Y-18032095D01*
X5578000Y-17902095D02*
X5448000Y-18032095D01*
X5513000Y-17902095D02*
X5513000Y-18032095D01*
X5448000Y-17967095D02*
X5578000Y-17967095D01*
D10*
X5943539Y-18058579D02*
X5829253Y-18058579D01*
X5886396Y-18058579D02*
X5886396Y-17858579D01*
X5886396Y-17858579D02*
X5867348Y-17887150D01*
X5867348Y-17887150D02*
X5848301Y-17906198D01*
X5848301Y-17906198D02*
X5829253Y-17915722D01*
X6029253Y-18039531D02*
X6038777Y-18049055D01*
X6038777Y-18049055D02*
X6029253Y-18058579D01*
X6029253Y-18058579D02*
X6019729Y-18049055D01*
X6019729Y-18049055D02*
X6029253Y-18039531D01*
X6029253Y-18039531D02*
X6029253Y-18058579D01*
X6105443Y-17858579D02*
X6229253Y-17858579D01*
X6229253Y-17858579D02*
X6162586Y-17934769D01*
X6162586Y-17934769D02*
X6191158Y-17934769D01*
X6191158Y-17934769D02*
X6210205Y-17944293D01*
X6210205Y-17944293D02*
X6219729Y-17953817D01*
X6219729Y-17953817D02*
X6229253Y-17972865D01*
X6229253Y-17972865D02*
X6229253Y-18020484D01*
X6229253Y-18020484D02*
X6219729Y-18039531D01*
X6219729Y-18039531D02*
X6210205Y-18049055D01*
X6210205Y-18049055D02*
X6191158Y-18058579D01*
X6191158Y-18058579D02*
X6134015Y-18058579D01*
X6134015Y-18058579D02*
X6114967Y-18049055D01*
X6114967Y-18049055D02*
X6105443Y-18039531D01*
X6353062Y-17858579D02*
X6372110Y-17858579D01*
X6372110Y-17858579D02*
X6391158Y-17868103D01*
X6391158Y-17868103D02*
X6400682Y-17877626D01*
X6400682Y-17877626D02*
X6410205Y-17896674D01*
X6410205Y-17896674D02*
X6419729Y-17934769D01*
X6419729Y-17934769D02*
X6419729Y-17982388D01*
X6419729Y-17982388D02*
X6410205Y-18020484D01*
X6410205Y-18020484D02*
X6400682Y-18039531D01*
X6400682Y-18039531D02*
X6391158Y-18049055D01*
X6391158Y-18049055D02*
X6372110Y-18058579D01*
X6372110Y-18058579D02*
X6353062Y-18058579D01*
X6353062Y-18058579D02*
X6334015Y-18049055D01*
X6334015Y-18049055D02*
X6324491Y-18039531D01*
X6324491Y-18039531D02*
X6314967Y-18020484D01*
X6314967Y-18020484D02*
X6305443Y-17982388D01*
X6305443Y-17982388D02*
X6305443Y-17934769D01*
X6305443Y-17934769D02*
X6314967Y-17896674D01*
X6314967Y-17896674D02*
X6324491Y-17877626D01*
X6324491Y-17877626D02*
X6334015Y-17868103D01*
X6334015Y-17868103D02*
X6353062Y-17858579D01*
X6543539Y-17858579D02*
X6562586Y-17858579D01*
X6562586Y-17858579D02*
X6581634Y-17868103D01*
X6581634Y-17868103D02*
X6591158Y-17877626D01*
X6591158Y-17877626D02*
X6600682Y-17896674D01*
X6600682Y-17896674D02*
X6610205Y-17934769D01*
X6610205Y-17934769D02*
X6610205Y-17982388D01*
X6610205Y-17982388D02*
X6600682Y-18020484D01*
X6600682Y-18020484D02*
X6591158Y-18039531D01*
X6591158Y-18039531D02*
X6581634Y-18049055D01*
X6581634Y-18049055D02*
X6562586Y-18058579D01*
X6562586Y-18058579D02*
X6543539Y-18058579D01*
X6543539Y-18058579D02*
X6524491Y-18049055D01*
X6524491Y-18049055D02*
X6514967Y-18039531D01*
X6514967Y-18039531D02*
X6505443Y-18020484D01*
X6505443Y-18020484D02*
X6495920Y-17982388D01*
X6495920Y-17982388D02*
X6495920Y-17934769D01*
X6495920Y-17934769D02*
X6505443Y-17896674D01*
X6505443Y-17896674D02*
X6514967Y-17877626D01*
X6514967Y-17877626D02*
X6524491Y-17868103D01*
X6524491Y-17868103D02*
X6543539Y-17858579D01*
X6695920Y-18058579D02*
X6695920Y-17925245D01*
X6695920Y-17944293D02*
X6705443Y-17934769D01*
X6705443Y-17934769D02*
X6724491Y-17925245D01*
X6724491Y-17925245D02*
X6753063Y-17925245D01*
X6753063Y-17925245D02*
X6772110Y-17934769D01*
X6772110Y-17934769D02*
X6781634Y-17953817D01*
X6781634Y-17953817D02*
X6781634Y-18058579D01*
X6781634Y-17953817D02*
X6791158Y-17934769D01*
X6791158Y-17934769D02*
X6810205Y-17925245D01*
X6810205Y-17925245D02*
X6838777Y-17925245D01*
X6838777Y-17925245D02*
X6857824Y-17934769D01*
X6857824Y-17934769D02*
X6867348Y-17953817D01*
X6867348Y-17953817D02*
X6867348Y-18058579D01*
X6962586Y-18058579D02*
X6962586Y-17925245D01*
X6962586Y-17944293D02*
X6972110Y-17934769D01*
X6972110Y-17934769D02*
X6991158Y-17925245D01*
X6991158Y-17925245D02*
X7019729Y-17925245D01*
X7019729Y-17925245D02*
X7038777Y-17934769D01*
X7038777Y-17934769D02*
X7048301Y-17953817D01*
X7048301Y-17953817D02*
X7048301Y-18058579D01*
X7048301Y-17953817D02*
X7057824Y-17934769D01*
X7057824Y-17934769D02*
X7076872Y-17925245D01*
X7076872Y-17925245D02*
X7105443Y-17925245D01*
X7105443Y-17925245D02*
X7124491Y-17934769D01*
X7124491Y-17934769D02*
X7134015Y-17953817D01*
X7134015Y-17953817D02*
X7134015Y-18058579D01*
X7524491Y-17849055D02*
X7353063Y-18106198D01*
X7781634Y-17858579D02*
X7800682Y-17858579D01*
X7800682Y-17858579D02*
X7819729Y-17868103D01*
X7819729Y-17868103D02*
X7829253Y-17877626D01*
X7829253Y-17877626D02*
X7838777Y-17896674D01*
X7838777Y-17896674D02*
X7848301Y-17934769D01*
X7848301Y-17934769D02*
X7848301Y-17982388D01*
X7848301Y-17982388D02*
X7838777Y-18020484D01*
X7838777Y-18020484D02*
X7829253Y-18039531D01*
X7829253Y-18039531D02*
X7819729Y-18049055D01*
X7819729Y-18049055D02*
X7800682Y-18058579D01*
X7800682Y-18058579D02*
X7781634Y-18058579D01*
X7781634Y-18058579D02*
X7762586Y-18049055D01*
X7762586Y-18049055D02*
X7753063Y-18039531D01*
X7753063Y-18039531D02*
X7743539Y-18020484D01*
X7743539Y-18020484D02*
X7734015Y-17982388D01*
X7734015Y-17982388D02*
X7734015Y-17934769D01*
X7734015Y-17934769D02*
X7743539Y-17896674D01*
X7743539Y-17896674D02*
X7753063Y-17877626D01*
X7753063Y-17877626D02*
X7762586Y-17868103D01*
X7762586Y-17868103D02*
X7781634Y-17858579D01*
X7934015Y-18039531D02*
X7943539Y-18049055D01*
X7943539Y-18049055D02*
X7934015Y-18058579D01*
X7934015Y-18058579D02*
X7924491Y-18049055D01*
X7924491Y-18049055D02*
X7934015Y-18039531D01*
X7934015Y-18039531D02*
X7934015Y-18058579D01*
X8067348Y-17858579D02*
X8086396Y-17858579D01*
X8086396Y-17858579D02*
X8105444Y-17868103D01*
X8105444Y-17868103D02*
X8114967Y-17877626D01*
X8114967Y-17877626D02*
X8124491Y-17896674D01*
X8124491Y-17896674D02*
X8134015Y-17934769D01*
X8134015Y-17934769D02*
X8134015Y-17982388D01*
X8134015Y-17982388D02*
X8124491Y-18020484D01*
X8124491Y-18020484D02*
X8114967Y-18039531D01*
X8114967Y-18039531D02*
X8105444Y-18049055D01*
X8105444Y-18049055D02*
X8086396Y-18058579D01*
X8086396Y-18058579D02*
X8067348Y-18058579D01*
X8067348Y-18058579D02*
X8048301Y-18049055D01*
X8048301Y-18049055D02*
X8038777Y-18039531D01*
X8038777Y-18039531D02*
X8029253Y-18020484D01*
X8029253Y-18020484D02*
X8019729Y-17982388D01*
X8019729Y-17982388D02*
X8019729Y-17934769D01*
X8019729Y-17934769D02*
X8029253Y-17896674D01*
X8029253Y-17896674D02*
X8038777Y-17877626D01*
X8038777Y-17877626D02*
X8048301Y-17868103D01*
X8048301Y-17868103D02*
X8067348Y-17858579D01*
X8314967Y-17858579D02*
X8219729Y-17858579D01*
X8219729Y-17858579D02*
X8210206Y-17953817D01*
X8210206Y-17953817D02*
X8219729Y-17944293D01*
X8219729Y-17944293D02*
X8238777Y-17934769D01*
X8238777Y-17934769D02*
X8286396Y-17934769D01*
X8286396Y-17934769D02*
X8305444Y-17944293D01*
X8305444Y-17944293D02*
X8314967Y-17953817D01*
X8314967Y-17953817D02*
X8324491Y-17972865D01*
X8324491Y-17972865D02*
X8324491Y-18020484D01*
X8324491Y-18020484D02*
X8314967Y-18039531D01*
X8314967Y-18039531D02*
X8305444Y-18049055D01*
X8305444Y-18049055D02*
X8286396Y-18058579D01*
X8286396Y-18058579D02*
X8238777Y-18058579D01*
X8238777Y-18058579D02*
X8219729Y-18049055D01*
X8219729Y-18049055D02*
X8210206Y-18039531D01*
X8514968Y-18058579D02*
X8400682Y-18058579D01*
X8457825Y-18058579D02*
X8457825Y-17858579D01*
X8457825Y-17858579D02*
X8438777Y-17887150D01*
X8438777Y-17887150D02*
X8419729Y-17906198D01*
X8419729Y-17906198D02*
X8400682Y-17915722D01*
X8591158Y-17877626D02*
X8600682Y-17868103D01*
X8600682Y-17868103D02*
X8619729Y-17858579D01*
X8619729Y-17858579D02*
X8667349Y-17858579D01*
X8667349Y-17858579D02*
X8686396Y-17868103D01*
X8686396Y-17868103D02*
X8695920Y-17877626D01*
X8695920Y-17877626D02*
X8705444Y-17896674D01*
X8705444Y-17896674D02*
X8705444Y-17915722D01*
X8705444Y-17915722D02*
X8695920Y-17944293D01*
X8695920Y-17944293D02*
X8581634Y-18058579D01*
X8581634Y-18058579D02*
X8705444Y-18058579D01*
X8781634Y-17858579D02*
X8781634Y-17896674D01*
X8857825Y-17858579D02*
X8857825Y-17896674D01*
X9153063Y-18134769D02*
X9143539Y-18125245D01*
X9143539Y-18125245D02*
X9124491Y-18096674D01*
X9124491Y-18096674D02*
X9114968Y-18077626D01*
X9114968Y-18077626D02*
X9105444Y-18049055D01*
X9105444Y-18049055D02*
X9095920Y-18001436D01*
X9095920Y-18001436D02*
X9095920Y-17963341D01*
X9095920Y-17963341D02*
X9105444Y-17915722D01*
X9105444Y-17915722D02*
X9114968Y-17887150D01*
X9114968Y-17887150D02*
X9124491Y-17868103D01*
X9124491Y-17868103D02*
X9143539Y-17839531D01*
X9143539Y-17839531D02*
X9153063Y-17830007D01*
X9210206Y-17858579D02*
X9334015Y-17858579D01*
X9334015Y-17858579D02*
X9267349Y-17934769D01*
X9267349Y-17934769D02*
X9295920Y-17934769D01*
X9295920Y-17934769D02*
X9314968Y-17944293D01*
X9314968Y-17944293D02*
X9324491Y-17953817D01*
X9324491Y-17953817D02*
X9334015Y-17972865D01*
X9334015Y-17972865D02*
X9334015Y-18020484D01*
X9334015Y-18020484D02*
X9324491Y-18039531D01*
X9324491Y-18039531D02*
X9314968Y-18049055D01*
X9314968Y-18049055D02*
X9295920Y-18058579D01*
X9295920Y-18058579D02*
X9238777Y-18058579D01*
X9238777Y-18058579D02*
X9219730Y-18049055D01*
X9219730Y-18049055D02*
X9210206Y-18039531D01*
X9429253Y-18058579D02*
X9467349Y-18058579D01*
X9467349Y-18058579D02*
X9486396Y-18049055D01*
X9486396Y-18049055D02*
X9495920Y-18039531D01*
X9495920Y-18039531D02*
X9514968Y-18010960D01*
X9514968Y-18010960D02*
X9524491Y-17972865D01*
X9524491Y-17972865D02*
X9524491Y-17896674D01*
X9524491Y-17896674D02*
X9514968Y-17877626D01*
X9514968Y-17877626D02*
X9505444Y-17868103D01*
X9505444Y-17868103D02*
X9486396Y-17858579D01*
X9486396Y-17858579D02*
X9448301Y-17858579D01*
X9448301Y-17858579D02*
X9429253Y-17868103D01*
X9429253Y-17868103D02*
X9419730Y-17877626D01*
X9419730Y-17877626D02*
X9410206Y-17896674D01*
X9410206Y-17896674D02*
X9410206Y-17944293D01*
X9410206Y-17944293D02*
X9419730Y-17963341D01*
X9419730Y-17963341D02*
X9429253Y-17972865D01*
X9429253Y-17972865D02*
X9448301Y-17982388D01*
X9448301Y-17982388D02*
X9486396Y-17982388D01*
X9486396Y-17982388D02*
X9505444Y-17972865D01*
X9505444Y-17972865D02*
X9514968Y-17963341D01*
X9514968Y-17963341D02*
X9524491Y-17944293D01*
X9762587Y-18058579D02*
X9762587Y-17858579D01*
X9848301Y-18058579D02*
X9848301Y-17953817D01*
X9848301Y-17953817D02*
X9838777Y-17934769D01*
X9838777Y-17934769D02*
X9819730Y-17925245D01*
X9819730Y-17925245D02*
X9791158Y-17925245D01*
X9791158Y-17925245D02*
X9772111Y-17934769D01*
X9772111Y-17934769D02*
X9762587Y-17944293D01*
X9972111Y-18058579D02*
X9953063Y-18049055D01*
X9953063Y-18049055D02*
X9943539Y-18039531D01*
X9943539Y-18039531D02*
X9934015Y-18020484D01*
X9934015Y-18020484D02*
X9934015Y-17963341D01*
X9934015Y-17963341D02*
X9943539Y-17944293D01*
X9943539Y-17944293D02*
X9953063Y-17934769D01*
X9953063Y-17934769D02*
X9972111Y-17925245D01*
X9972111Y-17925245D02*
X10000682Y-17925245D01*
X10000682Y-17925245D02*
X10019730Y-17934769D01*
X10019730Y-17934769D02*
X10029253Y-17944293D01*
X10029253Y-17944293D02*
X10038777Y-17963341D01*
X10038777Y-17963341D02*
X10038777Y-18020484D01*
X10038777Y-18020484D02*
X10029253Y-18039531D01*
X10029253Y-18039531D02*
X10019730Y-18049055D01*
X10019730Y-18049055D02*
X10000682Y-18058579D01*
X10000682Y-18058579D02*
X9972111Y-18058579D01*
X10153063Y-18058579D02*
X10134015Y-18049055D01*
X10134015Y-18049055D02*
X10124492Y-18030007D01*
X10124492Y-18030007D02*
X10124492Y-17858579D01*
X10305444Y-18049055D02*
X10286396Y-18058579D01*
X10286396Y-18058579D02*
X10248301Y-18058579D01*
X10248301Y-18058579D02*
X10229253Y-18049055D01*
X10229253Y-18049055D02*
X10219730Y-18030007D01*
X10219730Y-18030007D02*
X10219730Y-17953817D01*
X10219730Y-17953817D02*
X10229253Y-17934769D01*
X10229253Y-17934769D02*
X10248301Y-17925245D01*
X10248301Y-17925245D02*
X10286396Y-17925245D01*
X10286396Y-17925245D02*
X10305444Y-17934769D01*
X10305444Y-17934769D02*
X10314968Y-17953817D01*
X10314968Y-17953817D02*
X10314968Y-17972865D01*
X10314968Y-17972865D02*
X10219730Y-17991912D01*
X10391158Y-18049055D02*
X10410206Y-18058579D01*
X10410206Y-18058579D02*
X10448301Y-18058579D01*
X10448301Y-18058579D02*
X10467349Y-18049055D01*
X10467349Y-18049055D02*
X10476873Y-18030007D01*
X10476873Y-18030007D02*
X10476873Y-18020484D01*
X10476873Y-18020484D02*
X10467349Y-18001436D01*
X10467349Y-18001436D02*
X10448301Y-17991912D01*
X10448301Y-17991912D02*
X10419730Y-17991912D01*
X10419730Y-17991912D02*
X10400682Y-17982388D01*
X10400682Y-17982388D02*
X10391158Y-17963341D01*
X10391158Y-17963341D02*
X10391158Y-17953817D01*
X10391158Y-17953817D02*
X10400682Y-17934769D01*
X10400682Y-17934769D02*
X10419730Y-17925245D01*
X10419730Y-17925245D02*
X10448301Y-17925245D01*
X10448301Y-17925245D02*
X10467349Y-17934769D01*
X10543539Y-18134769D02*
X10553063Y-18125245D01*
X10553063Y-18125245D02*
X10572111Y-18096674D01*
X10572111Y-18096674D02*
X10581634Y-18077626D01*
X10581634Y-18077626D02*
X10591158Y-18049055D01*
X10591158Y-18049055D02*
X10600682Y-18001436D01*
X10600682Y-18001436D02*
X10600682Y-17963341D01*
X10600682Y-17963341D02*
X10591158Y-17915722D01*
X10591158Y-17915722D02*
X10581634Y-17887150D01*
X10581634Y-17887150D02*
X10572111Y-17868103D01*
X10572111Y-17868103D02*
X10553063Y-17839531D01*
X10553063Y-17839531D02*
X10543539Y-17830007D01*
X5378000Y-18131095D02*
X5578000Y-18331095D01*
X5578000Y-18131095D02*
X5378000Y-18331095D01*
X5548711Y-18301806D02*
X5548711Y-18160384D01*
X5407289Y-18160384D01*
X5407289Y-18301806D01*
X5548711Y-18301806D01*
X5819729Y-18122579D02*
X5943539Y-18122579D01*
X5943539Y-18122579D02*
X5876872Y-18198769D01*
X5876872Y-18198769D02*
X5905443Y-18198769D01*
X5905443Y-18198769D02*
X5924491Y-18208293D01*
X5924491Y-18208293D02*
X5934015Y-18217817D01*
X5934015Y-18217817D02*
X5943539Y-18236865D01*
X5943539Y-18236865D02*
X5943539Y-18284484D01*
X5943539Y-18284484D02*
X5934015Y-18303531D01*
X5934015Y-18303531D02*
X5924491Y-18313055D01*
X5924491Y-18313055D02*
X5905443Y-18322579D01*
X5905443Y-18322579D02*
X5848301Y-18322579D01*
X5848301Y-18322579D02*
X5829253Y-18313055D01*
X5829253Y-18313055D02*
X5819729Y-18303531D01*
X6029253Y-18303531D02*
X6038777Y-18313055D01*
X6038777Y-18313055D02*
X6029253Y-18322579D01*
X6029253Y-18322579D02*
X6019729Y-18313055D01*
X6019729Y-18313055D02*
X6029253Y-18303531D01*
X6029253Y-18303531D02*
X6029253Y-18322579D01*
X6114967Y-18141626D02*
X6124491Y-18132103D01*
X6124491Y-18132103D02*
X6143539Y-18122579D01*
X6143539Y-18122579D02*
X6191158Y-18122579D01*
X6191158Y-18122579D02*
X6210205Y-18132103D01*
X6210205Y-18132103D02*
X6219729Y-18141626D01*
X6219729Y-18141626D02*
X6229253Y-18160674D01*
X6229253Y-18160674D02*
X6229253Y-18179722D01*
X6229253Y-18179722D02*
X6219729Y-18208293D01*
X6219729Y-18208293D02*
X6105443Y-18322579D01*
X6105443Y-18322579D02*
X6229253Y-18322579D01*
X6353062Y-18122579D02*
X6372110Y-18122579D01*
X6372110Y-18122579D02*
X6391158Y-18132103D01*
X6391158Y-18132103D02*
X6400682Y-18141626D01*
X6400682Y-18141626D02*
X6410205Y-18160674D01*
X6410205Y-18160674D02*
X6419729Y-18198769D01*
X6419729Y-18198769D02*
X6419729Y-18246388D01*
X6419729Y-18246388D02*
X6410205Y-18284484D01*
X6410205Y-18284484D02*
X6400682Y-18303531D01*
X6400682Y-18303531D02*
X6391158Y-18313055D01*
X6391158Y-18313055D02*
X6372110Y-18322579D01*
X6372110Y-18322579D02*
X6353062Y-18322579D01*
X6353062Y-18322579D02*
X6334015Y-18313055D01*
X6334015Y-18313055D02*
X6324491Y-18303531D01*
X6324491Y-18303531D02*
X6314967Y-18284484D01*
X6314967Y-18284484D02*
X6305443Y-18246388D01*
X6305443Y-18246388D02*
X6305443Y-18198769D01*
X6305443Y-18198769D02*
X6314967Y-18160674D01*
X6314967Y-18160674D02*
X6324491Y-18141626D01*
X6324491Y-18141626D02*
X6334015Y-18132103D01*
X6334015Y-18132103D02*
X6353062Y-18122579D01*
X6543539Y-18122579D02*
X6562586Y-18122579D01*
X6562586Y-18122579D02*
X6581634Y-18132103D01*
X6581634Y-18132103D02*
X6591158Y-18141626D01*
X6591158Y-18141626D02*
X6600682Y-18160674D01*
X6600682Y-18160674D02*
X6610205Y-18198769D01*
X6610205Y-18198769D02*
X6610205Y-18246388D01*
X6610205Y-18246388D02*
X6600682Y-18284484D01*
X6600682Y-18284484D02*
X6591158Y-18303531D01*
X6591158Y-18303531D02*
X6581634Y-18313055D01*
X6581634Y-18313055D02*
X6562586Y-18322579D01*
X6562586Y-18322579D02*
X6543539Y-18322579D01*
X6543539Y-18322579D02*
X6524491Y-18313055D01*
X6524491Y-18313055D02*
X6514967Y-18303531D01*
X6514967Y-18303531D02*
X6505443Y-18284484D01*
X6505443Y-18284484D02*
X6495920Y-18246388D01*
X6495920Y-18246388D02*
X6495920Y-18198769D01*
X6495920Y-18198769D02*
X6505443Y-18160674D01*
X6505443Y-18160674D02*
X6514967Y-18141626D01*
X6514967Y-18141626D02*
X6524491Y-18132103D01*
X6524491Y-18132103D02*
X6543539Y-18122579D01*
X6695920Y-18322579D02*
X6695920Y-18189245D01*
X6695920Y-18208293D02*
X6705443Y-18198769D01*
X6705443Y-18198769D02*
X6724491Y-18189245D01*
X6724491Y-18189245D02*
X6753063Y-18189245D01*
X6753063Y-18189245D02*
X6772110Y-18198769D01*
X6772110Y-18198769D02*
X6781634Y-18217817D01*
X6781634Y-18217817D02*
X6781634Y-18322579D01*
X6781634Y-18217817D02*
X6791158Y-18198769D01*
X6791158Y-18198769D02*
X6810205Y-18189245D01*
X6810205Y-18189245D02*
X6838777Y-18189245D01*
X6838777Y-18189245D02*
X6857824Y-18198769D01*
X6857824Y-18198769D02*
X6867348Y-18217817D01*
X6867348Y-18217817D02*
X6867348Y-18322579D01*
X6962586Y-18322579D02*
X6962586Y-18189245D01*
X6962586Y-18208293D02*
X6972110Y-18198769D01*
X6972110Y-18198769D02*
X6991158Y-18189245D01*
X6991158Y-18189245D02*
X7019729Y-18189245D01*
X7019729Y-18189245D02*
X7038777Y-18198769D01*
X7038777Y-18198769D02*
X7048301Y-18217817D01*
X7048301Y-18217817D02*
X7048301Y-18322579D01*
X7048301Y-18217817D02*
X7057824Y-18198769D01*
X7057824Y-18198769D02*
X7076872Y-18189245D01*
X7076872Y-18189245D02*
X7105443Y-18189245D01*
X7105443Y-18189245D02*
X7124491Y-18198769D01*
X7124491Y-18198769D02*
X7134015Y-18217817D01*
X7134015Y-18217817D02*
X7134015Y-18322579D01*
X7524491Y-18113055D02*
X7353063Y-18370198D01*
X7781634Y-18122579D02*
X7800682Y-18122579D01*
X7800682Y-18122579D02*
X7819729Y-18132103D01*
X7819729Y-18132103D02*
X7829253Y-18141626D01*
X7829253Y-18141626D02*
X7838777Y-18160674D01*
X7838777Y-18160674D02*
X7848301Y-18198769D01*
X7848301Y-18198769D02*
X7848301Y-18246388D01*
X7848301Y-18246388D02*
X7838777Y-18284484D01*
X7838777Y-18284484D02*
X7829253Y-18303531D01*
X7829253Y-18303531D02*
X7819729Y-18313055D01*
X7819729Y-18313055D02*
X7800682Y-18322579D01*
X7800682Y-18322579D02*
X7781634Y-18322579D01*
X7781634Y-18322579D02*
X7762586Y-18313055D01*
X7762586Y-18313055D02*
X7753063Y-18303531D01*
X7753063Y-18303531D02*
X7743539Y-18284484D01*
X7743539Y-18284484D02*
X7734015Y-18246388D01*
X7734015Y-18246388D02*
X7734015Y-18198769D01*
X7734015Y-18198769D02*
X7743539Y-18160674D01*
X7743539Y-18160674D02*
X7753063Y-18141626D01*
X7753063Y-18141626D02*
X7762586Y-18132103D01*
X7762586Y-18132103D02*
X7781634Y-18122579D01*
X7934015Y-18303531D02*
X7943539Y-18313055D01*
X7943539Y-18313055D02*
X7934015Y-18322579D01*
X7934015Y-18322579D02*
X7924491Y-18313055D01*
X7924491Y-18313055D02*
X7934015Y-18303531D01*
X7934015Y-18303531D02*
X7934015Y-18322579D01*
X8134015Y-18322579D02*
X8019729Y-18322579D01*
X8076872Y-18322579D02*
X8076872Y-18122579D01*
X8076872Y-18122579D02*
X8057825Y-18151150D01*
X8057825Y-18151150D02*
X8038777Y-18170198D01*
X8038777Y-18170198D02*
X8019729Y-18179722D01*
X8210206Y-18141626D02*
X8219729Y-18132103D01*
X8219729Y-18132103D02*
X8238777Y-18122579D01*
X8238777Y-18122579D02*
X8286396Y-18122579D01*
X8286396Y-18122579D02*
X8305444Y-18132103D01*
X8305444Y-18132103D02*
X8314967Y-18141626D01*
X8314967Y-18141626D02*
X8324491Y-18160674D01*
X8324491Y-18160674D02*
X8324491Y-18179722D01*
X8324491Y-18179722D02*
X8314967Y-18208293D01*
X8314967Y-18208293D02*
X8200682Y-18322579D01*
X8200682Y-18322579D02*
X8324491Y-18322579D01*
X8495920Y-18122579D02*
X8457825Y-18122579D01*
X8457825Y-18122579D02*
X8438777Y-18132103D01*
X8438777Y-18132103D02*
X8429253Y-18141626D01*
X8429253Y-18141626D02*
X8410206Y-18170198D01*
X8410206Y-18170198D02*
X8400682Y-18208293D01*
X8400682Y-18208293D02*
X8400682Y-18284484D01*
X8400682Y-18284484D02*
X8410206Y-18303531D01*
X8410206Y-18303531D02*
X8419729Y-18313055D01*
X8419729Y-18313055D02*
X8438777Y-18322579D01*
X8438777Y-18322579D02*
X8476872Y-18322579D01*
X8476872Y-18322579D02*
X8495920Y-18313055D01*
X8495920Y-18313055D02*
X8505444Y-18303531D01*
X8505444Y-18303531D02*
X8514968Y-18284484D01*
X8514968Y-18284484D02*
X8514968Y-18236865D01*
X8514968Y-18236865D02*
X8505444Y-18217817D01*
X8505444Y-18217817D02*
X8495920Y-18208293D01*
X8495920Y-18208293D02*
X8476872Y-18198769D01*
X8476872Y-18198769D02*
X8438777Y-18198769D01*
X8438777Y-18198769D02*
X8419729Y-18208293D01*
X8419729Y-18208293D02*
X8410206Y-18217817D01*
X8410206Y-18217817D02*
X8400682Y-18236865D01*
X8638777Y-18122579D02*
X8657825Y-18122579D01*
X8657825Y-18122579D02*
X8676872Y-18132103D01*
X8676872Y-18132103D02*
X8686396Y-18141626D01*
X8686396Y-18141626D02*
X8695920Y-18160674D01*
X8695920Y-18160674D02*
X8705444Y-18198769D01*
X8705444Y-18198769D02*
X8705444Y-18246388D01*
X8705444Y-18246388D02*
X8695920Y-18284484D01*
X8695920Y-18284484D02*
X8686396Y-18303531D01*
X8686396Y-18303531D02*
X8676872Y-18313055D01*
X8676872Y-18313055D02*
X8657825Y-18322579D01*
X8657825Y-18322579D02*
X8638777Y-18322579D01*
X8638777Y-18322579D02*
X8619729Y-18313055D01*
X8619729Y-18313055D02*
X8610206Y-18303531D01*
X8610206Y-18303531D02*
X8600682Y-18284484D01*
X8600682Y-18284484D02*
X8591158Y-18246388D01*
X8591158Y-18246388D02*
X8591158Y-18198769D01*
X8591158Y-18198769D02*
X8600682Y-18160674D01*
X8600682Y-18160674D02*
X8610206Y-18141626D01*
X8610206Y-18141626D02*
X8619729Y-18132103D01*
X8619729Y-18132103D02*
X8638777Y-18122579D01*
X8781634Y-18122579D02*
X8781634Y-18160674D01*
X8857825Y-18122579D02*
X8857825Y-18160674D01*
X9153063Y-18398769D02*
X9143539Y-18389245D01*
X9143539Y-18389245D02*
X9124491Y-18360674D01*
X9124491Y-18360674D02*
X9114968Y-18341626D01*
X9114968Y-18341626D02*
X9105444Y-18313055D01*
X9105444Y-18313055D02*
X9095920Y-18265436D01*
X9095920Y-18265436D02*
X9095920Y-18227341D01*
X9095920Y-18227341D02*
X9105444Y-18179722D01*
X9105444Y-18179722D02*
X9114968Y-18151150D01*
X9114968Y-18151150D02*
X9124491Y-18132103D01*
X9124491Y-18132103D02*
X9143539Y-18103531D01*
X9143539Y-18103531D02*
X9153063Y-18094007D01*
X9314968Y-18189245D02*
X9314968Y-18322579D01*
X9267349Y-18113055D02*
X9219730Y-18255912D01*
X9219730Y-18255912D02*
X9343539Y-18255912D01*
X9572111Y-18322579D02*
X9572111Y-18122579D01*
X9657825Y-18322579D02*
X9657825Y-18217817D01*
X9657825Y-18217817D02*
X9648301Y-18198769D01*
X9648301Y-18198769D02*
X9629253Y-18189245D01*
X9629253Y-18189245D02*
X9600682Y-18189245D01*
X9600682Y-18189245D02*
X9581634Y-18198769D01*
X9581634Y-18198769D02*
X9572111Y-18208293D01*
X9781634Y-18322579D02*
X9762587Y-18313055D01*
X9762587Y-18313055D02*
X9753063Y-18303531D01*
X9753063Y-18303531D02*
X9743539Y-18284484D01*
X9743539Y-18284484D02*
X9743539Y-18227341D01*
X9743539Y-18227341D02*
X9753063Y-18208293D01*
X9753063Y-18208293D02*
X9762587Y-18198769D01*
X9762587Y-18198769D02*
X9781634Y-18189245D01*
X9781634Y-18189245D02*
X9810206Y-18189245D01*
X9810206Y-18189245D02*
X9829253Y-18198769D01*
X9829253Y-18198769D02*
X9838777Y-18208293D01*
X9838777Y-18208293D02*
X9848301Y-18227341D01*
X9848301Y-18227341D02*
X9848301Y-18284484D01*
X9848301Y-18284484D02*
X9838777Y-18303531D01*
X9838777Y-18303531D02*
X9829253Y-18313055D01*
X9829253Y-18313055D02*
X9810206Y-18322579D01*
X9810206Y-18322579D02*
X9781634Y-18322579D01*
X9962587Y-18322579D02*
X9943539Y-18313055D01*
X9943539Y-18313055D02*
X9934015Y-18294007D01*
X9934015Y-18294007D02*
X9934015Y-18122579D01*
X10114968Y-18313055D02*
X10095920Y-18322579D01*
X10095920Y-18322579D02*
X10057825Y-18322579D01*
X10057825Y-18322579D02*
X10038777Y-18313055D01*
X10038777Y-18313055D02*
X10029253Y-18294007D01*
X10029253Y-18294007D02*
X10029253Y-18217817D01*
X10029253Y-18217817D02*
X10038777Y-18198769D01*
X10038777Y-18198769D02*
X10057825Y-18189245D01*
X10057825Y-18189245D02*
X10095920Y-18189245D01*
X10095920Y-18189245D02*
X10114968Y-18198769D01*
X10114968Y-18198769D02*
X10124492Y-18217817D01*
X10124492Y-18217817D02*
X10124492Y-18236865D01*
X10124492Y-18236865D02*
X10029253Y-18255912D01*
X10200682Y-18313055D02*
X10219730Y-18322579D01*
X10219730Y-18322579D02*
X10257825Y-18322579D01*
X10257825Y-18322579D02*
X10276873Y-18313055D01*
X10276873Y-18313055D02*
X10286396Y-18294007D01*
X10286396Y-18294007D02*
X10286396Y-18284484D01*
X10286396Y-18284484D02*
X10276873Y-18265436D01*
X10276873Y-18265436D02*
X10257825Y-18255912D01*
X10257825Y-18255912D02*
X10229253Y-18255912D01*
X10229253Y-18255912D02*
X10210206Y-18246388D01*
X10210206Y-18246388D02*
X10200682Y-18227341D01*
X10200682Y-18227341D02*
X10200682Y-18217817D01*
X10200682Y-18217817D02*
X10210206Y-18198769D01*
X10210206Y-18198769D02*
X10229253Y-18189245D01*
X10229253Y-18189245D02*
X10257825Y-18189245D01*
X10257825Y-18189245D02*
X10276873Y-18198769D01*
X10353063Y-18398769D02*
X10362587Y-18389245D01*
X10362587Y-18389245D02*
X10381634Y-18360674D01*
X10381634Y-18360674D02*
X10391158Y-18341626D01*
X10391158Y-18341626D02*
X10400682Y-18313055D01*
X10400682Y-18313055D02*
X10410206Y-18265436D01*
X10410206Y-18265436D02*
X10410206Y-18227341D01*
X10410206Y-18227341D02*
X10400682Y-18179722D01*
X10400682Y-18179722D02*
X10391158Y-18151150D01*
X10391158Y-18151150D02*
X10381634Y-18132103D01*
X10381634Y-18132103D02*
X10362587Y-18103531D01*
X10362587Y-18103531D02*
X10353063Y-18094007D01*
M02*
