%TF.GenerationSoftware,KiCad,Pcbnew,7.0.7-7.0.7~ubuntu22.04.1*%
%TF.CreationDate,2023-08-30T14:26:05-06:00*%
%TF.ProjectId,PWM_PCB,50574d5f-5043-4422-9e6b-696361645f70,rev?*%
%TF.SameCoordinates,Original*%
%TF.FileFunction,Drillmap*%
%TF.FilePolarity,Positive*%
%FSLAX45Y45*%
G04 Gerber Fmt 4.5, Leading zero omitted, Abs format (unit mm)*
G04 Created by KiCad (PCBNEW 7.0.7-7.0.7~ubuntu22.04.1) date 2023-08-30 14:26:05*
%MOMM*%
%LPD*%
G01*
G04 APERTURE LIST*
%ADD10C,0.100000*%
%ADD11C,0.200000*%
%ADD12C,0.075000*%
%ADD13C,0.076200*%
%ADD14C,0.080000*%
%ADD15C,0.090000*%
%ADD16C,0.130000*%
%ADD17C,0.320000*%
G04 APERTURE END LIST*
D10*
X8382000Y-2286000D02*
X20828000Y-2286000D01*
X20828000Y-15494000D01*
X8382000Y-15494000D01*
X8382000Y-2286000D01*
D11*
D12*
X13424500Y-4280500D02*
X13499500Y-4355500D01*
X13499500Y-4280500D02*
X13424500Y-4355500D01*
X13424500Y-4407500D02*
X13499500Y-4482500D01*
X13499500Y-4407500D02*
X13424500Y-4482500D01*
X13424500Y-4534500D02*
X13499500Y-4609500D01*
X13499500Y-4534500D02*
X13424500Y-4609500D01*
X13424500Y-6312500D02*
X13499500Y-6387500D01*
X13499500Y-6312500D02*
X13424500Y-6387500D01*
X13424500Y-6439500D02*
X13499500Y-6514500D01*
X13499500Y-6439500D02*
X13424500Y-6514500D01*
X13424500Y-6566500D02*
X13499500Y-6641500D01*
X13499500Y-6566500D02*
X13424500Y-6641500D01*
X13424500Y-8344500D02*
X13499500Y-8419500D01*
X13499500Y-8344500D02*
X13424500Y-8419500D01*
X13424500Y-8471500D02*
X13499500Y-8546500D01*
X13499500Y-8471500D02*
X13424500Y-8546500D01*
X13424500Y-8598500D02*
X13499500Y-8673500D01*
X13499500Y-8598500D02*
X13424500Y-8673500D01*
X13424500Y-10376500D02*
X13499500Y-10451500D01*
X13499500Y-10376500D02*
X13424500Y-10451500D01*
X13424500Y-10503500D02*
X13499500Y-10578500D01*
X13499500Y-10503500D02*
X13424500Y-10578500D01*
X13424500Y-10630500D02*
X13499500Y-10705500D01*
X13499500Y-10630500D02*
X13424500Y-10705500D01*
X13424500Y-12408500D02*
X13499500Y-12483500D01*
X13499500Y-12408500D02*
X13424500Y-12483500D01*
X13424500Y-12535500D02*
X13499500Y-12610500D01*
X13499500Y-12535500D02*
X13424500Y-12610500D01*
X13424500Y-12662500D02*
X13499500Y-12737500D01*
X13499500Y-12662500D02*
X13424500Y-12737500D01*
D13*
X18580100Y-6096000D02*
G75*
G03*
X18580100Y-6096000I-38100J0D01*
G01*
X18834100Y-6096000D02*
G75*
G03*
X18834100Y-6096000I-38100J0D01*
G01*
X19088100Y-6096000D02*
G75*
G03*
X19088100Y-6096000I-38100J0D01*
G01*
X19850100Y-6096000D02*
G75*
G03*
X19850100Y-6096000I-38100J0D01*
G01*
X20104100Y-6096000D02*
G75*
G03*
X20104100Y-6096000I-38100J0D01*
G01*
X20358100Y-6096000D02*
G75*
G03*
X20358100Y-6096000I-38100J0D01*
G01*
D14*
X13208000Y-3262000D02*
X13208000Y-3342000D01*
X13168000Y-3302000D02*
X13248000Y-3302000D01*
X13208000Y-3516000D02*
X13208000Y-3596000D01*
X13168000Y-3556000D02*
X13248000Y-3556000D01*
X13208000Y-5294000D02*
X13208000Y-5374000D01*
X13168000Y-5334000D02*
X13248000Y-5334000D01*
X13208000Y-5548000D02*
X13208000Y-5628000D01*
X13168000Y-5588000D02*
X13248000Y-5588000D01*
X13208000Y-7326000D02*
X13208000Y-7406000D01*
X13168000Y-7366000D02*
X13248000Y-7366000D01*
X13208000Y-7580000D02*
X13208000Y-7660000D01*
X13168000Y-7620000D02*
X13248000Y-7620000D01*
X13208000Y-9358000D02*
X13208000Y-9438000D01*
X13168000Y-9398000D02*
X13248000Y-9398000D01*
X13208000Y-9612000D02*
X13208000Y-9692000D01*
X13168000Y-9652000D02*
X13248000Y-9652000D01*
X13208000Y-11390000D02*
X13208000Y-11470000D01*
X13168000Y-11430000D02*
X13248000Y-11430000D01*
X13208000Y-11644000D02*
X13208000Y-11724000D01*
X13168000Y-11684000D02*
X13248000Y-11684000D01*
X13970000Y-3262000D02*
X13970000Y-3342000D01*
X13930000Y-3302000D02*
X14010000Y-3302000D01*
X13970000Y-3516000D02*
X13970000Y-3596000D01*
X13930000Y-3556000D02*
X14010000Y-3556000D01*
X13970000Y-5294000D02*
X13970000Y-5374000D01*
X13930000Y-5334000D02*
X14010000Y-5334000D01*
X13970000Y-5548000D02*
X13970000Y-5628000D01*
X13930000Y-5588000D02*
X14010000Y-5588000D01*
X13970000Y-7326000D02*
X13970000Y-7406000D01*
X13930000Y-7366000D02*
X14010000Y-7366000D01*
X13970000Y-7580000D02*
X13970000Y-7660000D01*
X13930000Y-7620000D02*
X14010000Y-7620000D01*
X13970000Y-9358000D02*
X13970000Y-9438000D01*
X13930000Y-9398000D02*
X14010000Y-9398000D01*
X13970000Y-9612000D02*
X13970000Y-9692000D01*
X13930000Y-9652000D02*
X14010000Y-9652000D01*
X13970000Y-11390000D02*
X13970000Y-11470000D01*
X13930000Y-11430000D02*
X14010000Y-11430000D01*
X13970000Y-11644000D02*
X13970000Y-11724000D01*
X13930000Y-11684000D02*
X14010000Y-11684000D01*
X14478000Y-3262000D02*
X14478000Y-3342000D01*
X14438000Y-3302000D02*
X14518000Y-3302000D01*
X14478000Y-3770000D02*
X14478000Y-3850000D01*
X14438000Y-3810000D02*
X14518000Y-3810000D01*
X14478000Y-4532000D02*
X14478000Y-4612000D01*
X14438000Y-4572000D02*
X14518000Y-4572000D01*
X14478000Y-5294000D02*
X14478000Y-5374000D01*
X14438000Y-5334000D02*
X14518000Y-5334000D01*
X14478000Y-5802000D02*
X14478000Y-5882000D01*
X14438000Y-5842000D02*
X14518000Y-5842000D01*
X14478000Y-6564000D02*
X14478000Y-6644000D01*
X14438000Y-6604000D02*
X14518000Y-6604000D01*
X14478000Y-7326000D02*
X14478000Y-7406000D01*
X14438000Y-7366000D02*
X14518000Y-7366000D01*
X14478000Y-7834000D02*
X14478000Y-7914000D01*
X14438000Y-7874000D02*
X14518000Y-7874000D01*
X14478000Y-8596000D02*
X14478000Y-8676000D01*
X14438000Y-8636000D02*
X14518000Y-8636000D01*
X14478000Y-9358000D02*
X14478000Y-9438000D01*
X14438000Y-9398000D02*
X14518000Y-9398000D01*
X14478000Y-9866000D02*
X14478000Y-9946000D01*
X14438000Y-9906000D02*
X14518000Y-9906000D01*
X14478000Y-10628000D02*
X14478000Y-10708000D01*
X14438000Y-10668000D02*
X14518000Y-10668000D01*
X14478000Y-11390000D02*
X14478000Y-11470000D01*
X14438000Y-11430000D02*
X14518000Y-11430000D01*
X14478000Y-11898000D02*
X14478000Y-11978000D01*
X14438000Y-11938000D02*
X14518000Y-11938000D01*
X14478000Y-12660000D02*
X14478000Y-12740000D01*
X14438000Y-12700000D02*
X14518000Y-12700000D01*
X15240000Y-3262000D02*
X15240000Y-3342000D01*
X15200000Y-3302000D02*
X15280000Y-3302000D01*
X15240000Y-5294000D02*
X15240000Y-5374000D01*
X15200000Y-5334000D02*
X15280000Y-5334000D01*
X15240000Y-7326000D02*
X15240000Y-7406000D01*
X15200000Y-7366000D02*
X15280000Y-7366000D01*
X15240000Y-9358000D02*
X15240000Y-9438000D01*
X15200000Y-9398000D02*
X15280000Y-9398000D01*
X15240000Y-11390000D02*
X15240000Y-11470000D01*
X15200000Y-11430000D02*
X15280000Y-11430000D01*
X16256000Y-3770000D02*
X16256000Y-3850000D01*
X16216000Y-3810000D02*
X16296000Y-3810000D01*
X16256000Y-4532000D02*
X16256000Y-4612000D01*
X16216000Y-4572000D02*
X16296000Y-4572000D01*
X16256000Y-5294000D02*
X16256000Y-5374000D01*
X16216000Y-5334000D02*
X16296000Y-5334000D01*
X16256000Y-6056000D02*
X16256000Y-6136000D01*
X16216000Y-6096000D02*
X16296000Y-6096000D01*
X16256000Y-8596000D02*
X16256000Y-8676000D01*
X16216000Y-8636000D02*
X16296000Y-8636000D01*
X16256000Y-10882000D02*
X16256000Y-10962000D01*
X16216000Y-10922000D02*
X16296000Y-10922000D01*
X16256000Y-11644000D02*
X16256000Y-11724000D01*
X16216000Y-11684000D02*
X16296000Y-11684000D01*
X16256000Y-12423000D02*
X16256000Y-12503000D01*
X16216000Y-12463000D02*
X16296000Y-12463000D01*
X17018000Y-3770000D02*
X17018000Y-3850000D01*
X16978000Y-3810000D02*
X17058000Y-3810000D01*
X17018000Y-4532000D02*
X17018000Y-4612000D01*
X16978000Y-4572000D02*
X17058000Y-4572000D01*
X17018000Y-5294000D02*
X17018000Y-5374000D01*
X16978000Y-5334000D02*
X17058000Y-5334000D01*
X17018000Y-6056000D02*
X17018000Y-6136000D01*
X16978000Y-6096000D02*
X17058000Y-6096000D01*
X17018000Y-8596000D02*
X17018000Y-8676000D01*
X16978000Y-8636000D02*
X17058000Y-8636000D01*
X17018000Y-10882000D02*
X17018000Y-10962000D01*
X16978000Y-10922000D02*
X17058000Y-10922000D01*
X17018000Y-11644000D02*
X17018000Y-11724000D01*
X16978000Y-11684000D02*
X17058000Y-11684000D01*
X17018000Y-12423000D02*
X17018000Y-12503000D01*
X16978000Y-12463000D02*
X17058000Y-12463000D01*
X17272000Y-3770000D02*
X17272000Y-3850000D01*
X17232000Y-3810000D02*
X17312000Y-3810000D01*
X17272000Y-4532000D02*
X17272000Y-4612000D01*
X17232000Y-4572000D02*
X17312000Y-4572000D01*
X17272000Y-5294000D02*
X17272000Y-5374000D01*
X17232000Y-5334000D02*
X17312000Y-5334000D01*
X17272000Y-6056000D02*
X17272000Y-6136000D01*
X17232000Y-6096000D02*
X17312000Y-6096000D01*
X17272000Y-8596000D02*
X17272000Y-8676000D01*
X17232000Y-8636000D02*
X17312000Y-8636000D01*
X17272000Y-9358000D02*
X17272000Y-9438000D01*
X17232000Y-9398000D02*
X17312000Y-9398000D01*
X17272000Y-10882000D02*
X17272000Y-10962000D01*
X17232000Y-10922000D02*
X17312000Y-10922000D01*
X17272000Y-11644000D02*
X17272000Y-11724000D01*
X17232000Y-11684000D02*
X17312000Y-11684000D01*
X18034000Y-3770000D02*
X18034000Y-3850000D01*
X17994000Y-3810000D02*
X18074000Y-3810000D01*
X18034000Y-4532000D02*
X18034000Y-4612000D01*
X17994000Y-4572000D02*
X18074000Y-4572000D01*
X18034000Y-5294000D02*
X18034000Y-5374000D01*
X17994000Y-5334000D02*
X18074000Y-5334000D01*
X18034000Y-6056000D02*
X18034000Y-6136000D01*
X17994000Y-6096000D02*
X18074000Y-6096000D01*
X18034000Y-8596000D02*
X18034000Y-8676000D01*
X17994000Y-8636000D02*
X18074000Y-8636000D01*
X18034000Y-9358000D02*
X18034000Y-9438000D01*
X17994000Y-9398000D02*
X18074000Y-9398000D01*
X18034000Y-10882000D02*
X18034000Y-10962000D01*
X17994000Y-10922000D02*
X18074000Y-10922000D01*
X18034000Y-11644000D02*
X18034000Y-11724000D01*
X17994000Y-11684000D02*
X18074000Y-11684000D01*
X18542000Y-3770000D02*
X18542000Y-3850000D01*
X18502000Y-3810000D02*
X18582000Y-3810000D01*
X18542000Y-4024000D02*
X18542000Y-4104000D01*
X18502000Y-4064000D02*
X18582000Y-4064000D01*
X18542000Y-4278000D02*
X18542000Y-4358000D01*
X18502000Y-4318000D02*
X18582000Y-4318000D01*
X18542000Y-4532000D02*
X18542000Y-4612000D01*
X18502000Y-4572000D02*
X18582000Y-4572000D01*
X19304000Y-3770000D02*
X19304000Y-3850000D01*
X19264000Y-3810000D02*
X19344000Y-3810000D01*
X19304000Y-4024000D02*
X19304000Y-4104000D01*
X19264000Y-4064000D02*
X19344000Y-4064000D01*
X19304000Y-4278000D02*
X19304000Y-4358000D01*
X19264000Y-4318000D02*
X19344000Y-4318000D01*
X19304000Y-4532000D02*
X19304000Y-4612000D01*
X19264000Y-4572000D02*
X19344000Y-4572000D01*
X19304000Y-8596000D02*
X19304000Y-8676000D01*
X19264000Y-8636000D02*
X19344000Y-8636000D01*
X19558000Y-3770000D02*
X19558000Y-3850000D01*
X19518000Y-3810000D02*
X19598000Y-3810000D01*
X19558000Y-4024000D02*
X19558000Y-4104000D01*
X19518000Y-4064000D02*
X19598000Y-4064000D01*
X19558000Y-4278000D02*
X19558000Y-4358000D01*
X19518000Y-4318000D02*
X19598000Y-4318000D01*
X19558000Y-4532000D02*
X19558000Y-4612000D01*
X19518000Y-4572000D02*
X19598000Y-4572000D01*
X19685000Y-10374000D02*
X19685000Y-10454000D01*
X19645000Y-10414000D02*
X19725000Y-10414000D01*
X19685000Y-10628000D02*
X19685000Y-10708000D01*
X19645000Y-10668000D02*
X19725000Y-10668000D01*
X19685000Y-10882000D02*
X19685000Y-10962000D01*
X19645000Y-10922000D02*
X19725000Y-10922000D01*
X19685000Y-11136000D02*
X19685000Y-11216000D01*
X19645000Y-11176000D02*
X19725000Y-11176000D01*
X19685000Y-11390000D02*
X19685000Y-11470000D01*
X19645000Y-11430000D02*
X19725000Y-11430000D01*
X19685000Y-11644000D02*
X19685000Y-11724000D01*
X19645000Y-11684000D02*
X19725000Y-11684000D01*
X19685000Y-11898000D02*
X19685000Y-11978000D01*
X19645000Y-11938000D02*
X19725000Y-11938000D01*
X19685000Y-12152000D02*
X19685000Y-12232000D01*
X19645000Y-12192000D02*
X19725000Y-12192000D01*
X19685000Y-12406000D02*
X19685000Y-12486000D01*
X19645000Y-12446000D02*
X19725000Y-12446000D01*
X20066000Y-8596000D02*
X20066000Y-8676000D01*
X20026000Y-8636000D02*
X20106000Y-8636000D01*
X20320000Y-3770000D02*
X20320000Y-3850000D01*
X20280000Y-3810000D02*
X20360000Y-3810000D01*
X20320000Y-4024000D02*
X20320000Y-4104000D01*
X20280000Y-4064000D02*
X20360000Y-4064000D01*
X20320000Y-4278000D02*
X20320000Y-4358000D01*
X20280000Y-4318000D02*
X20360000Y-4318000D01*
X20320000Y-4532000D02*
X20320000Y-4612000D01*
X20280000Y-4572000D02*
X20360000Y-4572000D01*
X20447000Y-10374000D02*
X20447000Y-10454000D01*
X20407000Y-10414000D02*
X20487000Y-10414000D01*
X20447000Y-10628000D02*
X20447000Y-10708000D01*
X20407000Y-10668000D02*
X20487000Y-10668000D01*
X20447000Y-10882000D02*
X20447000Y-10962000D01*
X20407000Y-10922000D02*
X20487000Y-10922000D01*
X20447000Y-11136000D02*
X20447000Y-11216000D01*
X20407000Y-11176000D02*
X20487000Y-11176000D01*
X20447000Y-11390000D02*
X20447000Y-11470000D01*
X20407000Y-11430000D02*
X20487000Y-11430000D01*
X20447000Y-11644000D02*
X20447000Y-11724000D01*
X20407000Y-11684000D02*
X20487000Y-11684000D01*
X20447000Y-11898000D02*
X20447000Y-11978000D01*
X20407000Y-11938000D02*
X20487000Y-11938000D01*
X20447000Y-12152000D02*
X20447000Y-12232000D01*
X20407000Y-12192000D02*
X20487000Y-12192000D01*
X20447000Y-12406000D02*
X20447000Y-12486000D01*
X20407000Y-12446000D02*
X20487000Y-12446000D01*
D15*
X12731820Y-3333820D02*
X12731820Y-3270180D01*
X12668180Y-3270180D01*
X12668180Y-3333820D01*
X12731820Y-3333820D01*
X12731820Y-3587820D02*
X12731820Y-3524180D01*
X12668180Y-3524180D01*
X12668180Y-3587820D01*
X12731820Y-3587820D01*
X12731820Y-3841820D02*
X12731820Y-3778180D01*
X12668180Y-3778180D01*
X12668180Y-3841820D01*
X12731820Y-3841820D01*
X12731820Y-4603820D02*
X12731820Y-4540180D01*
X12668180Y-4540180D01*
X12668180Y-4603820D01*
X12731820Y-4603820D01*
X12731820Y-5365820D02*
X12731820Y-5302180D01*
X12668180Y-5302180D01*
X12668180Y-5365820D01*
X12731820Y-5365820D01*
X12731820Y-5619820D02*
X12731820Y-5556180D01*
X12668180Y-5556180D01*
X12668180Y-5619820D01*
X12731820Y-5619820D01*
X12731820Y-5873820D02*
X12731820Y-5810180D01*
X12668180Y-5810180D01*
X12668180Y-5873820D01*
X12731820Y-5873820D01*
X12731820Y-6635820D02*
X12731820Y-6572180D01*
X12668180Y-6572180D01*
X12668180Y-6635820D01*
X12731820Y-6635820D01*
X12731820Y-7397820D02*
X12731820Y-7334180D01*
X12668180Y-7334180D01*
X12668180Y-7397820D01*
X12731820Y-7397820D01*
X12731820Y-7651820D02*
X12731820Y-7588180D01*
X12668180Y-7588180D01*
X12668180Y-7651820D01*
X12731820Y-7651820D01*
X12731820Y-7905820D02*
X12731820Y-7842180D01*
X12668180Y-7842180D01*
X12668180Y-7905820D01*
X12731820Y-7905820D01*
X12731820Y-8667820D02*
X12731820Y-8604180D01*
X12668180Y-8604180D01*
X12668180Y-8667820D01*
X12731820Y-8667820D01*
X12731820Y-9429820D02*
X12731820Y-9366180D01*
X12668180Y-9366180D01*
X12668180Y-9429820D01*
X12731820Y-9429820D01*
X12731820Y-9683820D02*
X12731820Y-9620180D01*
X12668180Y-9620180D01*
X12668180Y-9683820D01*
X12731820Y-9683820D01*
X12731820Y-9937820D02*
X12731820Y-9874180D01*
X12668180Y-9874180D01*
X12668180Y-9937820D01*
X12731820Y-9937820D01*
X12731820Y-10699820D02*
X12731820Y-10636180D01*
X12668180Y-10636180D01*
X12668180Y-10699820D01*
X12731820Y-10699820D01*
X12731820Y-11461820D02*
X12731820Y-11398180D01*
X12668180Y-11398180D01*
X12668180Y-11461820D01*
X12731820Y-11461820D01*
X12731820Y-11715820D02*
X12731820Y-11652180D01*
X12668180Y-11652180D01*
X12668180Y-11715820D01*
X12731820Y-11715820D01*
X12731820Y-11969820D02*
X12731820Y-11906180D01*
X12668180Y-11906180D01*
X12668180Y-11969820D01*
X12731820Y-11969820D01*
X12731820Y-12731820D02*
X12731820Y-12668180D01*
X12668180Y-12668180D01*
X12668180Y-12731820D01*
X12731820Y-12731820D01*
X17303820Y-12477820D02*
X17303820Y-12414180D01*
X17240180Y-12414180D01*
X17240180Y-12477820D01*
X17303820Y-12477820D01*
X18065820Y-12477820D02*
X18065820Y-12414180D01*
X18002180Y-12414180D01*
X18002180Y-12477820D01*
X18065820Y-12477820D01*
X18573820Y-5365820D02*
X18573820Y-5302180D01*
X18510180Y-5302180D01*
X18510180Y-5365820D01*
X18573820Y-5365820D01*
X19335820Y-5365820D02*
X19335820Y-5302180D01*
X19272180Y-5302180D01*
X19272180Y-5365820D01*
X19335820Y-5365820D01*
X19589820Y-5365820D02*
X19589820Y-5302180D01*
X19526180Y-5302180D01*
X19526180Y-5365820D01*
X19589820Y-5365820D01*
X20351820Y-5365820D02*
X20351820Y-5302180D01*
X20288180Y-5302180D01*
X20288180Y-5365820D01*
X20351820Y-5365820D01*
D10*
X10521000Y-3352000D02*
X10571000Y-3302000D01*
X10521000Y-3252000D01*
X10471000Y-3302000D01*
X10521000Y-3352000D01*
X10521000Y-4552000D02*
X10571000Y-4502000D01*
X10521000Y-4452000D01*
X10471000Y-4502000D01*
X10521000Y-4552000D01*
X10521000Y-5384000D02*
X10571000Y-5334000D01*
X10521000Y-5284000D01*
X10471000Y-5334000D01*
X10521000Y-5384000D01*
X10521000Y-6584000D02*
X10571000Y-6534000D01*
X10521000Y-6484000D01*
X10471000Y-6534000D01*
X10521000Y-6584000D01*
X10521000Y-7416000D02*
X10571000Y-7366000D01*
X10521000Y-7316000D01*
X10471000Y-7366000D01*
X10521000Y-7416000D01*
X10521000Y-8616000D02*
X10571000Y-8566000D01*
X10521000Y-8516000D01*
X10471000Y-8566000D01*
X10521000Y-8616000D01*
X10521000Y-9448000D02*
X10571000Y-9398000D01*
X10521000Y-9348000D01*
X10471000Y-9398000D01*
X10521000Y-9448000D01*
X10521000Y-10648000D02*
X10571000Y-10598000D01*
X10521000Y-10548000D01*
X10471000Y-10598000D01*
X10521000Y-10648000D01*
X10521000Y-11480000D02*
X10571000Y-11430000D01*
X10521000Y-11380000D01*
X10471000Y-11430000D01*
X10521000Y-11480000D01*
X10521000Y-12680000D02*
X10571000Y-12630000D01*
X10521000Y-12580000D01*
X10471000Y-12630000D01*
X10521000Y-12680000D01*
X16256000Y-6908000D02*
X16306000Y-6858000D01*
X16256000Y-6808000D01*
X16206000Y-6858000D01*
X16256000Y-6908000D01*
X16756000Y-6908000D02*
X16806000Y-6858000D01*
X16756000Y-6808000D01*
X16706000Y-6858000D01*
X16756000Y-6908000D01*
X17534000Y-6908000D02*
X17584000Y-6858000D01*
X17534000Y-6808000D01*
X17484000Y-6858000D01*
X17534000Y-6908000D01*
X18034000Y-6908000D02*
X18084000Y-6858000D01*
X18034000Y-6808000D01*
X17984000Y-6858000D01*
X18034000Y-6908000D01*
X19177000Y-12242000D02*
X19227000Y-12192000D01*
X19177000Y-12142000D01*
X19127000Y-12192000D01*
X19177000Y-12242000D01*
X19177000Y-12496000D02*
X19227000Y-12446000D01*
X19177000Y-12396000D01*
X19127000Y-12446000D01*
X19177000Y-12496000D01*
D16*
X9079000Y-3745000D02*
X9209000Y-3875000D01*
X9209000Y-3745000D02*
X9079000Y-3875000D01*
X9209000Y-3810000D02*
G75*
G03*
X9209000Y-3810000I-65000J0D01*
G01*
X9079000Y-4245000D02*
X9209000Y-4375000D01*
X9209000Y-4245000D02*
X9079000Y-4375000D01*
X9209000Y-4310000D02*
G75*
G03*
X9209000Y-4310000I-65000J0D01*
G01*
X9079000Y-4745000D02*
X9209000Y-4875000D01*
X9209000Y-4745000D02*
X9079000Y-4875000D01*
X9209000Y-4810000D02*
G75*
G03*
X9209000Y-4810000I-65000J0D01*
G01*
X9079000Y-5245000D02*
X9209000Y-5375000D01*
X9209000Y-5245000D02*
X9079000Y-5375000D01*
X9209000Y-5310000D02*
G75*
G03*
X9209000Y-5310000I-65000J0D01*
G01*
X9079000Y-6031000D02*
X9209000Y-6161000D01*
X9209000Y-6031000D02*
X9079000Y-6161000D01*
X9209000Y-6096000D02*
G75*
G03*
X9209000Y-6096000I-65000J0D01*
G01*
X9079000Y-6531000D02*
X9209000Y-6661000D01*
X9209000Y-6531000D02*
X9079000Y-6661000D01*
X9209000Y-6596000D02*
G75*
G03*
X9209000Y-6596000I-65000J0D01*
G01*
X9079000Y-7031000D02*
X9209000Y-7161000D01*
X9209000Y-7031000D02*
X9079000Y-7161000D01*
X9209000Y-7096000D02*
G75*
G03*
X9209000Y-7096000I-65000J0D01*
G01*
X9079000Y-7531000D02*
X9209000Y-7661000D01*
X9209000Y-7531000D02*
X9079000Y-7661000D01*
X9209000Y-7596000D02*
G75*
G03*
X9209000Y-7596000I-65000J0D01*
G01*
X9079000Y-8317000D02*
X9209000Y-8447000D01*
X9209000Y-8317000D02*
X9079000Y-8447000D01*
X9209000Y-8382000D02*
G75*
G03*
X9209000Y-8382000I-65000J0D01*
G01*
X9079000Y-8817000D02*
X9209000Y-8947000D01*
X9209000Y-8817000D02*
X9079000Y-8947000D01*
X9209000Y-8882000D02*
G75*
G03*
X9209000Y-8882000I-65000J0D01*
G01*
X9079000Y-9317000D02*
X9209000Y-9447000D01*
X9209000Y-9317000D02*
X9079000Y-9447000D01*
X9209000Y-9382000D02*
G75*
G03*
X9209000Y-9382000I-65000J0D01*
G01*
X9079000Y-9817000D02*
X9209000Y-9947000D01*
X9209000Y-9817000D02*
X9079000Y-9947000D01*
X9209000Y-9882000D02*
G75*
G03*
X9209000Y-9882000I-65000J0D01*
G01*
X9079000Y-10603000D02*
X9209000Y-10733000D01*
X9209000Y-10603000D02*
X9079000Y-10733000D01*
X9209000Y-10668000D02*
G75*
G03*
X9209000Y-10668000I-65000J0D01*
G01*
X9079000Y-11103000D02*
X9209000Y-11233000D01*
X9209000Y-11103000D02*
X9079000Y-11233000D01*
X9209000Y-11168000D02*
G75*
G03*
X9209000Y-11168000I-65000J0D01*
G01*
X9079000Y-11603000D02*
X9209000Y-11733000D01*
X9209000Y-11603000D02*
X9079000Y-11733000D01*
X9209000Y-11668000D02*
G75*
G03*
X9209000Y-11668000I-65000J0D01*
G01*
X9079000Y-12103000D02*
X9209000Y-12233000D01*
X9209000Y-12103000D02*
X9079000Y-12233000D01*
X9209000Y-12168000D02*
G75*
G03*
X9209000Y-12168000I-65000J0D01*
G01*
X10261000Y-3832000D02*
X10391000Y-3962000D01*
X10391000Y-3832000D02*
X10261000Y-3962000D01*
X10391000Y-3897000D02*
G75*
G03*
X10391000Y-3897000I-65000J0D01*
G01*
X10261000Y-5864000D02*
X10391000Y-5994000D01*
X10391000Y-5864000D02*
X10261000Y-5994000D01*
X10391000Y-5929000D02*
G75*
G03*
X10391000Y-5929000I-65000J0D01*
G01*
X10261000Y-7896000D02*
X10391000Y-8026000D01*
X10391000Y-7896000D02*
X10261000Y-8026000D01*
X10391000Y-7961000D02*
G75*
G03*
X10391000Y-7961000I-65000J0D01*
G01*
X10261000Y-9928000D02*
X10391000Y-10058000D01*
X10391000Y-9928000D02*
X10261000Y-10058000D01*
X10391000Y-9993000D02*
G75*
G03*
X10391000Y-9993000I-65000J0D01*
G01*
X10261000Y-11960000D02*
X10391000Y-12090000D01*
X10391000Y-11960000D02*
X10261000Y-12090000D01*
X10391000Y-12025000D02*
G75*
G03*
X10391000Y-12025000I-65000J0D01*
G01*
X11676000Y-4437000D02*
X11806000Y-4567000D01*
X11806000Y-4437000D02*
X11676000Y-4567000D01*
X11806000Y-4502000D02*
G75*
G03*
X11806000Y-4502000I-65000J0D01*
G01*
X11676000Y-6469000D02*
X11806000Y-6599000D01*
X11806000Y-6469000D02*
X11676000Y-6599000D01*
X11806000Y-6534000D02*
G75*
G03*
X11806000Y-6534000I-65000J0D01*
G01*
X11676000Y-8501000D02*
X11806000Y-8631000D01*
X11806000Y-8501000D02*
X11676000Y-8631000D01*
X11806000Y-8566000D02*
G75*
G03*
X11806000Y-8566000I-65000J0D01*
G01*
X11676000Y-10533000D02*
X11806000Y-10663000D01*
X11806000Y-10533000D02*
X11676000Y-10663000D01*
X11806000Y-10598000D02*
G75*
G03*
X11806000Y-10598000I-65000J0D01*
G01*
X11676000Y-12565000D02*
X11806000Y-12695000D01*
X11806000Y-12565000D02*
X11676000Y-12695000D01*
X11806000Y-12630000D02*
G75*
G03*
X11806000Y-12630000I-65000J0D01*
G01*
X11681000Y-3232000D02*
X11811000Y-3362000D01*
X11811000Y-3232000D02*
X11681000Y-3362000D01*
X11811000Y-3297000D02*
G75*
G03*
X11811000Y-3297000I-65000J0D01*
G01*
X11681000Y-5264000D02*
X11811000Y-5394000D01*
X11811000Y-5264000D02*
X11681000Y-5394000D01*
X11811000Y-5329000D02*
G75*
G03*
X11811000Y-5329000I-65000J0D01*
G01*
X11681000Y-7296000D02*
X11811000Y-7426000D01*
X11811000Y-7296000D02*
X11681000Y-7426000D01*
X11811000Y-7361000D02*
G75*
G03*
X11811000Y-7361000I-65000J0D01*
G01*
X11681000Y-9328000D02*
X11811000Y-9458000D01*
X11811000Y-9328000D02*
X11681000Y-9458000D01*
X11811000Y-9393000D02*
G75*
G03*
X11811000Y-9393000I-65000J0D01*
G01*
X11681000Y-11360000D02*
X11811000Y-11490000D01*
X11811000Y-11360000D02*
X11681000Y-11490000D01*
X11811000Y-11425000D02*
G75*
G03*
X11811000Y-11425000I-65000J0D01*
G01*
X15961000Y-13651000D02*
X16091000Y-13781000D01*
X16091000Y-13651000D02*
X15961000Y-13781000D01*
X16091000Y-13716000D02*
G75*
G03*
X16091000Y-13716000I-65000J0D01*
G01*
X16461000Y-13651000D02*
X16591000Y-13781000D01*
X16591000Y-13651000D02*
X16461000Y-13781000D01*
X16591000Y-13716000D02*
G75*
G03*
X16591000Y-13716000I-65000J0D01*
G01*
X16961000Y-13651000D02*
X17091000Y-13781000D01*
X17091000Y-13651000D02*
X16961000Y-13781000D01*
X17091000Y-13716000D02*
G75*
G03*
X17091000Y-13716000I-65000J0D01*
G01*
X17461000Y-13651000D02*
X17591000Y-13781000D01*
X17591000Y-13651000D02*
X17461000Y-13781000D01*
X17591000Y-13716000D02*
G75*
G03*
X17591000Y-13716000I-65000J0D01*
G01*
X18235000Y-13651000D02*
X18365000Y-13781000D01*
X18365000Y-13651000D02*
X18235000Y-13781000D01*
X18365000Y-13716000D02*
G75*
G03*
X18365000Y-13716000I-65000J0D01*
G01*
X18735000Y-13651000D02*
X18865000Y-13781000D01*
X18865000Y-13651000D02*
X18735000Y-13781000D01*
X18865000Y-13716000D02*
G75*
G03*
X18865000Y-13716000I-65000J0D01*
G01*
X19235000Y-13651000D02*
X19365000Y-13781000D01*
X19365000Y-13651000D02*
X19235000Y-13781000D01*
X19365000Y-13716000D02*
G75*
G03*
X19365000Y-13716000I-65000J0D01*
G01*
X19735000Y-13651000D02*
X19865000Y-13781000D01*
X19865000Y-13651000D02*
X19735000Y-13781000D01*
X19865000Y-13716000D02*
G75*
G03*
X19865000Y-13716000I-65000J0D01*
G01*
D17*
X8730000Y-2634000D02*
X9050000Y-2954000D01*
X9050000Y-2634000D02*
X8730000Y-2954000D01*
X8890000Y-2634000D02*
X8890000Y-2954000D01*
X8730000Y-2794000D02*
X9050000Y-2794000D01*
X8730000Y-14826000D02*
X9050000Y-15146000D01*
X9050000Y-14826000D02*
X8730000Y-15146000D01*
X8890000Y-14826000D02*
X8890000Y-15146000D01*
X8730000Y-14986000D02*
X9050000Y-14986000D01*
X20160000Y-2634000D02*
X20480000Y-2954000D01*
X20480000Y-2634000D02*
X20160000Y-2954000D01*
X20320000Y-2634000D02*
X20320000Y-2954000D01*
X20160000Y-2794000D02*
X20480000Y-2794000D01*
X20160000Y-14826000D02*
X20480000Y-15146000D01*
X20480000Y-14826000D02*
X20160000Y-15146000D01*
X20320000Y-14826000D02*
X20320000Y-15146000D01*
X20160000Y-14986000D02*
X20480000Y-14986000D01*
D11*
X8637777Y-15810484D02*
X8637777Y-15610484D01*
X8637777Y-15610484D02*
X8685396Y-15610484D01*
X8685396Y-15610484D02*
X8713967Y-15620008D01*
X8713967Y-15620008D02*
X8733015Y-15639055D01*
X8733015Y-15639055D02*
X8742539Y-15658103D01*
X8742539Y-15658103D02*
X8752063Y-15696198D01*
X8752063Y-15696198D02*
X8752063Y-15724769D01*
X8752063Y-15724769D02*
X8742539Y-15762865D01*
X8742539Y-15762865D02*
X8733015Y-15781912D01*
X8733015Y-15781912D02*
X8713967Y-15800960D01*
X8713967Y-15800960D02*
X8685396Y-15810484D01*
X8685396Y-15810484D02*
X8637777Y-15810484D01*
X8837777Y-15810484D02*
X8837777Y-15677150D01*
X8837777Y-15715246D02*
X8847301Y-15696198D01*
X8847301Y-15696198D02*
X8856824Y-15686674D01*
X8856824Y-15686674D02*
X8875872Y-15677150D01*
X8875872Y-15677150D02*
X8894920Y-15677150D01*
X8961586Y-15810484D02*
X8961586Y-15677150D01*
X8961586Y-15610484D02*
X8952063Y-15620008D01*
X8952063Y-15620008D02*
X8961586Y-15629531D01*
X8961586Y-15629531D02*
X8971110Y-15620008D01*
X8971110Y-15620008D02*
X8961586Y-15610484D01*
X8961586Y-15610484D02*
X8961586Y-15629531D01*
X9085396Y-15810484D02*
X9066348Y-15800960D01*
X9066348Y-15800960D02*
X9056824Y-15781912D01*
X9056824Y-15781912D02*
X9056824Y-15610484D01*
X9190158Y-15810484D02*
X9171110Y-15800960D01*
X9171110Y-15800960D02*
X9161586Y-15781912D01*
X9161586Y-15781912D02*
X9161586Y-15610484D01*
X9418729Y-15810484D02*
X9418729Y-15610484D01*
X9418729Y-15610484D02*
X9485396Y-15753341D01*
X9485396Y-15753341D02*
X9552063Y-15610484D01*
X9552063Y-15610484D02*
X9552063Y-15810484D01*
X9733015Y-15810484D02*
X9733015Y-15705722D01*
X9733015Y-15705722D02*
X9723491Y-15686674D01*
X9723491Y-15686674D02*
X9704444Y-15677150D01*
X9704444Y-15677150D02*
X9666348Y-15677150D01*
X9666348Y-15677150D02*
X9647301Y-15686674D01*
X9733015Y-15800960D02*
X9713967Y-15810484D01*
X9713967Y-15810484D02*
X9666348Y-15810484D01*
X9666348Y-15810484D02*
X9647301Y-15800960D01*
X9647301Y-15800960D02*
X9637777Y-15781912D01*
X9637777Y-15781912D02*
X9637777Y-15762865D01*
X9637777Y-15762865D02*
X9647301Y-15743817D01*
X9647301Y-15743817D02*
X9666348Y-15734293D01*
X9666348Y-15734293D02*
X9713967Y-15734293D01*
X9713967Y-15734293D02*
X9733015Y-15724769D01*
X9828253Y-15677150D02*
X9828253Y-15877150D01*
X9828253Y-15686674D02*
X9847301Y-15677150D01*
X9847301Y-15677150D02*
X9885396Y-15677150D01*
X9885396Y-15677150D02*
X9904444Y-15686674D01*
X9904444Y-15686674D02*
X9913967Y-15696198D01*
X9913967Y-15696198D02*
X9923491Y-15715246D01*
X9923491Y-15715246D02*
X9923491Y-15772388D01*
X9923491Y-15772388D02*
X9913967Y-15791436D01*
X9913967Y-15791436D02*
X9904444Y-15800960D01*
X9904444Y-15800960D02*
X9885396Y-15810484D01*
X9885396Y-15810484D02*
X9847301Y-15810484D01*
X9847301Y-15810484D02*
X9828253Y-15800960D01*
X10009205Y-15791436D02*
X10018729Y-15800960D01*
X10018729Y-15800960D02*
X10009205Y-15810484D01*
X10009205Y-15810484D02*
X9999682Y-15800960D01*
X9999682Y-15800960D02*
X10009205Y-15791436D01*
X10009205Y-15791436D02*
X10009205Y-15810484D01*
X10009205Y-15686674D02*
X10018729Y-15696198D01*
X10018729Y-15696198D02*
X10009205Y-15705722D01*
X10009205Y-15705722D02*
X9999682Y-15696198D01*
X9999682Y-15696198D02*
X10009205Y-15686674D01*
X10009205Y-15686674D02*
X10009205Y-15705722D01*
D12*
X8302000Y-16101500D02*
X8377000Y-16176500D01*
X8377000Y-16101500D02*
X8302000Y-16176500D01*
D11*
X8675872Y-16030484D02*
X8694920Y-16030484D01*
X8694920Y-16030484D02*
X8713967Y-16040008D01*
X8713967Y-16040008D02*
X8723491Y-16049531D01*
X8723491Y-16049531D02*
X8733015Y-16068579D01*
X8733015Y-16068579D02*
X8742539Y-16106674D01*
X8742539Y-16106674D02*
X8742539Y-16154293D01*
X8742539Y-16154293D02*
X8733015Y-16192388D01*
X8733015Y-16192388D02*
X8723491Y-16211436D01*
X8723491Y-16211436D02*
X8713967Y-16220960D01*
X8713967Y-16220960D02*
X8694920Y-16230484D01*
X8694920Y-16230484D02*
X8675872Y-16230484D01*
X8675872Y-16230484D02*
X8656824Y-16220960D01*
X8656824Y-16220960D02*
X8647301Y-16211436D01*
X8647301Y-16211436D02*
X8637777Y-16192388D01*
X8637777Y-16192388D02*
X8628253Y-16154293D01*
X8628253Y-16154293D02*
X8628253Y-16106674D01*
X8628253Y-16106674D02*
X8637777Y-16068579D01*
X8637777Y-16068579D02*
X8647301Y-16049531D01*
X8647301Y-16049531D02*
X8656824Y-16040008D01*
X8656824Y-16040008D02*
X8675872Y-16030484D01*
X8828253Y-16211436D02*
X8837777Y-16220960D01*
X8837777Y-16220960D02*
X8828253Y-16230484D01*
X8828253Y-16230484D02*
X8818729Y-16220960D01*
X8818729Y-16220960D02*
X8828253Y-16211436D01*
X8828253Y-16211436D02*
X8828253Y-16230484D01*
X8904444Y-16030484D02*
X9037777Y-16030484D01*
X9037777Y-16030484D02*
X8952063Y-16230484D01*
X9209205Y-16030484D02*
X9113967Y-16030484D01*
X9113967Y-16030484D02*
X9104444Y-16125722D01*
X9104444Y-16125722D02*
X9113967Y-16116198D01*
X9113967Y-16116198D02*
X9133015Y-16106674D01*
X9133015Y-16106674D02*
X9180634Y-16106674D01*
X9180634Y-16106674D02*
X9199682Y-16116198D01*
X9199682Y-16116198D02*
X9209205Y-16125722D01*
X9209205Y-16125722D02*
X9218729Y-16144769D01*
X9218729Y-16144769D02*
X9218729Y-16192388D01*
X9218729Y-16192388D02*
X9209205Y-16211436D01*
X9209205Y-16211436D02*
X9199682Y-16220960D01*
X9199682Y-16220960D02*
X9180634Y-16230484D01*
X9180634Y-16230484D02*
X9133015Y-16230484D01*
X9133015Y-16230484D02*
X9113967Y-16220960D01*
X9113967Y-16220960D02*
X9104444Y-16211436D01*
X9342539Y-16030484D02*
X9361586Y-16030484D01*
X9361586Y-16030484D02*
X9380634Y-16040008D01*
X9380634Y-16040008D02*
X9390158Y-16049531D01*
X9390158Y-16049531D02*
X9399682Y-16068579D01*
X9399682Y-16068579D02*
X9409205Y-16106674D01*
X9409205Y-16106674D02*
X9409205Y-16154293D01*
X9409205Y-16154293D02*
X9399682Y-16192388D01*
X9399682Y-16192388D02*
X9390158Y-16211436D01*
X9390158Y-16211436D02*
X9380634Y-16220960D01*
X9380634Y-16220960D02*
X9361586Y-16230484D01*
X9361586Y-16230484D02*
X9342539Y-16230484D01*
X9342539Y-16230484D02*
X9323491Y-16220960D01*
X9323491Y-16220960D02*
X9313967Y-16211436D01*
X9313967Y-16211436D02*
X9304444Y-16192388D01*
X9304444Y-16192388D02*
X9294920Y-16154293D01*
X9294920Y-16154293D02*
X9294920Y-16106674D01*
X9294920Y-16106674D02*
X9304444Y-16068579D01*
X9304444Y-16068579D02*
X9313967Y-16049531D01*
X9313967Y-16049531D02*
X9323491Y-16040008D01*
X9323491Y-16040008D02*
X9342539Y-16030484D01*
X9494920Y-16230484D02*
X9494920Y-16097150D01*
X9494920Y-16116198D02*
X9504444Y-16106674D01*
X9504444Y-16106674D02*
X9523491Y-16097150D01*
X9523491Y-16097150D02*
X9552063Y-16097150D01*
X9552063Y-16097150D02*
X9571110Y-16106674D01*
X9571110Y-16106674D02*
X9580634Y-16125722D01*
X9580634Y-16125722D02*
X9580634Y-16230484D01*
X9580634Y-16125722D02*
X9590158Y-16106674D01*
X9590158Y-16106674D02*
X9609205Y-16097150D01*
X9609205Y-16097150D02*
X9637777Y-16097150D01*
X9637777Y-16097150D02*
X9656825Y-16106674D01*
X9656825Y-16106674D02*
X9666348Y-16125722D01*
X9666348Y-16125722D02*
X9666348Y-16230484D01*
X9761586Y-16230484D02*
X9761586Y-16097150D01*
X9761586Y-16116198D02*
X9771110Y-16106674D01*
X9771110Y-16106674D02*
X9790158Y-16097150D01*
X9790158Y-16097150D02*
X9818729Y-16097150D01*
X9818729Y-16097150D02*
X9837777Y-16106674D01*
X9837777Y-16106674D02*
X9847301Y-16125722D01*
X9847301Y-16125722D02*
X9847301Y-16230484D01*
X9847301Y-16125722D02*
X9856825Y-16106674D01*
X9856825Y-16106674D02*
X9875872Y-16097150D01*
X9875872Y-16097150D02*
X9904444Y-16097150D01*
X9904444Y-16097150D02*
X9923491Y-16106674D01*
X9923491Y-16106674D02*
X9933015Y-16125722D01*
X9933015Y-16125722D02*
X9933015Y-16230484D01*
X10323491Y-16020960D02*
X10152063Y-16278103D01*
X10580634Y-16030484D02*
X10599682Y-16030484D01*
X10599682Y-16030484D02*
X10618729Y-16040008D01*
X10618729Y-16040008D02*
X10628253Y-16049531D01*
X10628253Y-16049531D02*
X10637777Y-16068579D01*
X10637777Y-16068579D02*
X10647301Y-16106674D01*
X10647301Y-16106674D02*
X10647301Y-16154293D01*
X10647301Y-16154293D02*
X10637777Y-16192388D01*
X10637777Y-16192388D02*
X10628253Y-16211436D01*
X10628253Y-16211436D02*
X10618729Y-16220960D01*
X10618729Y-16220960D02*
X10599682Y-16230484D01*
X10599682Y-16230484D02*
X10580634Y-16230484D01*
X10580634Y-16230484D02*
X10561587Y-16220960D01*
X10561587Y-16220960D02*
X10552063Y-16211436D01*
X10552063Y-16211436D02*
X10542539Y-16192388D01*
X10542539Y-16192388D02*
X10533015Y-16154293D01*
X10533015Y-16154293D02*
X10533015Y-16106674D01*
X10533015Y-16106674D02*
X10542539Y-16068579D01*
X10542539Y-16068579D02*
X10552063Y-16049531D01*
X10552063Y-16049531D02*
X10561587Y-16040008D01*
X10561587Y-16040008D02*
X10580634Y-16030484D01*
X10733015Y-16211436D02*
X10742539Y-16220960D01*
X10742539Y-16220960D02*
X10733015Y-16230484D01*
X10733015Y-16230484D02*
X10723491Y-16220960D01*
X10723491Y-16220960D02*
X10733015Y-16211436D01*
X10733015Y-16211436D02*
X10733015Y-16230484D01*
X10866348Y-16030484D02*
X10885396Y-16030484D01*
X10885396Y-16030484D02*
X10904444Y-16040008D01*
X10904444Y-16040008D02*
X10913968Y-16049531D01*
X10913968Y-16049531D02*
X10923491Y-16068579D01*
X10923491Y-16068579D02*
X10933015Y-16106674D01*
X10933015Y-16106674D02*
X10933015Y-16154293D01*
X10933015Y-16154293D02*
X10923491Y-16192388D01*
X10923491Y-16192388D02*
X10913968Y-16211436D01*
X10913968Y-16211436D02*
X10904444Y-16220960D01*
X10904444Y-16220960D02*
X10885396Y-16230484D01*
X10885396Y-16230484D02*
X10866348Y-16230484D01*
X10866348Y-16230484D02*
X10847301Y-16220960D01*
X10847301Y-16220960D02*
X10837777Y-16211436D01*
X10837777Y-16211436D02*
X10828253Y-16192388D01*
X10828253Y-16192388D02*
X10818729Y-16154293D01*
X10818729Y-16154293D02*
X10818729Y-16106674D01*
X10818729Y-16106674D02*
X10828253Y-16068579D01*
X10828253Y-16068579D02*
X10837777Y-16049531D01*
X10837777Y-16049531D02*
X10847301Y-16040008D01*
X10847301Y-16040008D02*
X10866348Y-16030484D01*
X11009206Y-16049531D02*
X11018729Y-16040008D01*
X11018729Y-16040008D02*
X11037777Y-16030484D01*
X11037777Y-16030484D02*
X11085396Y-16030484D01*
X11085396Y-16030484D02*
X11104444Y-16040008D01*
X11104444Y-16040008D02*
X11113968Y-16049531D01*
X11113968Y-16049531D02*
X11123491Y-16068579D01*
X11123491Y-16068579D02*
X11123491Y-16087627D01*
X11123491Y-16087627D02*
X11113968Y-16116198D01*
X11113968Y-16116198D02*
X10999682Y-16230484D01*
X10999682Y-16230484D02*
X11123491Y-16230484D01*
X11218729Y-16230484D02*
X11256825Y-16230484D01*
X11256825Y-16230484D02*
X11275872Y-16220960D01*
X11275872Y-16220960D02*
X11285396Y-16211436D01*
X11285396Y-16211436D02*
X11304444Y-16182865D01*
X11304444Y-16182865D02*
X11313967Y-16144769D01*
X11313967Y-16144769D02*
X11313967Y-16068579D01*
X11313967Y-16068579D02*
X11304444Y-16049531D01*
X11304444Y-16049531D02*
X11294920Y-16040008D01*
X11294920Y-16040008D02*
X11275872Y-16030484D01*
X11275872Y-16030484D02*
X11237777Y-16030484D01*
X11237777Y-16030484D02*
X11218729Y-16040008D01*
X11218729Y-16040008D02*
X11209206Y-16049531D01*
X11209206Y-16049531D02*
X11199682Y-16068579D01*
X11199682Y-16068579D02*
X11199682Y-16116198D01*
X11199682Y-16116198D02*
X11209206Y-16135246D01*
X11209206Y-16135246D02*
X11218729Y-16144769D01*
X11218729Y-16144769D02*
X11237777Y-16154293D01*
X11237777Y-16154293D02*
X11275872Y-16154293D01*
X11275872Y-16154293D02*
X11294920Y-16144769D01*
X11294920Y-16144769D02*
X11304444Y-16135246D01*
X11304444Y-16135246D02*
X11313967Y-16116198D01*
X11494920Y-16030484D02*
X11399682Y-16030484D01*
X11399682Y-16030484D02*
X11390158Y-16125722D01*
X11390158Y-16125722D02*
X11399682Y-16116198D01*
X11399682Y-16116198D02*
X11418729Y-16106674D01*
X11418729Y-16106674D02*
X11466348Y-16106674D01*
X11466348Y-16106674D02*
X11485396Y-16116198D01*
X11485396Y-16116198D02*
X11494920Y-16125722D01*
X11494920Y-16125722D02*
X11504444Y-16144769D01*
X11504444Y-16144769D02*
X11504444Y-16192388D01*
X11504444Y-16192388D02*
X11494920Y-16211436D01*
X11494920Y-16211436D02*
X11485396Y-16220960D01*
X11485396Y-16220960D02*
X11466348Y-16230484D01*
X11466348Y-16230484D02*
X11418729Y-16230484D01*
X11418729Y-16230484D02*
X11399682Y-16220960D01*
X11399682Y-16220960D02*
X11390158Y-16211436D01*
X11580634Y-16030484D02*
X11580634Y-16068579D01*
X11656825Y-16030484D02*
X11656825Y-16068579D01*
X11952063Y-16306674D02*
X11942539Y-16297150D01*
X11942539Y-16297150D02*
X11923491Y-16268579D01*
X11923491Y-16268579D02*
X11913968Y-16249531D01*
X11913968Y-16249531D02*
X11904444Y-16220960D01*
X11904444Y-16220960D02*
X11894920Y-16173341D01*
X11894920Y-16173341D02*
X11894920Y-16135246D01*
X11894920Y-16135246D02*
X11904444Y-16087627D01*
X11904444Y-16087627D02*
X11913968Y-16059055D01*
X11913968Y-16059055D02*
X11923491Y-16040008D01*
X11923491Y-16040008D02*
X11942539Y-16011436D01*
X11942539Y-16011436D02*
X11952063Y-16001912D01*
X12133015Y-16230484D02*
X12018729Y-16230484D01*
X12075872Y-16230484D02*
X12075872Y-16030484D01*
X12075872Y-16030484D02*
X12056825Y-16059055D01*
X12056825Y-16059055D02*
X12037777Y-16078103D01*
X12037777Y-16078103D02*
X12018729Y-16087627D01*
X12313968Y-16030484D02*
X12218729Y-16030484D01*
X12218729Y-16030484D02*
X12209206Y-16125722D01*
X12209206Y-16125722D02*
X12218729Y-16116198D01*
X12218729Y-16116198D02*
X12237777Y-16106674D01*
X12237777Y-16106674D02*
X12285396Y-16106674D01*
X12285396Y-16106674D02*
X12304444Y-16116198D01*
X12304444Y-16116198D02*
X12313968Y-16125722D01*
X12313968Y-16125722D02*
X12323491Y-16144769D01*
X12323491Y-16144769D02*
X12323491Y-16192388D01*
X12323491Y-16192388D02*
X12313968Y-16211436D01*
X12313968Y-16211436D02*
X12304444Y-16220960D01*
X12304444Y-16220960D02*
X12285396Y-16230484D01*
X12285396Y-16230484D02*
X12237777Y-16230484D01*
X12237777Y-16230484D02*
X12218729Y-16220960D01*
X12218729Y-16220960D02*
X12209206Y-16211436D01*
X12561587Y-16230484D02*
X12561587Y-16030484D01*
X12647301Y-16230484D02*
X12647301Y-16125722D01*
X12647301Y-16125722D02*
X12637777Y-16106674D01*
X12637777Y-16106674D02*
X12618730Y-16097150D01*
X12618730Y-16097150D02*
X12590158Y-16097150D01*
X12590158Y-16097150D02*
X12571110Y-16106674D01*
X12571110Y-16106674D02*
X12561587Y-16116198D01*
X12771110Y-16230484D02*
X12752063Y-16220960D01*
X12752063Y-16220960D02*
X12742539Y-16211436D01*
X12742539Y-16211436D02*
X12733015Y-16192388D01*
X12733015Y-16192388D02*
X12733015Y-16135246D01*
X12733015Y-16135246D02*
X12742539Y-16116198D01*
X12742539Y-16116198D02*
X12752063Y-16106674D01*
X12752063Y-16106674D02*
X12771110Y-16097150D01*
X12771110Y-16097150D02*
X12799682Y-16097150D01*
X12799682Y-16097150D02*
X12818730Y-16106674D01*
X12818730Y-16106674D02*
X12828253Y-16116198D01*
X12828253Y-16116198D02*
X12837777Y-16135246D01*
X12837777Y-16135246D02*
X12837777Y-16192388D01*
X12837777Y-16192388D02*
X12828253Y-16211436D01*
X12828253Y-16211436D02*
X12818730Y-16220960D01*
X12818730Y-16220960D02*
X12799682Y-16230484D01*
X12799682Y-16230484D02*
X12771110Y-16230484D01*
X12952063Y-16230484D02*
X12933015Y-16220960D01*
X12933015Y-16220960D02*
X12923491Y-16201912D01*
X12923491Y-16201912D02*
X12923491Y-16030484D01*
X13104444Y-16220960D02*
X13085396Y-16230484D01*
X13085396Y-16230484D02*
X13047301Y-16230484D01*
X13047301Y-16230484D02*
X13028253Y-16220960D01*
X13028253Y-16220960D02*
X13018730Y-16201912D01*
X13018730Y-16201912D02*
X13018730Y-16125722D01*
X13018730Y-16125722D02*
X13028253Y-16106674D01*
X13028253Y-16106674D02*
X13047301Y-16097150D01*
X13047301Y-16097150D02*
X13085396Y-16097150D01*
X13085396Y-16097150D02*
X13104444Y-16106674D01*
X13104444Y-16106674D02*
X13113968Y-16125722D01*
X13113968Y-16125722D02*
X13113968Y-16144769D01*
X13113968Y-16144769D02*
X13018730Y-16163817D01*
X13190158Y-16220960D02*
X13209206Y-16230484D01*
X13209206Y-16230484D02*
X13247301Y-16230484D01*
X13247301Y-16230484D02*
X13266349Y-16220960D01*
X13266349Y-16220960D02*
X13275872Y-16201912D01*
X13275872Y-16201912D02*
X13275872Y-16192388D01*
X13275872Y-16192388D02*
X13266349Y-16173341D01*
X13266349Y-16173341D02*
X13247301Y-16163817D01*
X13247301Y-16163817D02*
X13218730Y-16163817D01*
X13218730Y-16163817D02*
X13199682Y-16154293D01*
X13199682Y-16154293D02*
X13190158Y-16135246D01*
X13190158Y-16135246D02*
X13190158Y-16125722D01*
X13190158Y-16125722D02*
X13199682Y-16106674D01*
X13199682Y-16106674D02*
X13218730Y-16097150D01*
X13218730Y-16097150D02*
X13247301Y-16097150D01*
X13247301Y-16097150D02*
X13266349Y-16106674D01*
X13342539Y-16306674D02*
X13352063Y-16297150D01*
X13352063Y-16297150D02*
X13371111Y-16268579D01*
X13371111Y-16268579D02*
X13380634Y-16249531D01*
X13380634Y-16249531D02*
X13390158Y-16220960D01*
X13390158Y-16220960D02*
X13399682Y-16173341D01*
X13399682Y-16173341D02*
X13399682Y-16135246D01*
X13399682Y-16135246D02*
X13390158Y-16087627D01*
X13390158Y-16087627D02*
X13380634Y-16059055D01*
X13380634Y-16059055D02*
X13371111Y-16040008D01*
X13371111Y-16040008D02*
X13352063Y-16011436D01*
X13352063Y-16011436D02*
X13342539Y-16001912D01*
D13*
X8377000Y-16403000D02*
G75*
G03*
X8377000Y-16403000I-38100J0D01*
G01*
D11*
X8675872Y-16294484D02*
X8694920Y-16294484D01*
X8694920Y-16294484D02*
X8713967Y-16304008D01*
X8713967Y-16304008D02*
X8723491Y-16313531D01*
X8723491Y-16313531D02*
X8733015Y-16332579D01*
X8733015Y-16332579D02*
X8742539Y-16370674D01*
X8742539Y-16370674D02*
X8742539Y-16418293D01*
X8742539Y-16418293D02*
X8733015Y-16456388D01*
X8733015Y-16456388D02*
X8723491Y-16475436D01*
X8723491Y-16475436D02*
X8713967Y-16484960D01*
X8713967Y-16484960D02*
X8694920Y-16494484D01*
X8694920Y-16494484D02*
X8675872Y-16494484D01*
X8675872Y-16494484D02*
X8656824Y-16484960D01*
X8656824Y-16484960D02*
X8647301Y-16475436D01*
X8647301Y-16475436D02*
X8637777Y-16456388D01*
X8637777Y-16456388D02*
X8628253Y-16418293D01*
X8628253Y-16418293D02*
X8628253Y-16370674D01*
X8628253Y-16370674D02*
X8637777Y-16332579D01*
X8637777Y-16332579D02*
X8647301Y-16313531D01*
X8647301Y-16313531D02*
X8656824Y-16304008D01*
X8656824Y-16304008D02*
X8675872Y-16294484D01*
X8828253Y-16475436D02*
X8837777Y-16484960D01*
X8837777Y-16484960D02*
X8828253Y-16494484D01*
X8828253Y-16494484D02*
X8818729Y-16484960D01*
X8818729Y-16484960D02*
X8828253Y-16475436D01*
X8828253Y-16475436D02*
X8828253Y-16494484D01*
X8904444Y-16294484D02*
X9037777Y-16294484D01*
X9037777Y-16294484D02*
X8952063Y-16494484D01*
X9199682Y-16294484D02*
X9161586Y-16294484D01*
X9161586Y-16294484D02*
X9142539Y-16304008D01*
X9142539Y-16304008D02*
X9133015Y-16313531D01*
X9133015Y-16313531D02*
X9113967Y-16342103D01*
X9113967Y-16342103D02*
X9104444Y-16380198D01*
X9104444Y-16380198D02*
X9104444Y-16456388D01*
X9104444Y-16456388D02*
X9113967Y-16475436D01*
X9113967Y-16475436D02*
X9123491Y-16484960D01*
X9123491Y-16484960D02*
X9142539Y-16494484D01*
X9142539Y-16494484D02*
X9180634Y-16494484D01*
X9180634Y-16494484D02*
X9199682Y-16484960D01*
X9199682Y-16484960D02*
X9209205Y-16475436D01*
X9209205Y-16475436D02*
X9218729Y-16456388D01*
X9218729Y-16456388D02*
X9218729Y-16408769D01*
X9218729Y-16408769D02*
X9209205Y-16389722D01*
X9209205Y-16389722D02*
X9199682Y-16380198D01*
X9199682Y-16380198D02*
X9180634Y-16370674D01*
X9180634Y-16370674D02*
X9142539Y-16370674D01*
X9142539Y-16370674D02*
X9123491Y-16380198D01*
X9123491Y-16380198D02*
X9113967Y-16389722D01*
X9113967Y-16389722D02*
X9104444Y-16408769D01*
X9294920Y-16313531D02*
X9304444Y-16304008D01*
X9304444Y-16304008D02*
X9323491Y-16294484D01*
X9323491Y-16294484D02*
X9371110Y-16294484D01*
X9371110Y-16294484D02*
X9390158Y-16304008D01*
X9390158Y-16304008D02*
X9399682Y-16313531D01*
X9399682Y-16313531D02*
X9409205Y-16332579D01*
X9409205Y-16332579D02*
X9409205Y-16351627D01*
X9409205Y-16351627D02*
X9399682Y-16380198D01*
X9399682Y-16380198D02*
X9285396Y-16494484D01*
X9285396Y-16494484D02*
X9409205Y-16494484D01*
X9494920Y-16494484D02*
X9494920Y-16361150D01*
X9494920Y-16380198D02*
X9504444Y-16370674D01*
X9504444Y-16370674D02*
X9523491Y-16361150D01*
X9523491Y-16361150D02*
X9552063Y-16361150D01*
X9552063Y-16361150D02*
X9571110Y-16370674D01*
X9571110Y-16370674D02*
X9580634Y-16389722D01*
X9580634Y-16389722D02*
X9580634Y-16494484D01*
X9580634Y-16389722D02*
X9590158Y-16370674D01*
X9590158Y-16370674D02*
X9609205Y-16361150D01*
X9609205Y-16361150D02*
X9637777Y-16361150D01*
X9637777Y-16361150D02*
X9656825Y-16370674D01*
X9656825Y-16370674D02*
X9666348Y-16389722D01*
X9666348Y-16389722D02*
X9666348Y-16494484D01*
X9761586Y-16494484D02*
X9761586Y-16361150D01*
X9761586Y-16380198D02*
X9771110Y-16370674D01*
X9771110Y-16370674D02*
X9790158Y-16361150D01*
X9790158Y-16361150D02*
X9818729Y-16361150D01*
X9818729Y-16361150D02*
X9837777Y-16370674D01*
X9837777Y-16370674D02*
X9847301Y-16389722D01*
X9847301Y-16389722D02*
X9847301Y-16494484D01*
X9847301Y-16389722D02*
X9856825Y-16370674D01*
X9856825Y-16370674D02*
X9875872Y-16361150D01*
X9875872Y-16361150D02*
X9904444Y-16361150D01*
X9904444Y-16361150D02*
X9923491Y-16370674D01*
X9923491Y-16370674D02*
X9933015Y-16389722D01*
X9933015Y-16389722D02*
X9933015Y-16494484D01*
X10323491Y-16284960D02*
X10152063Y-16542103D01*
X10580634Y-16294484D02*
X10599682Y-16294484D01*
X10599682Y-16294484D02*
X10618729Y-16304008D01*
X10618729Y-16304008D02*
X10628253Y-16313531D01*
X10628253Y-16313531D02*
X10637777Y-16332579D01*
X10637777Y-16332579D02*
X10647301Y-16370674D01*
X10647301Y-16370674D02*
X10647301Y-16418293D01*
X10647301Y-16418293D02*
X10637777Y-16456388D01*
X10637777Y-16456388D02*
X10628253Y-16475436D01*
X10628253Y-16475436D02*
X10618729Y-16484960D01*
X10618729Y-16484960D02*
X10599682Y-16494484D01*
X10599682Y-16494484D02*
X10580634Y-16494484D01*
X10580634Y-16494484D02*
X10561587Y-16484960D01*
X10561587Y-16484960D02*
X10552063Y-16475436D01*
X10552063Y-16475436D02*
X10542539Y-16456388D01*
X10542539Y-16456388D02*
X10533015Y-16418293D01*
X10533015Y-16418293D02*
X10533015Y-16370674D01*
X10533015Y-16370674D02*
X10542539Y-16332579D01*
X10542539Y-16332579D02*
X10552063Y-16313531D01*
X10552063Y-16313531D02*
X10561587Y-16304008D01*
X10561587Y-16304008D02*
X10580634Y-16294484D01*
X10733015Y-16475436D02*
X10742539Y-16484960D01*
X10742539Y-16484960D02*
X10733015Y-16494484D01*
X10733015Y-16494484D02*
X10723491Y-16484960D01*
X10723491Y-16484960D02*
X10733015Y-16475436D01*
X10733015Y-16475436D02*
X10733015Y-16494484D01*
X10866348Y-16294484D02*
X10885396Y-16294484D01*
X10885396Y-16294484D02*
X10904444Y-16304008D01*
X10904444Y-16304008D02*
X10913968Y-16313531D01*
X10913968Y-16313531D02*
X10923491Y-16332579D01*
X10923491Y-16332579D02*
X10933015Y-16370674D01*
X10933015Y-16370674D02*
X10933015Y-16418293D01*
X10933015Y-16418293D02*
X10923491Y-16456388D01*
X10923491Y-16456388D02*
X10913968Y-16475436D01*
X10913968Y-16475436D02*
X10904444Y-16484960D01*
X10904444Y-16484960D02*
X10885396Y-16494484D01*
X10885396Y-16494484D02*
X10866348Y-16494484D01*
X10866348Y-16494484D02*
X10847301Y-16484960D01*
X10847301Y-16484960D02*
X10837777Y-16475436D01*
X10837777Y-16475436D02*
X10828253Y-16456388D01*
X10828253Y-16456388D02*
X10818729Y-16418293D01*
X10818729Y-16418293D02*
X10818729Y-16370674D01*
X10818729Y-16370674D02*
X10828253Y-16332579D01*
X10828253Y-16332579D02*
X10837777Y-16313531D01*
X10837777Y-16313531D02*
X10847301Y-16304008D01*
X10847301Y-16304008D02*
X10866348Y-16294484D01*
X10999682Y-16294484D02*
X11123491Y-16294484D01*
X11123491Y-16294484D02*
X11056825Y-16370674D01*
X11056825Y-16370674D02*
X11085396Y-16370674D01*
X11085396Y-16370674D02*
X11104444Y-16380198D01*
X11104444Y-16380198D02*
X11113968Y-16389722D01*
X11113968Y-16389722D02*
X11123491Y-16408769D01*
X11123491Y-16408769D02*
X11123491Y-16456388D01*
X11123491Y-16456388D02*
X11113968Y-16475436D01*
X11113968Y-16475436D02*
X11104444Y-16484960D01*
X11104444Y-16484960D02*
X11085396Y-16494484D01*
X11085396Y-16494484D02*
X11028253Y-16494484D01*
X11028253Y-16494484D02*
X11009206Y-16484960D01*
X11009206Y-16484960D02*
X10999682Y-16475436D01*
X11247301Y-16294484D02*
X11266348Y-16294484D01*
X11266348Y-16294484D02*
X11285396Y-16304008D01*
X11285396Y-16304008D02*
X11294920Y-16313531D01*
X11294920Y-16313531D02*
X11304444Y-16332579D01*
X11304444Y-16332579D02*
X11313967Y-16370674D01*
X11313967Y-16370674D02*
X11313967Y-16418293D01*
X11313967Y-16418293D02*
X11304444Y-16456388D01*
X11304444Y-16456388D02*
X11294920Y-16475436D01*
X11294920Y-16475436D02*
X11285396Y-16484960D01*
X11285396Y-16484960D02*
X11266348Y-16494484D01*
X11266348Y-16494484D02*
X11247301Y-16494484D01*
X11247301Y-16494484D02*
X11228253Y-16484960D01*
X11228253Y-16484960D02*
X11218729Y-16475436D01*
X11218729Y-16475436D02*
X11209206Y-16456388D01*
X11209206Y-16456388D02*
X11199682Y-16418293D01*
X11199682Y-16418293D02*
X11199682Y-16370674D01*
X11199682Y-16370674D02*
X11209206Y-16332579D01*
X11209206Y-16332579D02*
X11218729Y-16313531D01*
X11218729Y-16313531D02*
X11228253Y-16304008D01*
X11228253Y-16304008D02*
X11247301Y-16294484D01*
X11437777Y-16294484D02*
X11456825Y-16294484D01*
X11456825Y-16294484D02*
X11475872Y-16304008D01*
X11475872Y-16304008D02*
X11485396Y-16313531D01*
X11485396Y-16313531D02*
X11494920Y-16332579D01*
X11494920Y-16332579D02*
X11504444Y-16370674D01*
X11504444Y-16370674D02*
X11504444Y-16418293D01*
X11504444Y-16418293D02*
X11494920Y-16456388D01*
X11494920Y-16456388D02*
X11485396Y-16475436D01*
X11485396Y-16475436D02*
X11475872Y-16484960D01*
X11475872Y-16484960D02*
X11456825Y-16494484D01*
X11456825Y-16494484D02*
X11437777Y-16494484D01*
X11437777Y-16494484D02*
X11418729Y-16484960D01*
X11418729Y-16484960D02*
X11409206Y-16475436D01*
X11409206Y-16475436D02*
X11399682Y-16456388D01*
X11399682Y-16456388D02*
X11390158Y-16418293D01*
X11390158Y-16418293D02*
X11390158Y-16370674D01*
X11390158Y-16370674D02*
X11399682Y-16332579D01*
X11399682Y-16332579D02*
X11409206Y-16313531D01*
X11409206Y-16313531D02*
X11418729Y-16304008D01*
X11418729Y-16304008D02*
X11437777Y-16294484D01*
X11580634Y-16294484D02*
X11580634Y-16332579D01*
X11656825Y-16294484D02*
X11656825Y-16332579D01*
X11952063Y-16570674D02*
X11942539Y-16561150D01*
X11942539Y-16561150D02*
X11923491Y-16532579D01*
X11923491Y-16532579D02*
X11913968Y-16513531D01*
X11913968Y-16513531D02*
X11904444Y-16484960D01*
X11904444Y-16484960D02*
X11894920Y-16437341D01*
X11894920Y-16437341D02*
X11894920Y-16399246D01*
X11894920Y-16399246D02*
X11904444Y-16351627D01*
X11904444Y-16351627D02*
X11913968Y-16323055D01*
X11913968Y-16323055D02*
X11923491Y-16304008D01*
X11923491Y-16304008D02*
X11942539Y-16275436D01*
X11942539Y-16275436D02*
X11952063Y-16265912D01*
X12113968Y-16294484D02*
X12075872Y-16294484D01*
X12075872Y-16294484D02*
X12056825Y-16304008D01*
X12056825Y-16304008D02*
X12047301Y-16313531D01*
X12047301Y-16313531D02*
X12028253Y-16342103D01*
X12028253Y-16342103D02*
X12018729Y-16380198D01*
X12018729Y-16380198D02*
X12018729Y-16456388D01*
X12018729Y-16456388D02*
X12028253Y-16475436D01*
X12028253Y-16475436D02*
X12037777Y-16484960D01*
X12037777Y-16484960D02*
X12056825Y-16494484D01*
X12056825Y-16494484D02*
X12094920Y-16494484D01*
X12094920Y-16494484D02*
X12113968Y-16484960D01*
X12113968Y-16484960D02*
X12123491Y-16475436D01*
X12123491Y-16475436D02*
X12133015Y-16456388D01*
X12133015Y-16456388D02*
X12133015Y-16408769D01*
X12133015Y-16408769D02*
X12123491Y-16389722D01*
X12123491Y-16389722D02*
X12113968Y-16380198D01*
X12113968Y-16380198D02*
X12094920Y-16370674D01*
X12094920Y-16370674D02*
X12056825Y-16370674D01*
X12056825Y-16370674D02*
X12037777Y-16380198D01*
X12037777Y-16380198D02*
X12028253Y-16389722D01*
X12028253Y-16389722D02*
X12018729Y-16408769D01*
X12371110Y-16494484D02*
X12371110Y-16294484D01*
X12456825Y-16494484D02*
X12456825Y-16389722D01*
X12456825Y-16389722D02*
X12447301Y-16370674D01*
X12447301Y-16370674D02*
X12428253Y-16361150D01*
X12428253Y-16361150D02*
X12399682Y-16361150D01*
X12399682Y-16361150D02*
X12380634Y-16370674D01*
X12380634Y-16370674D02*
X12371110Y-16380198D01*
X12580634Y-16494484D02*
X12561587Y-16484960D01*
X12561587Y-16484960D02*
X12552063Y-16475436D01*
X12552063Y-16475436D02*
X12542539Y-16456388D01*
X12542539Y-16456388D02*
X12542539Y-16399246D01*
X12542539Y-16399246D02*
X12552063Y-16380198D01*
X12552063Y-16380198D02*
X12561587Y-16370674D01*
X12561587Y-16370674D02*
X12580634Y-16361150D01*
X12580634Y-16361150D02*
X12609206Y-16361150D01*
X12609206Y-16361150D02*
X12628253Y-16370674D01*
X12628253Y-16370674D02*
X12637777Y-16380198D01*
X12637777Y-16380198D02*
X12647301Y-16399246D01*
X12647301Y-16399246D02*
X12647301Y-16456388D01*
X12647301Y-16456388D02*
X12637777Y-16475436D01*
X12637777Y-16475436D02*
X12628253Y-16484960D01*
X12628253Y-16484960D02*
X12609206Y-16494484D01*
X12609206Y-16494484D02*
X12580634Y-16494484D01*
X12761587Y-16494484D02*
X12742539Y-16484960D01*
X12742539Y-16484960D02*
X12733015Y-16465912D01*
X12733015Y-16465912D02*
X12733015Y-16294484D01*
X12913968Y-16484960D02*
X12894920Y-16494484D01*
X12894920Y-16494484D02*
X12856825Y-16494484D01*
X12856825Y-16494484D02*
X12837777Y-16484960D01*
X12837777Y-16484960D02*
X12828253Y-16465912D01*
X12828253Y-16465912D02*
X12828253Y-16389722D01*
X12828253Y-16389722D02*
X12837777Y-16370674D01*
X12837777Y-16370674D02*
X12856825Y-16361150D01*
X12856825Y-16361150D02*
X12894920Y-16361150D01*
X12894920Y-16361150D02*
X12913968Y-16370674D01*
X12913968Y-16370674D02*
X12923491Y-16389722D01*
X12923491Y-16389722D02*
X12923491Y-16408769D01*
X12923491Y-16408769D02*
X12828253Y-16427817D01*
X12999682Y-16484960D02*
X13018730Y-16494484D01*
X13018730Y-16494484D02*
X13056825Y-16494484D01*
X13056825Y-16494484D02*
X13075872Y-16484960D01*
X13075872Y-16484960D02*
X13085396Y-16465912D01*
X13085396Y-16465912D02*
X13085396Y-16456388D01*
X13085396Y-16456388D02*
X13075872Y-16437341D01*
X13075872Y-16437341D02*
X13056825Y-16427817D01*
X13056825Y-16427817D02*
X13028253Y-16427817D01*
X13028253Y-16427817D02*
X13009206Y-16418293D01*
X13009206Y-16418293D02*
X12999682Y-16399246D01*
X12999682Y-16399246D02*
X12999682Y-16389722D01*
X12999682Y-16389722D02*
X13009206Y-16370674D01*
X13009206Y-16370674D02*
X13028253Y-16361150D01*
X13028253Y-16361150D02*
X13056825Y-16361150D01*
X13056825Y-16361150D02*
X13075872Y-16370674D01*
X13152063Y-16570674D02*
X13161587Y-16561150D01*
X13161587Y-16561150D02*
X13180634Y-16532579D01*
X13180634Y-16532579D02*
X13190158Y-16513531D01*
X13190158Y-16513531D02*
X13199682Y-16484960D01*
X13199682Y-16484960D02*
X13209206Y-16437341D01*
X13209206Y-16437341D02*
X13209206Y-16399246D01*
X13209206Y-16399246D02*
X13199682Y-16351627D01*
X13199682Y-16351627D02*
X13190158Y-16323055D01*
X13190158Y-16323055D02*
X13180634Y-16304008D01*
X13180634Y-16304008D02*
X13161587Y-16275436D01*
X13161587Y-16275436D02*
X13152063Y-16265912D01*
D14*
X8337000Y-16627000D02*
X8337000Y-16707000D01*
X8297000Y-16667000D02*
X8377000Y-16667000D01*
D11*
X8675872Y-16558484D02*
X8694920Y-16558484D01*
X8694920Y-16558484D02*
X8713967Y-16568008D01*
X8713967Y-16568008D02*
X8723491Y-16577531D01*
X8723491Y-16577531D02*
X8733015Y-16596579D01*
X8733015Y-16596579D02*
X8742539Y-16634674D01*
X8742539Y-16634674D02*
X8742539Y-16682293D01*
X8742539Y-16682293D02*
X8733015Y-16720388D01*
X8733015Y-16720388D02*
X8723491Y-16739436D01*
X8723491Y-16739436D02*
X8713967Y-16748960D01*
X8713967Y-16748960D02*
X8694920Y-16758484D01*
X8694920Y-16758484D02*
X8675872Y-16758484D01*
X8675872Y-16758484D02*
X8656824Y-16748960D01*
X8656824Y-16748960D02*
X8647301Y-16739436D01*
X8647301Y-16739436D02*
X8637777Y-16720388D01*
X8637777Y-16720388D02*
X8628253Y-16682293D01*
X8628253Y-16682293D02*
X8628253Y-16634674D01*
X8628253Y-16634674D02*
X8637777Y-16596579D01*
X8637777Y-16596579D02*
X8647301Y-16577531D01*
X8647301Y-16577531D02*
X8656824Y-16568008D01*
X8656824Y-16568008D02*
X8675872Y-16558484D01*
X8828253Y-16739436D02*
X8837777Y-16748960D01*
X8837777Y-16748960D02*
X8828253Y-16758484D01*
X8828253Y-16758484D02*
X8818729Y-16748960D01*
X8818729Y-16748960D02*
X8828253Y-16739436D01*
X8828253Y-16739436D02*
X8828253Y-16758484D01*
X8952063Y-16644198D02*
X8933015Y-16634674D01*
X8933015Y-16634674D02*
X8923491Y-16625150D01*
X8923491Y-16625150D02*
X8913967Y-16606103D01*
X8913967Y-16606103D02*
X8913967Y-16596579D01*
X8913967Y-16596579D02*
X8923491Y-16577531D01*
X8923491Y-16577531D02*
X8933015Y-16568008D01*
X8933015Y-16568008D02*
X8952063Y-16558484D01*
X8952063Y-16558484D02*
X8990158Y-16558484D01*
X8990158Y-16558484D02*
X9009205Y-16568008D01*
X9009205Y-16568008D02*
X9018729Y-16577531D01*
X9018729Y-16577531D02*
X9028253Y-16596579D01*
X9028253Y-16596579D02*
X9028253Y-16606103D01*
X9028253Y-16606103D02*
X9018729Y-16625150D01*
X9018729Y-16625150D02*
X9009205Y-16634674D01*
X9009205Y-16634674D02*
X8990158Y-16644198D01*
X8990158Y-16644198D02*
X8952063Y-16644198D01*
X8952063Y-16644198D02*
X8933015Y-16653722D01*
X8933015Y-16653722D02*
X8923491Y-16663246D01*
X8923491Y-16663246D02*
X8913967Y-16682293D01*
X8913967Y-16682293D02*
X8913967Y-16720388D01*
X8913967Y-16720388D02*
X8923491Y-16739436D01*
X8923491Y-16739436D02*
X8933015Y-16748960D01*
X8933015Y-16748960D02*
X8952063Y-16758484D01*
X8952063Y-16758484D02*
X8990158Y-16758484D01*
X8990158Y-16758484D02*
X9009205Y-16748960D01*
X9009205Y-16748960D02*
X9018729Y-16739436D01*
X9018729Y-16739436D02*
X9028253Y-16720388D01*
X9028253Y-16720388D02*
X9028253Y-16682293D01*
X9028253Y-16682293D02*
X9018729Y-16663246D01*
X9018729Y-16663246D02*
X9009205Y-16653722D01*
X9009205Y-16653722D02*
X8990158Y-16644198D01*
X9152063Y-16558484D02*
X9171110Y-16558484D01*
X9171110Y-16558484D02*
X9190158Y-16568008D01*
X9190158Y-16568008D02*
X9199682Y-16577531D01*
X9199682Y-16577531D02*
X9209205Y-16596579D01*
X9209205Y-16596579D02*
X9218729Y-16634674D01*
X9218729Y-16634674D02*
X9218729Y-16682293D01*
X9218729Y-16682293D02*
X9209205Y-16720388D01*
X9209205Y-16720388D02*
X9199682Y-16739436D01*
X9199682Y-16739436D02*
X9190158Y-16748960D01*
X9190158Y-16748960D02*
X9171110Y-16758484D01*
X9171110Y-16758484D02*
X9152063Y-16758484D01*
X9152063Y-16758484D02*
X9133015Y-16748960D01*
X9133015Y-16748960D02*
X9123491Y-16739436D01*
X9123491Y-16739436D02*
X9113967Y-16720388D01*
X9113967Y-16720388D02*
X9104444Y-16682293D01*
X9104444Y-16682293D02*
X9104444Y-16634674D01*
X9104444Y-16634674D02*
X9113967Y-16596579D01*
X9113967Y-16596579D02*
X9123491Y-16577531D01*
X9123491Y-16577531D02*
X9133015Y-16568008D01*
X9133015Y-16568008D02*
X9152063Y-16558484D01*
X9342539Y-16558484D02*
X9361586Y-16558484D01*
X9361586Y-16558484D02*
X9380634Y-16568008D01*
X9380634Y-16568008D02*
X9390158Y-16577531D01*
X9390158Y-16577531D02*
X9399682Y-16596579D01*
X9399682Y-16596579D02*
X9409205Y-16634674D01*
X9409205Y-16634674D02*
X9409205Y-16682293D01*
X9409205Y-16682293D02*
X9399682Y-16720388D01*
X9399682Y-16720388D02*
X9390158Y-16739436D01*
X9390158Y-16739436D02*
X9380634Y-16748960D01*
X9380634Y-16748960D02*
X9361586Y-16758484D01*
X9361586Y-16758484D02*
X9342539Y-16758484D01*
X9342539Y-16758484D02*
X9323491Y-16748960D01*
X9323491Y-16748960D02*
X9313967Y-16739436D01*
X9313967Y-16739436D02*
X9304444Y-16720388D01*
X9304444Y-16720388D02*
X9294920Y-16682293D01*
X9294920Y-16682293D02*
X9294920Y-16634674D01*
X9294920Y-16634674D02*
X9304444Y-16596579D01*
X9304444Y-16596579D02*
X9313967Y-16577531D01*
X9313967Y-16577531D02*
X9323491Y-16568008D01*
X9323491Y-16568008D02*
X9342539Y-16558484D01*
X9494920Y-16758484D02*
X9494920Y-16625150D01*
X9494920Y-16644198D02*
X9504444Y-16634674D01*
X9504444Y-16634674D02*
X9523491Y-16625150D01*
X9523491Y-16625150D02*
X9552063Y-16625150D01*
X9552063Y-16625150D02*
X9571110Y-16634674D01*
X9571110Y-16634674D02*
X9580634Y-16653722D01*
X9580634Y-16653722D02*
X9580634Y-16758484D01*
X9580634Y-16653722D02*
X9590158Y-16634674D01*
X9590158Y-16634674D02*
X9609205Y-16625150D01*
X9609205Y-16625150D02*
X9637777Y-16625150D01*
X9637777Y-16625150D02*
X9656825Y-16634674D01*
X9656825Y-16634674D02*
X9666348Y-16653722D01*
X9666348Y-16653722D02*
X9666348Y-16758484D01*
X9761586Y-16758484D02*
X9761586Y-16625150D01*
X9761586Y-16644198D02*
X9771110Y-16634674D01*
X9771110Y-16634674D02*
X9790158Y-16625150D01*
X9790158Y-16625150D02*
X9818729Y-16625150D01*
X9818729Y-16625150D02*
X9837777Y-16634674D01*
X9837777Y-16634674D02*
X9847301Y-16653722D01*
X9847301Y-16653722D02*
X9847301Y-16758484D01*
X9847301Y-16653722D02*
X9856825Y-16634674D01*
X9856825Y-16634674D02*
X9875872Y-16625150D01*
X9875872Y-16625150D02*
X9904444Y-16625150D01*
X9904444Y-16625150D02*
X9923491Y-16634674D01*
X9923491Y-16634674D02*
X9933015Y-16653722D01*
X9933015Y-16653722D02*
X9933015Y-16758484D01*
X10323491Y-16548960D02*
X10152063Y-16806103D01*
X10580634Y-16558484D02*
X10599682Y-16558484D01*
X10599682Y-16558484D02*
X10618729Y-16568008D01*
X10618729Y-16568008D02*
X10628253Y-16577531D01*
X10628253Y-16577531D02*
X10637777Y-16596579D01*
X10637777Y-16596579D02*
X10647301Y-16634674D01*
X10647301Y-16634674D02*
X10647301Y-16682293D01*
X10647301Y-16682293D02*
X10637777Y-16720388D01*
X10637777Y-16720388D02*
X10628253Y-16739436D01*
X10628253Y-16739436D02*
X10618729Y-16748960D01*
X10618729Y-16748960D02*
X10599682Y-16758484D01*
X10599682Y-16758484D02*
X10580634Y-16758484D01*
X10580634Y-16758484D02*
X10561587Y-16748960D01*
X10561587Y-16748960D02*
X10552063Y-16739436D01*
X10552063Y-16739436D02*
X10542539Y-16720388D01*
X10542539Y-16720388D02*
X10533015Y-16682293D01*
X10533015Y-16682293D02*
X10533015Y-16634674D01*
X10533015Y-16634674D02*
X10542539Y-16596579D01*
X10542539Y-16596579D02*
X10552063Y-16577531D01*
X10552063Y-16577531D02*
X10561587Y-16568008D01*
X10561587Y-16568008D02*
X10580634Y-16558484D01*
X10733015Y-16739436D02*
X10742539Y-16748960D01*
X10742539Y-16748960D02*
X10733015Y-16758484D01*
X10733015Y-16758484D02*
X10723491Y-16748960D01*
X10723491Y-16748960D02*
X10733015Y-16739436D01*
X10733015Y-16739436D02*
X10733015Y-16758484D01*
X10866348Y-16558484D02*
X10885396Y-16558484D01*
X10885396Y-16558484D02*
X10904444Y-16568008D01*
X10904444Y-16568008D02*
X10913968Y-16577531D01*
X10913968Y-16577531D02*
X10923491Y-16596579D01*
X10923491Y-16596579D02*
X10933015Y-16634674D01*
X10933015Y-16634674D02*
X10933015Y-16682293D01*
X10933015Y-16682293D02*
X10923491Y-16720388D01*
X10923491Y-16720388D02*
X10913968Y-16739436D01*
X10913968Y-16739436D02*
X10904444Y-16748960D01*
X10904444Y-16748960D02*
X10885396Y-16758484D01*
X10885396Y-16758484D02*
X10866348Y-16758484D01*
X10866348Y-16758484D02*
X10847301Y-16748960D01*
X10847301Y-16748960D02*
X10837777Y-16739436D01*
X10837777Y-16739436D02*
X10828253Y-16720388D01*
X10828253Y-16720388D02*
X10818729Y-16682293D01*
X10818729Y-16682293D02*
X10818729Y-16634674D01*
X10818729Y-16634674D02*
X10828253Y-16596579D01*
X10828253Y-16596579D02*
X10837777Y-16577531D01*
X10837777Y-16577531D02*
X10847301Y-16568008D01*
X10847301Y-16568008D02*
X10866348Y-16558484D01*
X10999682Y-16558484D02*
X11123491Y-16558484D01*
X11123491Y-16558484D02*
X11056825Y-16634674D01*
X11056825Y-16634674D02*
X11085396Y-16634674D01*
X11085396Y-16634674D02*
X11104444Y-16644198D01*
X11104444Y-16644198D02*
X11113968Y-16653722D01*
X11113968Y-16653722D02*
X11123491Y-16672769D01*
X11123491Y-16672769D02*
X11123491Y-16720388D01*
X11123491Y-16720388D02*
X11113968Y-16739436D01*
X11113968Y-16739436D02*
X11104444Y-16748960D01*
X11104444Y-16748960D02*
X11085396Y-16758484D01*
X11085396Y-16758484D02*
X11028253Y-16758484D01*
X11028253Y-16758484D02*
X11009206Y-16748960D01*
X11009206Y-16748960D02*
X10999682Y-16739436D01*
X11313967Y-16758484D02*
X11199682Y-16758484D01*
X11256825Y-16758484D02*
X11256825Y-16558484D01*
X11256825Y-16558484D02*
X11237777Y-16587055D01*
X11237777Y-16587055D02*
X11218729Y-16606103D01*
X11218729Y-16606103D02*
X11199682Y-16615627D01*
X11494920Y-16558484D02*
X11399682Y-16558484D01*
X11399682Y-16558484D02*
X11390158Y-16653722D01*
X11390158Y-16653722D02*
X11399682Y-16644198D01*
X11399682Y-16644198D02*
X11418729Y-16634674D01*
X11418729Y-16634674D02*
X11466348Y-16634674D01*
X11466348Y-16634674D02*
X11485396Y-16644198D01*
X11485396Y-16644198D02*
X11494920Y-16653722D01*
X11494920Y-16653722D02*
X11504444Y-16672769D01*
X11504444Y-16672769D02*
X11504444Y-16720388D01*
X11504444Y-16720388D02*
X11494920Y-16739436D01*
X11494920Y-16739436D02*
X11485396Y-16748960D01*
X11485396Y-16748960D02*
X11466348Y-16758484D01*
X11466348Y-16758484D02*
X11418729Y-16758484D01*
X11418729Y-16758484D02*
X11399682Y-16748960D01*
X11399682Y-16748960D02*
X11390158Y-16739436D01*
X11580634Y-16558484D02*
X11580634Y-16596579D01*
X11656825Y-16558484D02*
X11656825Y-16596579D01*
X11952063Y-16834674D02*
X11942539Y-16825150D01*
X11942539Y-16825150D02*
X11923491Y-16796579D01*
X11923491Y-16796579D02*
X11913968Y-16777531D01*
X11913968Y-16777531D02*
X11904444Y-16748960D01*
X11904444Y-16748960D02*
X11894920Y-16701341D01*
X11894920Y-16701341D02*
X11894920Y-16663246D01*
X11894920Y-16663246D02*
X11904444Y-16615627D01*
X11904444Y-16615627D02*
X11913968Y-16587055D01*
X11913968Y-16587055D02*
X11923491Y-16568008D01*
X11923491Y-16568008D02*
X11942539Y-16539436D01*
X11942539Y-16539436D02*
X11952063Y-16529912D01*
X12133015Y-16758484D02*
X12018729Y-16758484D01*
X12075872Y-16758484D02*
X12075872Y-16558484D01*
X12075872Y-16558484D02*
X12056825Y-16587055D01*
X12056825Y-16587055D02*
X12037777Y-16606103D01*
X12037777Y-16606103D02*
X12018729Y-16615627D01*
X12256825Y-16558484D02*
X12275872Y-16558484D01*
X12275872Y-16558484D02*
X12294920Y-16568008D01*
X12294920Y-16568008D02*
X12304444Y-16577531D01*
X12304444Y-16577531D02*
X12313968Y-16596579D01*
X12313968Y-16596579D02*
X12323491Y-16634674D01*
X12323491Y-16634674D02*
X12323491Y-16682293D01*
X12323491Y-16682293D02*
X12313968Y-16720388D01*
X12313968Y-16720388D02*
X12304444Y-16739436D01*
X12304444Y-16739436D02*
X12294920Y-16748960D01*
X12294920Y-16748960D02*
X12275872Y-16758484D01*
X12275872Y-16758484D02*
X12256825Y-16758484D01*
X12256825Y-16758484D02*
X12237777Y-16748960D01*
X12237777Y-16748960D02*
X12228253Y-16739436D01*
X12228253Y-16739436D02*
X12218729Y-16720388D01*
X12218729Y-16720388D02*
X12209206Y-16682293D01*
X12209206Y-16682293D02*
X12209206Y-16634674D01*
X12209206Y-16634674D02*
X12218729Y-16596579D01*
X12218729Y-16596579D02*
X12228253Y-16577531D01*
X12228253Y-16577531D02*
X12237777Y-16568008D01*
X12237777Y-16568008D02*
X12256825Y-16558484D01*
X12437777Y-16644198D02*
X12418729Y-16634674D01*
X12418729Y-16634674D02*
X12409206Y-16625150D01*
X12409206Y-16625150D02*
X12399682Y-16606103D01*
X12399682Y-16606103D02*
X12399682Y-16596579D01*
X12399682Y-16596579D02*
X12409206Y-16577531D01*
X12409206Y-16577531D02*
X12418729Y-16568008D01*
X12418729Y-16568008D02*
X12437777Y-16558484D01*
X12437777Y-16558484D02*
X12475872Y-16558484D01*
X12475872Y-16558484D02*
X12494920Y-16568008D01*
X12494920Y-16568008D02*
X12504444Y-16577531D01*
X12504444Y-16577531D02*
X12513968Y-16596579D01*
X12513968Y-16596579D02*
X12513968Y-16606103D01*
X12513968Y-16606103D02*
X12504444Y-16625150D01*
X12504444Y-16625150D02*
X12494920Y-16634674D01*
X12494920Y-16634674D02*
X12475872Y-16644198D01*
X12475872Y-16644198D02*
X12437777Y-16644198D01*
X12437777Y-16644198D02*
X12418729Y-16653722D01*
X12418729Y-16653722D02*
X12409206Y-16663246D01*
X12409206Y-16663246D02*
X12399682Y-16682293D01*
X12399682Y-16682293D02*
X12399682Y-16720388D01*
X12399682Y-16720388D02*
X12409206Y-16739436D01*
X12409206Y-16739436D02*
X12418729Y-16748960D01*
X12418729Y-16748960D02*
X12437777Y-16758484D01*
X12437777Y-16758484D02*
X12475872Y-16758484D01*
X12475872Y-16758484D02*
X12494920Y-16748960D01*
X12494920Y-16748960D02*
X12504444Y-16739436D01*
X12504444Y-16739436D02*
X12513968Y-16720388D01*
X12513968Y-16720388D02*
X12513968Y-16682293D01*
X12513968Y-16682293D02*
X12504444Y-16663246D01*
X12504444Y-16663246D02*
X12494920Y-16653722D01*
X12494920Y-16653722D02*
X12475872Y-16644198D01*
X12752063Y-16758484D02*
X12752063Y-16558484D01*
X12837777Y-16758484D02*
X12837777Y-16653722D01*
X12837777Y-16653722D02*
X12828253Y-16634674D01*
X12828253Y-16634674D02*
X12809206Y-16625150D01*
X12809206Y-16625150D02*
X12780634Y-16625150D01*
X12780634Y-16625150D02*
X12761587Y-16634674D01*
X12761587Y-16634674D02*
X12752063Y-16644198D01*
X12961587Y-16758484D02*
X12942539Y-16748960D01*
X12942539Y-16748960D02*
X12933015Y-16739436D01*
X12933015Y-16739436D02*
X12923491Y-16720388D01*
X12923491Y-16720388D02*
X12923491Y-16663246D01*
X12923491Y-16663246D02*
X12933015Y-16644198D01*
X12933015Y-16644198D02*
X12942539Y-16634674D01*
X12942539Y-16634674D02*
X12961587Y-16625150D01*
X12961587Y-16625150D02*
X12990158Y-16625150D01*
X12990158Y-16625150D02*
X13009206Y-16634674D01*
X13009206Y-16634674D02*
X13018730Y-16644198D01*
X13018730Y-16644198D02*
X13028253Y-16663246D01*
X13028253Y-16663246D02*
X13028253Y-16720388D01*
X13028253Y-16720388D02*
X13018730Y-16739436D01*
X13018730Y-16739436D02*
X13009206Y-16748960D01*
X13009206Y-16748960D02*
X12990158Y-16758484D01*
X12990158Y-16758484D02*
X12961587Y-16758484D01*
X13142539Y-16758484D02*
X13123491Y-16748960D01*
X13123491Y-16748960D02*
X13113968Y-16729912D01*
X13113968Y-16729912D02*
X13113968Y-16558484D01*
X13294920Y-16748960D02*
X13275872Y-16758484D01*
X13275872Y-16758484D02*
X13237777Y-16758484D01*
X13237777Y-16758484D02*
X13218730Y-16748960D01*
X13218730Y-16748960D02*
X13209206Y-16729912D01*
X13209206Y-16729912D02*
X13209206Y-16653722D01*
X13209206Y-16653722D02*
X13218730Y-16634674D01*
X13218730Y-16634674D02*
X13237777Y-16625150D01*
X13237777Y-16625150D02*
X13275872Y-16625150D01*
X13275872Y-16625150D02*
X13294920Y-16634674D01*
X13294920Y-16634674D02*
X13304444Y-16653722D01*
X13304444Y-16653722D02*
X13304444Y-16672769D01*
X13304444Y-16672769D02*
X13209206Y-16691817D01*
X13380634Y-16748960D02*
X13399682Y-16758484D01*
X13399682Y-16758484D02*
X13437777Y-16758484D01*
X13437777Y-16758484D02*
X13456825Y-16748960D01*
X13456825Y-16748960D02*
X13466349Y-16729912D01*
X13466349Y-16729912D02*
X13466349Y-16720388D01*
X13466349Y-16720388D02*
X13456825Y-16701341D01*
X13456825Y-16701341D02*
X13437777Y-16691817D01*
X13437777Y-16691817D02*
X13409206Y-16691817D01*
X13409206Y-16691817D02*
X13390158Y-16682293D01*
X13390158Y-16682293D02*
X13380634Y-16663246D01*
X13380634Y-16663246D02*
X13380634Y-16653722D01*
X13380634Y-16653722D02*
X13390158Y-16634674D01*
X13390158Y-16634674D02*
X13409206Y-16625150D01*
X13409206Y-16625150D02*
X13437777Y-16625150D01*
X13437777Y-16625150D02*
X13456825Y-16634674D01*
X13533015Y-16834674D02*
X13542539Y-16825150D01*
X13542539Y-16825150D02*
X13561587Y-16796579D01*
X13561587Y-16796579D02*
X13571111Y-16777531D01*
X13571111Y-16777531D02*
X13580634Y-16748960D01*
X13580634Y-16748960D02*
X13590158Y-16701341D01*
X13590158Y-16701341D02*
X13590158Y-16663246D01*
X13590158Y-16663246D02*
X13580634Y-16615627D01*
X13580634Y-16615627D02*
X13571111Y-16587055D01*
X13571111Y-16587055D02*
X13561587Y-16568008D01*
X13561587Y-16568008D02*
X13542539Y-16539436D01*
X13542539Y-16539436D02*
X13533015Y-16529912D01*
D15*
X8363820Y-16962820D02*
X8363820Y-16899180D01*
X8300180Y-16899180D01*
X8300180Y-16962820D01*
X8363820Y-16962820D01*
D11*
X8675872Y-16822484D02*
X8694920Y-16822484D01*
X8694920Y-16822484D02*
X8713967Y-16832008D01*
X8713967Y-16832008D02*
X8723491Y-16841531D01*
X8723491Y-16841531D02*
X8733015Y-16860579D01*
X8733015Y-16860579D02*
X8742539Y-16898674D01*
X8742539Y-16898674D02*
X8742539Y-16946293D01*
X8742539Y-16946293D02*
X8733015Y-16984389D01*
X8733015Y-16984389D02*
X8723491Y-17003436D01*
X8723491Y-17003436D02*
X8713967Y-17012960D01*
X8713967Y-17012960D02*
X8694920Y-17022484D01*
X8694920Y-17022484D02*
X8675872Y-17022484D01*
X8675872Y-17022484D02*
X8656824Y-17012960D01*
X8656824Y-17012960D02*
X8647301Y-17003436D01*
X8647301Y-17003436D02*
X8637777Y-16984389D01*
X8637777Y-16984389D02*
X8628253Y-16946293D01*
X8628253Y-16946293D02*
X8628253Y-16898674D01*
X8628253Y-16898674D02*
X8637777Y-16860579D01*
X8637777Y-16860579D02*
X8647301Y-16841531D01*
X8647301Y-16841531D02*
X8656824Y-16832008D01*
X8656824Y-16832008D02*
X8675872Y-16822484D01*
X8828253Y-17003436D02*
X8837777Y-17012960D01*
X8837777Y-17012960D02*
X8828253Y-17022484D01*
X8828253Y-17022484D02*
X8818729Y-17012960D01*
X8818729Y-17012960D02*
X8828253Y-17003436D01*
X8828253Y-17003436D02*
X8828253Y-17022484D01*
X8933015Y-17022484D02*
X8971110Y-17022484D01*
X8971110Y-17022484D02*
X8990158Y-17012960D01*
X8990158Y-17012960D02*
X8999682Y-17003436D01*
X8999682Y-17003436D02*
X9018729Y-16974865D01*
X9018729Y-16974865D02*
X9028253Y-16936770D01*
X9028253Y-16936770D02*
X9028253Y-16860579D01*
X9028253Y-16860579D02*
X9018729Y-16841531D01*
X9018729Y-16841531D02*
X9009205Y-16832008D01*
X9009205Y-16832008D02*
X8990158Y-16822484D01*
X8990158Y-16822484D02*
X8952063Y-16822484D01*
X8952063Y-16822484D02*
X8933015Y-16832008D01*
X8933015Y-16832008D02*
X8923491Y-16841531D01*
X8923491Y-16841531D02*
X8913967Y-16860579D01*
X8913967Y-16860579D02*
X8913967Y-16908198D01*
X8913967Y-16908198D02*
X8923491Y-16927246D01*
X8923491Y-16927246D02*
X8933015Y-16936770D01*
X8933015Y-16936770D02*
X8952063Y-16946293D01*
X8952063Y-16946293D02*
X8990158Y-16946293D01*
X8990158Y-16946293D02*
X9009205Y-16936770D01*
X9009205Y-16936770D02*
X9018729Y-16927246D01*
X9018729Y-16927246D02*
X9028253Y-16908198D01*
X9152063Y-16822484D02*
X9171110Y-16822484D01*
X9171110Y-16822484D02*
X9190158Y-16832008D01*
X9190158Y-16832008D02*
X9199682Y-16841531D01*
X9199682Y-16841531D02*
X9209205Y-16860579D01*
X9209205Y-16860579D02*
X9218729Y-16898674D01*
X9218729Y-16898674D02*
X9218729Y-16946293D01*
X9218729Y-16946293D02*
X9209205Y-16984389D01*
X9209205Y-16984389D02*
X9199682Y-17003436D01*
X9199682Y-17003436D02*
X9190158Y-17012960D01*
X9190158Y-17012960D02*
X9171110Y-17022484D01*
X9171110Y-17022484D02*
X9152063Y-17022484D01*
X9152063Y-17022484D02*
X9133015Y-17012960D01*
X9133015Y-17012960D02*
X9123491Y-17003436D01*
X9123491Y-17003436D02*
X9113967Y-16984389D01*
X9113967Y-16984389D02*
X9104444Y-16946293D01*
X9104444Y-16946293D02*
X9104444Y-16898674D01*
X9104444Y-16898674D02*
X9113967Y-16860579D01*
X9113967Y-16860579D02*
X9123491Y-16841531D01*
X9123491Y-16841531D02*
X9133015Y-16832008D01*
X9133015Y-16832008D02*
X9152063Y-16822484D01*
X9342539Y-16822484D02*
X9361586Y-16822484D01*
X9361586Y-16822484D02*
X9380634Y-16832008D01*
X9380634Y-16832008D02*
X9390158Y-16841531D01*
X9390158Y-16841531D02*
X9399682Y-16860579D01*
X9399682Y-16860579D02*
X9409205Y-16898674D01*
X9409205Y-16898674D02*
X9409205Y-16946293D01*
X9409205Y-16946293D02*
X9399682Y-16984389D01*
X9399682Y-16984389D02*
X9390158Y-17003436D01*
X9390158Y-17003436D02*
X9380634Y-17012960D01*
X9380634Y-17012960D02*
X9361586Y-17022484D01*
X9361586Y-17022484D02*
X9342539Y-17022484D01*
X9342539Y-17022484D02*
X9323491Y-17012960D01*
X9323491Y-17012960D02*
X9313967Y-17003436D01*
X9313967Y-17003436D02*
X9304444Y-16984389D01*
X9304444Y-16984389D02*
X9294920Y-16946293D01*
X9294920Y-16946293D02*
X9294920Y-16898674D01*
X9294920Y-16898674D02*
X9304444Y-16860579D01*
X9304444Y-16860579D02*
X9313967Y-16841531D01*
X9313967Y-16841531D02*
X9323491Y-16832008D01*
X9323491Y-16832008D02*
X9342539Y-16822484D01*
X9494920Y-17022484D02*
X9494920Y-16889150D01*
X9494920Y-16908198D02*
X9504444Y-16898674D01*
X9504444Y-16898674D02*
X9523491Y-16889150D01*
X9523491Y-16889150D02*
X9552063Y-16889150D01*
X9552063Y-16889150D02*
X9571110Y-16898674D01*
X9571110Y-16898674D02*
X9580634Y-16917722D01*
X9580634Y-16917722D02*
X9580634Y-17022484D01*
X9580634Y-16917722D02*
X9590158Y-16898674D01*
X9590158Y-16898674D02*
X9609205Y-16889150D01*
X9609205Y-16889150D02*
X9637777Y-16889150D01*
X9637777Y-16889150D02*
X9656825Y-16898674D01*
X9656825Y-16898674D02*
X9666348Y-16917722D01*
X9666348Y-16917722D02*
X9666348Y-17022484D01*
X9761586Y-17022484D02*
X9761586Y-16889150D01*
X9761586Y-16908198D02*
X9771110Y-16898674D01*
X9771110Y-16898674D02*
X9790158Y-16889150D01*
X9790158Y-16889150D02*
X9818729Y-16889150D01*
X9818729Y-16889150D02*
X9837777Y-16898674D01*
X9837777Y-16898674D02*
X9847301Y-16917722D01*
X9847301Y-16917722D02*
X9847301Y-17022484D01*
X9847301Y-16917722D02*
X9856825Y-16898674D01*
X9856825Y-16898674D02*
X9875872Y-16889150D01*
X9875872Y-16889150D02*
X9904444Y-16889150D01*
X9904444Y-16889150D02*
X9923491Y-16898674D01*
X9923491Y-16898674D02*
X9933015Y-16917722D01*
X9933015Y-16917722D02*
X9933015Y-17022484D01*
X10323491Y-16812960D02*
X10152063Y-17070103D01*
X10580634Y-16822484D02*
X10599682Y-16822484D01*
X10599682Y-16822484D02*
X10618729Y-16832008D01*
X10618729Y-16832008D02*
X10628253Y-16841531D01*
X10628253Y-16841531D02*
X10637777Y-16860579D01*
X10637777Y-16860579D02*
X10647301Y-16898674D01*
X10647301Y-16898674D02*
X10647301Y-16946293D01*
X10647301Y-16946293D02*
X10637777Y-16984389D01*
X10637777Y-16984389D02*
X10628253Y-17003436D01*
X10628253Y-17003436D02*
X10618729Y-17012960D01*
X10618729Y-17012960D02*
X10599682Y-17022484D01*
X10599682Y-17022484D02*
X10580634Y-17022484D01*
X10580634Y-17022484D02*
X10561587Y-17012960D01*
X10561587Y-17012960D02*
X10552063Y-17003436D01*
X10552063Y-17003436D02*
X10542539Y-16984389D01*
X10542539Y-16984389D02*
X10533015Y-16946293D01*
X10533015Y-16946293D02*
X10533015Y-16898674D01*
X10533015Y-16898674D02*
X10542539Y-16860579D01*
X10542539Y-16860579D02*
X10552063Y-16841531D01*
X10552063Y-16841531D02*
X10561587Y-16832008D01*
X10561587Y-16832008D02*
X10580634Y-16822484D01*
X10733015Y-17003436D02*
X10742539Y-17012960D01*
X10742539Y-17012960D02*
X10733015Y-17022484D01*
X10733015Y-17022484D02*
X10723491Y-17012960D01*
X10723491Y-17012960D02*
X10733015Y-17003436D01*
X10733015Y-17003436D02*
X10733015Y-17022484D01*
X10866348Y-16822484D02*
X10885396Y-16822484D01*
X10885396Y-16822484D02*
X10904444Y-16832008D01*
X10904444Y-16832008D02*
X10913968Y-16841531D01*
X10913968Y-16841531D02*
X10923491Y-16860579D01*
X10923491Y-16860579D02*
X10933015Y-16898674D01*
X10933015Y-16898674D02*
X10933015Y-16946293D01*
X10933015Y-16946293D02*
X10923491Y-16984389D01*
X10923491Y-16984389D02*
X10913968Y-17003436D01*
X10913968Y-17003436D02*
X10904444Y-17012960D01*
X10904444Y-17012960D02*
X10885396Y-17022484D01*
X10885396Y-17022484D02*
X10866348Y-17022484D01*
X10866348Y-17022484D02*
X10847301Y-17012960D01*
X10847301Y-17012960D02*
X10837777Y-17003436D01*
X10837777Y-17003436D02*
X10828253Y-16984389D01*
X10828253Y-16984389D02*
X10818729Y-16946293D01*
X10818729Y-16946293D02*
X10818729Y-16898674D01*
X10818729Y-16898674D02*
X10828253Y-16860579D01*
X10828253Y-16860579D02*
X10837777Y-16841531D01*
X10837777Y-16841531D02*
X10847301Y-16832008D01*
X10847301Y-16832008D02*
X10866348Y-16822484D01*
X10999682Y-16822484D02*
X11123491Y-16822484D01*
X11123491Y-16822484D02*
X11056825Y-16898674D01*
X11056825Y-16898674D02*
X11085396Y-16898674D01*
X11085396Y-16898674D02*
X11104444Y-16908198D01*
X11104444Y-16908198D02*
X11113968Y-16917722D01*
X11113968Y-16917722D02*
X11123491Y-16936770D01*
X11123491Y-16936770D02*
X11123491Y-16984389D01*
X11123491Y-16984389D02*
X11113968Y-17003436D01*
X11113968Y-17003436D02*
X11104444Y-17012960D01*
X11104444Y-17012960D02*
X11085396Y-17022484D01*
X11085396Y-17022484D02*
X11028253Y-17022484D01*
X11028253Y-17022484D02*
X11009206Y-17012960D01*
X11009206Y-17012960D02*
X10999682Y-17003436D01*
X11304444Y-16822484D02*
X11209206Y-16822484D01*
X11209206Y-16822484D02*
X11199682Y-16917722D01*
X11199682Y-16917722D02*
X11209206Y-16908198D01*
X11209206Y-16908198D02*
X11228253Y-16898674D01*
X11228253Y-16898674D02*
X11275872Y-16898674D01*
X11275872Y-16898674D02*
X11294920Y-16908198D01*
X11294920Y-16908198D02*
X11304444Y-16917722D01*
X11304444Y-16917722D02*
X11313967Y-16936770D01*
X11313967Y-16936770D02*
X11313967Y-16984389D01*
X11313967Y-16984389D02*
X11304444Y-17003436D01*
X11304444Y-17003436D02*
X11294920Y-17012960D01*
X11294920Y-17012960D02*
X11275872Y-17022484D01*
X11275872Y-17022484D02*
X11228253Y-17022484D01*
X11228253Y-17022484D02*
X11209206Y-17012960D01*
X11209206Y-17012960D02*
X11199682Y-17003436D01*
X11485396Y-16889150D02*
X11485396Y-17022484D01*
X11437777Y-16812960D02*
X11390158Y-16955817D01*
X11390158Y-16955817D02*
X11513967Y-16955817D01*
X11580634Y-16822484D02*
X11580634Y-16860579D01*
X11656825Y-16822484D02*
X11656825Y-16860579D01*
X11952063Y-17098674D02*
X11942539Y-17089150D01*
X11942539Y-17089150D02*
X11923491Y-17060579D01*
X11923491Y-17060579D02*
X11913968Y-17041531D01*
X11913968Y-17041531D02*
X11904444Y-17012960D01*
X11904444Y-17012960D02*
X11894920Y-16965341D01*
X11894920Y-16965341D02*
X11894920Y-16927246D01*
X11894920Y-16927246D02*
X11904444Y-16879627D01*
X11904444Y-16879627D02*
X11913968Y-16851055D01*
X11913968Y-16851055D02*
X11923491Y-16832008D01*
X11923491Y-16832008D02*
X11942539Y-16803436D01*
X11942539Y-16803436D02*
X11952063Y-16793912D01*
X12018729Y-16841531D02*
X12028253Y-16832008D01*
X12028253Y-16832008D02*
X12047301Y-16822484D01*
X12047301Y-16822484D02*
X12094920Y-16822484D01*
X12094920Y-16822484D02*
X12113968Y-16832008D01*
X12113968Y-16832008D02*
X12123491Y-16841531D01*
X12123491Y-16841531D02*
X12133015Y-16860579D01*
X12133015Y-16860579D02*
X12133015Y-16879627D01*
X12133015Y-16879627D02*
X12123491Y-16908198D01*
X12123491Y-16908198D02*
X12009206Y-17022484D01*
X12009206Y-17022484D02*
X12133015Y-17022484D01*
X12304444Y-16822484D02*
X12266348Y-16822484D01*
X12266348Y-16822484D02*
X12247301Y-16832008D01*
X12247301Y-16832008D02*
X12237777Y-16841531D01*
X12237777Y-16841531D02*
X12218729Y-16870103D01*
X12218729Y-16870103D02*
X12209206Y-16908198D01*
X12209206Y-16908198D02*
X12209206Y-16984389D01*
X12209206Y-16984389D02*
X12218729Y-17003436D01*
X12218729Y-17003436D02*
X12228253Y-17012960D01*
X12228253Y-17012960D02*
X12247301Y-17022484D01*
X12247301Y-17022484D02*
X12285396Y-17022484D01*
X12285396Y-17022484D02*
X12304444Y-17012960D01*
X12304444Y-17012960D02*
X12313968Y-17003436D01*
X12313968Y-17003436D02*
X12323491Y-16984389D01*
X12323491Y-16984389D02*
X12323491Y-16936770D01*
X12323491Y-16936770D02*
X12313968Y-16917722D01*
X12313968Y-16917722D02*
X12304444Y-16908198D01*
X12304444Y-16908198D02*
X12285396Y-16898674D01*
X12285396Y-16898674D02*
X12247301Y-16898674D01*
X12247301Y-16898674D02*
X12228253Y-16908198D01*
X12228253Y-16908198D02*
X12218729Y-16917722D01*
X12218729Y-16917722D02*
X12209206Y-16936770D01*
X12561587Y-17022484D02*
X12561587Y-16822484D01*
X12647301Y-17022484D02*
X12647301Y-16917722D01*
X12647301Y-16917722D02*
X12637777Y-16898674D01*
X12637777Y-16898674D02*
X12618730Y-16889150D01*
X12618730Y-16889150D02*
X12590158Y-16889150D01*
X12590158Y-16889150D02*
X12571110Y-16898674D01*
X12571110Y-16898674D02*
X12561587Y-16908198D01*
X12771110Y-17022484D02*
X12752063Y-17012960D01*
X12752063Y-17012960D02*
X12742539Y-17003436D01*
X12742539Y-17003436D02*
X12733015Y-16984389D01*
X12733015Y-16984389D02*
X12733015Y-16927246D01*
X12733015Y-16927246D02*
X12742539Y-16908198D01*
X12742539Y-16908198D02*
X12752063Y-16898674D01*
X12752063Y-16898674D02*
X12771110Y-16889150D01*
X12771110Y-16889150D02*
X12799682Y-16889150D01*
X12799682Y-16889150D02*
X12818730Y-16898674D01*
X12818730Y-16898674D02*
X12828253Y-16908198D01*
X12828253Y-16908198D02*
X12837777Y-16927246D01*
X12837777Y-16927246D02*
X12837777Y-16984389D01*
X12837777Y-16984389D02*
X12828253Y-17003436D01*
X12828253Y-17003436D02*
X12818730Y-17012960D01*
X12818730Y-17012960D02*
X12799682Y-17022484D01*
X12799682Y-17022484D02*
X12771110Y-17022484D01*
X12952063Y-17022484D02*
X12933015Y-17012960D01*
X12933015Y-17012960D02*
X12923491Y-16993912D01*
X12923491Y-16993912D02*
X12923491Y-16822484D01*
X13104444Y-17012960D02*
X13085396Y-17022484D01*
X13085396Y-17022484D02*
X13047301Y-17022484D01*
X13047301Y-17022484D02*
X13028253Y-17012960D01*
X13028253Y-17012960D02*
X13018730Y-16993912D01*
X13018730Y-16993912D02*
X13018730Y-16917722D01*
X13018730Y-16917722D02*
X13028253Y-16898674D01*
X13028253Y-16898674D02*
X13047301Y-16889150D01*
X13047301Y-16889150D02*
X13085396Y-16889150D01*
X13085396Y-16889150D02*
X13104444Y-16898674D01*
X13104444Y-16898674D02*
X13113968Y-16917722D01*
X13113968Y-16917722D02*
X13113968Y-16936770D01*
X13113968Y-16936770D02*
X13018730Y-16955817D01*
X13190158Y-17012960D02*
X13209206Y-17022484D01*
X13209206Y-17022484D02*
X13247301Y-17022484D01*
X13247301Y-17022484D02*
X13266349Y-17012960D01*
X13266349Y-17012960D02*
X13275872Y-16993912D01*
X13275872Y-16993912D02*
X13275872Y-16984389D01*
X13275872Y-16984389D02*
X13266349Y-16965341D01*
X13266349Y-16965341D02*
X13247301Y-16955817D01*
X13247301Y-16955817D02*
X13218730Y-16955817D01*
X13218730Y-16955817D02*
X13199682Y-16946293D01*
X13199682Y-16946293D02*
X13190158Y-16927246D01*
X13190158Y-16927246D02*
X13190158Y-16917722D01*
X13190158Y-16917722D02*
X13199682Y-16898674D01*
X13199682Y-16898674D02*
X13218730Y-16889150D01*
X13218730Y-16889150D02*
X13247301Y-16889150D01*
X13247301Y-16889150D02*
X13266349Y-16898674D01*
X13342539Y-17098674D02*
X13352063Y-17089150D01*
X13352063Y-17089150D02*
X13371111Y-17060579D01*
X13371111Y-17060579D02*
X13380634Y-17041531D01*
X13380634Y-17041531D02*
X13390158Y-17012960D01*
X13390158Y-17012960D02*
X13399682Y-16965341D01*
X13399682Y-16965341D02*
X13399682Y-16927246D01*
X13399682Y-16927246D02*
X13390158Y-16879627D01*
X13390158Y-16879627D02*
X13380634Y-16851055D01*
X13380634Y-16851055D02*
X13371111Y-16832008D01*
X13371111Y-16832008D02*
X13352063Y-16803436D01*
X13352063Y-16803436D02*
X13342539Y-16793912D01*
D10*
X8327000Y-17245000D02*
X8377000Y-17195000D01*
X8327000Y-17145000D01*
X8277000Y-17195000D01*
X8327000Y-17245000D01*
D11*
X8742539Y-17286484D02*
X8628253Y-17286484D01*
X8685396Y-17286484D02*
X8685396Y-17086484D01*
X8685396Y-17086484D02*
X8666348Y-17115055D01*
X8666348Y-17115055D02*
X8647301Y-17134103D01*
X8647301Y-17134103D02*
X8628253Y-17143627D01*
X8828253Y-17267436D02*
X8837777Y-17276960D01*
X8837777Y-17276960D02*
X8828253Y-17286484D01*
X8828253Y-17286484D02*
X8818729Y-17276960D01*
X8818729Y-17276960D02*
X8828253Y-17267436D01*
X8828253Y-17267436D02*
X8828253Y-17286484D01*
X8961586Y-17086484D02*
X8980634Y-17086484D01*
X8980634Y-17086484D02*
X8999682Y-17096008D01*
X8999682Y-17096008D02*
X9009205Y-17105531D01*
X9009205Y-17105531D02*
X9018729Y-17124579D01*
X9018729Y-17124579D02*
X9028253Y-17162674D01*
X9028253Y-17162674D02*
X9028253Y-17210293D01*
X9028253Y-17210293D02*
X9018729Y-17248389D01*
X9018729Y-17248389D02*
X9009205Y-17267436D01*
X9009205Y-17267436D02*
X8999682Y-17276960D01*
X8999682Y-17276960D02*
X8980634Y-17286484D01*
X8980634Y-17286484D02*
X8961586Y-17286484D01*
X8961586Y-17286484D02*
X8942539Y-17276960D01*
X8942539Y-17276960D02*
X8933015Y-17267436D01*
X8933015Y-17267436D02*
X8923491Y-17248389D01*
X8923491Y-17248389D02*
X8913967Y-17210293D01*
X8913967Y-17210293D02*
X8913967Y-17162674D01*
X8913967Y-17162674D02*
X8923491Y-17124579D01*
X8923491Y-17124579D02*
X8933015Y-17105531D01*
X8933015Y-17105531D02*
X8942539Y-17096008D01*
X8942539Y-17096008D02*
X8961586Y-17086484D01*
X9152063Y-17086484D02*
X9171110Y-17086484D01*
X9171110Y-17086484D02*
X9190158Y-17096008D01*
X9190158Y-17096008D02*
X9199682Y-17105531D01*
X9199682Y-17105531D02*
X9209205Y-17124579D01*
X9209205Y-17124579D02*
X9218729Y-17162674D01*
X9218729Y-17162674D02*
X9218729Y-17210293D01*
X9218729Y-17210293D02*
X9209205Y-17248389D01*
X9209205Y-17248389D02*
X9199682Y-17267436D01*
X9199682Y-17267436D02*
X9190158Y-17276960D01*
X9190158Y-17276960D02*
X9171110Y-17286484D01*
X9171110Y-17286484D02*
X9152063Y-17286484D01*
X9152063Y-17286484D02*
X9133015Y-17276960D01*
X9133015Y-17276960D02*
X9123491Y-17267436D01*
X9123491Y-17267436D02*
X9113967Y-17248389D01*
X9113967Y-17248389D02*
X9104444Y-17210293D01*
X9104444Y-17210293D02*
X9104444Y-17162674D01*
X9104444Y-17162674D02*
X9113967Y-17124579D01*
X9113967Y-17124579D02*
X9123491Y-17105531D01*
X9123491Y-17105531D02*
X9133015Y-17096008D01*
X9133015Y-17096008D02*
X9152063Y-17086484D01*
X9342539Y-17086484D02*
X9361586Y-17086484D01*
X9361586Y-17086484D02*
X9380634Y-17096008D01*
X9380634Y-17096008D02*
X9390158Y-17105531D01*
X9390158Y-17105531D02*
X9399682Y-17124579D01*
X9399682Y-17124579D02*
X9409205Y-17162674D01*
X9409205Y-17162674D02*
X9409205Y-17210293D01*
X9409205Y-17210293D02*
X9399682Y-17248389D01*
X9399682Y-17248389D02*
X9390158Y-17267436D01*
X9390158Y-17267436D02*
X9380634Y-17276960D01*
X9380634Y-17276960D02*
X9361586Y-17286484D01*
X9361586Y-17286484D02*
X9342539Y-17286484D01*
X9342539Y-17286484D02*
X9323491Y-17276960D01*
X9323491Y-17276960D02*
X9313967Y-17267436D01*
X9313967Y-17267436D02*
X9304444Y-17248389D01*
X9304444Y-17248389D02*
X9294920Y-17210293D01*
X9294920Y-17210293D02*
X9294920Y-17162674D01*
X9294920Y-17162674D02*
X9304444Y-17124579D01*
X9304444Y-17124579D02*
X9313967Y-17105531D01*
X9313967Y-17105531D02*
X9323491Y-17096008D01*
X9323491Y-17096008D02*
X9342539Y-17086484D01*
X9494920Y-17286484D02*
X9494920Y-17153150D01*
X9494920Y-17172198D02*
X9504444Y-17162674D01*
X9504444Y-17162674D02*
X9523491Y-17153150D01*
X9523491Y-17153150D02*
X9552063Y-17153150D01*
X9552063Y-17153150D02*
X9571110Y-17162674D01*
X9571110Y-17162674D02*
X9580634Y-17181722D01*
X9580634Y-17181722D02*
X9580634Y-17286484D01*
X9580634Y-17181722D02*
X9590158Y-17162674D01*
X9590158Y-17162674D02*
X9609205Y-17153150D01*
X9609205Y-17153150D02*
X9637777Y-17153150D01*
X9637777Y-17153150D02*
X9656825Y-17162674D01*
X9656825Y-17162674D02*
X9666348Y-17181722D01*
X9666348Y-17181722D02*
X9666348Y-17286484D01*
X9761586Y-17286484D02*
X9761586Y-17153150D01*
X9761586Y-17172198D02*
X9771110Y-17162674D01*
X9771110Y-17162674D02*
X9790158Y-17153150D01*
X9790158Y-17153150D02*
X9818729Y-17153150D01*
X9818729Y-17153150D02*
X9837777Y-17162674D01*
X9837777Y-17162674D02*
X9847301Y-17181722D01*
X9847301Y-17181722D02*
X9847301Y-17286484D01*
X9847301Y-17181722D02*
X9856825Y-17162674D01*
X9856825Y-17162674D02*
X9875872Y-17153150D01*
X9875872Y-17153150D02*
X9904444Y-17153150D01*
X9904444Y-17153150D02*
X9923491Y-17162674D01*
X9923491Y-17162674D02*
X9933015Y-17181722D01*
X9933015Y-17181722D02*
X9933015Y-17286484D01*
X10323491Y-17076960D02*
X10152063Y-17334103D01*
X10580634Y-17086484D02*
X10599682Y-17086484D01*
X10599682Y-17086484D02*
X10618729Y-17096008D01*
X10618729Y-17096008D02*
X10628253Y-17105531D01*
X10628253Y-17105531D02*
X10637777Y-17124579D01*
X10637777Y-17124579D02*
X10647301Y-17162674D01*
X10647301Y-17162674D02*
X10647301Y-17210293D01*
X10647301Y-17210293D02*
X10637777Y-17248389D01*
X10637777Y-17248389D02*
X10628253Y-17267436D01*
X10628253Y-17267436D02*
X10618729Y-17276960D01*
X10618729Y-17276960D02*
X10599682Y-17286484D01*
X10599682Y-17286484D02*
X10580634Y-17286484D01*
X10580634Y-17286484D02*
X10561587Y-17276960D01*
X10561587Y-17276960D02*
X10552063Y-17267436D01*
X10552063Y-17267436D02*
X10542539Y-17248389D01*
X10542539Y-17248389D02*
X10533015Y-17210293D01*
X10533015Y-17210293D02*
X10533015Y-17162674D01*
X10533015Y-17162674D02*
X10542539Y-17124579D01*
X10542539Y-17124579D02*
X10552063Y-17105531D01*
X10552063Y-17105531D02*
X10561587Y-17096008D01*
X10561587Y-17096008D02*
X10580634Y-17086484D01*
X10733015Y-17267436D02*
X10742539Y-17276960D01*
X10742539Y-17276960D02*
X10733015Y-17286484D01*
X10733015Y-17286484D02*
X10723491Y-17276960D01*
X10723491Y-17276960D02*
X10733015Y-17267436D01*
X10733015Y-17267436D02*
X10733015Y-17286484D01*
X10866348Y-17086484D02*
X10885396Y-17086484D01*
X10885396Y-17086484D02*
X10904444Y-17096008D01*
X10904444Y-17096008D02*
X10913968Y-17105531D01*
X10913968Y-17105531D02*
X10923491Y-17124579D01*
X10923491Y-17124579D02*
X10933015Y-17162674D01*
X10933015Y-17162674D02*
X10933015Y-17210293D01*
X10933015Y-17210293D02*
X10923491Y-17248389D01*
X10923491Y-17248389D02*
X10913968Y-17267436D01*
X10913968Y-17267436D02*
X10904444Y-17276960D01*
X10904444Y-17276960D02*
X10885396Y-17286484D01*
X10885396Y-17286484D02*
X10866348Y-17286484D01*
X10866348Y-17286484D02*
X10847301Y-17276960D01*
X10847301Y-17276960D02*
X10837777Y-17267436D01*
X10837777Y-17267436D02*
X10828253Y-17248389D01*
X10828253Y-17248389D02*
X10818729Y-17210293D01*
X10818729Y-17210293D02*
X10818729Y-17162674D01*
X10818729Y-17162674D02*
X10828253Y-17124579D01*
X10828253Y-17124579D02*
X10837777Y-17105531D01*
X10837777Y-17105531D02*
X10847301Y-17096008D01*
X10847301Y-17096008D02*
X10866348Y-17086484D01*
X10999682Y-17086484D02*
X11123491Y-17086484D01*
X11123491Y-17086484D02*
X11056825Y-17162674D01*
X11056825Y-17162674D02*
X11085396Y-17162674D01*
X11085396Y-17162674D02*
X11104444Y-17172198D01*
X11104444Y-17172198D02*
X11113968Y-17181722D01*
X11113968Y-17181722D02*
X11123491Y-17200770D01*
X11123491Y-17200770D02*
X11123491Y-17248389D01*
X11123491Y-17248389D02*
X11113968Y-17267436D01*
X11113968Y-17267436D02*
X11104444Y-17276960D01*
X11104444Y-17276960D02*
X11085396Y-17286484D01*
X11085396Y-17286484D02*
X11028253Y-17286484D01*
X11028253Y-17286484D02*
X11009206Y-17276960D01*
X11009206Y-17276960D02*
X10999682Y-17267436D01*
X11218729Y-17286484D02*
X11256825Y-17286484D01*
X11256825Y-17286484D02*
X11275872Y-17276960D01*
X11275872Y-17276960D02*
X11285396Y-17267436D01*
X11285396Y-17267436D02*
X11304444Y-17238865D01*
X11304444Y-17238865D02*
X11313967Y-17200770D01*
X11313967Y-17200770D02*
X11313967Y-17124579D01*
X11313967Y-17124579D02*
X11304444Y-17105531D01*
X11304444Y-17105531D02*
X11294920Y-17096008D01*
X11294920Y-17096008D02*
X11275872Y-17086484D01*
X11275872Y-17086484D02*
X11237777Y-17086484D01*
X11237777Y-17086484D02*
X11218729Y-17096008D01*
X11218729Y-17096008D02*
X11209206Y-17105531D01*
X11209206Y-17105531D02*
X11199682Y-17124579D01*
X11199682Y-17124579D02*
X11199682Y-17172198D01*
X11199682Y-17172198D02*
X11209206Y-17191246D01*
X11209206Y-17191246D02*
X11218729Y-17200770D01*
X11218729Y-17200770D02*
X11237777Y-17210293D01*
X11237777Y-17210293D02*
X11275872Y-17210293D01*
X11275872Y-17210293D02*
X11294920Y-17200770D01*
X11294920Y-17200770D02*
X11304444Y-17191246D01*
X11304444Y-17191246D02*
X11313967Y-17172198D01*
X11485396Y-17153150D02*
X11485396Y-17286484D01*
X11437777Y-17076960D02*
X11390158Y-17219817D01*
X11390158Y-17219817D02*
X11513967Y-17219817D01*
X11580634Y-17086484D02*
X11580634Y-17124579D01*
X11656825Y-17086484D02*
X11656825Y-17124579D01*
X11952063Y-17362674D02*
X11942539Y-17353150D01*
X11942539Y-17353150D02*
X11923491Y-17324579D01*
X11923491Y-17324579D02*
X11913968Y-17305531D01*
X11913968Y-17305531D02*
X11904444Y-17276960D01*
X11904444Y-17276960D02*
X11894920Y-17229341D01*
X11894920Y-17229341D02*
X11894920Y-17191246D01*
X11894920Y-17191246D02*
X11904444Y-17143627D01*
X11904444Y-17143627D02*
X11913968Y-17115055D01*
X11913968Y-17115055D02*
X11923491Y-17096008D01*
X11923491Y-17096008D02*
X11942539Y-17067436D01*
X11942539Y-17067436D02*
X11952063Y-17057912D01*
X12133015Y-17286484D02*
X12018729Y-17286484D01*
X12075872Y-17286484D02*
X12075872Y-17086484D01*
X12075872Y-17086484D02*
X12056825Y-17115055D01*
X12056825Y-17115055D02*
X12037777Y-17134103D01*
X12037777Y-17134103D02*
X12018729Y-17143627D01*
X12304444Y-17086484D02*
X12266348Y-17086484D01*
X12266348Y-17086484D02*
X12247301Y-17096008D01*
X12247301Y-17096008D02*
X12237777Y-17105531D01*
X12237777Y-17105531D02*
X12218729Y-17134103D01*
X12218729Y-17134103D02*
X12209206Y-17172198D01*
X12209206Y-17172198D02*
X12209206Y-17248389D01*
X12209206Y-17248389D02*
X12218729Y-17267436D01*
X12218729Y-17267436D02*
X12228253Y-17276960D01*
X12228253Y-17276960D02*
X12247301Y-17286484D01*
X12247301Y-17286484D02*
X12285396Y-17286484D01*
X12285396Y-17286484D02*
X12304444Y-17276960D01*
X12304444Y-17276960D02*
X12313968Y-17267436D01*
X12313968Y-17267436D02*
X12323491Y-17248389D01*
X12323491Y-17248389D02*
X12323491Y-17200770D01*
X12323491Y-17200770D02*
X12313968Y-17181722D01*
X12313968Y-17181722D02*
X12304444Y-17172198D01*
X12304444Y-17172198D02*
X12285396Y-17162674D01*
X12285396Y-17162674D02*
X12247301Y-17162674D01*
X12247301Y-17162674D02*
X12228253Y-17172198D01*
X12228253Y-17172198D02*
X12218729Y-17181722D01*
X12218729Y-17181722D02*
X12209206Y-17200770D01*
X12561587Y-17286484D02*
X12561587Y-17086484D01*
X12647301Y-17286484D02*
X12647301Y-17181722D01*
X12647301Y-17181722D02*
X12637777Y-17162674D01*
X12637777Y-17162674D02*
X12618730Y-17153150D01*
X12618730Y-17153150D02*
X12590158Y-17153150D01*
X12590158Y-17153150D02*
X12571110Y-17162674D01*
X12571110Y-17162674D02*
X12561587Y-17172198D01*
X12771110Y-17286484D02*
X12752063Y-17276960D01*
X12752063Y-17276960D02*
X12742539Y-17267436D01*
X12742539Y-17267436D02*
X12733015Y-17248389D01*
X12733015Y-17248389D02*
X12733015Y-17191246D01*
X12733015Y-17191246D02*
X12742539Y-17172198D01*
X12742539Y-17172198D02*
X12752063Y-17162674D01*
X12752063Y-17162674D02*
X12771110Y-17153150D01*
X12771110Y-17153150D02*
X12799682Y-17153150D01*
X12799682Y-17153150D02*
X12818730Y-17162674D01*
X12818730Y-17162674D02*
X12828253Y-17172198D01*
X12828253Y-17172198D02*
X12837777Y-17191246D01*
X12837777Y-17191246D02*
X12837777Y-17248389D01*
X12837777Y-17248389D02*
X12828253Y-17267436D01*
X12828253Y-17267436D02*
X12818730Y-17276960D01*
X12818730Y-17276960D02*
X12799682Y-17286484D01*
X12799682Y-17286484D02*
X12771110Y-17286484D01*
X12952063Y-17286484D02*
X12933015Y-17276960D01*
X12933015Y-17276960D02*
X12923491Y-17257912D01*
X12923491Y-17257912D02*
X12923491Y-17086484D01*
X13104444Y-17276960D02*
X13085396Y-17286484D01*
X13085396Y-17286484D02*
X13047301Y-17286484D01*
X13047301Y-17286484D02*
X13028253Y-17276960D01*
X13028253Y-17276960D02*
X13018730Y-17257912D01*
X13018730Y-17257912D02*
X13018730Y-17181722D01*
X13018730Y-17181722D02*
X13028253Y-17162674D01*
X13028253Y-17162674D02*
X13047301Y-17153150D01*
X13047301Y-17153150D02*
X13085396Y-17153150D01*
X13085396Y-17153150D02*
X13104444Y-17162674D01*
X13104444Y-17162674D02*
X13113968Y-17181722D01*
X13113968Y-17181722D02*
X13113968Y-17200770D01*
X13113968Y-17200770D02*
X13018730Y-17219817D01*
X13190158Y-17276960D02*
X13209206Y-17286484D01*
X13209206Y-17286484D02*
X13247301Y-17286484D01*
X13247301Y-17286484D02*
X13266349Y-17276960D01*
X13266349Y-17276960D02*
X13275872Y-17257912D01*
X13275872Y-17257912D02*
X13275872Y-17248389D01*
X13275872Y-17248389D02*
X13266349Y-17229341D01*
X13266349Y-17229341D02*
X13247301Y-17219817D01*
X13247301Y-17219817D02*
X13218730Y-17219817D01*
X13218730Y-17219817D02*
X13199682Y-17210293D01*
X13199682Y-17210293D02*
X13190158Y-17191246D01*
X13190158Y-17191246D02*
X13190158Y-17181722D01*
X13190158Y-17181722D02*
X13199682Y-17162674D01*
X13199682Y-17162674D02*
X13218730Y-17153150D01*
X13218730Y-17153150D02*
X13247301Y-17153150D01*
X13247301Y-17153150D02*
X13266349Y-17162674D01*
X13342539Y-17362674D02*
X13352063Y-17353150D01*
X13352063Y-17353150D02*
X13371111Y-17324579D01*
X13371111Y-17324579D02*
X13380634Y-17305531D01*
X13380634Y-17305531D02*
X13390158Y-17276960D01*
X13390158Y-17276960D02*
X13399682Y-17229341D01*
X13399682Y-17229341D02*
X13399682Y-17191246D01*
X13399682Y-17191246D02*
X13390158Y-17143627D01*
X13390158Y-17143627D02*
X13380634Y-17115055D01*
X13380634Y-17115055D02*
X13371111Y-17096008D01*
X13371111Y-17096008D02*
X13352063Y-17067436D01*
X13352063Y-17067436D02*
X13342539Y-17057912D01*
D16*
X8247000Y-17394000D02*
X8377000Y-17524000D01*
X8377000Y-17394000D02*
X8247000Y-17524000D01*
X8377000Y-17459000D02*
G75*
G03*
X8377000Y-17459000I-65000J0D01*
G01*
D11*
X8742539Y-17550484D02*
X8628253Y-17550484D01*
X8685396Y-17550484D02*
X8685396Y-17350484D01*
X8685396Y-17350484D02*
X8666348Y-17379055D01*
X8666348Y-17379055D02*
X8647301Y-17398103D01*
X8647301Y-17398103D02*
X8628253Y-17407627D01*
X8828253Y-17531436D02*
X8837777Y-17540960D01*
X8837777Y-17540960D02*
X8828253Y-17550484D01*
X8828253Y-17550484D02*
X8818729Y-17540960D01*
X8818729Y-17540960D02*
X8828253Y-17531436D01*
X8828253Y-17531436D02*
X8828253Y-17550484D01*
X8904444Y-17350484D02*
X9028253Y-17350484D01*
X9028253Y-17350484D02*
X8961586Y-17426674D01*
X8961586Y-17426674D02*
X8990158Y-17426674D01*
X8990158Y-17426674D02*
X9009205Y-17436198D01*
X9009205Y-17436198D02*
X9018729Y-17445722D01*
X9018729Y-17445722D02*
X9028253Y-17464770D01*
X9028253Y-17464770D02*
X9028253Y-17512389D01*
X9028253Y-17512389D02*
X9018729Y-17531436D01*
X9018729Y-17531436D02*
X9009205Y-17540960D01*
X9009205Y-17540960D02*
X8990158Y-17550484D01*
X8990158Y-17550484D02*
X8933015Y-17550484D01*
X8933015Y-17550484D02*
X8913967Y-17540960D01*
X8913967Y-17540960D02*
X8904444Y-17531436D01*
X9152063Y-17350484D02*
X9171110Y-17350484D01*
X9171110Y-17350484D02*
X9190158Y-17360008D01*
X9190158Y-17360008D02*
X9199682Y-17369531D01*
X9199682Y-17369531D02*
X9209205Y-17388579D01*
X9209205Y-17388579D02*
X9218729Y-17426674D01*
X9218729Y-17426674D02*
X9218729Y-17474293D01*
X9218729Y-17474293D02*
X9209205Y-17512389D01*
X9209205Y-17512389D02*
X9199682Y-17531436D01*
X9199682Y-17531436D02*
X9190158Y-17540960D01*
X9190158Y-17540960D02*
X9171110Y-17550484D01*
X9171110Y-17550484D02*
X9152063Y-17550484D01*
X9152063Y-17550484D02*
X9133015Y-17540960D01*
X9133015Y-17540960D02*
X9123491Y-17531436D01*
X9123491Y-17531436D02*
X9113967Y-17512389D01*
X9113967Y-17512389D02*
X9104444Y-17474293D01*
X9104444Y-17474293D02*
X9104444Y-17426674D01*
X9104444Y-17426674D02*
X9113967Y-17388579D01*
X9113967Y-17388579D02*
X9123491Y-17369531D01*
X9123491Y-17369531D02*
X9133015Y-17360008D01*
X9133015Y-17360008D02*
X9152063Y-17350484D01*
X9342539Y-17350484D02*
X9361586Y-17350484D01*
X9361586Y-17350484D02*
X9380634Y-17360008D01*
X9380634Y-17360008D02*
X9390158Y-17369531D01*
X9390158Y-17369531D02*
X9399682Y-17388579D01*
X9399682Y-17388579D02*
X9409205Y-17426674D01*
X9409205Y-17426674D02*
X9409205Y-17474293D01*
X9409205Y-17474293D02*
X9399682Y-17512389D01*
X9399682Y-17512389D02*
X9390158Y-17531436D01*
X9390158Y-17531436D02*
X9380634Y-17540960D01*
X9380634Y-17540960D02*
X9361586Y-17550484D01*
X9361586Y-17550484D02*
X9342539Y-17550484D01*
X9342539Y-17550484D02*
X9323491Y-17540960D01*
X9323491Y-17540960D02*
X9313967Y-17531436D01*
X9313967Y-17531436D02*
X9304444Y-17512389D01*
X9304444Y-17512389D02*
X9294920Y-17474293D01*
X9294920Y-17474293D02*
X9294920Y-17426674D01*
X9294920Y-17426674D02*
X9304444Y-17388579D01*
X9304444Y-17388579D02*
X9313967Y-17369531D01*
X9313967Y-17369531D02*
X9323491Y-17360008D01*
X9323491Y-17360008D02*
X9342539Y-17350484D01*
X9494920Y-17550484D02*
X9494920Y-17417150D01*
X9494920Y-17436198D02*
X9504444Y-17426674D01*
X9504444Y-17426674D02*
X9523491Y-17417150D01*
X9523491Y-17417150D02*
X9552063Y-17417150D01*
X9552063Y-17417150D02*
X9571110Y-17426674D01*
X9571110Y-17426674D02*
X9580634Y-17445722D01*
X9580634Y-17445722D02*
X9580634Y-17550484D01*
X9580634Y-17445722D02*
X9590158Y-17426674D01*
X9590158Y-17426674D02*
X9609205Y-17417150D01*
X9609205Y-17417150D02*
X9637777Y-17417150D01*
X9637777Y-17417150D02*
X9656825Y-17426674D01*
X9656825Y-17426674D02*
X9666348Y-17445722D01*
X9666348Y-17445722D02*
X9666348Y-17550484D01*
X9761586Y-17550484D02*
X9761586Y-17417150D01*
X9761586Y-17436198D02*
X9771110Y-17426674D01*
X9771110Y-17426674D02*
X9790158Y-17417150D01*
X9790158Y-17417150D02*
X9818729Y-17417150D01*
X9818729Y-17417150D02*
X9837777Y-17426674D01*
X9837777Y-17426674D02*
X9847301Y-17445722D01*
X9847301Y-17445722D02*
X9847301Y-17550484D01*
X9847301Y-17445722D02*
X9856825Y-17426674D01*
X9856825Y-17426674D02*
X9875872Y-17417150D01*
X9875872Y-17417150D02*
X9904444Y-17417150D01*
X9904444Y-17417150D02*
X9923491Y-17426674D01*
X9923491Y-17426674D02*
X9933015Y-17445722D01*
X9933015Y-17445722D02*
X9933015Y-17550484D01*
X10323491Y-17340960D02*
X10152063Y-17598103D01*
X10580634Y-17350484D02*
X10599682Y-17350484D01*
X10599682Y-17350484D02*
X10618729Y-17360008D01*
X10618729Y-17360008D02*
X10628253Y-17369531D01*
X10628253Y-17369531D02*
X10637777Y-17388579D01*
X10637777Y-17388579D02*
X10647301Y-17426674D01*
X10647301Y-17426674D02*
X10647301Y-17474293D01*
X10647301Y-17474293D02*
X10637777Y-17512389D01*
X10637777Y-17512389D02*
X10628253Y-17531436D01*
X10628253Y-17531436D02*
X10618729Y-17540960D01*
X10618729Y-17540960D02*
X10599682Y-17550484D01*
X10599682Y-17550484D02*
X10580634Y-17550484D01*
X10580634Y-17550484D02*
X10561587Y-17540960D01*
X10561587Y-17540960D02*
X10552063Y-17531436D01*
X10552063Y-17531436D02*
X10542539Y-17512389D01*
X10542539Y-17512389D02*
X10533015Y-17474293D01*
X10533015Y-17474293D02*
X10533015Y-17426674D01*
X10533015Y-17426674D02*
X10542539Y-17388579D01*
X10542539Y-17388579D02*
X10552063Y-17369531D01*
X10552063Y-17369531D02*
X10561587Y-17360008D01*
X10561587Y-17360008D02*
X10580634Y-17350484D01*
X10733015Y-17531436D02*
X10742539Y-17540960D01*
X10742539Y-17540960D02*
X10733015Y-17550484D01*
X10733015Y-17550484D02*
X10723491Y-17540960D01*
X10723491Y-17540960D02*
X10733015Y-17531436D01*
X10733015Y-17531436D02*
X10733015Y-17550484D01*
X10866348Y-17350484D02*
X10885396Y-17350484D01*
X10885396Y-17350484D02*
X10904444Y-17360008D01*
X10904444Y-17360008D02*
X10913968Y-17369531D01*
X10913968Y-17369531D02*
X10923491Y-17388579D01*
X10923491Y-17388579D02*
X10933015Y-17426674D01*
X10933015Y-17426674D02*
X10933015Y-17474293D01*
X10933015Y-17474293D02*
X10923491Y-17512389D01*
X10923491Y-17512389D02*
X10913968Y-17531436D01*
X10913968Y-17531436D02*
X10904444Y-17540960D01*
X10904444Y-17540960D02*
X10885396Y-17550484D01*
X10885396Y-17550484D02*
X10866348Y-17550484D01*
X10866348Y-17550484D02*
X10847301Y-17540960D01*
X10847301Y-17540960D02*
X10837777Y-17531436D01*
X10837777Y-17531436D02*
X10828253Y-17512389D01*
X10828253Y-17512389D02*
X10818729Y-17474293D01*
X10818729Y-17474293D02*
X10818729Y-17426674D01*
X10818729Y-17426674D02*
X10828253Y-17388579D01*
X10828253Y-17388579D02*
X10837777Y-17369531D01*
X10837777Y-17369531D02*
X10847301Y-17360008D01*
X10847301Y-17360008D02*
X10866348Y-17350484D01*
X11113968Y-17350484D02*
X11018729Y-17350484D01*
X11018729Y-17350484D02*
X11009206Y-17445722D01*
X11009206Y-17445722D02*
X11018729Y-17436198D01*
X11018729Y-17436198D02*
X11037777Y-17426674D01*
X11037777Y-17426674D02*
X11085396Y-17426674D01*
X11085396Y-17426674D02*
X11104444Y-17436198D01*
X11104444Y-17436198D02*
X11113968Y-17445722D01*
X11113968Y-17445722D02*
X11123491Y-17464770D01*
X11123491Y-17464770D02*
X11123491Y-17512389D01*
X11123491Y-17512389D02*
X11113968Y-17531436D01*
X11113968Y-17531436D02*
X11104444Y-17540960D01*
X11104444Y-17540960D02*
X11085396Y-17550484D01*
X11085396Y-17550484D02*
X11037777Y-17550484D01*
X11037777Y-17550484D02*
X11018729Y-17540960D01*
X11018729Y-17540960D02*
X11009206Y-17531436D01*
X11313967Y-17550484D02*
X11199682Y-17550484D01*
X11256825Y-17550484D02*
X11256825Y-17350484D01*
X11256825Y-17350484D02*
X11237777Y-17379055D01*
X11237777Y-17379055D02*
X11218729Y-17398103D01*
X11218729Y-17398103D02*
X11199682Y-17407627D01*
X11390158Y-17369531D02*
X11399682Y-17360008D01*
X11399682Y-17360008D02*
X11418729Y-17350484D01*
X11418729Y-17350484D02*
X11466348Y-17350484D01*
X11466348Y-17350484D02*
X11485396Y-17360008D01*
X11485396Y-17360008D02*
X11494920Y-17369531D01*
X11494920Y-17369531D02*
X11504444Y-17388579D01*
X11504444Y-17388579D02*
X11504444Y-17407627D01*
X11504444Y-17407627D02*
X11494920Y-17436198D01*
X11494920Y-17436198D02*
X11380634Y-17550484D01*
X11380634Y-17550484D02*
X11504444Y-17550484D01*
X11580634Y-17350484D02*
X11580634Y-17388579D01*
X11656825Y-17350484D02*
X11656825Y-17388579D01*
X11952063Y-17626674D02*
X11942539Y-17617150D01*
X11942539Y-17617150D02*
X11923491Y-17588579D01*
X11923491Y-17588579D02*
X11913968Y-17569531D01*
X11913968Y-17569531D02*
X11904444Y-17540960D01*
X11904444Y-17540960D02*
X11894920Y-17493341D01*
X11894920Y-17493341D02*
X11894920Y-17455246D01*
X11894920Y-17455246D02*
X11904444Y-17407627D01*
X11904444Y-17407627D02*
X11913968Y-17379055D01*
X11913968Y-17379055D02*
X11923491Y-17360008D01*
X11923491Y-17360008D02*
X11942539Y-17331436D01*
X11942539Y-17331436D02*
X11952063Y-17321912D01*
X12009206Y-17350484D02*
X12133015Y-17350484D01*
X12133015Y-17350484D02*
X12066348Y-17426674D01*
X12066348Y-17426674D02*
X12094920Y-17426674D01*
X12094920Y-17426674D02*
X12113968Y-17436198D01*
X12113968Y-17436198D02*
X12123491Y-17445722D01*
X12123491Y-17445722D02*
X12133015Y-17464770D01*
X12133015Y-17464770D02*
X12133015Y-17512389D01*
X12133015Y-17512389D02*
X12123491Y-17531436D01*
X12123491Y-17531436D02*
X12113968Y-17540960D01*
X12113968Y-17540960D02*
X12094920Y-17550484D01*
X12094920Y-17550484D02*
X12037777Y-17550484D01*
X12037777Y-17550484D02*
X12018729Y-17540960D01*
X12018729Y-17540960D02*
X12009206Y-17531436D01*
X12228253Y-17550484D02*
X12266348Y-17550484D01*
X12266348Y-17550484D02*
X12285396Y-17540960D01*
X12285396Y-17540960D02*
X12294920Y-17531436D01*
X12294920Y-17531436D02*
X12313968Y-17502865D01*
X12313968Y-17502865D02*
X12323491Y-17464770D01*
X12323491Y-17464770D02*
X12323491Y-17388579D01*
X12323491Y-17388579D02*
X12313968Y-17369531D01*
X12313968Y-17369531D02*
X12304444Y-17360008D01*
X12304444Y-17360008D02*
X12285396Y-17350484D01*
X12285396Y-17350484D02*
X12247301Y-17350484D01*
X12247301Y-17350484D02*
X12228253Y-17360008D01*
X12228253Y-17360008D02*
X12218729Y-17369531D01*
X12218729Y-17369531D02*
X12209206Y-17388579D01*
X12209206Y-17388579D02*
X12209206Y-17436198D01*
X12209206Y-17436198D02*
X12218729Y-17455246D01*
X12218729Y-17455246D02*
X12228253Y-17464770D01*
X12228253Y-17464770D02*
X12247301Y-17474293D01*
X12247301Y-17474293D02*
X12285396Y-17474293D01*
X12285396Y-17474293D02*
X12304444Y-17464770D01*
X12304444Y-17464770D02*
X12313968Y-17455246D01*
X12313968Y-17455246D02*
X12323491Y-17436198D01*
X12561587Y-17550484D02*
X12561587Y-17350484D01*
X12647301Y-17550484D02*
X12647301Y-17445722D01*
X12647301Y-17445722D02*
X12637777Y-17426674D01*
X12637777Y-17426674D02*
X12618730Y-17417150D01*
X12618730Y-17417150D02*
X12590158Y-17417150D01*
X12590158Y-17417150D02*
X12571110Y-17426674D01*
X12571110Y-17426674D02*
X12561587Y-17436198D01*
X12771110Y-17550484D02*
X12752063Y-17540960D01*
X12752063Y-17540960D02*
X12742539Y-17531436D01*
X12742539Y-17531436D02*
X12733015Y-17512389D01*
X12733015Y-17512389D02*
X12733015Y-17455246D01*
X12733015Y-17455246D02*
X12742539Y-17436198D01*
X12742539Y-17436198D02*
X12752063Y-17426674D01*
X12752063Y-17426674D02*
X12771110Y-17417150D01*
X12771110Y-17417150D02*
X12799682Y-17417150D01*
X12799682Y-17417150D02*
X12818730Y-17426674D01*
X12818730Y-17426674D02*
X12828253Y-17436198D01*
X12828253Y-17436198D02*
X12837777Y-17455246D01*
X12837777Y-17455246D02*
X12837777Y-17512389D01*
X12837777Y-17512389D02*
X12828253Y-17531436D01*
X12828253Y-17531436D02*
X12818730Y-17540960D01*
X12818730Y-17540960D02*
X12799682Y-17550484D01*
X12799682Y-17550484D02*
X12771110Y-17550484D01*
X12952063Y-17550484D02*
X12933015Y-17540960D01*
X12933015Y-17540960D02*
X12923491Y-17521912D01*
X12923491Y-17521912D02*
X12923491Y-17350484D01*
X13104444Y-17540960D02*
X13085396Y-17550484D01*
X13085396Y-17550484D02*
X13047301Y-17550484D01*
X13047301Y-17550484D02*
X13028253Y-17540960D01*
X13028253Y-17540960D02*
X13018730Y-17521912D01*
X13018730Y-17521912D02*
X13018730Y-17445722D01*
X13018730Y-17445722D02*
X13028253Y-17426674D01*
X13028253Y-17426674D02*
X13047301Y-17417150D01*
X13047301Y-17417150D02*
X13085396Y-17417150D01*
X13085396Y-17417150D02*
X13104444Y-17426674D01*
X13104444Y-17426674D02*
X13113968Y-17445722D01*
X13113968Y-17445722D02*
X13113968Y-17464770D01*
X13113968Y-17464770D02*
X13018730Y-17483817D01*
X13190158Y-17540960D02*
X13209206Y-17550484D01*
X13209206Y-17550484D02*
X13247301Y-17550484D01*
X13247301Y-17550484D02*
X13266349Y-17540960D01*
X13266349Y-17540960D02*
X13275872Y-17521912D01*
X13275872Y-17521912D02*
X13275872Y-17512389D01*
X13275872Y-17512389D02*
X13266349Y-17493341D01*
X13266349Y-17493341D02*
X13247301Y-17483817D01*
X13247301Y-17483817D02*
X13218730Y-17483817D01*
X13218730Y-17483817D02*
X13199682Y-17474293D01*
X13199682Y-17474293D02*
X13190158Y-17455246D01*
X13190158Y-17455246D02*
X13190158Y-17445722D01*
X13190158Y-17445722D02*
X13199682Y-17426674D01*
X13199682Y-17426674D02*
X13218730Y-17417150D01*
X13218730Y-17417150D02*
X13247301Y-17417150D01*
X13247301Y-17417150D02*
X13266349Y-17426674D01*
X13342539Y-17626674D02*
X13352063Y-17617150D01*
X13352063Y-17617150D02*
X13371111Y-17588579D01*
X13371111Y-17588579D02*
X13380634Y-17569531D01*
X13380634Y-17569531D02*
X13390158Y-17540960D01*
X13390158Y-17540960D02*
X13399682Y-17493341D01*
X13399682Y-17493341D02*
X13399682Y-17455246D01*
X13399682Y-17455246D02*
X13390158Y-17407627D01*
X13390158Y-17407627D02*
X13380634Y-17379055D01*
X13380634Y-17379055D02*
X13371111Y-17360008D01*
X13371111Y-17360008D02*
X13352063Y-17331436D01*
X13352063Y-17331436D02*
X13342539Y-17321912D01*
X8177000Y-17623000D02*
X8377000Y-17823000D01*
X8377000Y-17623000D02*
X8177000Y-17823000D01*
X8277000Y-17623000D02*
X8277000Y-17823000D01*
X8177000Y-17723000D02*
X8377000Y-17723000D01*
X8618729Y-17614484D02*
X8742539Y-17614484D01*
X8742539Y-17614484D02*
X8675872Y-17690674D01*
X8675872Y-17690674D02*
X8704444Y-17690674D01*
X8704444Y-17690674D02*
X8723491Y-17700198D01*
X8723491Y-17700198D02*
X8733015Y-17709722D01*
X8733015Y-17709722D02*
X8742539Y-17728770D01*
X8742539Y-17728770D02*
X8742539Y-17776389D01*
X8742539Y-17776389D02*
X8733015Y-17795436D01*
X8733015Y-17795436D02*
X8723491Y-17804960D01*
X8723491Y-17804960D02*
X8704444Y-17814484D01*
X8704444Y-17814484D02*
X8647301Y-17814484D01*
X8647301Y-17814484D02*
X8628253Y-17804960D01*
X8628253Y-17804960D02*
X8618729Y-17795436D01*
X8828253Y-17795436D02*
X8837777Y-17804960D01*
X8837777Y-17804960D02*
X8828253Y-17814484D01*
X8828253Y-17814484D02*
X8818729Y-17804960D01*
X8818729Y-17804960D02*
X8828253Y-17795436D01*
X8828253Y-17795436D02*
X8828253Y-17814484D01*
X8913967Y-17633531D02*
X8923491Y-17624008D01*
X8923491Y-17624008D02*
X8942539Y-17614484D01*
X8942539Y-17614484D02*
X8990158Y-17614484D01*
X8990158Y-17614484D02*
X9009205Y-17624008D01*
X9009205Y-17624008D02*
X9018729Y-17633531D01*
X9018729Y-17633531D02*
X9028253Y-17652579D01*
X9028253Y-17652579D02*
X9028253Y-17671627D01*
X9028253Y-17671627D02*
X9018729Y-17700198D01*
X9018729Y-17700198D02*
X8904444Y-17814484D01*
X8904444Y-17814484D02*
X9028253Y-17814484D01*
X9152063Y-17614484D02*
X9171110Y-17614484D01*
X9171110Y-17614484D02*
X9190158Y-17624008D01*
X9190158Y-17624008D02*
X9199682Y-17633531D01*
X9199682Y-17633531D02*
X9209205Y-17652579D01*
X9209205Y-17652579D02*
X9218729Y-17690674D01*
X9218729Y-17690674D02*
X9218729Y-17738293D01*
X9218729Y-17738293D02*
X9209205Y-17776389D01*
X9209205Y-17776389D02*
X9199682Y-17795436D01*
X9199682Y-17795436D02*
X9190158Y-17804960D01*
X9190158Y-17804960D02*
X9171110Y-17814484D01*
X9171110Y-17814484D02*
X9152063Y-17814484D01*
X9152063Y-17814484D02*
X9133015Y-17804960D01*
X9133015Y-17804960D02*
X9123491Y-17795436D01*
X9123491Y-17795436D02*
X9113967Y-17776389D01*
X9113967Y-17776389D02*
X9104444Y-17738293D01*
X9104444Y-17738293D02*
X9104444Y-17690674D01*
X9104444Y-17690674D02*
X9113967Y-17652579D01*
X9113967Y-17652579D02*
X9123491Y-17633531D01*
X9123491Y-17633531D02*
X9133015Y-17624008D01*
X9133015Y-17624008D02*
X9152063Y-17614484D01*
X9342539Y-17614484D02*
X9361586Y-17614484D01*
X9361586Y-17614484D02*
X9380634Y-17624008D01*
X9380634Y-17624008D02*
X9390158Y-17633531D01*
X9390158Y-17633531D02*
X9399682Y-17652579D01*
X9399682Y-17652579D02*
X9409205Y-17690674D01*
X9409205Y-17690674D02*
X9409205Y-17738293D01*
X9409205Y-17738293D02*
X9399682Y-17776389D01*
X9399682Y-17776389D02*
X9390158Y-17795436D01*
X9390158Y-17795436D02*
X9380634Y-17804960D01*
X9380634Y-17804960D02*
X9361586Y-17814484D01*
X9361586Y-17814484D02*
X9342539Y-17814484D01*
X9342539Y-17814484D02*
X9323491Y-17804960D01*
X9323491Y-17804960D02*
X9313967Y-17795436D01*
X9313967Y-17795436D02*
X9304444Y-17776389D01*
X9304444Y-17776389D02*
X9294920Y-17738293D01*
X9294920Y-17738293D02*
X9294920Y-17690674D01*
X9294920Y-17690674D02*
X9304444Y-17652579D01*
X9304444Y-17652579D02*
X9313967Y-17633531D01*
X9313967Y-17633531D02*
X9323491Y-17624008D01*
X9323491Y-17624008D02*
X9342539Y-17614484D01*
X9494920Y-17814484D02*
X9494920Y-17681150D01*
X9494920Y-17700198D02*
X9504444Y-17690674D01*
X9504444Y-17690674D02*
X9523491Y-17681150D01*
X9523491Y-17681150D02*
X9552063Y-17681150D01*
X9552063Y-17681150D02*
X9571110Y-17690674D01*
X9571110Y-17690674D02*
X9580634Y-17709722D01*
X9580634Y-17709722D02*
X9580634Y-17814484D01*
X9580634Y-17709722D02*
X9590158Y-17690674D01*
X9590158Y-17690674D02*
X9609205Y-17681150D01*
X9609205Y-17681150D02*
X9637777Y-17681150D01*
X9637777Y-17681150D02*
X9656825Y-17690674D01*
X9656825Y-17690674D02*
X9666348Y-17709722D01*
X9666348Y-17709722D02*
X9666348Y-17814484D01*
X9761586Y-17814484D02*
X9761586Y-17681150D01*
X9761586Y-17700198D02*
X9771110Y-17690674D01*
X9771110Y-17690674D02*
X9790158Y-17681150D01*
X9790158Y-17681150D02*
X9818729Y-17681150D01*
X9818729Y-17681150D02*
X9837777Y-17690674D01*
X9837777Y-17690674D02*
X9847301Y-17709722D01*
X9847301Y-17709722D02*
X9847301Y-17814484D01*
X9847301Y-17709722D02*
X9856825Y-17690674D01*
X9856825Y-17690674D02*
X9875872Y-17681150D01*
X9875872Y-17681150D02*
X9904444Y-17681150D01*
X9904444Y-17681150D02*
X9923491Y-17690674D01*
X9923491Y-17690674D02*
X9933015Y-17709722D01*
X9933015Y-17709722D02*
X9933015Y-17814484D01*
X10323491Y-17604960D02*
X10152063Y-17862103D01*
X10580634Y-17614484D02*
X10599682Y-17614484D01*
X10599682Y-17614484D02*
X10618729Y-17624008D01*
X10618729Y-17624008D02*
X10628253Y-17633531D01*
X10628253Y-17633531D02*
X10637777Y-17652579D01*
X10637777Y-17652579D02*
X10647301Y-17690674D01*
X10647301Y-17690674D02*
X10647301Y-17738293D01*
X10647301Y-17738293D02*
X10637777Y-17776389D01*
X10637777Y-17776389D02*
X10628253Y-17795436D01*
X10628253Y-17795436D02*
X10618729Y-17804960D01*
X10618729Y-17804960D02*
X10599682Y-17814484D01*
X10599682Y-17814484D02*
X10580634Y-17814484D01*
X10580634Y-17814484D02*
X10561587Y-17804960D01*
X10561587Y-17804960D02*
X10552063Y-17795436D01*
X10552063Y-17795436D02*
X10542539Y-17776389D01*
X10542539Y-17776389D02*
X10533015Y-17738293D01*
X10533015Y-17738293D02*
X10533015Y-17690674D01*
X10533015Y-17690674D02*
X10542539Y-17652579D01*
X10542539Y-17652579D02*
X10552063Y-17633531D01*
X10552063Y-17633531D02*
X10561587Y-17624008D01*
X10561587Y-17624008D02*
X10580634Y-17614484D01*
X10733015Y-17795436D02*
X10742539Y-17804960D01*
X10742539Y-17804960D02*
X10733015Y-17814484D01*
X10733015Y-17814484D02*
X10723491Y-17804960D01*
X10723491Y-17804960D02*
X10733015Y-17795436D01*
X10733015Y-17795436D02*
X10733015Y-17814484D01*
X10933015Y-17814484D02*
X10818729Y-17814484D01*
X10875872Y-17814484D02*
X10875872Y-17614484D01*
X10875872Y-17614484D02*
X10856825Y-17643055D01*
X10856825Y-17643055D02*
X10837777Y-17662103D01*
X10837777Y-17662103D02*
X10818729Y-17671627D01*
X11009206Y-17633531D02*
X11018729Y-17624008D01*
X11018729Y-17624008D02*
X11037777Y-17614484D01*
X11037777Y-17614484D02*
X11085396Y-17614484D01*
X11085396Y-17614484D02*
X11104444Y-17624008D01*
X11104444Y-17624008D02*
X11113968Y-17633531D01*
X11113968Y-17633531D02*
X11123491Y-17652579D01*
X11123491Y-17652579D02*
X11123491Y-17671627D01*
X11123491Y-17671627D02*
X11113968Y-17700198D01*
X11113968Y-17700198D02*
X10999682Y-17814484D01*
X10999682Y-17814484D02*
X11123491Y-17814484D01*
X11294920Y-17614484D02*
X11256825Y-17614484D01*
X11256825Y-17614484D02*
X11237777Y-17624008D01*
X11237777Y-17624008D02*
X11228253Y-17633531D01*
X11228253Y-17633531D02*
X11209206Y-17662103D01*
X11209206Y-17662103D02*
X11199682Y-17700198D01*
X11199682Y-17700198D02*
X11199682Y-17776389D01*
X11199682Y-17776389D02*
X11209206Y-17795436D01*
X11209206Y-17795436D02*
X11218729Y-17804960D01*
X11218729Y-17804960D02*
X11237777Y-17814484D01*
X11237777Y-17814484D02*
X11275872Y-17814484D01*
X11275872Y-17814484D02*
X11294920Y-17804960D01*
X11294920Y-17804960D02*
X11304444Y-17795436D01*
X11304444Y-17795436D02*
X11313967Y-17776389D01*
X11313967Y-17776389D02*
X11313967Y-17728770D01*
X11313967Y-17728770D02*
X11304444Y-17709722D01*
X11304444Y-17709722D02*
X11294920Y-17700198D01*
X11294920Y-17700198D02*
X11275872Y-17690674D01*
X11275872Y-17690674D02*
X11237777Y-17690674D01*
X11237777Y-17690674D02*
X11218729Y-17700198D01*
X11218729Y-17700198D02*
X11209206Y-17709722D01*
X11209206Y-17709722D02*
X11199682Y-17728770D01*
X11437777Y-17614484D02*
X11456825Y-17614484D01*
X11456825Y-17614484D02*
X11475872Y-17624008D01*
X11475872Y-17624008D02*
X11485396Y-17633531D01*
X11485396Y-17633531D02*
X11494920Y-17652579D01*
X11494920Y-17652579D02*
X11504444Y-17690674D01*
X11504444Y-17690674D02*
X11504444Y-17738293D01*
X11504444Y-17738293D02*
X11494920Y-17776389D01*
X11494920Y-17776389D02*
X11485396Y-17795436D01*
X11485396Y-17795436D02*
X11475872Y-17804960D01*
X11475872Y-17804960D02*
X11456825Y-17814484D01*
X11456825Y-17814484D02*
X11437777Y-17814484D01*
X11437777Y-17814484D02*
X11418729Y-17804960D01*
X11418729Y-17804960D02*
X11409206Y-17795436D01*
X11409206Y-17795436D02*
X11399682Y-17776389D01*
X11399682Y-17776389D02*
X11390158Y-17738293D01*
X11390158Y-17738293D02*
X11390158Y-17690674D01*
X11390158Y-17690674D02*
X11399682Y-17652579D01*
X11399682Y-17652579D02*
X11409206Y-17633531D01*
X11409206Y-17633531D02*
X11418729Y-17624008D01*
X11418729Y-17624008D02*
X11437777Y-17614484D01*
X11580634Y-17614484D02*
X11580634Y-17652579D01*
X11656825Y-17614484D02*
X11656825Y-17652579D01*
X11952063Y-17890674D02*
X11942539Y-17881150D01*
X11942539Y-17881150D02*
X11923491Y-17852579D01*
X11923491Y-17852579D02*
X11913968Y-17833531D01*
X11913968Y-17833531D02*
X11904444Y-17804960D01*
X11904444Y-17804960D02*
X11894920Y-17757341D01*
X11894920Y-17757341D02*
X11894920Y-17719246D01*
X11894920Y-17719246D02*
X11904444Y-17671627D01*
X11904444Y-17671627D02*
X11913968Y-17643055D01*
X11913968Y-17643055D02*
X11923491Y-17624008D01*
X11923491Y-17624008D02*
X11942539Y-17595436D01*
X11942539Y-17595436D02*
X11952063Y-17585912D01*
X12113968Y-17681150D02*
X12113968Y-17814484D01*
X12066348Y-17604960D02*
X12018729Y-17747817D01*
X12018729Y-17747817D02*
X12142539Y-17747817D01*
X12371110Y-17814484D02*
X12371110Y-17614484D01*
X12456825Y-17814484D02*
X12456825Y-17709722D01*
X12456825Y-17709722D02*
X12447301Y-17690674D01*
X12447301Y-17690674D02*
X12428253Y-17681150D01*
X12428253Y-17681150D02*
X12399682Y-17681150D01*
X12399682Y-17681150D02*
X12380634Y-17690674D01*
X12380634Y-17690674D02*
X12371110Y-17700198D01*
X12580634Y-17814484D02*
X12561587Y-17804960D01*
X12561587Y-17804960D02*
X12552063Y-17795436D01*
X12552063Y-17795436D02*
X12542539Y-17776389D01*
X12542539Y-17776389D02*
X12542539Y-17719246D01*
X12542539Y-17719246D02*
X12552063Y-17700198D01*
X12552063Y-17700198D02*
X12561587Y-17690674D01*
X12561587Y-17690674D02*
X12580634Y-17681150D01*
X12580634Y-17681150D02*
X12609206Y-17681150D01*
X12609206Y-17681150D02*
X12628253Y-17690674D01*
X12628253Y-17690674D02*
X12637777Y-17700198D01*
X12637777Y-17700198D02*
X12647301Y-17719246D01*
X12647301Y-17719246D02*
X12647301Y-17776389D01*
X12647301Y-17776389D02*
X12637777Y-17795436D01*
X12637777Y-17795436D02*
X12628253Y-17804960D01*
X12628253Y-17804960D02*
X12609206Y-17814484D01*
X12609206Y-17814484D02*
X12580634Y-17814484D01*
X12761587Y-17814484D02*
X12742539Y-17804960D01*
X12742539Y-17804960D02*
X12733015Y-17785912D01*
X12733015Y-17785912D02*
X12733015Y-17614484D01*
X12913968Y-17804960D02*
X12894920Y-17814484D01*
X12894920Y-17814484D02*
X12856825Y-17814484D01*
X12856825Y-17814484D02*
X12837777Y-17804960D01*
X12837777Y-17804960D02*
X12828253Y-17785912D01*
X12828253Y-17785912D02*
X12828253Y-17709722D01*
X12828253Y-17709722D02*
X12837777Y-17690674D01*
X12837777Y-17690674D02*
X12856825Y-17681150D01*
X12856825Y-17681150D02*
X12894920Y-17681150D01*
X12894920Y-17681150D02*
X12913968Y-17690674D01*
X12913968Y-17690674D02*
X12923491Y-17709722D01*
X12923491Y-17709722D02*
X12923491Y-17728770D01*
X12923491Y-17728770D02*
X12828253Y-17747817D01*
X12999682Y-17804960D02*
X13018730Y-17814484D01*
X13018730Y-17814484D02*
X13056825Y-17814484D01*
X13056825Y-17814484D02*
X13075872Y-17804960D01*
X13075872Y-17804960D02*
X13085396Y-17785912D01*
X13085396Y-17785912D02*
X13085396Y-17776389D01*
X13085396Y-17776389D02*
X13075872Y-17757341D01*
X13075872Y-17757341D02*
X13056825Y-17747817D01*
X13056825Y-17747817D02*
X13028253Y-17747817D01*
X13028253Y-17747817D02*
X13009206Y-17738293D01*
X13009206Y-17738293D02*
X12999682Y-17719246D01*
X12999682Y-17719246D02*
X12999682Y-17709722D01*
X12999682Y-17709722D02*
X13009206Y-17690674D01*
X13009206Y-17690674D02*
X13028253Y-17681150D01*
X13028253Y-17681150D02*
X13056825Y-17681150D01*
X13056825Y-17681150D02*
X13075872Y-17690674D01*
X13152063Y-17890674D02*
X13161587Y-17881150D01*
X13161587Y-17881150D02*
X13180634Y-17852579D01*
X13180634Y-17852579D02*
X13190158Y-17833531D01*
X13190158Y-17833531D02*
X13199682Y-17804960D01*
X13199682Y-17804960D02*
X13209206Y-17757341D01*
X13209206Y-17757341D02*
X13209206Y-17719246D01*
X13209206Y-17719246D02*
X13199682Y-17671627D01*
X13199682Y-17671627D02*
X13190158Y-17643055D01*
X13190158Y-17643055D02*
X13180634Y-17624008D01*
X13180634Y-17624008D02*
X13161587Y-17595436D01*
X13161587Y-17595436D02*
X13152063Y-17585912D01*
M02*
