M48
; DRILL file {KiCad 7.0.7-7.0.7~ubuntu22.04.1} date Wed 30 Aug 2023 02:26:46 PM MDT
; FORMAT={-:-/ absolute / inch / decimal}
; #@! TF.CreationDate,2023-08-30T14:26:46-06:00
; #@! TF.GenerationSoftware,Kicad,Pcbnew,7.0.7-7.0.7~ubuntu22.04.1
; #@! TF.FileFunction,Plated,1,2,PTH
FMAT,2
INCH
; #@! TA.AperFunction,Plated,PTH,ComponentDrill
T1C0.0295
; #@! TA.AperFunction,Plated,PTH,ComponentDrill
T2C0.0300
; #@! TA.AperFunction,Plated,PTH,ComponentDrill
T3C0.0315
; #@! TA.AperFunction,Plated,PTH,ComponentDrill
T4C0.0354
; #@! TA.AperFunction,Plated,PTH,ComponentDrill
T5C0.0394
; #@! TA.AperFunction,Plated,PTH,ComponentDrill
T6C0.0512
; #@! TA.AperFunction,Plated,PTH,ComponentDrill
T7C0.1260
%
G90
G05
T1
X5.3Y-1.7
X5.3Y-1.75
X5.3Y-1.8
X5.3Y-2.5
X5.3Y-2.55
X5.3Y-2.6
X5.3Y-3.3
X5.3Y-3.35
X5.3Y-3.4
X5.3Y-4.1
X5.3Y-4.15
X5.3Y-4.2
X5.3Y-4.9
X5.3Y-4.95
X5.3Y-5.0
T2
X7.3Y-2.4
X7.4Y-2.4
X7.5Y-2.4
X7.8Y-2.4
X7.9Y-2.4
X8.0Y-2.4
T3
X5.2Y-1.3
X5.2Y-1.4
X5.2Y-2.1
X5.2Y-2.2
X5.2Y-2.9
X5.2Y-3.0
X5.2Y-3.7
X5.2Y-3.8
X5.2Y-4.5
X5.2Y-4.6
X5.5Y-1.3
X5.5Y-1.4
X5.5Y-2.1
X5.5Y-2.2
X5.5Y-2.9
X5.5Y-3.0
X5.5Y-3.7
X5.5Y-3.8
X5.5Y-4.5
X5.5Y-4.6
X5.7Y-1.3
X5.7Y-1.5
X5.7Y-1.8
X5.7Y-2.1
X5.7Y-2.3
X5.7Y-2.6
X5.7Y-2.9
X5.7Y-3.1
X5.7Y-3.4
X5.7Y-3.7
X5.7Y-3.9
X5.7Y-4.2
X5.7Y-4.5
X5.7Y-4.7
X5.7Y-5.0
X6.0Y-1.3
X6.0Y-2.1
X6.0Y-2.9
X6.0Y-3.7
X6.0Y-4.5
X6.4Y-1.5
X6.4Y-1.8
X6.4Y-2.1
X6.4Y-2.4
X6.4Y-3.4
X6.4Y-4.3
X6.4Y-4.6
X6.4Y-4.9067
X6.7Y-1.5
X6.7Y-1.8
X6.7Y-2.1
X6.7Y-2.4
X6.7Y-3.4
X6.7Y-4.3
X6.7Y-4.6
X6.7Y-4.9067
X6.8Y-1.5
X6.8Y-1.8
X6.8Y-2.1
X6.8Y-2.4
X6.8Y-3.4
X6.8Y-3.7
X6.8Y-4.3
X6.8Y-4.6
X7.1Y-1.5
X7.1Y-1.8
X7.1Y-2.1
X7.1Y-2.4
X7.1Y-3.4
X7.1Y-3.7
X7.1Y-4.3
X7.1Y-4.6
X7.3Y-1.5
X7.3Y-1.6
X7.3Y-1.7
X7.3Y-1.8
X7.6Y-1.5
X7.6Y-1.6
X7.6Y-1.7
X7.6Y-1.8
X7.6Y-3.4
X7.7Y-1.5
X7.7Y-1.6
X7.7Y-1.7
X7.7Y-1.8
X7.75Y-4.1
X7.75Y-4.2
X7.75Y-4.3
X7.75Y-4.4
X7.75Y-4.5
X7.75Y-4.6
X7.75Y-4.7
X7.75Y-4.8
X7.75Y-4.9
X7.9Y-3.4
X8.0Y-1.5
X8.0Y-1.6
X8.0Y-1.7
X8.0Y-1.8
X8.05Y-4.1
X8.05Y-4.2
X8.05Y-4.3
X8.05Y-4.4
X8.05Y-4.5
X8.05Y-4.6
X8.05Y-4.7
X8.05Y-4.8
X8.05Y-4.9
T4
X5.0Y-1.3
X5.0Y-1.4
X5.0Y-1.5
X5.0Y-1.8
X5.0Y-2.1
X5.0Y-2.2
X5.0Y-2.3
X5.0Y-2.6
X5.0Y-2.9
X5.0Y-3.0
X5.0Y-3.1
X5.0Y-3.4
X5.0Y-3.7
X5.0Y-3.8
X5.0Y-3.9
X5.0Y-4.2
X5.0Y-4.5
X5.0Y-4.6
X5.0Y-4.7
X5.0Y-5.0
X6.8Y-4.9
X7.1Y-4.9
X7.3Y-2.1
X7.6Y-2.1
X7.7Y-2.1
X8.0Y-2.1
T5
X4.1421Y-1.3
X4.1421Y-1.7724
X4.1421Y-2.1
X4.1421Y-2.5724
X4.1421Y-2.9
X4.1421Y-3.3724
X4.1421Y-3.7
X4.1421Y-4.1724
X4.1421Y-4.5
X4.1421Y-4.9724
X6.4Y-2.7
X6.5969Y-2.7
X6.9031Y-2.7
X7.1Y-2.7
X7.55Y-4.8
X7.55Y-4.9
T6
X3.6Y-1.5
X3.6Y-1.6969
X3.6Y-1.8937
X3.6Y-2.0906
X3.6Y-2.4
X3.6Y-2.5969
X3.6Y-2.7937
X3.6Y-2.9906
X3.6Y-3.3
X3.6Y-3.4969
X3.6Y-3.6937
X3.6Y-3.8906
X3.6Y-4.2
X3.6Y-4.3969
X3.6Y-4.5937
X3.6Y-4.7906
X4.0654Y-1.5343
X4.0654Y-2.3343
X4.0654Y-3.1343
X4.0654Y-3.9343
X4.0654Y-4.7343
X4.6224Y-1.7724
X4.6224Y-2.5724
X4.6224Y-3.3724
X4.6224Y-4.1724
X4.6224Y-4.9724
X4.6244Y-1.298
X4.6244Y-2.098
X4.6244Y-2.898
X4.6244Y-3.698
X4.6244Y-4.498
X6.3094Y-5.4
X6.5063Y-5.4
X6.7031Y-5.4
X6.9Y-5.4
X7.2047Y-5.4
X7.4016Y-5.4
X7.5984Y-5.4
X7.7953Y-5.4
T7
X3.5Y-1.1
X3.5Y-5.9
X8.0Y-1.1
X8.0Y-5.9
T0
M30
