%TF.GenerationSoftware,KiCad,Pcbnew,7.0.7-7.0.7~ubuntu22.04.1*%
%TF.CreationDate,2023-08-30T14:27:08-06:00*%
%TF.ProjectId,PWM_PCB,50574d5f-5043-4422-9e6b-696361645f70,rev?*%
%TF.SameCoordinates,Original*%
%TF.FileFunction,Copper,L1,Top*%
%TF.FilePolarity,Positive*%
%FSLAX46Y46*%
G04 Gerber Fmt 4.6, Leading zero omitted, Abs format (unit mm)*
G04 Created by KiCad (PCBNEW 7.0.7-7.0.7~ubuntu22.04.1) date 2023-08-30 14:27:08*
%MOMM*%
%LPD*%
G01*
G04 APERTURE LIST*
%TA.AperFunction,ComponentPad*%
%ADD10C,1.600000*%
%TD*%
%TA.AperFunction,ComponentPad*%
%ADD11O,1.600000X1.600000*%
%TD*%
%TA.AperFunction,ComponentPad*%
%ADD12R,1.600000X1.600000*%
%TD*%
%TA.AperFunction,ComponentPad*%
%ADD13R,1.800000X1.800000*%
%TD*%
%TA.AperFunction,ComponentPad*%
%ADD14O,1.800000X1.800000*%
%TD*%
%TA.AperFunction,ComponentPad*%
%ADD15C,1.524000*%
%TD*%
%TA.AperFunction,ComponentPad*%
%ADD16C,3.000000*%
%TD*%
%TA.AperFunction,ComponentPad*%
%ADD17C,2.500000*%
%TD*%
%TA.AperFunction,ComponentPad*%
%ADD18R,2.600000X2.600000*%
%TD*%
%TA.AperFunction,ComponentPad*%
%ADD19C,2.600000*%
%TD*%
%TA.AperFunction,ComponentPad*%
%ADD20C,5.600000*%
%TD*%
%TA.AperFunction,ComponentPad*%
%ADD21C,2.000000*%
%TD*%
%TA.AperFunction,ComponentPad*%
%ADD22R,1.500000X1.050000*%
%TD*%
%TA.AperFunction,ComponentPad*%
%ADD23O,1.500000X1.050000*%
%TD*%
%TA.AperFunction,ComponentPad*%
%ADD24R,1.700000X1.700000*%
%TD*%
%TA.AperFunction,ComponentPad*%
%ADD25O,1.700000X1.700000*%
%TD*%
%TA.AperFunction,ComponentPad*%
%ADD26C,1.800000*%
%TD*%
%TA.AperFunction,Conductor*%
%ADD27C,0.250000*%
%TD*%
G04 APERTURE END LIST*
D10*
%TO.P,R5,1*%
%TO.N,Net-(D10-K)*%
X162560000Y-45720000D03*
D11*
%TO.P,R5,2*%
%TO.N,Net-(R5-Pad2)*%
X170180000Y-45720000D03*
%TD*%
D12*
%TO.P,U3,1,SCL*%
%TO.N,Net-(J5-Pin_1)*%
X204470000Y-124460000D03*
D11*
%TO.P,U3,2,SDA*%
%TO.N,Net-(J5-Pin_2)*%
X204470000Y-121920000D03*
%TO.P,U3,3,A2*%
%TO.N,Net-(D10-K)*%
X204470000Y-119380000D03*
%TO.P,U3,4,A1*%
X204470000Y-116840000D03*
%TO.P,U3,5,A0*%
X204470000Y-114300000D03*
%TO.P,U3,6,~{RESET}*%
%TO.N,Net-(D11-K)*%
X204470000Y-111760000D03*
%TO.P,U3,7,NC*%
%TO.N,unconnected-(U3-NC-Pad7)*%
X204470000Y-109220000D03*
%TO.P,U3,8,INT*%
%TO.N,unconnected-(U3-INT-Pad8)*%
X204470000Y-106680000D03*
%TO.P,U3,9,VSS*%
%TO.N,Net-(D10-K)*%
X204470000Y-104140000D03*
%TO.P,U3,10,GP0*%
%TO.N,Net-(U3-GP0)*%
X196850000Y-104140000D03*
%TO.P,U3,11,GP1*%
%TO.N,Net-(U3-GP1)*%
X196850000Y-106680000D03*
%TO.P,U3,12,GP2*%
%TO.N,Net-(U3-GP2)*%
X196850000Y-109220000D03*
%TO.P,U3,13,GP3*%
%TO.N,Net-(U3-GP3)*%
X196850000Y-111760000D03*
%TO.P,U3,14,GP4*%
%TO.N,Net-(U3-GP4)*%
X196850000Y-114300000D03*
%TO.P,U3,15,GP5*%
%TO.N,unconnected-(U3-GP5-Pad15)*%
X196850000Y-116840000D03*
%TO.P,U3,16,GP6*%
%TO.N,unconnected-(U3-GP6-Pad16)*%
X196850000Y-119380000D03*
%TO.P,U3,17,GP7*%
%TO.N,unconnected-(U3-GP7-Pad17)*%
X196850000Y-121920000D03*
%TO.P,U3,18,VDD*%
%TO.N,Net-(D11-K)*%
X196850000Y-124460000D03*
%TD*%
D13*
%TO.P,D13,1,K*%
%TO.N,Net-(D11-K)*%
X127000000Y-127000000D03*
D14*
%TO.P,D13,2,A*%
%TO.N,Net-(D13-A)*%
X127000000Y-119380000D03*
%TD*%
D12*
%TO.P,U2,1*%
%TO.N,Net-(R10-Pad2)*%
X195580000Y-38100000D03*
D11*
%TO.P,U2,2,-*%
%TO.N,Net-(U2--)*%
X195580000Y-40640000D03*
%TO.P,U2,3,+*%
%TO.N,Net-(U2-+)*%
X195580000Y-43180000D03*
%TO.P,U2,4,V-*%
%TO.N,Net-(J6-Pin_1)*%
X195580000Y-45720000D03*
%TO.P,U2,5*%
%TO.N,N/C*%
X203200000Y-45720000D03*
%TO.P,U2,6*%
X203200000Y-43180000D03*
%TO.P,U2,7*%
X203200000Y-40640000D03*
%TO.P,U2,8,V+*%
%TO.N,Net-(J4-Pin_1)*%
X203200000Y-38100000D03*
%TD*%
D12*
%TO.P,U8,1*%
%TO.N,Net-(R24-Pad2)*%
X132080000Y-114300000D03*
D11*
%TO.P,U8,2*%
%TO.N,Net-(D10-A)*%
X132080000Y-116840000D03*
%TO.P,U8,3*%
%TO.N,Net-(R27-Pad1)*%
X139700000Y-116840000D03*
%TO.P,U8,4*%
%TO.N,Net-(D11-K)*%
X139700000Y-114300000D03*
%TD*%
D10*
%TO.P,R9,1*%
%TO.N,Net-(J6-Pin_1)*%
X172720000Y-53340000D03*
D11*
%TO.P,R9,2*%
%TO.N,Net-(U2-+)*%
X180340000Y-53340000D03*
%TD*%
D13*
%TO.P,D4,1,K*%
%TO.N,Net-(D11-K)*%
X127000000Y-45720000D03*
D14*
%TO.P,D4,2,A*%
%TO.N,Net-(D4-A)*%
X127000000Y-38100000D03*
%TD*%
D10*
%TO.P,R27,1*%
%TO.N,Net-(R27-Pad1)*%
X144780000Y-119380000D03*
D11*
%TO.P,R27,2*%
%TO.N,Net-(Q5-B)*%
X144780000Y-127000000D03*
%TD*%
D10*
%TO.P,R18,1*%
%TO.N,Net-(R18-Pad1)*%
X144780000Y-38100000D03*
D11*
%TO.P,R18,2*%
%TO.N,Net-(Q1-B)*%
X144780000Y-45720000D03*
%TD*%
D10*
%TO.P,R26,1*%
%TO.N,Net-(R26-Pad1)*%
X144780000Y-99060000D03*
D11*
%TO.P,R26,2*%
%TO.N,Net-(Q4-B)*%
X144780000Y-106680000D03*
%TD*%
D15*
%TO.P,RV1,1,1*%
%TO.N,unconnected-(RV1-Pad1)*%
X185420000Y-60960000D03*
%TO.P,RV1,2,2*%
%TO.N,Net-(D1-A)*%
X187960000Y-60960000D03*
%TO.P,RV1,3,3*%
%TO.N,Net-(R1-Pad1)*%
X190500000Y-60960000D03*
%TD*%
D10*
%TO.P,R12,1*%
%TO.N,Net-(K4-Pad3)*%
X193040000Y-86360000D03*
D11*
%TO.P,R12,2*%
%TO.N,Net-(D10-K)*%
X200660000Y-86360000D03*
%TD*%
D13*
%TO.P,D12,1,K*%
%TO.N,Net-(D11-K)*%
X127000000Y-106680000D03*
D14*
%TO.P,D12,2,A*%
%TO.N,Net-(D12-A)*%
X127000000Y-99060000D03*
%TD*%
D16*
%TO.P,K3,1*%
%TO.N,Net-(K2-Pad3)*%
X103260000Y-79610000D03*
D17*
%TO.P,K3,2*%
%TO.N,Net-(D11-A)*%
X105210000Y-85660000D03*
D16*
%TO.P,K3,3*%
%TO.N,Net-(K3-Pad3)*%
X117410000Y-85660000D03*
%TO.P,K3,4*%
%TO.N,unconnected-(K3-Pad4)*%
X117460000Y-73610000D03*
D17*
%TO.P,K3,5*%
%TO.N,Net-(D11-K)*%
X105210000Y-73660000D03*
%TD*%
D10*
%TO.P,R8,1*%
%TO.N,Net-(U1-OUT)*%
X162560000Y-53340000D03*
D11*
%TO.P,R8,2*%
%TO.N,Net-(U2-+)*%
X170180000Y-53340000D03*
%TD*%
D15*
%TO.P,RV2,1,1*%
%TO.N,Net-(J4-Pin_1)*%
X198120000Y-60960000D03*
%TO.P,RV2,2,2*%
%TO.N,Net-(R2-Pad1)*%
X200660000Y-60960000D03*
%TO.P,RV2,3,3*%
%TO.N,unconnected-(RV2-Pad3)*%
X203200000Y-60960000D03*
%TD*%
D18*
%TO.P,J1,1,Pin_1*%
%TO.N,Net-(J1-Pin_1)*%
X160260000Y-137160000D03*
D19*
%TO.P,J1,2,Pin_2*%
%TO.N,Net-(D3-A)*%
X165260000Y-137160000D03*
%TO.P,J1,3,Pin_3*%
%TO.N,Net-(J1-Pin_3)*%
X170260000Y-137160000D03*
%TO.P,J1,4,Pin_4*%
%TO.N,Net-(J1-Pin_4)*%
X175260000Y-137160000D03*
%TD*%
D20*
%TO.P,,1*%
%TO.N,Net-(D10-K)*%
X203200000Y-27940000D03*
%TD*%
D18*
%TO.P,J6,1,Pin_1*%
%TO.N,Net-(J6-Pin_1)*%
X91440000Y-60960000D03*
D19*
%TO.P,J6,2,Pin_2*%
X91440000Y-65960000D03*
%TO.P,J6,3,Pin_3*%
X91440000Y-70960000D03*
%TO.P,J6,4,Pin_4*%
X91440000Y-75960000D03*
%TD*%
D10*
%TO.P,R20,1*%
%TO.N,Net-(U3-GP0)*%
X152400000Y-33020000D03*
D11*
%TO.P,R20,2*%
%TO.N,Net-(R20-Pad2)*%
X144780000Y-33020000D03*
%TD*%
D18*
%TO.P,J4,1,Pin_1*%
%TO.N,Net-(J4-Pin_1)*%
X91440000Y-83820000D03*
D19*
%TO.P,J4,2,Pin_2*%
X91440000Y-88820000D03*
%TO.P,J4,3,Pin_3*%
X91440000Y-93820000D03*
%TO.P,J4,4,Pin_4*%
X91440000Y-98820000D03*
%TD*%
D10*
%TO.P,R3,1*%
%TO.N,Net-(R3-Pad1)*%
X172720000Y-86360000D03*
D11*
%TO.P,R3,2*%
%TO.N,Net-(K5-Pad3)*%
X180340000Y-86360000D03*
%TD*%
D12*
%TO.P,U5,1*%
%TO.N,Net-(R21-Pad2)*%
X132080000Y-53340000D03*
D11*
%TO.P,U5,2*%
%TO.N,Net-(D7-A)*%
X132080000Y-55880000D03*
%TO.P,U5,3*%
%TO.N,Net-(R19-Pad1)*%
X139700000Y-55880000D03*
%TO.P,U5,4*%
%TO.N,Net-(D11-K)*%
X139700000Y-53340000D03*
%TD*%
D16*
%TO.P,K5,1*%
%TO.N,Net-(J1-Pin_1)*%
X103260000Y-120250000D03*
D17*
%TO.P,K5,2*%
%TO.N,Net-(D13-A)*%
X105210000Y-126300000D03*
D16*
%TO.P,K5,3*%
%TO.N,Net-(K5-Pad3)*%
X117410000Y-126300000D03*
%TO.P,K5,4*%
%TO.N,unconnected-(K5-Pad4)*%
X117460000Y-114250000D03*
D17*
%TO.P,K5,5*%
%TO.N,Net-(D11-K)*%
X105210000Y-114300000D03*
%TD*%
D10*
%TO.P,R22,1*%
%TO.N,Net-(U3-GP2)*%
X152400000Y-73660000D03*
D11*
%TO.P,R22,2*%
%TO.N,Net-(R22-Pad2)*%
X144780000Y-73660000D03*
%TD*%
D10*
%TO.P,R25,1*%
%TO.N,Net-(R25-Pad1)*%
X144780000Y-78740000D03*
D11*
%TO.P,R25,2*%
%TO.N,Net-(Q3-B)*%
X144780000Y-86360000D03*
%TD*%
D21*
%TO.P,C2,1*%
%TO.N,Net-(D1-K)*%
X175340000Y-68580000D03*
%TO.P,C2,2*%
%TO.N,Net-(D10-K)*%
X180340000Y-68580000D03*
%TD*%
D22*
%TO.P,Q4,1,E*%
%TO.N,Net-(D10-K)*%
X134620000Y-106680000D03*
D23*
%TO.P,Q4,2,C*%
%TO.N,Net-(D12-A)*%
X134620000Y-105410000D03*
%TO.P,Q4,3,B*%
%TO.N,Net-(Q4-B)*%
X134620000Y-104140000D03*
%TD*%
D10*
%TO.P,R4,1*%
%TO.N,Net-(D11-K)*%
X162560000Y-86360000D03*
D11*
%TO.P,R4,2*%
%TO.N,Net-(K5-Pad3)*%
X170180000Y-86360000D03*
%TD*%
D12*
%TO.P,U4,1*%
%TO.N,Net-(R20-Pad2)*%
X132080000Y-33020000D03*
D11*
%TO.P,U4,2*%
%TO.N,Net-(D6-A)*%
X132080000Y-35560000D03*
%TO.P,U4,3*%
%TO.N,Net-(R18-Pad1)*%
X139700000Y-35560000D03*
%TO.P,U4,4*%
%TO.N,Net-(D11-K)*%
X139700000Y-33020000D03*
%TD*%
D13*
%TO.P,D11,1,K*%
%TO.N,Net-(D11-K)*%
X127000000Y-86360000D03*
D14*
%TO.P,D11,2,A*%
%TO.N,Net-(D11-A)*%
X127000000Y-78740000D03*
%TD*%
D10*
%TO.P,R16,1*%
%TO.N,Net-(R16-Pad1)*%
X172720000Y-116840000D03*
D11*
%TO.P,R16,2*%
%TO.N,Net-(K3-Pad3)*%
X180340000Y-116840000D03*
%TD*%
D24*
%TO.P,J5,1,Pin_1*%
%TO.N,Net-(J5-Pin_1)*%
X191770000Y-124460000D03*
D25*
%TO.P,J5,2,Pin_2*%
%TO.N,Net-(J5-Pin_2)*%
X191770000Y-121920000D03*
%TD*%
D10*
%TO.P,R6,1*%
%TO.N,Net-(D10-K)*%
X172720000Y-93980000D03*
D11*
%TO.P,R6,2*%
%TO.N,Net-(R3-Pad1)*%
X180340000Y-93980000D03*
%TD*%
D18*
%TO.P,J2,1,Pin_1*%
%TO.N,Net-(D10-K)*%
X183000000Y-137160000D03*
D19*
%TO.P,J2,2,Pin_2*%
X188000000Y-137160000D03*
%TO.P,J2,3,Pin_3*%
X193000000Y-137160000D03*
%TO.P,J2,4,Pin_4*%
X198000000Y-137160000D03*
%TD*%
D13*
%TO.P,D2,1,K*%
%TO.N,Net-(D2-K)*%
X185420000Y-53340000D03*
D14*
%TO.P,D2,2,A*%
%TO.N,Net-(D1-K)*%
X193040000Y-53340000D03*
%TD*%
D16*
%TO.P,K4,1*%
%TO.N,Net-(J1-Pin_3)*%
X103260000Y-99930000D03*
D17*
%TO.P,K4,2*%
%TO.N,Net-(D12-A)*%
X105210000Y-105980000D03*
D16*
%TO.P,K4,3*%
%TO.N,Net-(K4-Pad3)*%
X117410000Y-105980000D03*
%TO.P,K4,4*%
%TO.N,unconnected-(K4-Pad4)*%
X117460000Y-93930000D03*
D17*
%TO.P,K4,5*%
%TO.N,Net-(D11-K)*%
X105210000Y-93980000D03*
%TD*%
D10*
%TO.P,R14,1*%
%TO.N,Net-(R14-Pad1)*%
X172720000Y-109220000D03*
D11*
%TO.P,R14,2*%
%TO.N,Net-(R13-Pad1)*%
X180340000Y-109220000D03*
%TD*%
D22*
%TO.P,Q1,1,E*%
%TO.N,Net-(D10-K)*%
X134620000Y-45720000D03*
D23*
%TO.P,Q1,2,C*%
%TO.N,Net-(D4-A)*%
X134620000Y-44450000D03*
%TO.P,Q1,3,B*%
%TO.N,Net-(Q1-B)*%
X134620000Y-43180000D03*
%TD*%
D13*
%TO.P,D9,1,K*%
%TO.N,Net-(D10-K)*%
X127000000Y-96520000D03*
D26*
%TO.P,D9,2,A*%
%TO.N,Net-(D9-A)*%
X127000000Y-93980000D03*
%TD*%
D10*
%TO.P,R15,1*%
%TO.N,Net-(D10-K)*%
X162560000Y-116840000D03*
D11*
%TO.P,R15,2*%
%TO.N,Net-(R14-Pad1)*%
X170180000Y-116840000D03*
%TD*%
D13*
%TO.P,D7,1,K*%
%TO.N,Net-(D10-K)*%
X127000000Y-55880000D03*
D26*
%TO.P,D7,2,A*%
%TO.N,Net-(D7-A)*%
X127000000Y-53340000D03*
%TD*%
D10*
%TO.P,R17,1*%
%TO.N,Net-(D10-K)*%
X162560000Y-124630000D03*
D11*
%TO.P,R17,2*%
%TO.N,Net-(R16-Pad1)*%
X170180000Y-124630000D03*
%TD*%
D22*
%TO.P,Q2,1,E*%
%TO.N,Net-(D10-K)*%
X134620000Y-66040000D03*
D23*
%TO.P,Q2,2,C*%
%TO.N,Net-(D5-A)*%
X134620000Y-64770000D03*
%TO.P,Q2,3,B*%
%TO.N,Net-(Q2-B)*%
X134620000Y-63500000D03*
%TD*%
D10*
%TO.P,R10,1*%
%TO.N,Net-(U2--)*%
X162560000Y-60960000D03*
D11*
%TO.P,R10,2*%
%TO.N,Net-(R10-Pad2)*%
X170180000Y-60960000D03*
%TD*%
D13*
%TO.P,D8,1,K*%
%TO.N,Net-(D10-K)*%
X127000000Y-76200000D03*
D26*
%TO.P,D8,2,A*%
%TO.N,Net-(D8-A)*%
X127000000Y-73660000D03*
%TD*%
D22*
%TO.P,Q5,1,E*%
%TO.N,Net-(D10-K)*%
X134620000Y-127000000D03*
D23*
%TO.P,Q5,2,C*%
%TO.N,Net-(D13-A)*%
X134620000Y-125730000D03*
%TO.P,Q5,3,B*%
%TO.N,Net-(Q5-B)*%
X134620000Y-124460000D03*
%TD*%
D10*
%TO.P,R21,1*%
%TO.N,Net-(U3-GP1)*%
X152400000Y-53340000D03*
D11*
%TO.P,R21,2*%
%TO.N,Net-(R21-Pad2)*%
X144780000Y-53340000D03*
%TD*%
D13*
%TO.P,D3,1,K*%
%TO.N,Net-(D3-K)*%
X172720000Y-124460000D03*
D14*
%TO.P,D3,2,A*%
%TO.N,Net-(D3-A)*%
X180340000Y-124460000D03*
%TD*%
D13*
%TO.P,D5,1,K*%
%TO.N,Net-(D11-K)*%
X127000000Y-66040000D03*
D14*
%TO.P,D5,2,A*%
%TO.N,Net-(D5-A)*%
X127000000Y-58420000D03*
%TD*%
D16*
%TO.P,K1,1*%
%TO.N,Net-(K1-Pad1)*%
X103260000Y-38970000D03*
D17*
%TO.P,K1,2*%
%TO.N,Net-(D4-A)*%
X105210000Y-45020000D03*
D16*
%TO.P,K1,3*%
%TO.N,Net-(J1-Pin_4)*%
X117410000Y-45020000D03*
%TO.P,K1,4*%
%TO.N,unconnected-(K1-Pad4)*%
X117460000Y-32970000D03*
D17*
%TO.P,K1,5*%
%TO.N,Net-(D11-K)*%
X105210000Y-33020000D03*
%TD*%
D10*
%TO.P,R13,1*%
%TO.N,Net-(R13-Pad1)*%
X162560000Y-109220000D03*
D11*
%TO.P,R13,2*%
%TO.N,Net-(K2-Pad3)*%
X170180000Y-109220000D03*
%TD*%
D18*
%TO.P,J3,1,Pin_1*%
%TO.N,Net-(D10-K)*%
X91440000Y-38100000D03*
D19*
%TO.P,J3,2,Pin_2*%
X91440000Y-43100000D03*
%TO.P,J3,3,Pin_3*%
X91440000Y-48100000D03*
%TO.P,J3,4,Pin_4*%
X91440000Y-53100000D03*
%TD*%
D12*
%TO.P,U1,1,GND*%
%TO.N,Net-(D10-K)*%
X185420000Y-38100000D03*
D11*
%TO.P,U1,2,TR*%
%TO.N,Net-(D1-K)*%
X185420000Y-40640000D03*
%TO.P,U1,3,OUT*%
%TO.N,Net-(U1-OUT)*%
X185420000Y-43180000D03*
%TO.P,U1,4,RST*%
%TO.N,Net-(J4-Pin_1)*%
X185420000Y-45720000D03*
%TO.P,U1,5,CTL*%
%TO.N,Net-(U1-CTL)*%
X193040000Y-45720000D03*
%TO.P,U1,6,TH*%
%TO.N,Net-(D1-K)*%
X193040000Y-43180000D03*
%TO.P,U1,7,DIS*%
%TO.N,Net-(D1-A)*%
X193040000Y-40640000D03*
%TO.P,U1,8,VCC*%
%TO.N,Net-(J4-Pin_1)*%
X193040000Y-38100000D03*
%TD*%
D12*
%TO.P,U7,1*%
%TO.N,Net-(R23-Pad2)*%
X132080000Y-93980000D03*
D11*
%TO.P,U7,2*%
%TO.N,Net-(D9-A)*%
X132080000Y-96520000D03*
%TO.P,U7,3*%
%TO.N,Net-(R26-Pad1)*%
X139700000Y-96520000D03*
%TO.P,U7,4*%
%TO.N,Net-(D11-K)*%
X139700000Y-93980000D03*
%TD*%
D10*
%TO.P,R7,1*%
%TO.N,Net-(R5-Pad2)*%
X172720000Y-45720000D03*
D11*
%TO.P,R7,2*%
%TO.N,Net-(U2--)*%
X180340000Y-45720000D03*
%TD*%
D13*
%TO.P,D1,1,K*%
%TO.N,Net-(D1-K)*%
X195580000Y-53340000D03*
D14*
%TO.P,D1,2,A*%
%TO.N,Net-(D1-A)*%
X203200000Y-53340000D03*
%TD*%
D12*
%TO.P,U6,1*%
%TO.N,Net-(R22-Pad2)*%
X132080000Y-73660000D03*
D11*
%TO.P,U6,2*%
%TO.N,Net-(D8-A)*%
X132080000Y-76200000D03*
%TO.P,U6,3*%
%TO.N,Net-(R25-Pad1)*%
X139700000Y-76200000D03*
%TO.P,U6,4*%
%TO.N,Net-(D11-K)*%
X139700000Y-73660000D03*
%TD*%
D13*
%TO.P,D6,1,K*%
%TO.N,Net-(D10-K)*%
X127000000Y-35560000D03*
D26*
%TO.P,D6,2,A*%
%TO.N,Net-(D6-A)*%
X127000000Y-33020000D03*
%TD*%
D10*
%TO.P,R2,1*%
%TO.N,Net-(R2-Pad1)*%
X172720000Y-38100000D03*
D11*
%TO.P,R2,2*%
%TO.N,Net-(D1-A)*%
X180340000Y-38100000D03*
%TD*%
D10*
%TO.P,R23,1*%
%TO.N,Net-(U3-GP3)*%
X152400000Y-93980000D03*
D11*
%TO.P,R23,2*%
%TO.N,Net-(R23-Pad2)*%
X144780000Y-93980000D03*
%TD*%
D10*
%TO.P,R11,1*%
%TO.N,Net-(R10-Pad2)*%
X172720000Y-60960000D03*
D11*
%TO.P,R11,2*%
%TO.N,Net-(K1-Pad1)*%
X180340000Y-60960000D03*
%TD*%
D20*
%TO.P,REF\u002A\u002A,1*%
%TO.N,Net-(D10-K)*%
X88900000Y-149860000D03*
%TD*%
D10*
%TO.P,R24,1*%
%TO.N,Net-(U3-GP4)*%
X152400000Y-114300000D03*
D11*
%TO.P,R24,2*%
%TO.N,Net-(R24-Pad2)*%
X144780000Y-114300000D03*
%TD*%
D10*
%TO.P,R19,1*%
%TO.N,Net-(R19-Pad1)*%
X144780000Y-58420000D03*
D11*
%TO.P,R19,2*%
%TO.N,Net-(Q2-B)*%
X144780000Y-66040000D03*
%TD*%
D18*
%TO.P,J7,1,Pin_1*%
%TO.N,Net-(D11-K)*%
X91440000Y-106680000D03*
D19*
%TO.P,J7,2,Pin_2*%
X91440000Y-111680000D03*
%TO.P,J7,3,Pin_3*%
X91440000Y-116680000D03*
%TO.P,J7,4,Pin_4*%
X91440000Y-121680000D03*
%TD*%
D16*
%TO.P,K2,1*%
%TO.N,Net-(D3-K)*%
X103260000Y-59290000D03*
D17*
%TO.P,K2,2*%
%TO.N,Net-(D5-A)*%
X105210000Y-65340000D03*
D16*
%TO.P,K2,3*%
%TO.N,Net-(K2-Pad3)*%
X117410000Y-65340000D03*
%TO.P,K2,4*%
%TO.N,unconnected-(K2-Pad4)*%
X117460000Y-53290000D03*
D17*
%TO.P,K2,5*%
%TO.N,Net-(D11-K)*%
X105210000Y-53340000D03*
%TD*%
D20*
%TO.P,,1*%
%TO.N,Net-(D10-K)*%
X88900000Y-27940000D03*
%TD*%
D22*
%TO.P,Q3,1,E*%
%TO.N,Net-(D10-K)*%
X134620000Y-86360000D03*
D23*
%TO.P,Q3,2,C*%
%TO.N,Net-(D11-A)*%
X134620000Y-85090000D03*
%TO.P,Q3,3,B*%
%TO.N,Net-(Q3-B)*%
X134620000Y-83820000D03*
%TD*%
D13*
%TO.P,D10,1,K*%
%TO.N,Net-(D10-K)*%
X127000000Y-116840000D03*
D26*
%TO.P,D10,2,A*%
%TO.N,Net-(D10-A)*%
X127000000Y-114300000D03*
%TD*%
D10*
%TO.P,R1,1*%
%TO.N,Net-(R1-Pad1)*%
X162560000Y-38100000D03*
D11*
%TO.P,R1,2*%
%TO.N,Net-(D2-K)*%
X170180000Y-38100000D03*
%TD*%
D21*
%TO.P,C1,1*%
%TO.N,Net-(U1-CTL)*%
X162560000Y-68580000D03*
%TO.P,C1,2*%
%TO.N,Net-(D10-K)*%
X167560000Y-68580000D03*
%TD*%
D20*
%TO.P,,1*%
%TO.N,Net-(D10-K)*%
X203200000Y-149860000D03*
%TD*%
D27*
%TO.N,Net-(U1-CTL)*%
X173208604Y-39515000D02*
X186835000Y-39515000D01*
X162560000Y-68580000D02*
X160985000Y-67005000D01*
X160985000Y-51738604D02*
X173208604Y-39515000D01*
X160985000Y-67005000D02*
X160985000Y-51738604D01*
X186835000Y-39515000D02*
X193040000Y-45720000D01*
%TO.N,Net-(D1-K)*%
X195580000Y-53340000D02*
X193040000Y-53340000D01*
X176665000Y-69905000D02*
X184095000Y-69905000D01*
X175340000Y-68580000D02*
X176665000Y-69905000D01*
X184095000Y-69905000D02*
X193040000Y-60960000D01*
X193040000Y-60960000D02*
X193040000Y-53340000D01*
%TO.N,Net-(D1-A)*%
X192532588Y-52115000D02*
X201975000Y-52115000D01*
X187960000Y-60960000D02*
X187960000Y-56687588D01*
X187960000Y-56687588D02*
X192532588Y-52115000D01*
X201975000Y-52115000D02*
X203200000Y-53340000D01*
%TO.N,Net-(U2--)*%
X170180000Y-43180000D02*
X177800000Y-43180000D01*
X161435000Y-59835000D02*
X161435000Y-51925000D01*
X161435000Y-51925000D02*
X170180000Y-43180000D01*
X177800000Y-43180000D02*
X180340000Y-45720000D01*
X162560000Y-60960000D02*
X161435000Y-59835000D01*
%TO.N,Net-(U1-OUT)*%
X162560000Y-53340000D02*
X169055000Y-46845000D01*
X169055000Y-46845000D02*
X181755000Y-46845000D01*
X181755000Y-46845000D02*
X185420000Y-43180000D01*
%TO.N,Net-(U2-+)*%
X171305000Y-52215000D02*
X179215000Y-52215000D01*
X179215000Y-52215000D02*
X180340000Y-53340000D01*
X170180000Y-53340000D02*
X171305000Y-52215000D01*
%TO.N,Net-(J1-Pin_3)*%
X103260000Y-99930000D02*
X94940000Y-99930000D01*
X88900000Y-105970000D02*
X88900000Y-121438098D01*
X168635000Y-138785000D02*
X170260000Y-137160000D01*
X106246902Y-138785000D02*
X168635000Y-138785000D01*
X94940000Y-99930000D02*
X88900000Y-105970000D01*
X88900000Y-121438098D02*
X106246902Y-138785000D01*
%TO.N,Net-(J1-Pin_1)*%
X113842613Y-137160000D02*
X160260000Y-137160000D01*
X113842613Y-137160000D02*
X103260000Y-126577387D01*
X103260000Y-126577387D02*
X103260000Y-120250000D01*
%TO.N,Net-(J4-Pin_1)*%
X206495000Y-133703098D02*
X200498098Y-139700000D01*
X203200000Y-38100000D02*
X202075000Y-39225000D01*
X204425000Y-54655000D02*
X204425000Y-39325000D01*
X186545000Y-46845000D02*
X193505991Y-46845000D01*
X91440000Y-93820000D02*
X91440000Y-98820000D01*
X194165000Y-39225000D02*
X193040000Y-38100000D01*
X91440000Y-83820000D02*
X91440000Y-88820000D01*
X193505991Y-46845000D02*
X194455000Y-45895991D01*
X202075000Y-39225000D02*
X194165000Y-39225000D01*
X204425000Y-39325000D02*
X203200000Y-38100000D01*
X86360000Y-119534494D02*
X86360000Y-103900000D01*
X200498098Y-139700000D02*
X106525506Y-139700000D01*
X198120000Y-60960000D02*
X204425000Y-54655000D01*
X91440000Y-88820000D02*
X91440000Y-93820000D01*
X194455000Y-39515000D02*
X193040000Y-38100000D01*
X198120000Y-60960000D02*
X206495000Y-69335000D01*
X185420000Y-45720000D02*
X186545000Y-46845000D01*
X194455000Y-45895991D02*
X194455000Y-39515000D01*
X206495000Y-69335000D02*
X206495000Y-133703098D01*
X106525506Y-139700000D02*
X86360000Y-119534494D01*
X86360000Y-103900000D02*
X91440000Y-98820000D01*
%TO.N,Net-(D3-A)*%
X167640000Y-137160000D02*
X165260000Y-137160000D01*
X180340000Y-124460000D02*
X167640000Y-137160000D01*
%TO.N,Net-(J5-Pin_1)*%
X203345000Y-123335000D02*
X204470000Y-124460000D01*
X192895000Y-123335000D02*
X203345000Y-123335000D01*
X191770000Y-124460000D02*
X192895000Y-123335000D01*
%TO.N,Net-(J6-Pin_1)*%
X91440000Y-60960000D02*
X91440000Y-65960000D01*
X193040000Y-48260000D02*
X195580000Y-45720000D01*
X173845000Y-54465000D02*
X181845000Y-54465000D01*
X172720000Y-53340000D02*
X173845000Y-54465000D01*
X91440000Y-70960000D02*
X91440000Y-75960000D01*
X91440000Y-65960000D02*
X91440000Y-70960000D01*
X188050000Y-48260000D02*
X193040000Y-48260000D01*
X181845000Y-54465000D02*
X188050000Y-48260000D01*
%TO.N,Net-(J5-Pin_2)*%
X191770000Y-121920000D02*
X192895000Y-120795000D01*
X192895000Y-120795000D02*
X203345000Y-120795000D01*
X203345000Y-120795000D02*
X204470000Y-121920000D01*
%TO.N,Net-(R10-Pad2)*%
X172720000Y-60960000D02*
X170180000Y-60960000D01*
%TO.N,Net-(D4-A)*%
X107135000Y-46945000D02*
X135320000Y-46945000D01*
X127000000Y-38100000D02*
X133350000Y-44450000D01*
X135695000Y-46570000D02*
X135695000Y-44525000D01*
X105210000Y-45020000D02*
X107135000Y-46945000D01*
X135695000Y-44525000D02*
X135620000Y-44450000D01*
X135620000Y-44450000D02*
X134620000Y-44450000D01*
X135320000Y-46945000D02*
X135695000Y-46570000D01*
X133350000Y-44450000D02*
X134620000Y-44450000D01*
%TO.N,Net-(D5-A)*%
X105210000Y-65340000D02*
X107135000Y-67265000D01*
X135695000Y-64845000D02*
X135620000Y-64770000D01*
X107135000Y-67265000D02*
X135320000Y-67265000D01*
X133350000Y-64770000D02*
X134620000Y-64770000D01*
X135695000Y-66890000D02*
X135695000Y-64845000D01*
X135320000Y-67265000D02*
X135695000Y-66890000D01*
X127000000Y-58420000D02*
X133350000Y-64770000D01*
X135620000Y-64770000D02*
X134620000Y-64770000D01*
%TO.N,Net-(D6-A)*%
X127000000Y-33020000D02*
X129540000Y-35560000D01*
X129540000Y-35560000D02*
X132080000Y-35560000D01*
%TO.N,Net-(D7-A)*%
X127000000Y-53340000D02*
X129540000Y-55880000D01*
X129540000Y-55880000D02*
X132080000Y-55880000D01*
%TO.N,Net-(D8-A)*%
X127000000Y-73660000D02*
X129540000Y-76200000D01*
X129540000Y-76200000D02*
X132080000Y-76200000D01*
%TO.N,Net-(D9-A)*%
X129540000Y-96520000D02*
X132080000Y-96520000D01*
X127000000Y-93980000D02*
X129540000Y-96520000D01*
%TO.N,Net-(D10-K)*%
X167560000Y-68580000D02*
X166235000Y-69905000D01*
X132887588Y-45720000D02*
X134620000Y-45720000D01*
X132080000Y-127000000D02*
X134620000Y-127000000D01*
X125775000Y-59735000D02*
X132080000Y-66040000D01*
X125775000Y-77425000D02*
X125775000Y-80055000D01*
X160020000Y-39049009D02*
X163509009Y-35560000D01*
X144495991Y-31145000D02*
X147320000Y-33969009D01*
X195580000Y-27940000D02*
X185420000Y-38100000D01*
X179015000Y-67255000D02*
X180340000Y-68580000D01*
X172720000Y-93980000D02*
X167560000Y-88820000D01*
X206045000Y-129115000D02*
X206045000Y-105715000D01*
X172720000Y-93980000D02*
X173845000Y-95105000D01*
X162560000Y-124630000D02*
X162560000Y-116840000D01*
X125775000Y-97745000D02*
X125775000Y-100375000D01*
X162560000Y-45720000D02*
X160020000Y-43180000D01*
X182880000Y-35560000D02*
X185420000Y-38100000D01*
X125775000Y-57105000D02*
X125775000Y-59735000D01*
X132080000Y-66040000D02*
X134620000Y-66040000D01*
X127000000Y-116840000D02*
X125775000Y-118065000D01*
X163509009Y-35560000D02*
X182880000Y-35560000D01*
X206045000Y-105715000D02*
X204470000Y-104140000D01*
X204470000Y-104140000D02*
X200950000Y-104140000D01*
X127000000Y-35560000D02*
X125775000Y-36785000D01*
X203200000Y-27940000D02*
X195580000Y-27940000D01*
X204470000Y-116840000D02*
X204470000Y-119380000D01*
X91440000Y-38100000D02*
X98395000Y-31145000D01*
X143830991Y-40640000D02*
X132080000Y-40640000D01*
X88900000Y-35560000D02*
X91440000Y-38100000D01*
X98395000Y-31145000D02*
X178465000Y-31145000D01*
X198000000Y-137160000D02*
X206045000Y-129115000D01*
X162560000Y-116840000D02*
X160985000Y-115265000D01*
X178465000Y-31145000D02*
X185420000Y-38100000D01*
X160985000Y-105715000D02*
X172720000Y-93980000D01*
X188000000Y-137160000D02*
X193000000Y-137160000D01*
X203345000Y-105265000D02*
X204470000Y-104140000D01*
X160535000Y-47745000D02*
X162560000Y-45720000D01*
X125775000Y-120695000D02*
X132080000Y-127000000D01*
X160535000Y-68428833D02*
X160535000Y-47745000D01*
X98395000Y-31145000D02*
X144495991Y-31145000D01*
X132080000Y-40640000D02*
X127000000Y-35560000D01*
X125775000Y-38607412D02*
X132887588Y-45720000D01*
X191915000Y-95105000D02*
X200660000Y-86360000D01*
X147320000Y-33969009D02*
X147320000Y-37150991D01*
X167560000Y-88820000D02*
X167560000Y-68580000D01*
X193000000Y-137160000D02*
X198000000Y-137160000D01*
X91440000Y-38100000D02*
X91440000Y-43100000D01*
X88900000Y-27940000D02*
X88900000Y-35560000D01*
X125775000Y-100375000D02*
X132080000Y-106680000D01*
X127000000Y-76200000D02*
X125775000Y-77425000D01*
X183000000Y-137160000D02*
X188000000Y-137160000D01*
X132080000Y-106680000D02*
X134620000Y-106680000D01*
X125775000Y-36785000D02*
X125775000Y-38607412D01*
X127000000Y-96520000D02*
X125775000Y-97745000D01*
X173845000Y-95105000D02*
X191915000Y-95105000D01*
X160020000Y-43180000D02*
X160020000Y-39049009D01*
X166235000Y-69905000D02*
X162011167Y-69905000D01*
X127000000Y-55880000D02*
X125775000Y-57105000D01*
X167560000Y-68580000D02*
X168885000Y-67255000D01*
X168885000Y-67255000D02*
X179015000Y-67255000D01*
X91440000Y-48100000D02*
X91440000Y-53100000D01*
X91440000Y-43100000D02*
X91440000Y-48100000D01*
X203345000Y-113175000D02*
X203345000Y-105265000D01*
X125775000Y-80055000D02*
X132080000Y-86360000D01*
X204470000Y-114300000D02*
X204470000Y-116840000D01*
X200950000Y-104140000D02*
X191915000Y-95105000D01*
X162011167Y-69905000D02*
X160535000Y-68428833D01*
X125775000Y-118065000D02*
X125775000Y-120695000D01*
X204470000Y-114300000D02*
X203345000Y-113175000D01*
X132080000Y-86360000D02*
X134620000Y-86360000D01*
X160985000Y-115265000D02*
X160985000Y-105715000D01*
X147320000Y-37150991D02*
X143830991Y-40640000D01*
X88900000Y-149860000D02*
X203200000Y-149860000D01*
%TO.N,Net-(D10-A)*%
X127000000Y-114300000D02*
X129540000Y-116840000D01*
X129540000Y-116840000D02*
X132080000Y-116840000D01*
%TO.N,Net-(D11-K)*%
X205595000Y-125585000D02*
X197975000Y-125585000D01*
X147320000Y-86360000D02*
X139700000Y-93980000D01*
X103635000Y-112725000D02*
X105210000Y-114300000D01*
X105210000Y-93980000D02*
X105210000Y-103752613D01*
X91440000Y-116680000D02*
X91440000Y-111680000D01*
X105210000Y-114300000D02*
X114300000Y-114300000D01*
X105210000Y-73660000D02*
X105210000Y-83432613D01*
X114300000Y-93980000D02*
X127000000Y-106680000D01*
X126492588Y-113075000D02*
X124460000Y-115107588D01*
X183247412Y-125635000D02*
X180847412Y-123235000D01*
X139700000Y-33020000D02*
X138575000Y-31895000D01*
X105210000Y-73660000D02*
X114300000Y-73660000D01*
X160195991Y-128125000D02*
X145245991Y-113175000D01*
X103635000Y-64005000D02*
X103635000Y-72085000D01*
X105210000Y-83432613D02*
X103635000Y-85007613D01*
X138575000Y-113175000D02*
X129350000Y-113175000D01*
X125325000Y-32962588D02*
X125325000Y-44045000D01*
X138475000Y-72435000D02*
X125685000Y-72435000D01*
X105210000Y-53340000D02*
X114300000Y-53340000D01*
X180847412Y-123235000D02*
X176395000Y-123235000D01*
X139700000Y-93980000D02*
X138475000Y-92755000D01*
X91440000Y-106680000D02*
X91440000Y-111680000D01*
X105210000Y-53340000D02*
X105210000Y-62430000D01*
X194120000Y-124460000D02*
X192945000Y-125635000D01*
X91440000Y-121680000D02*
X91440000Y-116680000D01*
X205595000Y-112885000D02*
X205595000Y-125585000D01*
X176395000Y-123235000D02*
X171505000Y-128125000D01*
X129250000Y-113075000D02*
X126492588Y-113075000D01*
X139700000Y-53340000D02*
X137825000Y-51465000D01*
X103635000Y-51765000D02*
X105210000Y-53340000D01*
X197975000Y-125585000D02*
X196850000Y-124460000D01*
X126335000Y-51465000D02*
X125325000Y-52475000D01*
X139700000Y-73660000D02*
X138475000Y-72435000D01*
X125685000Y-72435000D02*
X124460000Y-73660000D01*
X126492588Y-31795000D02*
X125325000Y-32962588D01*
X130855000Y-31795000D02*
X126492588Y-31795000D01*
X125325000Y-52475000D02*
X125325000Y-64365000D01*
X192945000Y-125635000D02*
X183247412Y-125635000D01*
X114300000Y-114300000D02*
X127000000Y-127000000D01*
X139700000Y-114300000D02*
X138575000Y-113175000D01*
X97590000Y-106680000D02*
X105210000Y-114300000D01*
X114300000Y-73660000D02*
X127000000Y-86360000D01*
X103635000Y-92405000D02*
X105210000Y-93980000D01*
X124460000Y-115107588D02*
X124460000Y-124460000D01*
X103635000Y-72085000D02*
X105210000Y-73660000D01*
X105210000Y-33020000D02*
X114300000Y-33020000D01*
X171505000Y-128125000D02*
X160195991Y-128125000D01*
X145245991Y-113175000D02*
X140825000Y-113175000D01*
X105210000Y-33020000D02*
X105210000Y-42792613D01*
X103635000Y-44367613D02*
X103635000Y-51765000D01*
X91440000Y-106680000D02*
X97590000Y-106680000D01*
X124460000Y-93980000D02*
X124460000Y-104140000D01*
X204470000Y-111760000D02*
X205595000Y-112885000D01*
X137825000Y-51465000D02*
X126335000Y-51465000D01*
X105210000Y-42792613D02*
X103635000Y-44367613D01*
X124460000Y-104140000D02*
X127000000Y-106680000D01*
X130955000Y-31895000D02*
X130855000Y-31795000D01*
X105210000Y-103752613D02*
X103635000Y-105327613D01*
X114300000Y-33020000D02*
X127000000Y-45720000D01*
X125685000Y-92755000D02*
X124460000Y-93980000D01*
X103635000Y-85007613D02*
X103635000Y-92405000D01*
X138575000Y-31895000D02*
X130955000Y-31895000D01*
X105210000Y-93980000D02*
X114300000Y-93980000D01*
X124460000Y-83820000D02*
X127000000Y-86360000D01*
X162560000Y-86360000D02*
X147320000Y-86360000D01*
X140825000Y-113175000D02*
X139700000Y-114300000D01*
X124460000Y-73660000D02*
X124460000Y-83820000D01*
X129350000Y-113175000D02*
X129250000Y-113075000D01*
X196850000Y-124460000D02*
X194120000Y-124460000D01*
X138475000Y-92755000D02*
X125685000Y-92755000D01*
X125325000Y-44045000D02*
X127000000Y-45720000D01*
X105210000Y-62430000D02*
X103635000Y-64005000D01*
X114300000Y-53340000D02*
X127000000Y-66040000D01*
X125325000Y-64365000D02*
X127000000Y-66040000D01*
X124460000Y-124460000D02*
X127000000Y-127000000D01*
X103635000Y-105327613D02*
X103635000Y-112725000D01*
%TO.N,Net-(D11-A)*%
X135695000Y-85165000D02*
X135620000Y-85090000D01*
X135320000Y-87585000D02*
X135695000Y-87210000D01*
X133350000Y-85090000D02*
X134620000Y-85090000D01*
X127000000Y-78740000D02*
X133350000Y-85090000D01*
X107135000Y-87585000D02*
X135320000Y-87585000D01*
X135620000Y-85090000D02*
X134620000Y-85090000D01*
X135695000Y-87210000D02*
X135695000Y-85165000D01*
X105210000Y-85660000D02*
X107135000Y-87585000D01*
%TO.N,Net-(D12-A)*%
X133350000Y-105410000D02*
X134620000Y-105410000D01*
X135695000Y-105485000D02*
X135620000Y-105410000D01*
X107135000Y-107905000D02*
X135320000Y-107905000D01*
X135620000Y-105410000D02*
X134620000Y-105410000D01*
X127000000Y-99060000D02*
X133350000Y-105410000D01*
X105210000Y-105980000D02*
X107135000Y-107905000D01*
X135320000Y-107905000D02*
X135695000Y-107530000D01*
X135695000Y-107530000D02*
X135695000Y-105485000D01*
%TO.N,Net-(D13-A)*%
X135695000Y-127850000D02*
X135695000Y-125805000D01*
X107135000Y-128225000D02*
X135320000Y-128225000D01*
X133350000Y-125730000D02*
X134620000Y-125730000D01*
X127000000Y-119380000D02*
X133350000Y-125730000D01*
X135320000Y-128225000D02*
X135695000Y-127850000D01*
X135620000Y-125730000D02*
X134620000Y-125730000D01*
X105210000Y-126300000D02*
X107135000Y-128225000D01*
X135695000Y-125805000D02*
X135620000Y-125730000D01*
%TO.N,Net-(K5-Pad3)*%
X179215000Y-85235000D02*
X180340000Y-86360000D01*
X170180000Y-86360000D02*
X171305000Y-85235000D01*
X171305000Y-85235000D02*
X179215000Y-85235000D01*
%TO.N,Net-(R3-Pad1)*%
X172720000Y-86360000D02*
X180340000Y-93980000D01*
%TO.N,Net-(R5-Pad2)*%
X170180000Y-45720000D02*
X172720000Y-45720000D01*
%TO.N,Net-(R13-Pad1)*%
X163685000Y-110345000D02*
X162560000Y-109220000D01*
X180340000Y-109220000D02*
X179215000Y-110345000D01*
X179215000Y-110345000D02*
X163685000Y-110345000D01*
%TO.N,Net-(R19-Pad1)*%
X139700000Y-55880000D02*
X142240000Y-55880000D01*
X142240000Y-55880000D02*
X144780000Y-58420000D01*
%TO.N,Net-(R20-Pad2)*%
X143655000Y-34145000D02*
X133205000Y-34145000D01*
X144780000Y-33020000D02*
X143655000Y-34145000D01*
X133205000Y-34145000D02*
X132080000Y-33020000D01*
%TO.N,Net-(Q1-B)*%
X134620000Y-43180000D02*
X142240000Y-43180000D01*
X142240000Y-43180000D02*
X144780000Y-45720000D01*
%TO.N,Net-(Q2-B)*%
X134620000Y-63500000D02*
X142240000Y-63500000D01*
X142240000Y-63500000D02*
X144780000Y-66040000D01*
%TO.N,Net-(Q3-B)*%
X142240000Y-83820000D02*
X144780000Y-86360000D01*
X134620000Y-83820000D02*
X142240000Y-83820000D01*
%TO.N,Net-(Q4-B)*%
X142240000Y-104140000D02*
X144780000Y-106680000D01*
X134620000Y-104140000D02*
X142240000Y-104140000D01*
%TO.N,Net-(Q5-B)*%
X134620000Y-124460000D02*
X142240000Y-124460000D01*
X142240000Y-124460000D02*
X144780000Y-127000000D01*
%TO.N,Net-(R14-Pad1)*%
X162094009Y-108095000D02*
X171595000Y-108095000D01*
X168589009Y-116840000D02*
X161435000Y-109685991D01*
X171595000Y-108095000D02*
X172720000Y-109220000D01*
X161435000Y-108754009D02*
X162094009Y-108095000D01*
X161435000Y-109685991D02*
X161435000Y-108754009D01*
X170180000Y-116840000D02*
X168589009Y-116840000D01*
%TO.N,Net-(R16-Pad1)*%
X170180000Y-119380000D02*
X172720000Y-116840000D01*
X170180000Y-124630000D02*
X170180000Y-119380000D01*
%TO.N,Net-(R21-Pad2)*%
X133205000Y-54465000D02*
X132080000Y-53340000D01*
X144780000Y-53340000D02*
X143655000Y-54465000D01*
X143655000Y-54465000D02*
X133205000Y-54465000D01*
%TO.N,Net-(R18-Pad1)*%
X139700000Y-35560000D02*
X142240000Y-35560000D01*
X142240000Y-35560000D02*
X144780000Y-38100000D01*
%TO.N,Net-(R22-Pad2)*%
X143655000Y-74785000D02*
X133205000Y-74785000D01*
X133205000Y-74785000D02*
X132080000Y-73660000D01*
X144780000Y-73660000D02*
X143655000Y-74785000D01*
%TO.N,Net-(R23-Pad2)*%
X133205000Y-95105000D02*
X132080000Y-93980000D01*
X144780000Y-93980000D02*
X143655000Y-95105000D01*
X143655000Y-95105000D02*
X133205000Y-95105000D01*
%TO.N,Net-(R24-Pad2)*%
X133205000Y-115425000D02*
X132080000Y-114300000D01*
X144780000Y-114300000D02*
X143655000Y-115425000D01*
X143655000Y-115425000D02*
X133205000Y-115425000D01*
%TO.N,Net-(R25-Pad1)*%
X142240000Y-76200000D02*
X144780000Y-78740000D01*
X139700000Y-76200000D02*
X142240000Y-76200000D01*
%TO.N,Net-(R26-Pad1)*%
X142240000Y-96520000D02*
X144780000Y-99060000D01*
X139700000Y-96520000D02*
X142240000Y-96520000D01*
%TO.N,Net-(R27-Pad1)*%
X142240000Y-116840000D02*
X144780000Y-119380000D01*
X139700000Y-116840000D02*
X142240000Y-116840000D01*
%TD*%
M02*
