%TF.GenerationSoftware,KiCad,Pcbnew,7.0.7-7.0.7~ubuntu22.04.1*%
%TF.CreationDate,2023-08-30T14:27:08-06:00*%
%TF.ProjectId,PWM_PCB,50574d5f-5043-4422-9e6b-696361645f70,rev?*%
%TF.SameCoordinates,Original*%
%TF.FileFunction,Soldermask,Top*%
%TF.FilePolarity,Negative*%
%FSLAX46Y46*%
G04 Gerber Fmt 4.6, Leading zero omitted, Abs format (unit mm)*
G04 Created by KiCad (PCBNEW 7.0.7-7.0.7~ubuntu22.04.1) date 2023-08-30 14:27:08*
%MOMM*%
%LPD*%
G01*
G04 APERTURE LIST*
%ADD10C,1.600000*%
%ADD11O,1.600000X1.600000*%
%ADD12R,1.600000X1.600000*%
%ADD13R,1.800000X1.800000*%
%ADD14O,1.800000X1.800000*%
%ADD15C,1.524000*%
%ADD16C,3.000000*%
%ADD17C,2.500000*%
%ADD18R,2.600000X2.600000*%
%ADD19C,2.600000*%
%ADD20C,5.600000*%
%ADD21C,2.000000*%
%ADD22R,1.500000X1.050000*%
%ADD23O,1.500000X1.050000*%
%ADD24R,1.700000X1.700000*%
%ADD25O,1.700000X1.700000*%
%ADD26C,1.800000*%
G04 APERTURE END LIST*
D10*
%TO.C,R5*%
X162560000Y-45720000D03*
D11*
X170180000Y-45720000D03*
%TD*%
D12*
%TO.C,U3*%
X204470000Y-124460000D03*
D11*
X204470000Y-121920000D03*
X204470000Y-119380000D03*
X204470000Y-116840000D03*
X204470000Y-114300000D03*
X204470000Y-111760000D03*
X204470000Y-109220000D03*
X204470000Y-106680000D03*
X204470000Y-104140000D03*
X196850000Y-104140000D03*
X196850000Y-106680000D03*
X196850000Y-109220000D03*
X196850000Y-111760000D03*
X196850000Y-114300000D03*
X196850000Y-116840000D03*
X196850000Y-119380000D03*
X196850000Y-121920000D03*
X196850000Y-124460000D03*
%TD*%
D13*
%TO.C,D13*%
X127000000Y-127000000D03*
D14*
X127000000Y-119380000D03*
%TD*%
D12*
%TO.C,U2*%
X195580000Y-38100000D03*
D11*
X195580000Y-40640000D03*
X195580000Y-43180000D03*
X195580000Y-45720000D03*
X203200000Y-45720000D03*
X203200000Y-43180000D03*
X203200000Y-40640000D03*
X203200000Y-38100000D03*
%TD*%
D12*
%TO.C,U8*%
X132080000Y-114300000D03*
D11*
X132080000Y-116840000D03*
X139700000Y-116840000D03*
X139700000Y-114300000D03*
%TD*%
D10*
%TO.C,R9*%
X172720000Y-53340000D03*
D11*
X180340000Y-53340000D03*
%TD*%
D13*
%TO.C,D4*%
X127000000Y-45720000D03*
D14*
X127000000Y-38100000D03*
%TD*%
D10*
%TO.C,R27*%
X144780000Y-119380000D03*
D11*
X144780000Y-127000000D03*
%TD*%
D10*
%TO.C,R18*%
X144780000Y-38100000D03*
D11*
X144780000Y-45720000D03*
%TD*%
D10*
%TO.C,R26*%
X144780000Y-99060000D03*
D11*
X144780000Y-106680000D03*
%TD*%
D15*
%TO.C,RV1*%
X185420000Y-60960000D03*
X187960000Y-60960000D03*
X190500000Y-60960000D03*
%TD*%
D10*
%TO.C,R12*%
X193040000Y-86360000D03*
D11*
X200660000Y-86360000D03*
%TD*%
D13*
%TO.C,D12*%
X127000000Y-106680000D03*
D14*
X127000000Y-99060000D03*
%TD*%
D16*
%TO.C,K3*%
X103260000Y-79610000D03*
D17*
X105210000Y-85660000D03*
D16*
X117410000Y-85660000D03*
X117460000Y-73610000D03*
D17*
X105210000Y-73660000D03*
%TD*%
D10*
%TO.C,R8*%
X162560000Y-53340000D03*
D11*
X170180000Y-53340000D03*
%TD*%
D15*
%TO.C,RV2*%
X198120000Y-60960000D03*
X200660000Y-60960000D03*
X203200000Y-60960000D03*
%TD*%
D18*
%TO.C,J1*%
X160260000Y-137160000D03*
D19*
X165260000Y-137160000D03*
X170260000Y-137160000D03*
X175260000Y-137160000D03*
%TD*%
D20*
%TO.C,*%
X203200000Y-27940000D03*
%TD*%
D18*
%TO.C,J6*%
X91440000Y-60960000D03*
D19*
X91440000Y-65960000D03*
X91440000Y-70960000D03*
X91440000Y-75960000D03*
%TD*%
D10*
%TO.C,R20*%
X152400000Y-33020000D03*
D11*
X144780000Y-33020000D03*
%TD*%
D18*
%TO.C,J4*%
X91440000Y-83820000D03*
D19*
X91440000Y-88820000D03*
X91440000Y-93820000D03*
X91440000Y-98820000D03*
%TD*%
D10*
%TO.C,R3*%
X172720000Y-86360000D03*
D11*
X180340000Y-86360000D03*
%TD*%
D12*
%TO.C,U5*%
X132080000Y-53340000D03*
D11*
X132080000Y-55880000D03*
X139700000Y-55880000D03*
X139700000Y-53340000D03*
%TD*%
D16*
%TO.C,K5*%
X103260000Y-120250000D03*
D17*
X105210000Y-126300000D03*
D16*
X117410000Y-126300000D03*
X117460000Y-114250000D03*
D17*
X105210000Y-114300000D03*
%TD*%
D10*
%TO.C,R22*%
X152400000Y-73660000D03*
D11*
X144780000Y-73660000D03*
%TD*%
D10*
%TO.C,R25*%
X144780000Y-78740000D03*
D11*
X144780000Y-86360000D03*
%TD*%
D21*
%TO.C,C2*%
X175340000Y-68580000D03*
X180340000Y-68580000D03*
%TD*%
D22*
%TO.C,Q4*%
X134620000Y-106680000D03*
D23*
X134620000Y-105410000D03*
X134620000Y-104140000D03*
%TD*%
D10*
%TO.C,R4*%
X162560000Y-86360000D03*
D11*
X170180000Y-86360000D03*
%TD*%
D12*
%TO.C,U4*%
X132080000Y-33020000D03*
D11*
X132080000Y-35560000D03*
X139700000Y-35560000D03*
X139700000Y-33020000D03*
%TD*%
D13*
%TO.C,D11*%
X127000000Y-86360000D03*
D14*
X127000000Y-78740000D03*
%TD*%
D10*
%TO.C,R16*%
X172720000Y-116840000D03*
D11*
X180340000Y-116840000D03*
%TD*%
D24*
%TO.C,J5*%
X191770000Y-124460000D03*
D25*
X191770000Y-121920000D03*
%TD*%
D10*
%TO.C,R6*%
X172720000Y-93980000D03*
D11*
X180340000Y-93980000D03*
%TD*%
D18*
%TO.C,J2*%
X183000000Y-137160000D03*
D19*
X188000000Y-137160000D03*
X193000000Y-137160000D03*
X198000000Y-137160000D03*
%TD*%
D13*
%TO.C,D2*%
X185420000Y-53340000D03*
D14*
X193040000Y-53340000D03*
%TD*%
D16*
%TO.C,K4*%
X103260000Y-99930000D03*
D17*
X105210000Y-105980000D03*
D16*
X117410000Y-105980000D03*
X117460000Y-93930000D03*
D17*
X105210000Y-93980000D03*
%TD*%
D10*
%TO.C,R14*%
X172720000Y-109220000D03*
D11*
X180340000Y-109220000D03*
%TD*%
D22*
%TO.C,Q1*%
X134620000Y-45720000D03*
D23*
X134620000Y-44450000D03*
X134620000Y-43180000D03*
%TD*%
D13*
%TO.C,D9*%
X127000000Y-96520000D03*
D26*
X127000000Y-93980000D03*
%TD*%
D10*
%TO.C,R15*%
X162560000Y-116840000D03*
D11*
X170180000Y-116840000D03*
%TD*%
D13*
%TO.C,D7*%
X127000000Y-55880000D03*
D26*
X127000000Y-53340000D03*
%TD*%
D10*
%TO.C,R17*%
X162560000Y-124630000D03*
D11*
X170180000Y-124630000D03*
%TD*%
D22*
%TO.C,Q2*%
X134620000Y-66040000D03*
D23*
X134620000Y-64770000D03*
X134620000Y-63500000D03*
%TD*%
D10*
%TO.C,R10*%
X162560000Y-60960000D03*
D11*
X170180000Y-60960000D03*
%TD*%
D13*
%TO.C,D8*%
X127000000Y-76200000D03*
D26*
X127000000Y-73660000D03*
%TD*%
D22*
%TO.C,Q5*%
X134620000Y-127000000D03*
D23*
X134620000Y-125730000D03*
X134620000Y-124460000D03*
%TD*%
D10*
%TO.C,R21*%
X152400000Y-53340000D03*
D11*
X144780000Y-53340000D03*
%TD*%
D13*
%TO.C,D3*%
X172720000Y-124460000D03*
D14*
X180340000Y-124460000D03*
%TD*%
D13*
%TO.C,D5*%
X127000000Y-66040000D03*
D14*
X127000000Y-58420000D03*
%TD*%
D16*
%TO.C,K1*%
X103260000Y-38970000D03*
D17*
X105210000Y-45020000D03*
D16*
X117410000Y-45020000D03*
X117460000Y-32970000D03*
D17*
X105210000Y-33020000D03*
%TD*%
D10*
%TO.C,R13*%
X162560000Y-109220000D03*
D11*
X170180000Y-109220000D03*
%TD*%
D18*
%TO.C,J3*%
X91440000Y-38100000D03*
D19*
X91440000Y-43100000D03*
X91440000Y-48100000D03*
X91440000Y-53100000D03*
%TD*%
D12*
%TO.C,U1*%
X185420000Y-38100000D03*
D11*
X185420000Y-40640000D03*
X185420000Y-43180000D03*
X185420000Y-45720000D03*
X193040000Y-45720000D03*
X193040000Y-43180000D03*
X193040000Y-40640000D03*
X193040000Y-38100000D03*
%TD*%
D12*
%TO.C,U7*%
X132080000Y-93980000D03*
D11*
X132080000Y-96520000D03*
X139700000Y-96520000D03*
X139700000Y-93980000D03*
%TD*%
D10*
%TO.C,R7*%
X172720000Y-45720000D03*
D11*
X180340000Y-45720000D03*
%TD*%
D13*
%TO.C,D1*%
X195580000Y-53340000D03*
D14*
X203200000Y-53340000D03*
%TD*%
D12*
%TO.C,U6*%
X132080000Y-73660000D03*
D11*
X132080000Y-76200000D03*
X139700000Y-76200000D03*
X139700000Y-73660000D03*
%TD*%
D13*
%TO.C,D6*%
X127000000Y-35560000D03*
D26*
X127000000Y-33020000D03*
%TD*%
D10*
%TO.C,R2*%
X172720000Y-38100000D03*
D11*
X180340000Y-38100000D03*
%TD*%
D10*
%TO.C,R23*%
X152400000Y-93980000D03*
D11*
X144780000Y-93980000D03*
%TD*%
D10*
%TO.C,R11*%
X172720000Y-60960000D03*
D11*
X180340000Y-60960000D03*
%TD*%
D20*
%TO.C,REF\u002A\u002A*%
X88900000Y-149860000D03*
%TD*%
D10*
%TO.C,R24*%
X152400000Y-114300000D03*
D11*
X144780000Y-114300000D03*
%TD*%
D10*
%TO.C,R19*%
X144780000Y-58420000D03*
D11*
X144780000Y-66040000D03*
%TD*%
D18*
%TO.C,J7*%
X91440000Y-106680000D03*
D19*
X91440000Y-111680000D03*
X91440000Y-116680000D03*
X91440000Y-121680000D03*
%TD*%
D16*
%TO.C,K2*%
X103260000Y-59290000D03*
D17*
X105210000Y-65340000D03*
D16*
X117410000Y-65340000D03*
X117460000Y-53290000D03*
D17*
X105210000Y-53340000D03*
%TD*%
D20*
%TO.C,*%
X88900000Y-27940000D03*
%TD*%
D22*
%TO.C,Q3*%
X134620000Y-86360000D03*
D23*
X134620000Y-85090000D03*
X134620000Y-83820000D03*
%TD*%
D13*
%TO.C,D10*%
X127000000Y-116840000D03*
D26*
X127000000Y-114300000D03*
%TD*%
D10*
%TO.C,R1*%
X162560000Y-38100000D03*
D11*
X170180000Y-38100000D03*
%TD*%
D21*
%TO.C,C1*%
X162560000Y-68580000D03*
X167560000Y-68580000D03*
%TD*%
D20*
%TO.C,*%
X203200000Y-149860000D03*
%TD*%
M02*
