<svg version="1.1" xmlns="http://www.w3.org/2000/svg" xmlns:xlink="http://www.w3.org/1999/xlink" width="748" height="404"><defs><linearGradient id="QHglyapaNnUq" x1="0px" x2="32px" y1="0px" y2="0px" gradientUnits="userSpaceOnUse"><stop offset="0" stop-color="#01fd01"/><stop offset="1" stop-color="#7f807f"/></linearGradient><linearGradient id="UKNuCIqOhiil" x1="0px" x2="32px" y1="0px" y2="0px" gradientUnits="userSpaceOnUse"><stop offset="0" stop-color="#7f807f"/><stop offset="1" stop-color="#01fd01"/></linearGradient><linearGradient id="PBLykHibhHkK" x1="0px" x2="32px" y1="0px" y2="0px" gradientUnits="userSpaceOnUse"><stop offset="0" stop-color="#817e7e"/><stop offset="1" stop-color="#ff0000"/></linearGradient><linearGradient id="FqCXPBlitoxg" x1="0px" x2="32px" y1="0px" y2="0px" gradientUnits="userSpaceOnUse"><stop offset="0" stop-color="#ff0000"/><stop offset="1" stop-color="#ff0000"/></linearGradient><linearGradient id="TkbZMFdtKHrz" x1="0px" x2="32px" y1="0px" y2="0px" gradientUnits="userSpaceOnUse"><stop offset="0" stop-color="#ff0000"/><stop offset="1" stop-color="#976868"/></linearGradient><linearGradient id="KfelIdMrySaU" x1="0px" x2="32px" y1="0px" y2="0px" gradientUnits="userSpaceOnUse"><stop offset="0" stop-color="#976868"/><stop offset="1" stop-color="#807f7f"/></linearGradient><linearGradient id="SRKAJXoLgNTX" x1="0px" x2="32px" y1="0px" y2="0px" gradientUnits="userSpaceOnUse"><stop offset="0" stop-color="#ff0000"/><stop offset="1" stop-color="#ff0000"/></linearGradient></defs><g><rect fill="#000000" stroke="none" x="0" y="0" width="748" height="404"/><g transform="scale(1,1) translate(-138,-46)"><g><path fill="none" stroke="#7f807f" paint-order="fill stroke markers" d=" M 272 208 L 288 208" stroke-linecap="round" stroke-miterlimit="10" stroke-width="3" stroke-dasharray=""/><text fill="#ffffff" stroke="none" font-family="normal" font-size="16px" font-style="normal" font-weight="normal" text-decoration="normal" x="293" y="213" text-anchor="start" dominant-baseline="alphabetic">dis</text><path fill="none" stroke="#01fd01" paint-order="fill stroke markers" d=" M 272 272 L 288 272" stroke-linecap="round" stroke-miterlimit="10" stroke-width="3" stroke-dasharray=""/><text fill="#ffffff" stroke="none" font-family="normal" font-size="20px" font-style="normal" font-weight="normal" text-decoration="normal" x="293" y="278" text-anchor="start" dominant-baseline="alphabetic">tr</text><path fill="none" stroke="#ffffff" paint-order="fill stroke markers" d=" M 293 258 L 310 258" stroke-linecap="round" stroke-miterlimit="10" stroke-dasharray=""/><path fill="none" stroke="#01fd01" paint-order="fill stroke markers" d=" M 272 304 L 288 304" stroke-linecap="round" stroke-miterlimit="10" stroke-width="3" stroke-dasharray=""/><text fill="#ffffff" stroke="none" font-family="normal" font-size="20px" font-style="normal" font-weight="normal" text-decoration="normal" x="293" y="310" text-anchor="start" dominant-baseline="alphabetic">th</text><path fill="none" stroke="#01fd01" paint-order="fill stroke markers" d=" M 336 144 L 336 160" stroke-linecap="round" stroke-miterlimit="10" stroke-width="3" stroke-dasharray=""/><text fill="#ffffff" stroke="none" font-family="normal" font-size="14px" font-style="normal" font-weight="normal" text-decoration="normal" x="325" y="180" text-anchor="start" dominant-baseline="alphabetic">Vin</text><path fill="none" stroke="#01fd01" paint-order="fill stroke markers" d=" M 336 336 L 336 320" stroke-linecap="round" stroke-miterlimit="10" stroke-width="3" stroke-dasharray=""/><text fill="#ffffff" stroke="none" font-family="normal" font-size="19px" font-style="normal" font-weight="normal" text-decoration="normal" x="324" y="310" text-anchor="start" dominant-baseline="alphabetic">ctl</text><path fill="none" stroke="#817e7e" paint-order="fill stroke markers" d=" M 400 240 L 384 240" stroke-linecap="round" stroke-miterlimit="10" stroke-width="3" stroke-dasharray=""/><text fill="#ffffff" stroke="none" font-family="normal" font-size="15px" font-style="normal" font-weight="normal" text-decoration="normal" x="355" y="245" text-anchor="start" dominant-baseline="alphabetic">out</text><path fill="none" stroke="#01fd01" paint-order="fill stroke markers" d=" M 400 208 L 384 208" stroke-linecap="round" stroke-miterlimit="10" stroke-width="3" stroke-dasharray=""/><text fill="#ffffff" stroke="none" font-family="normal" font-size="17px" font-style="normal" font-weight="normal" text-decoration="normal" x="356" y="213" text-anchor="start" dominant-baseline="alphabetic">rst</text><path fill="none" stroke="#807f7f" paint-order="fill stroke markers" d=" M 368 336 L 368 320" stroke-linecap="round" stroke-miterlimit="10" stroke-width="3" stroke-dasharray=""/><text fill="#ffffff" stroke="none" font-family="normal" font-size="12px" font-style="normal" font-weight="normal" text-decoration="normal" x="357" y="308" text-anchor="start" dominant-baseline="alphabetic">gnd</text><path fill="none" stroke="#c0c0c0" paint-order="fill stroke markers" d=" M 288 160 L 384 160 L 384 320 L 288 320 Z" stroke-linecap="round" stroke-miterlimit="10" stroke-width="3" stroke-dasharray=""/></g><path fill="none" stroke="#01fd01" paint-order="fill stroke markers" d=" M 336 144 L 400 144" stroke-linecap="round" stroke-miterlimit="10" stroke-width="3" stroke-dasharray=""/><text fill="#ffffff" stroke="none" font-family="sans-serif" font-size="12px" font-style="normal" font-weight="normal" text-decoration="normal" x="368" y="138" text-anchor="start" dominant-baseline="alphabetic"></text><path fill="none" stroke="#01fd01" paint-order="fill stroke markers" d=" M 400 144 L 400 208" stroke-linecap="round" stroke-miterlimit="10" stroke-width="3" stroke-dasharray=""/><text fill="#ffffff" stroke="none" font-family="sans-serif" font-size="12px" font-style="normal" font-weight="normal" text-decoration="normal" x="406" y="182" text-anchor="start" dominant-baseline="alphabetic"></text><path fill="none" stroke="#01fd01" paint-order="fill stroke markers" d=" M 336 144 L 240 144" stroke-linecap="round" stroke-miterlimit="10" stroke-width="3" stroke-dasharray=""/><text fill="#ffffff" stroke="none" font-family="sans-serif" font-size="12px" font-style="normal" font-weight="normal" text-decoration="normal" x="288" y="138" text-anchor="start" dominant-baseline="alphabetic"></text><path fill="none" stroke="#01fd01" paint-order="fill stroke markers" d=" M 240 144 L 240 160" stroke-linecap="round" stroke-miterlimit="10" stroke-width="3" stroke-dasharray=""/><path fill="none" stroke="#7f807f" paint-order="fill stroke markers" d=" M 240 192 L 240 208" stroke-linecap="round" stroke-miterlimit="10" stroke-width="3" stroke-dasharray=""/><g transform="matrix(0,1,-1,0,240,160)"><path fill="none" stroke="url(#QHglyapaNnUq)" paint-order="fill stroke markers" d=" M 0 0 L 2 6 L 6 -6 L 10 6 L 14 -6 L 18 6 L 22 -6 L 26 6 L 30 -6 L 32 0" stroke-linecap="round" stroke-miterlimit="10" stroke-width="3" stroke-dasharray=""/></g><text fill="#ffffff" stroke="none" font-family="sans-serif" font-size="12px" font-style="normal" font-weight="normal" text-decoration="normal" x="250" y="182" text-anchor="start" dominant-baseline="alphabetic">1.5k</text><path fill="none" stroke="#7f807f" paint-order="fill stroke markers" d=" M 240 208 L 272 208" stroke-linecap="round" stroke-miterlimit="10" stroke-width="3" stroke-dasharray=""/><text fill="#ffffff" stroke="none" font-family="sans-serif" font-size="12px" font-style="normal" font-weight="normal" text-decoration="normal" x="256" y="202" text-anchor="start" dominant-baseline="alphabetic"></text><path fill="none" stroke="#7f807f" paint-order="fill stroke markers" d=" M 240 208 L 240 216" stroke-linecap="round" stroke-miterlimit="10" stroke-width="3" stroke-dasharray=""/><path fill="none" stroke="#01fd01" paint-order="fill stroke markers" d=" M 240 248 L 240 256" stroke-linecap="round" stroke-miterlimit="10" stroke-width="3" stroke-dasharray=""/><g transform="matrix(0,1,-1,0,240,216)"><path fill="none" stroke="url(#UKNuCIqOhiil)" paint-order="fill stroke markers" d=" M 0 0 L 2 6 L 6 -6 L 10 6 L 14 -6 L 18 6 L 22 -6 L 26 6 L 30 -6 L 32 0" stroke-linecap="round" stroke-miterlimit="10" stroke-width="3" stroke-dasharray=""/></g><text fill="#ffffff" stroke="none" font-family="sans-serif" font-size="12px" font-style="normal" font-weight="normal" text-decoration="normal" x="250" y="238" text-anchor="start" dominant-baseline="alphabetic">25k</text><path fill="none" stroke="#01fd01" paint-order="fill stroke markers" d=" M 240 272 L 240 272" stroke-linecap="round" stroke-miterlimit="10" stroke-width="3" stroke-dasharray=""/><path fill="none" stroke="#01fd01" paint-order="fill stroke markers" d=" M 240 256 L 240 256" stroke-linecap="round" stroke-miterlimit="10" stroke-width="3" stroke-dasharray=""/><path fill="#01fd01" stroke="none" paint-order="stroke fill markers" d=" M 232 272 L 248 272 L 240 256 Z"/><path fill="none" stroke="#01fd01" paint-order="fill stroke markers" d=" M 232 256 L 248 256" stroke-linecap="round" stroke-miterlimit="10" stroke-width="3" stroke-dasharray=""/><path fill="none" stroke="#01fd01" paint-order="fill stroke markers" d=" M 272 272 L 240 272" stroke-linecap="round" stroke-miterlimit="10" stroke-width="3" stroke-dasharray=""/><text fill="#ffffff" stroke="none" font-family="sans-serif" font-size="12px" font-style="normal" font-weight="normal" text-decoration="normal" x="256" y="266" text-anchor="start" dominant-baseline="alphabetic"></text><path fill="none" stroke="#01fd01" paint-order="fill stroke markers" d=" M 240 272 L 208 272" stroke-linecap="round" stroke-miterlimit="10" stroke-width="3" stroke-dasharray=""/><text fill="#ffffff" stroke="none" font-family="sans-serif" font-size="12px" font-style="normal" font-weight="normal" text-decoration="normal" x="224" y="266" text-anchor="start" dominant-baseline="alphabetic"></text><path fill="none" stroke="#7f807f" paint-order="fill stroke markers" d=" M 240 208 L 208 208" stroke-linecap="round" stroke-miterlimit="10" stroke-width="3" stroke-dasharray=""/><text fill="#ffffff" stroke="none" font-family="sans-serif" font-size="12px" font-style="normal" font-weight="normal" text-decoration="normal" x="224" y="202" text-anchor="start" dominant-baseline="alphabetic"></text><path fill="none" stroke="#7f807f" paint-order="fill stroke markers" d=" M 208 208 L 208 232" stroke-linecap="round" stroke-miterlimit="10" stroke-width="3" stroke-dasharray=""/><path fill="none" stroke="#01fd01" paint-order="fill stroke markers" d=" M 208 248 L 208 272" stroke-linecap="round" stroke-miterlimit="10" stroke-width="3" stroke-dasharray=""/><path fill="#7f807f" stroke="none" paint-order="stroke fill markers" d=" M 216 232 L 200 232 L 208 248 Z"/><path fill="none" stroke="#01fd01" paint-order="fill stroke markers" d=" M 216 248 L 200 248" stroke-linecap="round" stroke-miterlimit="10" stroke-width="3" stroke-dasharray=""/><path fill="none" stroke="#01fd01" paint-order="fill stroke markers" d=" M 240 272 L 240 304" stroke-linecap="round" stroke-miterlimit="10" stroke-width="3" stroke-dasharray=""/><text fill="#ffffff" stroke="none" font-family="sans-serif" font-size="12px" font-style="normal" font-weight="normal" text-decoration="normal" x="246" y="294" text-anchor="start" dominant-baseline="alphabetic"></text><path fill="none" stroke="#01fd01" paint-order="fill stroke markers" d=" M 240 304 L 272 304" stroke-linecap="round" stroke-miterlimit="10" stroke-width="3" stroke-dasharray=""/><text fill="#ffffff" stroke="none" font-family="sans-serif" font-size="12px" font-style="normal" font-weight="normal" text-decoration="normal" x="256" y="298" text-anchor="start" dominant-baseline="alphabetic"></text><path fill="none" stroke="#01fd01" paint-order="fill stroke markers" d=" M 336 336 L 336 348" stroke-linecap="round" stroke-miterlimit="10" stroke-width="3" stroke-dasharray=""/><path fill="none" stroke="#01fd01" paint-order="fill stroke markers" d=" M 348 348 L 324 348" stroke-linecap="round" stroke-miterlimit="10" stroke-width="3" stroke-dasharray=""/><path fill="none" stroke="#807f7f" paint-order="fill stroke markers" d=" M 336 368 L 336 356" stroke-linecap="round" stroke-miterlimit="10" stroke-width="3" stroke-dasharray=""/><path fill="none" stroke="#807f7f" paint-order="fill stroke markers" d=" M 348 356 L 324 356" stroke-linecap="round" stroke-miterlimit="10" stroke-width="3" stroke-dasharray=""/><text fill="#ffffff" stroke="none" font-family="sans-serif" font-size="12px" font-style="normal" font-weight="normal" text-decoration="normal" x="350" y="358" text-anchor="start" dominant-baseline="alphabetic">100nF</text><path fill="none" stroke="#807f7f" paint-order="fill stroke markers" d=" M 240 368 L 336 368" stroke-linecap="round" stroke-miterlimit="10" stroke-width="3" stroke-dasharray=""/><text fill="#ffffff" stroke="none" font-family="sans-serif" font-size="12px" font-style="normal" font-weight="normal" text-decoration="normal" x="288" y="362" text-anchor="start" dominant-baseline="alphabetic"></text><path fill="none" stroke="#807f7f" paint-order="fill stroke markers" d=" M 336 368 L 368 368" stroke-linecap="round" stroke-miterlimit="10" stroke-width="3" stroke-dasharray=""/><text fill="#ffffff" stroke="none" font-family="sans-serif" font-size="12px" font-style="normal" font-weight="normal" text-decoration="normal" x="352" y="362" text-anchor="start" dominant-baseline="alphabetic"></text><path fill="none" stroke="#807f7f" paint-order="fill stroke markers" d=" M 368 368 L 368 336" stroke-linecap="round" stroke-miterlimit="10" stroke-width="3" stroke-dasharray=""/><text fill="#ffffff" stroke="none" font-family="sans-serif" font-size="12px" font-style="normal" font-weight="normal" text-decoration="normal" x="374" y="358" text-anchor="start" dominant-baseline="alphabetic"></text><path fill="none" stroke="#807f7f" paint-order="fill stroke markers" d=" M 368 368 L 368 400" stroke-linecap="round" stroke-miterlimit="10" stroke-width="3" stroke-dasharray=""/><path fill="none" stroke="#807f7f" paint-order="fill stroke markers" d=" M 378 400 L 358 400" stroke-linecap="round" stroke-miterlimit="10" stroke-width="3" stroke-dasharray=""/><path fill="none" stroke="#807f7f" paint-order="fill stroke markers" d=" M 374 405 L 362 405" stroke-linecap="round" stroke-miterlimit="10" stroke-width="3" stroke-dasharray=""/><path fill="none" stroke="#807f7f" paint-order="fill stroke markers" d=" M 370 410 L 366 410" stroke-linecap="round" stroke-miterlimit="10" stroke-width="3" stroke-dasharray=""/><path fill="none" stroke="#01fd01" paint-order="fill stroke markers" d=" M 400 144 L 400 113" stroke-linecap="round" stroke-miterlimit="10" stroke-width="3" stroke-dasharray=""/><g><text fill="#ffffff" stroke="none" font-family="sans-serif" font-size="12px" font-style="normal" font-weight="normal" text-decoration="normal" x="384" y="101" text-anchor="start" dominant-baseline="central">+12V</text></g><path fill="none" stroke="#01fd01" paint-order="fill stroke markers" d=" M 240 320 L 240 340" stroke-linecap="round" stroke-miterlimit="10" stroke-width="3" stroke-dasharray=""/><path fill="none" stroke="#01fd01" paint-order="fill stroke markers" d=" M 252 340 L 228 340" stroke-linecap="round" stroke-miterlimit="10" stroke-width="3" stroke-dasharray=""/><path fill="none" stroke="#807f7f" paint-order="fill stroke markers" d=" M 240 368 L 240 348" stroke-linecap="round" stroke-miterlimit="10" stroke-width="3" stroke-dasharray=""/><path fill="none" stroke="#807f7f" paint-order="fill stroke markers" d=" M 252 348 L 228 348" stroke-linecap="round" stroke-miterlimit="10" stroke-width="3" stroke-dasharray=""/><text fill="#ffffff" stroke="none" font-family="sans-serif" font-size="12px" font-style="normal" font-weight="normal" text-decoration="normal" x="254" y="350" text-anchor="start" dominant-baseline="alphabetic">47nF</text><path fill="none" stroke="#01fd01" paint-order="fill stroke markers" d=" M 240 320 L 240 304" stroke-linecap="round" stroke-miterlimit="10" stroke-width="3" stroke-dasharray=""/><text fill="#ffffff" stroke="none" font-family="sans-serif" font-size="12px" font-style="normal" font-weight="normal" text-decoration="normal" x="246" y="318" text-anchor="start" dominant-baseline="alphabetic"></text><path fill="none" stroke="#817e7e" paint-order="fill stroke markers" d=" M 400 240 L 464 240" stroke-linecap="round" stroke-miterlimit="10" stroke-width="3" stroke-dasharray=""/><text fill="#ffffff" stroke="none" font-family="sans-serif" font-size="12px" font-style="normal" font-weight="normal" text-decoration="normal" x="432" y="234" text-anchor="start" dominant-baseline="alphabetic"></text><path fill="none" stroke="#817e7e" paint-order="fill stroke markers" d=" M 464 240 L 488 240" stroke-linecap="round" stroke-miterlimit="10" stroke-width="3" stroke-dasharray=""/><path fill="none" stroke="#ff0000" paint-order="fill stroke markers" d=" M 520 240 L 544 240" stroke-linecap="round" stroke-miterlimit="10" stroke-width="3" stroke-dasharray=""/><g transform="matrix(1,0,0,1,488,240)"><path fill="none" stroke="url(#PBLykHibhHkK)" paint-order="fill stroke markers" d=" M 0 0 L 2 6 L 6 -6 L 10 6 L 14 -6 L 18 6 L 22 -6 L 26 6 L 30 -6 L 32 0" stroke-linecap="round" stroke-miterlimit="10" stroke-width="3" stroke-dasharray=""/></g><text fill="#ffffff" stroke="none" font-family="sans-serif" font-size="12px" font-style="normal" font-weight="normal" text-decoration="normal" x="491" y="230" text-anchor="start" dominant-baseline="alphabetic">8.5k</text><path fill="none" stroke="#ff0000" paint-order="fill stroke markers" d=" M 544 240 L 544 272" stroke-linecap="round" stroke-miterlimit="10" stroke-width="3" stroke-dasharray=""/><text fill="#ffffff" stroke="none" font-family="sans-serif" font-size="12px" font-style="normal" font-weight="normal" text-decoration="normal" x="550" y="262" text-anchor="start" dominant-baseline="alphabetic"></text><path fill="none" stroke="#ff0000" paint-order="fill stroke markers" d=" M 544 272 L 520 272" stroke-linecap="round" stroke-miterlimit="10" stroke-width="3" stroke-dasharray=""/><path fill="none" stroke="#ff0000" paint-order="fill stroke markers" d=" M 488 272 L 464 272" stroke-linecap="round" stroke-miterlimit="10" stroke-width="3" stroke-dasharray=""/><g transform="matrix(-1,0,0,-1,520,272)"><path fill="none" stroke="url(#FqCXPBlitoxg)" paint-order="fill stroke markers" d=" M 0 0 L 2 6 L 6 -6 L 10 6 L 14 -6 L 18 6 L 22 -6 L 26 6 L 30 -6 L 32 0" stroke-linecap="round" stroke-miterlimit="10" stroke-width="3" stroke-dasharray=""/></g><text fill="#ffffff" stroke="none" font-family="sans-serif" font-size="12px" font-style="normal" font-weight="normal" text-decoration="normal" x="493" y="262" text-anchor="start" dominant-baseline="alphabetic">10k</text><path fill="none" stroke="#ff0000" paint-order="fill stroke markers" d=" M 464 272 L 433 272" stroke-linecap="round" stroke-miterlimit="10" stroke-width="3" stroke-dasharray=""/><g><text fill="#ffffff" stroke="none" font-family="sans-serif" font-size="12px" font-style="normal" font-weight="normal" text-decoration="normal" x="402" y="272" text-anchor="start" dominant-baseline="central">-12V</text></g><path fill="none" stroke="#ff0000" paint-order="fill stroke markers" d=" M 672 288 L 672 368" stroke-linecap="round" stroke-miterlimit="10" stroke-width="3" stroke-dasharray=""/><text fill="#ffffff" stroke="none" font-family="sans-serif" font-size="12px" font-style="normal" font-weight="normal" text-decoration="normal" x="678" y="334" text-anchor="start" dominant-baseline="alphabetic"></text><path fill="none" stroke="#ff0000" paint-order="fill stroke markers" d=" M 672 368 L 624 368" stroke-linecap="round" stroke-miterlimit="10" stroke-width="3" stroke-dasharray=""/><path fill="none" stroke="#976868" paint-order="fill stroke markers" d=" M 592 368 L 544 368" stroke-linecap="round" stroke-miterlimit="10" stroke-width="3" stroke-dasharray=""/><g transform="matrix(-1,0,0,-1,624,368)"><path fill="none" stroke="url(#TkbZMFdtKHrz)" paint-order="fill stroke markers" d=" M 0 0 L 2 6 L 6 -6 L 10 6 L 14 -6 L 18 6 L 22 -6 L 26 6 L 30 -6 L 32 0" stroke-linecap="round" stroke-miterlimit="10" stroke-width="3" stroke-dasharray=""/></g><text fill="#ffffff" stroke="none" font-family="sans-serif" font-size="12px" font-style="normal" font-weight="normal" text-decoration="normal" x="597" y="358" text-anchor="start" dominant-baseline="alphabetic">22k</text><path fill="none" stroke="#976868" paint-order="fill stroke markers" d=" M 544 368 L 544 304" stroke-linecap="round" stroke-miterlimit="10" stroke-width="3" stroke-dasharray=""/><text fill="#ffffff" stroke="none" font-family="sans-serif" font-size="12px" font-style="normal" font-weight="normal" text-decoration="normal" x="550" y="342" text-anchor="start" dominant-baseline="alphabetic"></text><path fill="none" stroke="#976868" paint-order="fill stroke markers" d=" M 544 368 L 472 368" stroke-linecap="round" stroke-miterlimit="10" stroke-width="3" stroke-dasharray=""/><path fill="none" stroke="#807f7f" paint-order="fill stroke markers" d=" M 440 368 L 368 368" stroke-linecap="round" stroke-miterlimit="10" stroke-width="3" stroke-dasharray=""/><g transform="matrix(-1,0,0,-1,472,368)"><path fill="none" stroke="url(#KfelIdMrySaU)" paint-order="fill stroke markers" d=" M 0 0 L 2 6 L 6 -6 L 10 6 L 14 -6 L 18 6 L 22 -6 L 26 6 L 30 -6 L 32 0" stroke-linecap="round" stroke-miterlimit="10" stroke-width="3" stroke-dasharray=""/></g><text fill="#ffffff" stroke="none" font-family="sans-serif" font-size="12px" font-style="normal" font-weight="normal" text-decoration="normal" x="449" y="358" text-anchor="start" dominant-baseline="alphabetic">2k</text><path fill="none" stroke="#976868" paint-order="fill stroke markers" d=" M 544 304 L 576 304" stroke-linecap="round" stroke-miterlimit="10" stroke-width="3" stroke-dasharray=""/><path fill="none" stroke="#ff0000" paint-order="fill stroke markers" d=" M 544 272 L 576 272" stroke-linecap="round" stroke-miterlimit="10" stroke-width="3" stroke-dasharray=""/><path fill="none" stroke="#ff0000" paint-order="fill stroke markers" d=" M 640 288 L 672 288" stroke-linecap="round" stroke-miterlimit="10" stroke-width="3" stroke-dasharray=""/><path fill="none" stroke="#01fd01" paint-order="fill stroke markers" d=" M 608 256 L 608 272" stroke-linecap="round" stroke-miterlimit="10" stroke-width="3" stroke-dasharray=""/><path fill="none" stroke="#ff0000" paint-order="fill stroke markers" d=" M 608 320 L 608 304" stroke-linecap="round" stroke-miterlimit="10" stroke-width="3" stroke-dasharray=""/><path fill="none" stroke="#c0c0c0" paint-order="fill stroke markers" d=" M 576 256 L 576 320 L 640 288 Z" stroke-linecap="round" stroke-miterlimit="10" stroke-width="3" stroke-dasharray=""/><g><text fill="#c0c0c0" stroke="none" font-family="sans-serif" font-size="14px" font-style="normal" font-weight="normal" text-decoration="normal" x="589" y="302" text-anchor="middle" dominant-baseline="central">-</text></g><g><text fill="#c0c0c0" stroke="none" font-family="sans-serif" font-size="14px" font-style="normal" font-weight="normal" text-decoration="normal" x="589" y="272" text-anchor="middle" dominant-baseline="central">+</text></g><path fill="none" stroke="#01fd01" paint-order="fill stroke markers" d=" M 400 144 L 608 144" stroke-linecap="round" stroke-miterlimit="10" stroke-width="3" stroke-dasharray=""/><text fill="#ffffff" stroke="none" font-family="sans-serif" font-size="12px" font-style="normal" font-weight="normal" text-decoration="normal" x="504" y="138" text-anchor="start" dominant-baseline="alphabetic"></text><path fill="none" stroke="#01fd01" paint-order="fill stroke markers" d=" M 608 144 L 608 256" stroke-linecap="round" stroke-miterlimit="10" stroke-width="3" stroke-dasharray=""/><text fill="#ffffff" stroke="none" font-family="sans-serif" font-size="12px" font-style="normal" font-weight="normal" text-decoration="normal" x="614" y="206" text-anchor="start" dominant-baseline="alphabetic"></text><path fill="none" stroke="#ff0000" paint-order="fill stroke markers" d=" M 464 272 L 464 336" stroke-linecap="round" stroke-miterlimit="10" stroke-width="3" stroke-dasharray=""/><text fill="#ffffff" stroke="none" font-family="sans-serif" font-size="12px" font-style="normal" font-weight="normal" text-decoration="normal" x="470" y="310" text-anchor="start" dominant-baseline="alphabetic"></text><path fill="none" stroke="#ff0000" paint-order="fill stroke markers" d=" M 464 336 L 608 336" stroke-linecap="round" stroke-miterlimit="10" stroke-width="3" stroke-dasharray=""/><text fill="#ffffff" stroke="none" font-family="sans-serif" font-size="12px" font-style="normal" font-weight="normal" text-decoration="normal" x="536" y="330" text-anchor="start" dominant-baseline="alphabetic"></text><path fill="none" stroke="#ff0000" paint-order="fill stroke markers" d=" M 608 320 L 608 336" stroke-linecap="round" stroke-miterlimit="10" stroke-width="3" stroke-dasharray=""/><text fill="#ffffff" stroke="none" font-family="sans-serif" font-size="12px" font-style="normal" font-weight="normal" text-decoration="normal" x="614" y="334" text-anchor="start" dominant-baseline="alphabetic"></text><path fill="none" stroke="#ff0000" paint-order="fill stroke markers" d=" M 672 288 L 696 288" stroke-linecap="round" stroke-miterlimit="10" stroke-width="3" stroke-dasharray=""/><path fill="none" stroke="#ff0000" paint-order="fill stroke markers" d=" M 728 288 L 752 288" stroke-linecap="round" stroke-miterlimit="10" stroke-width="3" stroke-dasharray=""/><g transform="matrix(1,0,0,1,696,288)"><path fill="none" stroke="url(#SRKAJXoLgNTX)" paint-order="fill stroke markers" d=" M 0 0 L 2 6 L 6 -6 L 10 6 L 14 -6 L 18 6 L 22 -6 L 26 6 L 30 -6 L 32 0" stroke-linecap="round" stroke-miterlimit="10" stroke-width="3" stroke-dasharray=""/></g><text fill="#ffffff" stroke="none" font-family="sans-serif" font-size="12px" font-style="normal" font-weight="normal" text-decoration="normal" x="705" y="278" text-anchor="start" dominant-baseline="alphabetic">1k</text><path fill="none" stroke="#ff0000" paint-order="fill stroke markers" d=" M 752 288 L 816 288" stroke-linecap="round" stroke-miterlimit="10" stroke-width="3" stroke-dasharray=""/><text fill="#ffffff" stroke="none" font-family="sans-serif" font-size="12px" font-style="normal" font-weight="normal" text-decoration="normal" x="784" y="282" text-anchor="start" dominant-baseline="alphabetic"></text><path fill="#ffffff" stroke="none" paint-order="stroke fill markers" d=" M 339 144 A 3 3 0 1 1 338.99999999995777 143.99998407846124 Z"/><path fill="#ffffff" stroke="none" paint-order="stroke fill markers" d=" M 403 144 A 3 3 0 1 1 402.99999999995777 143.99998407846124 Z"/><path fill="#ffffff" stroke="none" paint-order="stroke fill markers" d=" M 243 208 A 3 3 0 1 1 242.99999999995774 207.99998407846124 Z"/><path fill="#ffffff" stroke="none" paint-order="stroke fill markers" d=" M 243 272 A 3 3 0 1 1 242.99999999995774 271.99998407846124 Z"/><path fill="#ffffff" stroke="none" paint-order="stroke fill markers" d=" M 243 304 A 3 3 0 1 1 242.99999999995774 303.99998407846124 Z"/><path fill="#ffffff" stroke="none" paint-order="stroke fill markers" d=" M 339 368 A 3 3 0 1 1 338.99999999995777 367.99998407846124 Z"/><path fill="#ffffff" stroke="none" paint-order="stroke fill markers" d=" M 371 368 A 3 3 0 1 1 370.99999999995777 367.99998407846124 Z"/><path fill="#ffffff" stroke="none" paint-order="stroke fill markers" d=" M 547 272 A 3 3 0 1 1 546.9999999999577 271.99998407846124 Z"/><path fill="#ffffff" stroke="none" paint-order="stroke fill markers" d=" M 467 272 A 3 3 0 1 1 466.99999999995777 271.99998407846124 Z"/><path fill="#ffffff" stroke="none" paint-order="stroke fill markers" d=" M 675 288 A 3 3 0 1 1 674.9999999999577 287.99998407846124 Z"/><path fill="#ffffff" stroke="none" paint-order="stroke fill markers" d=" M 547 368 A 3 3 0 1 1 546.9999999999577 367.99998407846124 Z"/><path fill="#ffffff" stroke="none" paint-order="stroke fill markers" d=" M 819 288 A 3 3 0 1 1 818.9999999999577 287.99998407846124 Z"/></g></g></svg>